  0
SECTION
  2
HEADER
  9
$ACADVER
  1
AC1009
  9
$DWGCODEPAGE
  3
ANSI_1252
  9
$INSBASE
 10
0.0
 20
0.0
 30
0.0
  9
$EXTMIN
 10
1e+20
 20
1e+20
 30
1e+20
  9
$EXTMAX
 10
-1e+20
 20
-1e+20
 30
-1e+20
  9
$LIMMIN
 10
0.0
 20
0.0
  9
$LIMMAX
 10
420.0
 20
297.0
  9
$ORTHOMODE
 70
0
  9
$REGENMODE
 70
1
  9
$FILLMODE
 70
1
  9
$DRAGMODE
 70
2
  9
$QTEXTMODE
 70
0
  9
$MIRRTEXT
 70
1
  9
$OSMODE
 70
20583
  9
$LTSCALE
 40
1.0
  9
$ATTMODE
 70
1
  9
$TEXTSIZE
 40
2.5
  9
$TRACEWID
 40
1.0
  9
$TEXTSTYLE
  7
Standard
  9
$CLAYER
  8
0
  9
$CELTYPE
  6
ByLayer
  9
$CECOLOR
 62
256
  9
$DIMSCALE
 40
1.0
  9
$DIMASZ
 40
2.5
  9
$DIMEXO
 40
0.625
  9
$DIMDLI
 40
3.75
  9
$DIMRND
 40
0.0
  9
$DIMDLE
 40
0.0
  9
$DIMEXE
 40
1.25
  9
$DIMTP
 40
0.0
  9
$DIMTM
 40
0.0
  9
$DIMTXT
 40
2.5
  9
$DIMCEN
 40
2.5
  9
$DIMTSZ
 40
0.0
  9
$DIMTOL
 70
0
  9
$DIMLIM
 70
0
  9
$DIMTIH
 70
0
  9
$DIMTOH
 70
0
  9
$DIMSE1
 70
0
  9
$DIMSE2
 70
0
  9
$DIMTAD
 70
1
  9
$DIMZIN
 70
8
  9
$DIMBLK
  1

  9
$DIMASO
 70
1
  9
$DIMSHO
 70
1
  9
$DIMPOST
  1

  9
$DIMAPOST
  1

  9
$DIMALT
 70
0
  9
$DIMALTD
 70
3
  9
$DIMALTF
 40
0.03937007874
  9
$DIMLFAC
 40
1.0
  9
$DIMTOFL
 70
1
  9
$DIMTVP
 40
0.0
  9
$DIMTIX
 70
0
  9
$DIMSOXD
 70
0
  9
$DIMSAH
 70
0
  9
$DIMBLK1
  1

  9
$DIMBLK2
  1

  9
$DIMSTYLE
  2
ISO-25
  9
$DIMCLRD
 70
0
  9
$DIMCLRE
 70
0
  9
$DIMCLRT
 70
0
  9
$DIMTFAC
 40
1.0
  9
$DIMGAP
 40
0.625
  9
$COORDS
 70
1
  9
$ATTDIA
 70
0
  9
$ATTREQ
 70
1
  9
$HANDLING
 70
1
  9
$LUNITS
 70
2
  9
$LUPREC
 70
4
  9
$SKETCHINC
 40
1.0
  9
$FILLETRAD
 40
10.0
  9
$AUNITS
 70
0
  9
$AUPREC
 70
2
  9
$MENU
  1
.
  9
$ELEVATION
 40
0.0
  9
$PELEVATION
 40
0.0
  9
$THICKNESS
 40
0.0
  9
$LIMCHECK
 70
0
  9
$CHAMFERA
 40
0.0
  9
$CHAMFERB
 40
0.0
  9
$SKPOLY
 70
0
  9
$TDCREATE
 40
2460077.8380902777
  9
$TDUPDATE
 40
2460077.8380902777
  9
$TDINDWG
 40
0.0
  9
$TDUSRTIMER
 40
0.0
  9
$USRTIMER
 70
1
  9
$ANGBASE
 50
0.0
  9
$ANGDIR
 70
0
  9
$PDMODE
 70
0
  9
$PDSIZE
 40
0.0
  9
$PLINEWID
 40
0.0
  9
$SPLFRAME
 70
0
  9
$SPLINETYPE
 70
6
  9
$SPLINESEGS
 70
8
  9
$HANDSEED
  5
218
  9
$SURFTAB1
 70
6
  9
$SURFTAB2
 70
6
  9
$SURFTYPE
 70
6
  9
$SURFU
 70
6
  9
$SURFV
 70
6
  9
$UCSNAME
  2

  9
$UCSORG
 10
0.0
 20
0.0
 30
0.0
  9
$UCSXDIR
 10
1.0
 20
0.0
 30
0.0
  9
$UCSYDIR
 10
0.0
 20
1.0
 30
0.0
  9
$PUCSNAME
  2

  9
$PUCSORG
 10
0.0
 20
0.0
 30
0.0
  9
$PUCSXDIR
 10
1.0
 20
0.0
 30
0.0
  9
$PUCSYDIR
 10
0.0
 20
1.0
 30
0.0
  9
$USERI1
 70
0
  9
$USERI2
 70
0
  9
$USERI3
 70
0
  9
$USERI4
 70
0
  9
$USERI5
 70
0
  9
$USERR1
 40
0.0
  9
$USERR2
 40
0.0
  9
$USERR3
 40
0.0
  9
$USERR4
 40
0.0
  9
$USERR5
 40
0.0
  9
$WORLDVIEW
 70
1
  9
$SHADEDGE
 70
3
  9
$SHADEDIF
 70
70
  9
$TILEMODE
 70
1
  9
$MAXACTVP
 70
64
  9
$PLIMCHECK
 70
0
  9
$PEXTMIN
 10
1e+20
 20
1e+20
 30
1e+20
  9
$PEXTMAX
 10
-1e+20
 20
-1e+20
 30
-1e+20
  9
$PLIMMIN
 10
0.0
 20
0.0
  9
$PLIMMAX
 10
420.0
 20
297.0
  9
$UNITMODE
 70
0
  9
$VISRETAIN
 70
1
  9
$PLINEGEN
 70
0
  9
$PSLTSCALE
 70
1
  0
ENDSEC
  0
SECTION
  2
TABLES
  0
TABLE
  2
VPORT
 70
1
  0
VPORT
  5
23
  2
*Active
 70
0
 10
0.0
 20
0.0
 11
1.0
 21
1.0
 12
0.0
 22
0.0
 13
0.0
 23
0.0
 14
0.5
 24
0.5
 15
0.5
 25
0.5
 16
0.0
 26
0.0
 36
1.0
 17
0.0
 27
0.0
 37
0.0
 40
1000.0
 41
1.34
 42
50.0
 43
0.0
 44
0.0
 50
0.0
 51
0.0
 71
0
 72
1000
 73
1
 74
3
 75
0
 76
0
 77
0
 78
0
  0
ENDTAB
  0
TABLE
  2
LTYPE
 70
3
  0
LTYPE
  5
24
  2
ByBlock
 70
0
  3

 72
65
 73
0
 40
0.0
  0
LTYPE
  5
25
  2
ByLayer
 70
0
  3

 72
65
 73
0
 40
0.0
  0
LTYPE
  5
26
  2
Continuous
 70
0
  3

 72
65
 73
0
 40
0.0
  0
ENDTAB
  0
TABLE
  2
LAYER
 70
2
  0
LAYER
  5
27
  2
0
 70
0
 62
7
  6
Continuous
  0
LAYER
  5
28
  2
Defpoints
 70
0
 62
7
  6
Continuous
  0
ENDTAB
  0
TABLE
  2
STYLE
 70
1
  0
STYLE
  5
29
  2
Standard
 70
0
 40
0.0
 41
1.0
 50
0.0
 71
0
 42
2.5
  3
txt
  4

  0
ENDTAB
  0
TABLE
  2
VIEW
 70
0
  0
ENDTAB
  0
TABLE
  2
UCS
 70
0
  0
ENDTAB
  0
TABLE
  2
APPID
 70
3
  0
APPID
  5
2A
  2
ACAD
 70
0
  0
APPID
  5
216
  2
HATCHBACKGROUNDCOLOR
 70
0
  0
APPID
  5
217
  2
EZDXF
 70
0
  0
ENDTAB
  0
TABLE
  2
DIMSTYLE
 70
1
  0
DIMSTYLE
105
2B
  2
Standard
 70
0
  3

  4

  5

  6

  7

 40
1.0
 41
2.5
 42
0.625
 43
3.75
 44
1.25
 45
0.0
 46
0.0
 47
0.0
 48
0.0
140
2.5
141
2.5
142
0.0
143
0.03937007874
144
1.0
145
0.0
146
1.0
147
0.625
 71
0
 72
0
 73
0
 74
0
 75
0
 76
0
 77
1
 78
8
170
0
171
3
172
1
173
0
174
0
175
0
176
0
177
0
178
0
  0
ENDTAB
  0
ENDSEC
  0
SECTION
  2
BLOCKS
  0
BLOCK
  5
18
  8
0
  2
$Model_Space
 70
0
 10
0.0
 20
0.0
 30
0.0
  3
$Model_Space
  1

1001
EZDXF
1000
CREATED_BY_EZDXF
1000
1.0.3 @ 2023-05-12T17:06:51.739122+00:00
1000
WRITTEN_BY_EZDXF
1000
1.0.3 @ 2023-05-12T17:06:51.745707+00:00
  0
ENDBLK
  5
19
  8
0
  0
BLOCK
  5
1C
  8
0
  2
$Paper_Space
 70
0
 10
0.0
 20
0.0
 30
0.0
  3
$Paper_Space
  1

  0
ENDBLK
  5
1D
  8
0
  0
ENDSEC
  0
SECTION
  2
ENTITIES
  0
POLYLINE
  5
2D
  8
0
 66
1
 10
0.0
 20
0.0
 30
0.0
 70
0
  0
VERTEX
  5
2F
  8
0
 10
1341.8145215334976
 20
791.9999999999999
 30
0.0
 70
0
  0
VERTEX
  5
30
  8
0
 10
1341.3400344103711
 20
804.350782001625
 30
0.0
 70
0
  0
VERTEX
  5
31
  8
0
 10
1339.9295623969726
 20
816.5535971671882
 30
0.0
 70
0
  0
VERTEX
  5
32
  8
0
 10
1337.6216124725293
 20
828.4652761126052
 30
0.0
 70
0
  0
VERTEX
  5
33
  8
0
 10
1334.4788349455234
 20
839.9521015130894
 30
0.0
 70
0
  0
VERTEX
  5
34
  8
0
 10
1330.5857617033807
 20
850.8941831602101
 30
0.0
 70
0
  0
VERTEX
  5
35
  8
0
 10
1326.0456958561608
 20
861.1894294737953
 30
0.0
 70
0
  0
VERTEX
  5
36
  8
0
 10
1320.9767979768044
 20
870.7570118871
 30
0.0
 70
0
  0
VERTEX
  5
37
  8
0
 10
1315.507409567191
 20
879.5402491521887
 30
0.0
 70
0
  0
VERTEX
  5
38
  8
0
 10
1309.7706328466293
 20
887.5088848452361
 30
0.0
 70
0
  0
VERTEX
  5
39
  8
0
 10
1303.8981386953596
 20
894.6608046812248
 30
0.0
 70
0
  0
VERTEX
  5
3A
  8
0
 10
1298.0130899725918
 20
901.0233652600746
 30
0.0
 70
0
  0
VERTEX
  5
3B
  8
0
 10
1292.221935816468
 20
906.6547353147326
 30
0.0
 70
0
  0
VERTEX
  5
3C
  8
0
 10
1286.6046724596936
 20
911.646096373249
 30
0.0
 70
0
  0
VERTEX
  5
3D
  8
0
 10
1281.2031335372435
 20
916.1264364424305
 30
0.0
 70
0
  0
VERTEX
  5
3E
  8
0
 10
1276.035650147239
 20
920.2510266646294
 30
0.0
 70
0
  0
VERTEX
  5
3F
  8
0
 10
1275.9797546854736
 20
920.2957684833042
 30
0.0
 70
0
  0
VERTEX
  5
40
  8
0
 10
1271.2862702772077
 20
924.0633883978337
 30
0.0
 70
0
  0
VERTEX
  5
41
  8
0
 10
1270.6168839155366
 20
924.6195517133788
 30
0.0
 70
0
  0
VERTEX
  5
42
  8
0
 10
1266.6572291626248
 20
928.023994276035
 30
0.0
 70
0
  0
VERTEX
  5
43
  8
0
 10
1265.1968340055312
 20
929.3813155263825
 30
0.0
 70
0
  0
VERTEX
  5
44
  8
0
 10
1262.0142838538372
 20
932.5775336757092
 30
0.0
 70
0
  0
VERTEX
  5
45
  8
0
 10
1259.75652951531
 20
935.1706124567888
 30
0.0
 70
0
  0
VERTEX
  5
46
  8
0
 10
1257.3662198124161
 20
938.3185107601815
 30
0.0
 70
0
  0
VERTEX
  5
47
  8
0
 10
1255.9851339432369
 20
940.3289597608075
 30
0.0
 70
0
  0
VERTEX
  5
48
  8
0
 10
1254.8019406352112
 20
942.4603513989174
 30
0.0
 70
0
  0
VERTEX
  5
49
  8
0
 10
1253.1904330806321
 20
945.7198491424645
 30
0.0
 70
0
  0
VERTEX
  5
4A
  8
0
 10
1252.1019901247205
 20
948.2576028140536
 30
0.0
 70
0
  0
VERTEX
  5
4B
  8
0
 10
1251.2939567406524
 20
950.896758766826
 30
0.0
 70
0
  0
VERTEX
  5
4C
  8
0
 10
1250.419673418533
 20
954.4228530406675
 30
0.0
 70
0
  0
VERTEX
  5
4D
  8
0
 10
1249.9471236283412
 20
956.8112290368459
 30
0.0
 70
0
  0
VERTEX
  5
4E
  8
0
 10
1249.7044135717927
 20
959.2333398202192
 30
0.0
 70
0
  0
VERTEX
  5
4F
  8
0
 10
1249.498927855041
 20
963.1713186287877
 30
0.0
 70
0
  0
VERTEX
  5
50
  8
0
 10
1249.550845739024
 20
966.5996257888695
 30
0.0
 70
0
  0
VERTEX
  5
51
  8
0
 10
1249.920990333017
 20
971.0805766568094
 30
0.0
 70
0
  0
VERTEX
  5
52
  8
0
 10
1250.16158326083
 20
973.053012687086
 30
0.0
 70
0
  0
VERTEX
  5
53
  8
0
 10
1250.9923113260288
 20
978.1897632530067
 30
0.0
 70
0
  0
VERTEX
  5
54
  8
0
 10
1251.1452747451144
 20
979.0433063732105
 30
0.0
 70
0
  0
VERTEX
  5
55
  8
0
 10
1252.3031871556107
 20
984.9269203375468
 30
0.0
 70
0
  0
VERTEX
  5
56
  8
0
 10
1252.3170593268992
 20
984.9968916699572
 30
0.0
 70
0
  0
VERTEX
  5
57
  8
0
 10
1253.6071299579883
 20
991.456675745547
 30
0.0
 70
0
  0
VERTEX
  5
58
  8
0
 10
1254.8463410548222
 20
998.3384573785653
 30
0.0
 70
0
  0
VERTEX
  5
59
  8
0
 10
1255.9201957218124
 20
1005.7494741814047
 30
0.0
 70
0
  0
VERTEX
  5
5A
  8
0
 10
1256.713197253866
 20
1013.7618200424762
 30
0.0
 70
0
  0
VERTEX
  5
5B
  8
0
 10
1257.1050740382545
 20
1022.3942552231699
 30
0.0
 70
0
  0
VERTEX
  5
5C
  8
0
 10
1256.9766483702977
 20
1031.6233568174348
 30
0.0
 70
0
  0
VERTEX
  5
5D
  8
0
 10
1256.2158733576707
 20
1041.3914243951995
 30
0.0
 70
0
  0
VERTEX
  5
5E
  8
0
 10
1254.723251115367
 20
1051.6127479511579
 30
0.0
 70
0
  0
VERTEX
  5
5F
  8
0
 10
1252.4163941709312
 20
1062.1791452397215
 30
0.0
 70
0
  0
VERTEX
  5
60
  8
0
 10
1249.2336578183435
 20
1072.9652318130295
 30
0.0
 70
0
  0
VERTEX
  5
61
  8
0
 10
1245.1368187825515
 20
1083.8336272583315
 30
0.0
 70
0
  0
VERTEX
  5
62
  8
0
 10
1240.11279161762
 20
1094.6401513284916
 30
0.0
 70
0
  0
VERTEX
  5
63
  8
0
 10
1234.174385496619
 20
1105.2389773008604
 30
0.0
 70
0
  0
VERTEX
  5
64
  8
0
 10
1227.3601174672785
 20
1115.4876607316826
 30
0.0
 70
0
  0
VERTEX
  5
65
  8
0
 10
1219.7331145595242
 20
1125.2519353898144
 30
0.0
 70
0
  0
VERTEX
  5
66
  8
0
 10
1211.3791552037642
 20
1134.410156572721
 30
0.0
 70
0
  0
VERTEX
  5
67
  8
0
 10
1202.4039186783473
 20
1142.8572706378727
 30
0.0
 70
0
  0
VERTEX
  5
68
  8
0
 10
1192.929528128112
 20
1150.508195594213
 30
0.0
 70
0
  0
VERTEX
  5
69
  8
0
 10
1183.0904864421368
 20
1157.3005090582892
 30
0.0
 70
0
  0
VERTEX
  5
6A
  8
0
 10
1173.0291131587474
 20
1163.1963552968507
 30
0.0
 70
0
  0
VERTEX
  5
6B
  8
0
 10
1162.8905923788457
 20
1168.1835011816675
 30
0.0
 70
0
  0
VERTEX
  5
6C
  8
0
 10
1152.8177333279723
 20
1172.2754905766956
 30
0.0
 70
0
  0
VERTEX
  5
6D
  8
0
 10
1142.9455218887813
 20
1175.5108672197703
 30
0.0
 70
0
  0
VERTEX
  5
6E
  8
0
 10
1133.3954950197535
 20
1177.9514578258018
 30
0.0
 70
0
  0
VERTEX
  5
6F
  8
0
 10
1124.2698863281394
 20
1179.6797331275193
 30
0.0
 70
0
  0
VERTEX
  5
70
  8
0
 10
1115.6453453694062
 20
1180.7953062976962
 30
0.0
 70
0
  0
VERTEX
  5
71
  8
0
 10
1107.5657839803712
 20
1181.410719911662
 30
0.0
 70
0
  0
VERTEX
  5
72
  8
0
 10
1100.0334918873748
 20
1181.6469119137748
 30
0.0
 70
0
  0
VERTEX
  5
73
  8
0
 10
1092.997065232542
 20
1181.6294095073195
 30
0.0
 70
0
  0
VERTEX
  5
74
  8
0
 10
1086.3700919919863
 20
1181.4888642714436
 30
0.0
 70
0
  0
VERTEX
  5
75
  8
0
 10
1086.298327347513
 20
1181.487441382175
 30
0.0
 70
0
  0
VERTEX
  5
76
  8
0
 10
1080.2654044583735
 20
1181.3761560164583
 30
0.0
 70
0
  0
VERTEX
  5
77
  8
0
 10
1079.3928084721438
 20
1181.3747045309349
 30
0.0
 70
0
  0
VERTEX
  5
78
  8
0
 10
1074.1569934970673
 20
1181.4538625790951
 30
0.0
 70
0
  0
VERTEX
  5
79
  8
0
 10
1072.1601312351818
 20
1181.5609633515298
 30
0.0
 70
0
  0
VERTEX
  5
7A
  8
0
 10
1067.6543261118695
 20
1181.9769027881653
 30
0.0
 70
0
  0
VERTEX
  5
7B
  8
0
 10
1064.2471636659395
 20
1182.5214228097147
 30
0.0
 70
0
  0
VERTEX
  5
7C
  8
0
 10
1060.3795110187173
 20
1183.4063040067813
 30
0.0
 70
0
  0
VERTEX
  5
7D
  8
0
 10
1058.0208546510587
 20
1184.064379793616
 30
0.0
 70
0
  0
VERTEX
  5
7E
  8
0
 10
1055.7355475433692
 20
1184.9414852384068
 30
0.0
 70
0
  0
VERTEX
  5
7F
  8
0
 10
1052.3922914067907
 20
1186.4092312321716
 30
0.0
 70
0
  0
VERTEX
  5
80
  8
0
 10
1049.9166666666667
 20
1187.6581394756506
 30
0.0
 70
0
  0
VERTEX
  5
81
  8
0
 10
1047.5902447433155
 20
1189.1638073083527
 30
0.0
 70
0
  0
VERTEX
  5
82
  8
0
 10
1044.6392574274937
 20
1191.3065994135854
 30
0.0
 70
0
  0
VERTEX
  5
83
  8
0
 10
1042.732075837721
 20
1192.8344120953773
 30
0.0
 70
0
  0
VERTEX
  5
84
  8
0
 10
1040.9791365883257
 20
1194.534852107194
 30
0.0
 70
0
  0
VERTEX
  5
85
  8
0
 10
1038.2740045025162
 20
1197.42028737065
 30
0.0
 70
0
  0
VERTEX
  5
86
  8
0
 10
1036.0957929770361
 20
1200.079679888142
 30
0.0
 70
0
  0
VERTEX
  5
87
  8
0
 10
1033.4803372441
 20
1203.7486767633645
 30
0.0
 70
0
  0
VERTEX
  5
88
  8
0
 10
1032.3885518378165
 20
1205.4133028338197
 30
0.0
 70
0
  0
VERTEX
  5
89
  8
0
 10
1029.701646321082
 20
1209.8788187245873
 30
0.0
 70
0
  0
VERTEX
  5
8A
  8
0
 10
1029.2666135137924
 20
1210.6303593374305
 30
0.0
 70
0
  0
VERTEX
  5
8B
  8
0
 10
1026.3471538408846
 20
1215.876958988575
 30
0.0
 70
0
  0
VERTEX
  5
8C
  8
0
 10
1026.3125117785785
 20
1215.9394194706413
 30
0.0
 70
0
  0
VERTEX
  5
8D
  8
0
 10
1023.1215312649283
 20
1221.7117926381543
 30
0.0
 70
0
  0
VERTEX
  5
8E
  8
0
 10
1019.6185738916392
 20
1227.7749537264317
 30
0.0
 70
0
  0
VERTEX
  5
8F
  8
0
 10
1015.6465513355955
 20
1234.1379291472715
 30
0.0
 70
0
  0
VERTEX
  5
90
  8
0
 10
1011.0703460135005
 20
1240.7821851390518
 30
0.0
 70
0
  0
VERTEX
  5
91
  8
0
 10
1005.7856873568694
 20
1247.645282561713
 30
0.0
 70
0
  0
VERTEX
  5
92
  8
0
 10
999.716433667015
 20
1254.6331667082604
 30
0.0
 70
0
  0
VERTEX
  5
93
  8
0
 10
992.8140820046801
 20
1261.630078791128
 30
0.0
 70
0
  0
VERTEX
  5
94
  8
0
 10
985.0578636462814
 20
1268.5068177487658
 30
0.0
 70
0
  0
VERTEX
  5
95
  8
0
 10
976.4546558802144
 20
1275.1278951888426
 30
0.0
 70
0
  0
VERTEX
  5
96
  8
0
 10
967.0383550393693
 20
1281.3578922402241
 30
0.0
 70
0
  0
VERTEX
  5
97
  8
0
 10
956.868560241784
 20
1287.0671584660884
 30
0.0
 70
0
  0
VERTEX
  5
98
  8
0
 10
946.0285265312282
 20
1292.1368884923609
 30
0.0
 70
0
  0
VERTEX
  5
99
  8
0
 10
934.6224105868325
 20
1296.4635530263795
 30
0.0
 70
0
  0
VERTEX
  5
9A
  8
0
 10
922.771874257834
 20
1299.9626318437508
 30
0.0
 70
0
  0
VERTEX
  5
9B
  8
0
 10
910.6121407444333
 20
1302.5715865280245
 30
0.0
 70
0
  0
VERTEX
  5
9C
  8
0
 10
898.2876195825168
 20
1304.2520134184383
 30
0.0
 70
0
  0
VERTEX
  5
9D
  8
0
 10
885.9472314639663
 20
1304.9909278328798
 30
0.0
 70
0
  0
VERTEX
  5
9E
  8
0
 10
873.7395729225162
 20
1304.8011459825113
 30
0.0
 70
0
  0
VERTEX
  5
9F
  8
0
 10
861.8080640312072
 20
1303.7207485521837
 30
0.0
 70
0
  0
VERTEX
  5
A0
  8
0
 10
850.2862190855783
 20
1301.8116274021302
 30
0.0
 70
0
  0
VERTEX
  5
A1
  8
0
 10
839.2931699230181
 20
1299.157131872721
 30
0.0
 70
0
  0
VERTEX
  5
A2
  8
0
 10
828.9295523978896
 20
1295.8588409341407
 30
0.0
 70
0
  0
VERTEX
  5
A3
  8
0
 10
819.273835378928
 20
1292.0324882667014
 30
0.0
 70
0
  0
VERTEX
  5
A4
  8
0
 10
810.379122070178
 20
1287.8030543170125
 30
0.0
 70
0
  0
VERTEX
  5
A5
  8
0
 10
802.2703725648682
 20
1283.2990058631442
 30
0.0
 70
0
  0
VERTEX
  5
A6
  8
0
 10
794.9418579358577
 20
1278.645602540108
 30
0.0
 70
0
  0
VERTEX
  5
A7
  8
0
 10
788.3544058821635
 20
1273.957100843846
 30
0.0
 70
0
  0
VERTEX
  5
A8
  8
0
 10
782.4315282353627
 20
1269.3276069267854
 30
0.0
 70
0
  0
VERTEX
  5
A9
  8
0
 10
777.0526360811118
 20
1264.8204516151907
 30
0.0
 70
0
  0
VERTEX
  5
AA
  8
0
 10
772.067007419865
 20
1260.4805335990927
 30
0.0
 70
0
  0
VERTEX
  5
AB
  8
0
 10
772.0129530674085
 20
1260.433611787584
 30
0.0
 70
0
  0
VERTEX
  5
AC
  8
0
 10
767.4634633656935
 20
1256.4954928010384
 30
0.0
 70
0
  0
VERTEX
  5
AD
  8
0
 10
766.7959551146853
 20
1255.9371056806544
 30
0.0
 70
0
  0
VERTEX
  5
AE
  8
0
 10
762.7338759338844
 20
1252.653940283841
 30
0.0
 70
0
  0
VERTEX
  5
AF
  8
0
 10
761.1349006121951
 20
1251.4607069366482
 30
0.0
 70
0
  0
VERTEX
  5
B0
  8
0
 10
757.4141568109085
 20
1248.901744975539
 30
0.0
 70
0
  0
VERTEX
  5
B1
  8
0
 10
754.4518354324186
 20
1247.1429192678092
 30
0.0
 70
0
  0
VERTEX
  5
B2
  8
0
 10
750.9165574986747
 20
1245.3507376120833
 30
0.0
 70
0
  0
VERTEX
  5
B3
  8
0
 10
748.6839721605104
 20
1244.3485192107687
 30
0.0
 70
0
  0
VERTEX
  5
B4
  8
0
 10
746.3658718472051
 20
1243.5609310766815
 30
0.0
 70
0
  0
VERTEX
  5
B5
  8
0
 10
742.8552138310852
 20
1242.5501506580017
 30
0.0
 70
0
  0
VERTEX
  5
B6
  8
0
 10
740.1507796361565
 20
1241.9258354261774
 30
0.0
 70
0
  0
VERTEX
  5
B7
  8
0
 10
737.3945278467569
 20
1241.5934964262538
 30
0.0
 70
0
  0
VERTEX
  5
B8
  8
0
 10
733.747636298877
 20
1241.3503501223581
 30
0.0
 70
0
  0
VERTEX
  5
B9
  8
0
 10
731.2982143713406
 20
1241.3027189562067
 30
0.0
 70
0
  0
VERTEX
  5
BA
  8
0
 10
728.8552656856405
 20
1241.4858334166524
 30
0.0
 70
0
  0
VERTEX
  5
BB
  8
0
 10
724.9162485979173
 20
1241.9685979071837
 30
0.0
 70
0
  0
VERTEX
  5
BC
  8
0
 10
721.5271170438714
 20
1242.6147164672957
 30
0.0
 70
0
  0
VERTEX
  5
BD
  8
0
 10
717.1498617889995
 20
1243.7549949355257
 30
0.0
 70
0
  0
VERTEX
  5
BE
  8
0
 10
715.2365565740622
 20
1244.3329140075355
 30
0.0
 70
0
  0
VERTEX
  5
BF
  8
0
 10
710.289250428303
 20
1246.0377307091787
 30
0.0
 70
0
  0
VERTEX
  5
C0
  8
0
 10
709.4697780800207
 20
1246.3356146094688
 30
0.0
 70
0
  0
VERTEX
  5
C1
  8
0
 10
703.8389939508425
 20
1248.490257661191
 30
0.0
 70
0
  0
VERTEX
  5
C2
  8
0
 10
703.7720470608979
 20
1248.5159813391838
 30
0.0
 70
0
  0
VERTEX
  5
C3
  8
0
 10
697.5931106486437
 20
1250.8999860407564
 30
0.0
 70
0
  0
VERTEX
  5
C4
  8
0
 10
690.987057491229
 20
1253.307506126561
 30
0.0
 70
0
  0
VERTEX
  5
C5
  8
0
 10
683.8277112102376
 20
1255.6451332493932
 30
0.0
 70
0
  0
VERTEX
  5
C6
  8
0
 10
676.0235563630598
 20
1257.812378150651
 30
0.0
 70
0
  0
VERTEX
  5
C7
  8
0
 10
667.5351127832834
 20
1259.6948182563854
 30
0.0
 70
0
  0
VERTEX
  5
C8
  8
0
 10
658.3649023252569
 20
1261.1717763013621
 30
0.0
 70
0
  0
VERTEX
  5
C9
  8
0
 10
648.5506610671149
 20
1262.1235999637433
 30
0.0
 70
0
  0
VERTEX
  5
CA
  8
0
 10
638.1600673632821
 20
1262.4380517383406
 30
0.0
 70
0
  0
VERTEX
  5
CB
  8
0
 10
627.2860453033281
 20
1262.0157336106404
 30
0.0
 70
0
  0
VERTEX
  5
CC
  8
0
 10
616.0421717881849
 20
1260.7745562810492
 30
0.0
 70
0
  0
VERTEX
  5
CD
  8
0
 10
604.5579812392753
 20
1258.653264168968
 30
0.0
 70
0
  0
VERTEX
  5
CE
  8
0
 10
592.974113229821
 20
1255.6140171282862
 30
0.0
 70
0
  0
VERTEX
  5
CF
  8
0
 10
581.4373358772704
 20
1251.6440258029677
 30
0.0
 70
0
  0
VERTEX
  5
D0
  8
0
 10
570.0955289009946
 20
1246.7562421403104
 30
0.0
 70
0
  0
VERTEX
  5
D1
  8
0
 10
559.0927392332512
 20
1240.9891179586525
 30
0.0
 70
0
  0
VERTEX
  5
D2
  8
0
 10
548.5644366886343
 20
1234.4054601386852
 30
0.0
 70
0
  0
VERTEX
  5
D3
  8
0
 10
538.633101725757
 20
1227.0904286357797
 30
0.0
 70
0
  0
VERTEX
  5
D4
  8
0
 10
529.4042742976499
 20
1219.1487410156806
 30
0.0
 70
0
  0
VERTEX
  5
D5
  8
0
 10
520.9631838152012
 20
1210.7011626558792
 30
0.0
 70
0
  0
VERTEX
  5
D6
  8
0
 10
513.3720665084346
 20
1201.8803731208388
 30
0.0
 70
0
  0
VERTEX
  5
D7
  8
0
 10
506.6682588405105
 20
1192.826304136846
 30
0.0
 70
0
  0
VERTEX
  5
D8
  8
0
 10
500.8631346599142
 20
1183.6810398512396
 30
0.0
 70
0
  0
VERTEX
  5
D9
  8
0
 10
495.9419293656949
 20
1174.5833508115543
 30
0.0
 70
0
  0
VERTEX
  5
DA
  8
0
 10
491.86446482811397
 20
1165.6628914561265
 30
0.0
 70
0
  0
VERTEX
  5
DB
  8
0
 10
488.5667485213565
 20
1157.034013575161
 30
0.0
 70
0
  0
VERTEX
  5
DC
  8
0
 10
485.96335366434937
 20
1148.789012890577
 30
0.0
 70
0
  0
VERTEX
  5
DD
  8
0
 10
483.9503529732945
 20
1140.9903979346602
 30
0.0
 70
0
  0
VERTEX
  5
DE
  8
0
 10
482.40827004907806
 20
1133.6614097533125
 30
0.0
 70
0
  0
VERTEX
  5
DF
  8
0
 10
481.2037558141131
 20
1126.7735495983247
 30
0.0
 70
0
  0
VERTEX
  5
E0
  8
0
 10
480.192302791863
 20
1120.2649546745542
 30
0.0
 70
0
  0
VERTEX
  5
E1
  8
0
 10
480.18125136368394
 20
1120.1944891778867
 30
0.0
 70
0
  0
VERTEX
  5
E2
  8
0
 10
479.24395164277183
 20
1114.272226211635
 30
0.0
 70
0
  0
VERTEX
  5
E3
  8
0
 10
479.0938656561605
 20
1113.4181789957997
 30
0.0
 70
0
  0
VERTEX
  5
E4
  8
0
 10
478.1062142633131
 20
1108.3089197315005
 30
0.0
 70
0
  0
VERTEX
  5
E5
  8
0
 10
477.6533042054696
 20
1106.3736794091437
 30
0.0
 70
0
  0
VERTEX
  5
E6
  8
0
 10
476.45859910229177
 20
1102.037182791587
 30
0.0
 70
0
  0
VERTEX
  5
E7
  8
0
 10
475.3272218867724
 20
1098.7979854503947
 30
0.0
 70
0
  0
VERTEX
  5
E8
  8
0
 10
473.77851450194316
 20
1095.1673226564708
 30
0.0
 70
0
  0
VERTEX
  5
E9
  8
0
 10
472.71665168542233
 20
1092.9737591953995
 30
0.0
 70
0
  0
VERTEX
  5
EA
  8
0
 10
471.4504230659118
 20
1090.889998723441
 30
0.0
 70
0
  0
VERTEX
  5
EB
  8
0
 10
469.4150390726111
 20
1087.87364728379
 30
0.0
 70
0
  0
VERTEX
  5
EC
  8
0
 10
467.7472302391235
 20
1085.6682326121238
 30
0.0
 70
0
  0
VERTEX
  5
ED
  8
0
 10
465.8508294282629
 20
1083.6533918911753
 30
0.0
 70
0
  0
VERTEX
  5
EE
  8
0
 10
463.21445473426246
 20
1081.1380780360137
 30
0.0
 70
0
  0
VERTEX
  5
EF
  8
0
 10
461.36890421114845
 20
1079.5372901739224
 30
0.0
 70
0
  0
VERTEX
  5
F0
  8
0
 10
459.37902892953207
 20
1078.1173977918638
 30
0.0
 70
0
  0
VERTEX
  5
F1
  8
0
 10
456.0492367125396
 20
1075.9716006390215
 30
0.0
 70
0
  0
VERTEX
  5
F2
  8
0
 10
453.03499745006854
 20
1074.3021191866699
 30
0.0
 70
0
  0
VERTEX
  5
F3
  8
0
 10
448.94410905478884
 20
1072.380130279839
 30
0.0
 70
0
  0
VERTEX
  5
F4
  8
0
 10
447.10454080528535
 20
1071.600927596754
 30
0.0
 70
0
  0
VERTEX
  5
F5
  8
0
 10
442.2117335592855
 20
1069.747342427647
 30
0.0
 70
0
  0
VERTEX
  5
F6
  8
0
 10
441.39126188919255
 20
1069.4521864278279
 30
0.0
 70
0
  0
VERTEX
  5
F7
  8
0
 10
435.68385977698125
 20
1067.5066914500367
 30
0.0
 70
0
  0
VERTEX
  5
F8
  8
0
 10
435.61593325323526
 20
1067.4836419291357
 30
0.0
 70
0
  0
VERTEX
  5
F9
  8
0
 10
429.3402339609
 20
1065.3637758696418
 30
0.0
 70
0
  0
VERTEX
  5
FA
  8
0
 10
422.7221307098153
 20
1062.9891495482204
 30
0.0
 70
0
  0
VERTEX
  5
FB
  8
0
 10
415.72539839602376
 20
1060.2076266624408
 30
0.0
 70
0
  0
VERTEX
  5
FC
  8
0
 10
408.34494481027684
 20
1056.8837824976333
 30
0.0
 70
0
  0
VERTEX
  5
FD
  8
0
 10
400.62455339687705
 20
1052.904750639975
 30
0.0
 70
0
  0
VERTEX
  5
FE
  8
0
 10
392.6442295595245
 20
1048.179697499577
 30
0.0
 70
0
  0
VERTEX
  5
FF
  8
0
 10
384.51029126340217
 20
1042.641063871502
 30
0.0
 70
0
  0
VERTEX
  5
100
  8
0
 10
376.3471964867429
 20
1036.246092982983
 30
0.0
 70
0
  0
VERTEX
  5
101
  8
0
 10
368.2904359060507
 20
1028.9779866329993
 30
0.0
 70
0
  0
VERTEX
  5
102
  8
0
 10
360.48012309607856
 20
1020.8463955891004
 30
0.0
 70
0
  0
VERTEX
  5
103
  8
0
 10
353.055117186241
 20
1011.8871212938525
 30
0.0
 70
0
  0
VERTEX
  5
104
  8
0
 10
346.1476354598634
 20
1002.1609946540198
 30
0.0
 70
0
  0
VERTEX
  5
105
  8
0
 10
339.87838303941527
 20
991.7519505320191
 30
0.0
 70
0
  0
VERTEX
  5
106
  8
0
 10
334.35226295020476
 20
980.7643526867558
 30
0.0
 70
0
  0
VERTEX
  5
107
  8
0
 10
329.65474469604277
 20
969.3196511382092
 30
0.0
 70
0
  0
VERTEX
  5
108
  8
0
 10
325.8489705384007
 20
957.5524752710303
 30
0.0
 70
0
  0
VERTEX
  5
109
  8
0
 10
322.97367073482116
 20
945.6062823885072
 30
0.0
 70
0
  0
VERTEX
  5
10A
  8
0
 10
321.0419453406591
 20
933.6286928981474
 30
0.0
 70
0
  0
VERTEX
  5
10B
  8
0
 10
320.0409533160794
 20
921.7666494077996
 30
0.0
 70
0
  0
VERTEX
  5
10C
  8
0
 10
319.93253180188344
 20
910.1615369433738
 30
0.0
 70
0
  0
VERTEX
  5
10D
  8
0
 10
320.65475174093996
 20
898.9443940071751
 30
0.0
 70
0
  0
VERTEX
  5
10E
  8
0
 10
322.1244030257457
 20
888.2313271720707
 30
0.0
 70
0
  0
VERTEX
  5
10F
  8
0
 10
324.2403961065386
 20
878.1192115713578
 30
0.0
 70
0
  0
VERTEX
  5
110
  8
0
 10
326.88807131323153
 20
868.6817088824588
 30
0.0
 70
0
  0
VERTEX
  5
111
  8
0
 10
329.94442631499237
 20
859.9655494341935
 30
0.0
 70
0
  0
VERTEX
  5
112
  8
0
 10
333.28430861709336
 20
851.986878841356
 30
0.0
 70
0
  0
VERTEX
  5
113
  8
0
 10
336.78766468403273
 20
844.7272092356094
 30
0.0
 70
0
  0
VERTEX
  5
114
  8
0
 10
340.3479342209855
 20
838.1280418126559
 30
0.0
 70
0
  0
VERTEX
  5
115
  8
0
 10
343.8814035025302
 20
832.0823831308351
 30
0.0
 70
0
  0
VERTEX
  5
116
  8
0
 10
347.3173962294355
 20
826.4505551991974
 30
0.0
 70
0
  0
VERTEX
  5
117
  8
0
 10
347.35451881160185
 20
826.3895176064009
 30
0.0
 70
0
  0
VERTEX
  5
118
  8
0
 10
350.4679820278336
 20
821.2542033209731
 30
0.0
 70
0
  0
VERTEX
  5
119
  8
0
 10
350.905545206775
 20
820.5041141936521
 30
0.0
 70
0
  0
VERTEX
  5
11A
  8
0
 10
353.45445466511694
 20
815.9594402547242
 30
0.0
 70
0
  0
VERTEX
  5
11B
  8
0
 10
354.3595315207186
 20
814.1877134118345
 30
0.0
 70
0
  0
VERTEX
  5
11C
  8
0
 10
356.2498809110945
 20
810.1027770999766
 30
0.0
 70
0
  0
VERTEX
  5
11D
  8
0
 10
357.47883183154465
 20
806.8988645609351
 30
0.0
 70
0
  0
VERTEX
  5
11E
  8
0
 10
358.64135239295723
 20
803.1285481004124
 30
0.0
 70
0
  0
VERTEX
  5
11F
  8
0
 10
359.24706951122016
 20
800.7700323017615
 30
0.0
 70
0
  0
VERTEX
  5
120
  8
0
 10
359.6251950291367
 20
798.365114175179
 30
0.0
 70
0
  0
VERTEX
  5
121
  8
0
 10
360.0174638498937
 20
794.7545760761816
 30
0.0
 70
0
  0
VERTEX
  5
122
  8
0
 10
360.16666666666663
 20
792.0000000000001
 30
0.0
 70
0
  0
VERTEX
  5
123
  8
0
 10
360.0174638498937
 20
789.2454239238186
 30
0.0
 70
0
  0
VERTEX
  5
124
  8
0
 10
359.6251950291367
 20
785.634885824821
 30
0.0
 70
0
  0
VERTEX
  5
125
  8
0
 10
359.2470695112202
 20
783.2299676982384
 30
0.0
 70
0
  0
VERTEX
  5
126
  8
0
 10
358.64135239295723
 20
780.8714518995874
 30
0.0
 70
0
  0
VERTEX
  5
127
  8
0
 10
357.4788318315447
 20
777.101135439065
 30
0.0
 70
0
  0
VERTEX
  5
128
  8
0
 10
356.2498809110944
 20
773.897222900023
 30
0.0
 70
0
  0
VERTEX
  5
129
  8
0
 10
354.3595315207184
 20
769.8122865881652
 30
0.0
 70
0
  0
VERTEX
  5
12A
  8
0
 10
353.45445466511694
 20
768.0405597452758
 30
0.0
 70
0
  0
VERTEX
  5
12B
  8
0
 10
350.905545206775
 20
763.4958858063479
 30
0.0
 70
0
  0
VERTEX
  5
12C
  8
0
 10
350.4679820278335
 20
762.7457966790267
 30
0.0
 70
0
  0
VERTEX
  5
12D
  8
0
 10
347.3545188116018
 20
757.6104823935991
 30
0.0
 70
0
  0
VERTEX
  5
12E
  8
0
 10
347.3173962294357
 20
757.549444800803
 30
0.0
 70
0
  0
VERTEX
  5
12F
  8
0
 10
343.8814035025305
 20
751.9176168691654
 30
0.0
 70
0
  0
VERTEX
  5
130
  8
0
 10
340.34793422098517
 20
745.8719581873437
 30
0.0
 70
0
  0
VERTEX
  5
131
  8
0
 10
336.7876646840327
 20
739.2727907643902
 30
0.0
 70
0
  0
VERTEX
  5
132
  8
0
 10
333.2843086170933
 20
732.0131211586443
 30
0.0
 70
0
  0
VERTEX
  5
133
  8
0
 10
329.9444263149924
 20
724.0344505658064
 30
0.0
 70
0
  0
VERTEX
  5
134
  8
0
 10
326.8880713132312
 20
715.3182911175406
 30
0.0
 70
0
  0
VERTEX
  5
135
  8
0
 10
324.2403961065389
 20
705.8807884286432
 30
0.0
 70
0
  0
VERTEX
  5
136
  8
0
 10
322.1244030257459
 20
695.76867282793
 30
0.0
 70
0
  0
VERTEX
  5
137
  8
0
 10
320.65475174093996
 20
685.0556059928244
 30
0.0
 70
0
  0
VERTEX
  5
138
  8
0
 10
319.93253180188344
 20
673.8384630566262
 30
0.0
 70
0
  0
VERTEX
  5
139
  8
0
 10
320.0409533160794
 20
662.2333505922006
 30
0.0
 70
0
  0
VERTEX
  5
13A
  8
0
 10
321.04194534065914
 20
650.371307101853
 30
0.0
 70
0
  0
VERTEX
  5
13B
  8
0
 10
322.97367073482104
 20
638.393717611493
 30
0.0
 70
0
  0
VERTEX
  5
13C
  8
0
 10
325.8489705384009
 20
626.4475247289695
 30
0.0
 70
0
  0
VERTEX
  5
13D
  8
0
 10
329.6547446960429
 20
614.6803488617904
 30
0.0
 70
0
  0
VERTEX
  5
13E
  8
0
 10
334.35226295020476
 20
603.2356473132443
 30
0.0
 70
0
  0
VERTEX
  5
13F
  8
0
 10
339.8783830394153
 20
592.2480494679808
 30
0.0
 70
0
  0
VERTEX
  5
140
  8
0
 10
346.1476354598634
 20
581.8390053459802
 30
0.0
 70
0
  0
VERTEX
  5
141
  8
0
 10
353.05511718624115
 20
572.1128787061474
 30
0.0
 70
0
  0
VERTEX
  5
142
  8
0
 10
360.48012309607833
 20
563.1536044108998
 30
0.0
 70
0
  0
VERTEX
  5
143
  8
0
 10
368.29043590605113
 20
555.0220133670002
 30
0.0
 70
0
  0
VERTEX
  5
144
  8
0
 10
376.3471964867426
 20
547.7539070170171
 30
0.0
 70
0
  0
VERTEX
  5
145
  8
0
 10
384.510291263402
 20
541.358936128498
 30
0.0
 70
0
  0
VERTEX
  5
146
  8
0
 10
392.6442295595246
 20
535.8203025004227
 30
0.0
 70
0
  0
VERTEX
  5
147
  8
0
 10
400.6245533968771
 20
531.0952493600249
 30
0.0
 70
0
  0
VERTEX
  5
148
  8
0
 10
408.3449448102764
 20
527.1162175023669
 30
0.0
 70
0
  0
VERTEX
  5
149
  8
0
 10
415.7253983960236
 20
523.7923733375594
 30
0.0
 70
0
  0
VERTEX
  5
14A
  8
0
 10
422.7221307098153
 20
521.0108504517798
 30
0.0
 70
0
  0
VERTEX
  5
14B
  8
0
 10
429.3402339609002
 20
518.6362241303582
 30
0.0
 70
0
  0
VERTEX
  5
14C
  8
0
 10
435.6159332532353
 20
516.5163580708642
 30
0.0
 70
0
  0
VERTEX
  5
14D
  8
0
 10
435.683859776981
 20
516.4933085499633
 30
0.0
 70
0
  0
VERTEX
  5
14E
  8
0
 10
441.39126188919215
 20
514.5478135721723
 30
0.0
 70
0
  0
VERTEX
  5
14F
  8
0
 10
442.2117335592858
 20
514.2526575723529
 30
0.0
 70
0
  0
VERTEX
  5
150
  8
0
 10
447.10454080528575
 20
512.3990724032458
 30
0.0
 70
0
  0
VERTEX
  5
151
  8
0
 10
448.9441090547883
 20
511.61986972016103
 30
0.0
 70
0
  0
VERTEX
  5
152
  8
0
 10
453.03499745006803
 20
509.69788081333036
 30
0.0
 70
0
  0
VERTEX
  5
153
  8
0
 10
456.0492367125399
 20
508.0283993609784
 30
0.0
 70
0
  0
VERTEX
  5
154
  8
0
 10
459.37902892953247
 20
505.88260220813584
 30
0.0
 70
0
  0
VERTEX
  5
155
  8
0
 10
461.36890421114884
 20
504.4627098260774
 30
0.0
 70
0
  0
VERTEX
  5
156
  8
0
 10
463.21445473426274
 20
502.8619219639861
 30
0.0
 70
0
  0
VERTEX
  5
157
  8
0
 10
465.850829428263
 20
500.34660810882457
 30
0.0
 70
0
  0
VERTEX
  5
158
  8
0
 10
467.7472302391234
 20
498.33176738787625
 30
0.0
 70
0
  0
VERTEX
  5
159
  8
0
 10
469.4150390726105
 20
496.12635271621065
 30
0.0
 70
0
  0
VERTEX
  5
15A
  8
0
 10
471.4504230659113
 20
493.1100012765597
 30
0.0
 70
0
  0
VERTEX
  5
15B
  8
0
 10
472.7166516854221
 20
491.026240804601
 30
0.0
 70
0
  0
VERTEX
  5
15C
  8
0
 10
473.7785145019432
 20
488.8326773435291
 30
0.0
 70
0
  0
VERTEX
  5
15D
  8
0
 10
475.3272218867725
 20
485.20201454960494
 30
0.0
 70
0
  0
VERTEX
  5
15E
  8
0
 10
476.45859910229154
 20
481.9628172084136
 30
0.0
 70
0
  0
VERTEX
  5
15F
  8
0
 10
477.6533042054695
 20
477.626320590857
 30
0.0
 70
0
  0
VERTEX
  5
160
  8
0
 10
478.10621426331295
 20
475.6910802685001
 30
0.0
 70
0
  0
VERTEX
  5
161
  8
0
 10
479.0938656561605
 20
470.58182100420066
 30
0.0
 70
0
  0
VERTEX
  5
162
  8
0
 10
479.24395164277223
 20
469.727773788364
 30
0.0
 70
0
  0
VERTEX
  5
163
  8
0
 10
480.18125136368405
 20
463.8055108221123
 30
0.0
 70
0
  0
VERTEX
  5
164
  8
0
 10
480.1923027918627
 20
463.7350453254468
 30
0.0
 70
0
  0
VERTEX
  5
165
  8
0
 10
481.20375581411344
 20
457.22645040167436
 30
0.0
 70
0
  0
VERTEX
  5
166
  8
0
 10
482.40827004907794
 20
450.3385902466876
 30
0.0
 70
0
  0
VERTEX
  5
167
  8
0
 10
483.9503529732945
 20
443.0096020653405
 30
0.0
 70
0
  0
VERTEX
  5
168
  8
0
 10
485.96335366434977
 20
435.2109871094219
 30
0.0
 70
0
  0
VERTEX
  5
169
  8
0
 10
488.56674852135626
 20
426.9659864248395
 30
0.0
 70
0
  0
VERTEX
  5
16A
  8
0
 10
491.8644648281138
 20
418.33710854387334
 30
0.0
 70
0
  0
VERTEX
  5
16B
  8
0
 10
495.9419293656945
 20
409.41664918844646
 30
0.0
 70
0
  0
VERTEX
  5
16C
  8
0
 10
500.86313465991486
 20
400.31896014875934
 30
0.0
 70
0
  0
VERTEX
  5
16D
  8
0
 10
506.6682588405101
 20
391.1736958631546
 30
0.0
 70
0
  0
VERTEX
  5
16E
  8
0
 10
513.3720665084343
 20
382.11962687916173
 30
0.0
 70
0
  0
VERTEX
  5
16F
  8
0
 10
520.9631838152013
 20
373.2988373441208
 30
0.0
 70
0
  0
VERTEX
  5
170
  8
0
 10
529.4042742976499
 20
364.8512589843194
 30
0.0
 70
0
  0
VERTEX
  5
171
  8
0
 10
538.6331017257573
 20
356.9095713642199
 30
0.0
 70
0
  0
VERTEX
  5
172
  8
0
 10
548.564436688634
 20
349.59453986131524
 30
0.0
 70
0
  0
VERTEX
  5
173
  8
0
 10
559.092739233251
 20
343.01088204134777
 30
0.0
 70
0
  0
VERTEX
  5
174
  8
0
 10
570.0955289009953
 20
337.2437578596892
 30
0.0
 70
0
  0
VERTEX
  5
175
  8
0
 10
581.4373358772694
 20
332.35597419703265
 30
0.0
 70
0
  0
VERTEX
  5
176
  8
0
 10
592.9741132298215
 20
328.38598287171385
 30
0.0
 70
0
  0
VERTEX
  5
177
  8
0
 10
604.5579812392745
 20
325.3467358310322
 30
0.0
 70
0
  0
VERTEX
  5
178
  8
0
 10
616.0421717881857
 20
323.2254437189507
 30
0.0
 70
0
  0
VERTEX
  5
179
  8
0
 10
627.2860453033281
 20
321.98426638935945
 30
0.0
 70
0
  0
VERTEX
  5
17A
  8
0
 10
638.1600673632809
 20
321.5619482616591
 30
0.0
 70
0
  0
VERTEX
  5
17B
  8
0
 10
648.5506610671138
 20
321.87640003625677
 30
0.0
 70
0
  0
VERTEX
  5
17C
  8
0
 10
658.3649023252572
 20
322.82822369863806
 30
0.0
 70
0
  0
VERTEX
  5
17D
  8
0
 10
667.5351127832845
 20
324.30518174361475
 30
0.0
 70
0
  0
VERTEX
  5
17E
  8
0
 10
676.0235563630588
 20
326.18762184934866
 30
0.0
 70
0
  0
VERTEX
  5
17F
  8
0
 10
683.8277112102373
 20
328.3548667506067
 30
0.0
 70
0
  0
VERTEX
  5
180
  8
0
 10
690.9870574912281
 20
330.69249387343876
 30
0.0
 70
0
  0
VERTEX
  5
181
  8
0
 10
697.5931106486447
 20
333.1000139592439
 30
0.0
 70
0
  0
VERTEX
  5
182
  8
0
 10
703.7720470608974
 20
335.4840186608161
 30
0.0
 70
0
  0
VERTEX
  5
183
  8
0
 10
703.8389939508426
 20
335.50974233880896
 30
0.0
 70
0
  0
VERTEX
  5
184
  8
0
 10
709.4697780800207
 20
337.6643853905312
 30
0.0
 70
0
  0
VERTEX
  5
185
  8
0
 10
710.2892504283025
 20
337.96226929082104
 30
0.0
 70
0
  0
VERTEX
  5
186
  8
0
 10
715.2365565740614
 20
339.66708599246437
 30
0.0
 70
0
  0
VERTEX
  5
187
  8
0
 10
717.1498617889997
 20
340.24500506447447
 30
0.0
 70
0
  0
VERTEX
  5
188
  8
0
 10
721.5271170438716
 20
341.3852835327044
 30
0.0
 70
0
  0
VERTEX
  5
189
  8
0
 10
724.9162485979173
 20
342.0314020928163
 30
0.0
 70
0
  0
VERTEX
  5
18A
  8
0
 10
728.8552656856407
 20
342.5141665833476
 30
0.0
 70
0
  0
VERTEX
  5
18B
  8
0
 10
731.2982143713408
 20
342.69728104379345
 30
0.0
 70
0
  0
VERTEX
  5
18C
  8
0
 10
733.7476362988771
 20
342.649649877642
 30
0.0
 70
0
  0
VERTEX
  5
18D
  8
0
 10
737.394527846757
 20
342.40650357374614
 30
0.0
 70
0
  0
VERTEX
  5
18E
  8
0
 10
740.1507796361565
 20
342.0741645738226
 30
0.0
 70
0
  0
VERTEX
  5
18F
  8
0
 10
742.8552138310852
 20
341.4498493419984
 30
0.0
 70
0
  0
VERTEX
  5
190
  8
0
 10
746.3658718472049
 20
340.43906892331853
 30
0.0
 70
0
  0
VERTEX
  5
191
  8
0
 10
748.6839721605105
 20
339.65148078923136
 30
0.0
 70
0
  0
VERTEX
  5
192
  8
0
 10
750.9165574986749
 20
338.6492623879166
 30
0.0
 70
0
  0
VERTEX
  5
193
  8
0
 10
754.451835432419
 20
336.85708073219047
 30
0.0
 70
0
  0
VERTEX
  5
194
  8
0
 10
757.4141568109073
 20
335.0982550244617
 30
0.0
 70
0
  0
VERTEX
  5
195
  8
0
 10
761.1349006121943
 20
332.53929306335243
 30
0.0
 70
0
  0
VERTEX
  5
196
  8
0
 10
762.7338759338842
 20
331.34605971615946
 30
0.0
 70
0
  0
VERTEX
  5
197
  8
0
 10
766.7959551146852
 20
328.06289431934596
 30
0.0
 70
0
  0
VERTEX
  5
198
  8
0
 10
767.4634633656942
 20
327.5045071989612
 30
0.0
 70
0
  0
VERTEX
  5
199
  8
0
 10
772.012953067409
 20
323.56638821241586
 30
0.0
 70
0
  0
VERTEX
  5
19A
  8
0
 10
772.0670074198658
 20
323.51946640090665
 30
0.0
 70
0
  0
VERTEX
  5
19B
  8
0
 10
777.0526360811136
 20
319.1795483848076
 30
0.0
 70
0
  0
VERTEX
  5
19C
  8
0
 10
782.4315282353609
 20
314.67239307321574
 30
0.0
 70
0
  0
VERTEX
  5
19D
  8
0
 10
788.354405882164
 20
310.04289915615374
 30
0.0
 70
0
  0
VERTEX
  5
19E
  8
0
 10
794.941857935858
 20
305.35439745989163
 30
0.0
 70
0
  0
VERTEX
  5
19F
  8
0
 10
802.2703725648679
 20
300.70099413685585
 30
0.0
 70
0
  0
VERTEX
  5
1A0
  8
0
 10
810.3791220701777
 20
296.1969456829877
 30
0.0
 70
0
  0
VERTEX
  5
1A1
  8
0
 10
819.273835378928
 20
291.9675117332986
 30
0.0
 70
0
  0
VERTEX
  5
1A2
  8
0
 10
828.92955239789
 20
288.14115906585914
 30
0.0
 70
0
  0
VERTEX
  5
1A3
  8
0
 10
839.2931699230179
 20
284.842868127279
 30
0.0
 70
0
  0
VERTEX
  5
1A4
  8
0
 10
850.2862190855776
 20
282.18837259786994
 30
0.0
 70
0
  0
VERTEX
  5
1A5
  8
0
 10
861.8080640312074
 20
280.2792514478163
 30
0.0
 70
0
  0
VERTEX
  5
1A6
  8
0
 10
873.7395729225161
 20
279.19885401748866
 30
0.0
 70
0
  0
VERTEX
  5
1A7
  8
0
 10
885.9472314639663
 20
279.00907216712017
 30
0.0
 70
0
  0
VERTEX
  5
1A8
  8
0
 10
898.2876195825168
 20
279.7479865815617
 30
0.0
 70
0
  0
VERTEX
  5
1A9
  8
0
 10
910.6121407444327
 20
281.4284134719756
 30
0.0
 70
0
  0
VERTEX
  5
1AA
  8
0
 10
922.7718742578343
 20
284.0373681562491
 30
0.0
 70
0
  0
VERTEX
  5
1AB
  8
0
 10
934.6224105868321
 20
287.53644697362034
 30
0.0
 70
0
  0
VERTEX
  5
1AC
  8
0
 10
946.0285265312289
 20
291.8631115076394
 30
0.0
 70
0
  0
VERTEX
  5
1AD
  8
0
 10
956.8685602417835
 20
296.9328415339113
 30
0.0
 70
0
  0
VERTEX
  5
1AE
  8
0
 10
967.0383550393689
 20
302.6421077597758
 30
0.0
 70
0
  0
VERTEX
  5
1AF
  8
0
 10
976.4546558802143
 20
308.8721048111574
 30
0.0
 70
0
  0
VERTEX
  5
1B0
  8
0
 10
985.0578636462819
 20
315.49318225123477
 30
0.0
 70
0
  0
VERTEX
  5
1B1
  8
0
 10
992.8140820046799
 20
322.36992120887186
 30
0.0
 70
0
  0
VERTEX
  5
1B2
  8
0
 10
999.7164336670148
 20
329.3668332917396
 30
0.0
 70
0
  0
VERTEX
  5
1B3
  8
0
 10
1005.7856873568699
 20
336.35471743828737
 30
0.0
 70
0
  0
VERTEX
  5
1B4
  8
0
 10
1011.0703460135
 20
343.2178148609474
 30
0.0
 70
0
  0
VERTEX
  5
1B5
  8
0
 10
1015.6465513355955
 20
349.86207085272844
 30
0.0
 70
0
  0
VERTEX
  5
1B6
  8
0
 10
1019.6185738916391
 20
356.22504627356824
 30
0.0
 70
0
  0
VERTEX
  5
1B7
  8
0
 10
1023.1215312649285
 20
362.28820736184605
 30
0.0
 70
0
  0
VERTEX
  5
1B8
  8
0
 10
1026.3125117785785
 20
368.06058052935896
 30
0.0
 70
0
  0
VERTEX
  5
1B9
  8
0
 10
1026.3471538408846
 20
368.12304101142496
 30
0.0
 70
0
  0
VERTEX
  5
1BA
  8
0
 10
1029.2666135137924
 20
373.3696406625695
 30
0.0
 70
0
  0
VERTEX
  5
1BB
  8
0
 10
1029.7016463210816
 20
374.1211812754118
 30
0.0
 70
0
  0
VERTEX
  5
1BC
  8
0
 10
1032.3885518378156
 20
378.5866971661794
 30
0.0
 70
0
  0
VERTEX
  5
1BD
  8
0
 10
1033.4803372441002
 20
380.25132323663615
 30
0.0
 70
0
  0
VERTEX
  5
1BE
  8
0
 10
1036.0957929770364
 20
383.9203201118584
 30
0.0
 70
0
  0
VERTEX
  5
1BF
  8
0
 10
1038.274004502516
 20
386.57971262935
 30
0.0
 70
0
  0
VERTEX
  5
1C0
  8
0
 10
1040.979136588326
 20
389.4651478928061
 30
0.0
 70
0
  0
VERTEX
  5
1C1
  8
0
 10
1042.7320758377211
 20
391.16558790462284
 30
0.0
 70
0
  0
VERTEX
  5
1C2
  8
0
 10
1044.639257427494
 20
392.6934005864146
 30
0.0
 70
0
  0
VERTEX
  5
1C3
  8
0
 10
1047.5902447433155
 20
394.8361926916474
 30
0.0
 70
0
  0
VERTEX
  5
1C4
  8
0
 10
1049.9166666666667
 20
396.34186052434956
 30
0.0
 70
0
  0
VERTEX
  5
1C5
  8
0
 10
1052.392291406791
 20
397.5907687678286
 30
0.0
 70
0
  0
VERTEX
  5
1C6
  8
0
 10
1055.7355475433694
 20
399.0585147615932
 30
0.0
 70
0
  0
VERTEX
  5
1C7
  8
0
 10
1058.0208546510592
 20
399.9356202063843
 30
0.0
 70
0
  0
VERTEX
  5
1C8
  8
0
 10
1060.379511018718
 20
400.5936959932189
 30
0.0
 70
0
  0
VERTEX
  5
1C9
  8
0
 10
1064.24716366594
 20
401.4785771902853
 30
0.0
 70
0
  0
VERTEX
  5
1CA
  8
0
 10
1067.6543261118686
 20
402.0230972118344
 30
0.0
 70
0
  0
VERTEX
  5
1CB
  8
0
 10
1072.1601312351806
 20
402.43903664847005
 30
0.0
 70
0
  0
VERTEX
  5
1CC
  8
0
 10
1074.1569934970669
 20
402.5461374209049
 30
0.0
 70
0
  0
VERTEX
  5
1CD
  8
0
 10
1079.3928084721433
 20
402.6252954690651
 30
0.0
 70
0
  0
VERTEX
  5
1CE
  8
0
 10
1080.2654044583737
 20
402.62384398354186
 30
0.0
 70
0
  0
VERTEX
  5
1CF
  8
0
 10
1086.298327347513
 20
402.5125586178251
 30
0.0
 70
0
  0
VERTEX
  5
1D0
  8
0
 10
1086.370091991987
 20
402.51113572855644
 30
0.0
 70
0
  0
VERTEX
  5
1D1
  8
0
 10
1092.9970652325433
 20
402.3705904926803
 30
0.0
 70
0
  0
VERTEX
  5
1D2
  8
0
 10
1100.0334918873737
 20
402.3530880862251
 30
0.0
 70
0
  0
VERTEX
  5
1D3
  8
0
 10
1107.5657839803712
 20
402.5892800883381
 30
0.0
 70
0
  0
VERTEX
  5
1D4
  8
0
 10
1115.6453453694064
 20
403.2046937023039
 30
0.0
 70
0
  0
VERTEX
  5
1D5
  8
0
 10
1124.2698863281394
 20
404.3202668724807
 30
0.0
 70
0
  0
VERTEX
  5
1D6
  8
0
 10
1133.395495019754
 20
406.04854217419825
 30
0.0
 70
0
  0
VERTEX
  5
1D7
  8
0
 10
1142.9455218887801
 20
408.48913278022917
 30
0.0
 70
0
  0
VERTEX
  5
1D8
  8
0
 10
1152.8177333279727
 20
411.72450942330477
 30
0.0
 70
0
  0
VERTEX
  5
1D9
  8
0
 10
1162.8905923788457
 20
415.8164988183324
 30
0.0
 70
0
  0
VERTEX
  5
1DA
  8
0
 10
1173.0291131587467
 20
420.803644703149
 30
0.0
 70
0
  0
VERTEX
  5
1DB
  8
0
 10
1183.090486442137
 20
426.6994909417109
 30
0.0
 70
0
  0
VERTEX
  5
1DC
  8
0
 10
1192.9295281281122
 20
433.4918044057872
 30
0.0
 70
0
  0
VERTEX
  5
1DD
  8
0
 10
1202.4039186783468
 20
441.14272936212694
 30
0.0
 70
0
  0
VERTEX
  5
1DE
  8
0
 10
1211.3791552037649
 20
449.5898434272797
 30
0.0
 70
0
  0
VERTEX
  5
1DF
  8
0
 10
1219.7331145595235
 20
458.7480646101848
 30
0.0
 70
0
  0
VERTEX
  5
1E0
  8
0
 10
1227.3601174672788
 20
468.51233926831776
 30
0.0
 70
0
  0
VERTEX
  5
1E1
  8
0
 10
1234.1743854966194
 20
478.76102269913986
 30
0.0
 70
0
  0
VERTEX
  5
1E2
  8
0
 10
1240.1127916176197
 20
489.3598486715079
 30
0.0
 70
0
  0
VERTEX
  5
1E3
  8
0
 10
1245.1368187825515
 20
500.16637274166874
 30
0.0
 70
0
  0
VERTEX
  5
1E4
  8
0
 10
1249.2336578183435
 20
511.0347681869706
 30
0.0
 70
0
  0
VERTEX
  5
1E5
  8
0
 10
1252.4163941709314
 20
521.8208547602783
 30
0.0
 70
0
  0
VERTEX
  5
1E6
  8
0
 10
1254.723251115367
 20
532.3872520488424
 30
0.0
 70
0
  0
VERTEX
  5
1E7
  8
0
 10
1256.2158733576705
 20
542.6085756048002
 30
0.0
 70
0
  0
VERTEX
  5
1E8
  8
0
 10
1256.9766483702977
 20
552.376643182565
 30
0.0
 70
0
  0
VERTEX
  5
1E9
  8
0
 10
1257.1050740382543
 20
561.6057447768301
 30
0.0
 70
0
  0
VERTEX
  5
1EA
  8
0
 10
1256.713197253866
 20
570.2381799575259
 30
0.0
 70
0
  0
VERTEX
  5
1EB
  8
0
 10
1255.920195721813
 20
578.2505258185938
 30
0.0
 70
0
  0
VERTEX
  5
1EC
  8
0
 10
1254.846341054822
 20
585.661542621436
 30
0.0
 70
0
  0
VERTEX
  5
1ED
  8
0
 10
1253.6071299579885
 20
592.5433242544515
 30
0.0
 70
0
  0
VERTEX
  5
1EE
  8
0
 10
1252.3170593268992
 20
599.0031083300436
 30
0.0
 70
0
  0
VERTEX
  5
1EF
  8
0
 10
1252.3031871556109
 20
599.0730796624523
 30
0.0
 70
0
  0
VERTEX
  5
1F0
  8
0
 10
1251.1452747451144
 20
604.9566936267886
 30
0.0
 70
0
  0
VERTEX
  5
1F1
  8
0
 10
1250.9923113260288
 20
605.8102367469933
 30
0.0
 70
0
  0
VERTEX
  5
1F2
  8
0
 10
1250.16158326083
 20
610.946987312914
 30
0.0
 70
0
  0
VERTEX
  5
1F3
  8
0
 10
1249.920990333017
 20
612.9194233431905
 30
0.0
 70
0
  0
VERTEX
  5
1F4
  8
0
 10
1249.550845739024
 20
617.4003742111302
 30
0.0
 70
0
  0
VERTEX
  5
1F5
  8
0
 10
1249.498927855041
 20
620.8286813712116
 30
0.0
 70
0
  0
VERTEX
  5
1F6
  8
0
 10
1249.7044135717924
 20
624.7666601797802
 30
0.0
 70
0
  0
VERTEX
  5
1F7
  8
0
 10
1249.947123628341
 20
627.1887709631537
 30
0.0
 70
0
  0
VERTEX
  5
1F8
  8
0
 10
1250.4196734185327
 20
629.5771469593324
 30
0.0
 70
0
  0
VERTEX
  5
1F9
  8
0
 10
1251.2939567406524
 20
633.1032412331741
 30
0.0
 70
0
  0
VERTEX
  5
1FA
  8
0
 10
1252.1019901247205
 20
635.7423971859466
 30
0.0
 70
0
  0
VERTEX
  5
1FB
  8
0
 10
1253.1904330806321
 20
638.2801508575358
 30
0.0
 70
0
  0
VERTEX
  5
1FC
  8
0
 10
1254.8019406352114
 20
641.539648601083
 30
0.0
 70
0
  0
VERTEX
  5
1FD
  8
0
 10
1255.985133943237
 20
643.6710402391932
 30
0.0
 70
0
  0
VERTEX
  5
1FE
  8
0
 10
1257.3662198124166
 20
645.6814892398193
 30
0.0
 70
0
  0
VERTEX
  5
1FF
  8
0
 10
1259.7565295153106
 20
648.8293875432116
 30
0.0
 70
0
  0
VERTEX
  5
200
  8
0
 10
1262.0142838538368
 20
651.4224663242902
 30
0.0
 70
0
  0
VERTEX
  5
201
  8
0
 10
1265.1968340055307
 20
654.6186844736169
 30
0.0
 70
0
  0
VERTEX
  5
202
  8
0
 10
1266.6572291626242
 20
655.9760057239646
 30
0.0
 70
0
  0
VERTEX
  5
203
  8
0
 10
1270.6168839155362
 20
659.380448286621
 30
0.0
 70
0
  0
VERTEX
  5
204
  8
0
 10
1271.2862702772072
 20
659.9366116021662
 30
0.0
 70
0
  0
VERTEX
  5
205
  8
0
 10
1275.9797546854734
 20
663.7042315166957
 30
0.0
 70
0
  0
VERTEX
  5
206
  8
0
 10
1276.0356501472395
 20
663.7489733353711
 30
0.0
 70
0
  0
VERTEX
  5
207
  8
0
 10
1281.203133537244
 20
667.8735635575698
 30
0.0
 70
0
  0
VERTEX
  5
208
  8
0
 10
1286.6046724596927
 20
672.3539036267504
 30
0.0
 70
0
  0
VERTEX
  5
209
  8
0
 10
1292.2219358164682
 20
677.3452646852674
 30
0.0
 70
0
  0
VERTEX
  5
20A
  8
0
 10
1298.0130899725918
 20
682.9766347399255
 30
0.0
 70
0
  0
VERTEX
  5
20B
  8
0
 10
1303.898138695359
 20
689.3391953187745
 30
0.0
 70
0
  0
VERTEX
  5
20C
  8
0
 10
1309.7706328466293
 20
696.4911151547643
 30
0.0
 70
0
  0
VERTEX
  5
20D
  8
0
 10
1315.5074095671905
 20
704.4597508478104
 30
0.0
 70
0
  0
VERTEX
  5
20E
  8
0
 10
1320.9767979768042
 20
713.2429881128996
 30
0.0
 70
0
  0
VERTEX
  5
20F
  8
0
 10
1326.045695856161
 20
722.8105705262052
 30
0.0
 70
0
  0
VERTEX
  5
210
  8
0
 10
1330.5857617033807
 20
733.1058168397896
 30
0.0
 70
0
  0
VERTEX
  5
211
  8
0
 10
1334.4788349455234
 20
744.0478984869111
 30
0.0
 70
0
  0
VERTEX
  5
212
  8
0
 10
1337.6216124725293
 20
755.5347238873952
 30
0.0
 70
0
  0
VERTEX
  5
213
  8
0
 10
1339.9295623969726
 20
767.4464028328116
 30
0.0
 70
0
  0
VERTEX
  5
214
  8
0
 10
1341.3400344103711
 20
779.649217998375
 30
0.0
 70
0
  0
VERTEX
  5
215
  8
0
 10
1341.8145215334976
 20
791.9999999999999
 30
0.0
 70
0
  0
SEQEND
  5
2E
  8
0
  0
ENDSEC
  0
EOF
