  0
SECTION
  2
HEADER
  9
$ACADVER
  1
AC1024
  9
$ACADMAINTVER
 70
6
  9
$DWGCODEPAGE
  3
ANSI_1252
  9
$LASTSAVEDBY
  1
ezdxf
  9
$INSBASE
 10
0.0
 20
0.0
 30
0.0
  9
$EXTMIN
 10
1e+20
 20
1e+20
 30
1e+20
  9
$EXTMAX
 10
-1e+20
 20
-1e+20
 30
-1e+20
  9
$LIMMIN
 10
0.0
 20
0.0
  9
$LIMMAX
 10
420.0
 20
297.0
  9
$ORTHOMODE
 70
0
  9
$REGENMODE
 70
1
  9
$FILLMODE
 70
1
  9
$QTEXTMODE
 70
0
  9
$MIRRTEXT
 70
1
  9
$LTSCALE
 40
1.0
  9
$ATTMODE
 70
1
  9
$TEXTSIZE
 40
2.5
  9
$TRACEWID
 40
1.0
  9
$TEXTSTYLE
  7
Standard
  9
$CLAYER
  8
0
  9
$CELTYPE
  6
ByLayer
  9
$CECOLOR
 62
256
  9
$CELTSCALE
 40
1.0
  9
$DISPSILH
 70
0
  9
$DIMSCALE
 40
1.0
  9
$DIMASZ
 40
2.5
  9
$DIMEXO
 40
0.625
  9
$DIMDLI
 40
3.75
  9
$DIMRND
 40
0.0
  9
$DIMDLE
 40
0.0
  9
$DIMEXE
 40
1.25
  9
$DIMTP
 40
0.0
  9
$DIMTM
 40
0.0
  9
$DIMTXT
 40
2.5
  9
$DIMCEN
 40
2.5
  9
$DIMTSZ
 40
0.0
  9
$DIMTOL
 70
0
  9
$DIMLIM
 70
0
  9
$DIMTIH
 70
0
  9
$DIMTOH
 70
0
  9
$DIMSE1
 70
0
  9
$DIMSE2
 70
0
  9
$DIMTAD
 70
1
  9
$DIMZIN
 70
8
  9
$DIMBLK
  1

  9
$DIMASO
 70
1
  9
$DIMSHO
 70
1
  9
$DIMPOST
  1

  9
$DIMAPOST
  1

  9
$DIMALT
 70
0
  9
$DIMALTD
 70
3
  9
$DIMALTF
 40
0.03937007874
  9
$DIMLFAC
 40
1.0
  9
$DIMTOFL
 70
1
  9
$DIMTVP
 40
0.0
  9
$DIMTIX
 70
0
  9
$DIMSOXD
 70
0
  9
$DIMSAH
 70
0
  9
$DIMBLK1
  1

  9
$DIMBLK2
  1

  9
$DIMSTYLE
  2
ISO-25
  9
$DIMCLRD
 70
0
  9
$DIMCLRE
 70
0
  9
$DIMCLRT
 70
0
  9
$DIMTFAC
 40
1.0
  9
$DIMGAP
 40
0.625
  9
$DIMJUST
 70
0
  9
$DIMSD1
 70
0
  9
$DIMSD2
 70
0
  9
$DIMTOLJ
 70
0
  9
$DIMTZIN
 70
8
  9
$DIMALTZ
 70
0
  9
$DIMALTTZ
 70
0
  9
$DIMUPT
 70
0
  9
$DIMDEC
 70
2
  9
$DIMTDEC
 70
2
  9
$DIMALTU
 70
2
  9
$DIMALTTD
 70
3
  9
$DIMTXSTY
  7
Standard
  9
$DIMAUNIT
 70
0
  9
$DIMADEC
 70
0
  9
$DIMALTRND
 40
0.0
  9
$DIMAZIN
 70
0
  9
$DIMDSEP
 70
44
  9
$DIMATFIT
 70
3
  9
$DIMFRAC
 70
0
  9
$DIMLDRBLK
  1

  9
$DIMLUNIT
 70
2
  9
$DIMLWD
 70
-2
  9
$DIMLWE
 70
-2
  9
$DIMTMOVE
 70
0
  9
$DIMFXL
 40
1.0
  9
$DIMFXLON
 70
0
  9
$DIMJOGANG
 40
0.785398163397
  9
$DIMTFILL
 70
0
  9
$DIMTFILLCLR
 70
0
  9
$DIMARCSYM
 70
0
  9
$DIMLTYPE
  6

  9
$DIMLTEX1
  6

  9
$DIMLTEX2
  6

  9
$DIMTXTDIRECTION
 70
0
  9
$LUNITS
 70
2
  9
$LUPREC
 70
4
  9
$SKETCHINC
 40
1.0
  9
$FILLETRAD
 40
10.0
  9
$AUNITS
 70
0
  9
$AUPREC
 70
2
  9
$MENU
  1
.
  9
$ELEVATION
 40
0.0
  9
$PELEVATION
 40
0.0
  9
$THICKNESS
 40
0.0
  9
$LIMCHECK
 70
0
  9
$CHAMFERA
 40
0.0
  9
$CHAMFERB
 40
0.0
  9
$CHAMFERC
 40
0.0
  9
$CHAMFERD
 40
0.0
  9
$SKPOLY
 70
0
  9
$TDCREATE
 40
2460108.8333680555
  9
$TDUCREATE
 40
2458532.153996898
  9
$TDUPDATE
 40
2460108.8333680555
  9
$TDUUPDATE
 40
2458532.1544311
  9
$TDINDWG
 40
0.0
  9
$TDUSRTIMER
 40
0.0
  9
$USRTIMER
 70
1
  9
$ANGBASE
 50
0.0
  9
$ANGDIR
 70
0
  9
$PDMODE
 70
0
  9
$PDSIZE
 40
0.0
  9
$PLINEWID
 40
0.0
  9
$SPLFRAME
 70
0
  9
$SPLINETYPE
 70
6
  9
$SPLINESEGS
 70
8
  9
$HANDSEED
  5
422
  9
$SURFTAB1
 70
6
  9
$SURFTAB2
 70
6
  9
$SURFTYPE
 70
6
  9
$SURFU
 70
6
  9
$SURFV
 70
6
  9
$UCSBASE
  2

  9
$UCSNAME
  2

  9
$UCSORG
 10
0.0
 20
0.0
 30
0.0
  9
$UCSXDIR
 10
1.0
 20
0.0
 30
0.0
  9
$UCSYDIR
 10
0.0
 20
1.0
 30
0.0
  9
$UCSORTHOREF
  2

  9
$UCSORTHOVIEW
 70
0
  9
$UCSORGTOP
 10
0.0
 20
0.0
 30
0.0
  9
$UCSORGBOTTOM
 10
0.0
 20
0.0
 30
0.0
  9
$UCSORGLEFT
 10
0.0
 20
0.0
 30
0.0
  9
$UCSORGRIGHT
 10
0.0
 20
0.0
 30
0.0
  9
$UCSORGFRONT
 10
0.0
 20
0.0
 30
0.0
  9
$UCSORGBACK
 10
0.0
 20
0.0
 30
0.0
  9
$PUCSBASE
  2

  9
$PUCSNAME
  2

  9
$PUCSORG
 10
0.0
 20
0.0
 30
0.0
  9
$PUCSXDIR
 10
1.0
 20
0.0
 30
0.0
  9
$PUCSYDIR
 10
0.0
 20
1.0
 30
0.0
  9
$PUCSORTHOREF
  2

  9
$PUCSORTHOVIEW
 70
0
  9
$PUCSORGTOP
 10
0.0
 20
0.0
 30
0.0
  9
$PUCSORGBOTTOM
 10
0.0
 20
0.0
 30
0.0
  9
$PUCSORGLEFT
 10
0.0
 20
0.0
 30
0.0
  9
$PUCSORGRIGHT
 10
0.0
 20
0.0
 30
0.0
  9
$PUCSORGFRONT
 10
0.0
 20
0.0
 30
0.0
  9
$PUCSORGBACK
 10
0.0
 20
0.0
 30
0.0
  9
$USERI1
 70
0
  9
$USERI2
 70
0
  9
$USERI3
 70
0
  9
$USERI4
 70
0
  9
$USERI5
 70
0
  9
$USERR1
 40
0.0
  9
$USERR2
 40
0.0
  9
$USERR3
 40
0.0
  9
$USERR4
 40
0.0
  9
$USERR5
 40
0.0
  9
$WORLDVIEW
 70
1
  9
$SHADEDGE
 70
3
  9
$SHADEDIF
 70
70
  9
$TILEMODE
 70
1
  9
$MAXACTVP
 70
64
  9
$PINSBASE
 10
0.0
 20
0.0
 30
0.0
  9
$PLIMCHECK
 70
0
  9
$PEXTMIN
 10
1e+20
 20
1e+20
 30
1e+20
  9
$PEXTMAX
 10
-1e+20
 20
-1e+20
 30
-1e+20
  9
$PLIMMIN
 10
0.0
 20
0.0
  9
$PLIMMAX
 10
420.0
 20
297.0
  9
$UNITMODE
 70
0
  9
$VISRETAIN
 70
1
  9
$PLINEGEN
 70
0
  9
$PSLTSCALE
 70
1
  9
$TREEDEPTH
 70
3020
  9
$CMLSTYLE
  2
Standard
  9
$CMLJUST
 70
0
  9
$CMLSCALE
 40
20.0
  9
$PROXYGRAPHICS
 70
1
  9
$MEASUREMENT
 70
1
  9
$CELWEIGHT
370
-1
  9
$ENDCAPS
280
0
  9
$JOINSTYLE
280
0
  9
$LWDISPLAY
290
0
  9
$INSUNITS
 70
4
  9
$HYPERLINKBASE
  1

  9
$STYLESHEET
  1

  9
$XEDIT
290
1
  9
$CEPSNTYPE
380
0
  9
$PSTYLEMODE
290
1
  9
$FINGERPRINTGUID
  2
{48ADD2AA-3C7C-4814-A0F6-A0C95B382711}
  9
$VERSIONGUID
  2
{E3C0E8C0-A2D9-4899-BFC8-34EA4D2530AB}
  9
$EXTNAMES
290
1
  9
$PSVPSCALE
 40
0.0
  9
$OLESTARTUP
290
0
  9
$SORTENTS
280
127
  9
$INDEXCTL
280
0
  9
$HIDETEXT
280
1
  9
$XCLIPFRAME
280
0
  9
$HALOGAP
280
0
  9
$OBSCOLOR
 70
257
  9
$OBSLTYPE
280
0
  9
$INTERSECTIONDISPLAY
280
0
  9
$INTERSECTIONCOLOR
 70
257
  9
$DIMASSOC
280
2
  9
$PROJECTNAME
  1

  9
$CAMERADISPLAY
290
0
  9
$LENSLENGTH
 40
50.0
  9
$CAMERAHEIGHT
 40
0.0
  9
$STEPSPERSEC
 40
24.0
  9
$STEPSIZE
 40
100.0
  9
$3DDWFPREC
 40
2.0
  9
$PSOLWIDTH
 40
0.005
  9
$PSOLHEIGHT
 40
0.08
  9
$LOFTANG1
 40
1.570796326795
  9
$LOFTANG2
 40
1.570796326795
  9
$LOFTMAG1
 40
0.0
  9
$LOFTMAG2
 40
0.0
  9
$LOFTPARAM
 70
7
  9
$LOFTNORMALS
280
1
  9
$LATITUDE
 40
37.795
  9
$LONGITUDE
 40
-122.394
  9
$NORTHDIRECTION
 40
0.0
  9
$TIMEZONE
 70
-8000
  9
$LIGHTGLYPHDISPLAY
280
1
  9
$TILEMODELIGHTSYNCH
280
1
  9
$CMATERIAL
347
20
  9
$SOLIDHIST
280
0
  9
$SHOWHIST
280
1
  9
$DWFFRAME
280
2
  9
$DGNFRAME
280
2
  9
$REALWORLDSCALE
290
1
  9
$INTERFERECOLOR
 62
256
  9
$CSHADOW
280
0
  9
$SHADOWPLANELOCATION
 40
0.0
  0
ENDSEC
  0
SECTION
  2
CLASSES
  0
CLASS
  1
ACDBDICTIONARYWDFLT
  2
AcDbDictionaryWithDefault
  3
ObjectDBX Classes
 90
0
 91
0
280
0
281
0
  0
CLASS
  1
SUN
  2
AcDbSun
  3
SCENEOE
 90
1153
 91
0
280
0
281
0
  0
CLASS
  1
VISUALSTYLE
  2
AcDbVisualStyle
  3
ObjectDBX Classes
 90
4095
 91
0
280
0
281
0
  0
CLASS
  1
MATERIAL
  2
AcDbMaterial
  3
ObjectDBX Classes
 90
1153
 91
0
280
0
281
0
  0
CLASS
  1
SCALE
  2
AcDbScale
  3
ObjectDBX Classes
 90
1153
 91
0
280
0
281
0
  0
CLASS
  1
TABLESTYLE
  2
AcDbTableStyle
  3
ObjectDBX Classes
 90
4095
 91
0
280
0
281
0
  0
CLASS
  1
MLEADERSTYLE
  2
AcDbMLeaderStyle
  3
ACDB_MLEADERSTYLE_CLASS
 90
4095
 91
0
280
0
281
0
  0
CLASS
  1
DICTIONARYVAR
  2
AcDbDictionaryVar
  3
ObjectDBX Classes
 90
0
 91
0
280
0
281
0
  0
CLASS
  1
CELLSTYLEMAP
  2
AcDbCellStyleMap
  3
ObjectDBX Classes
 90
1152
 91
0
280
0
281
0
  0
CLASS
  1
MENTALRAYRENDERSETTINGS
  2
AcDbMentalRayRenderSettings
  3
SCENEOE
 90
1024
 91
0
280
0
281
0
  0
CLASS
  1
ACDBDETAILVIEWSTYLE
  2
AcDbDetailViewStyle
  3
ObjectDBX Classes
 90
1025
 91
0
280
0
281
0
  0
CLASS
  1
ACDBSECTIONVIEWSTYLE
  2
AcDbSectionViewStyle
  3
ObjectDBX Classes
 90
1025
 91
0
280
0
281
0
  0
CLASS
  1
RASTERVARIABLES
  2
AcDbRasterVariables
  3
ISM
 90
0
 91
0
280
0
281
0
  0
CLASS
  1
LAYOUT
  2
AcDbLayout
  3
ObjectDBX Classes
 90
0
 91
0
280
0
281
0
  0
CLASS
  1
ACDBPLACEHOLDER
  2
AcDbPlaceHolder
  3
ObjectDBX Classes
 90
0
 91
0
280
0
281
0
  0
ENDSEC
  0
SECTION
  2
TABLES
  0
TABLE
  2
VPORT
  5
8
330
0
100
AcDbSymbolTable
 70
1
  0
VPORT
  5
23
330
8
100
AcDbSymbolTableRecord
100
AcDbViewportTableRecord
  2
*Active
 70
0
 10
0.0
 20
0.0
 11
1.0
 21
1.0
 12
0.0
 22
0.0
 13
0.0
 23
0.0
 14
0.5
 24
0.5
 15
0.5
 25
0.5
 16
0.0
 26
0.0
 36
1.0
 17
0.0
 27
0.0
 37
0.0
 40
1000.0
 41
1.34
 42
50.0
 43
0.0
 44
0.0
 50
0.0
 51
0.0
 71
0
 72
1000
 73
1
 74
3
 75
0
 76
0
 77
0
 78
0
281
0
 65
0
146
0.0
  0
ENDTAB
  0
TABLE
  2
LTYPE
  5
2
330
0
100
AcDbSymbolTable
 70
3
  0
LTYPE
  5
24
330
2
100
AcDbSymbolTableRecord
100
AcDbLinetypeTableRecord
  2
ByBlock
 70
0
  3

 72
65
 73
0
 40
0.0
  0
LTYPE
  5
25
330
2
100
AcDbSymbolTableRecord
100
AcDbLinetypeTableRecord
  2
ByLayer
 70
0
  3

 72
65
 73
0
 40
0.0
  0
LTYPE
  5
26
330
2
100
AcDbSymbolTableRecord
100
AcDbLinetypeTableRecord
  2
Continuous
 70
0
  3

 72
65
 73
0
 40
0.0
  0
ENDTAB
  0
TABLE
  2
LAYER
  5
1
330
0
100
AcDbSymbolTable
 70
2
  0
LAYER
  5
27
330
1
100
AcDbSymbolTableRecord
100
AcDbLayerTableRecord
  2
0
 70
0
 62
7
  6
Continuous
370
-3
390
13
347
21
  0
LAYER
  5
28
330
1
100
AcDbSymbolTableRecord
100
AcDbLayerTableRecord
  2
Defpoints
 70
0
 62
7
  6
Continuous
290
0
370
-3
390
13
347
21
  0
ENDTAB
  0
TABLE
  2
STYLE
  5
5
330
0
100
AcDbSymbolTable
 70
1
  0
STYLE
  5
29
330
5
100
AcDbSymbolTableRecord
100
AcDbTextStyleTableRecord
  2
Standard
 70
0
 40
0.0
 41
1.0
 50
0.0
 71
0
 42
2.5
  3
txt
  4

  0
ENDTAB
  0
TABLE
  2
VIEW
  5
7
330
0
100
AcDbSymbolTable
 70
0
  0
ENDTAB
  0
TABLE
  2
UCS
  5
6
330
0
100
AcDbSymbolTable
 70
0
  0
ENDTAB
  0
TABLE
  2
APPID
  5
3
330
0
100
AcDbSymbolTable
 70
3
  0
APPID
  5
2A
330
3
100
AcDbSymbolTableRecord
100
AcDbRegAppTableRecord
  2
ACAD
 70
0
  0
APPID
  5
41F
330
3
100
AcDbSymbolTableRecord
100
AcDbRegAppTableRecord
  2
HATCHBACKGROUNDCOLOR
 70
0
  0
APPID
  5
420
330
3
100
AcDbSymbolTableRecord
100
AcDbRegAppTableRecord
  2
EZDXF
 70
0
  0
ENDTAB
  0
TABLE
  2
DIMSTYLE
  5
4
330
0
100
AcDbSymbolTable
 70
1
100
AcDbDimStyleTable
  0
DIMSTYLE
105
2B
330
4
100
AcDbSymbolTableRecord
100
AcDbDimStyleTableRecord
  2
Standard
 70
0
 40
1.0
 41
2.5
 42
0.625
 43
3.75
 44
1.25
 45
0.0
 46
0.0
 47
0.0
 48
0.0
 49
2.5
140
2.5
141
2.5
142
0.0
143
0.03937007874
144
1.0
145
0.0
146
1.0
147
0.625
148
0.0
 69
0
 70
0
 71
0
 72
0
 73
0
 74
0
 75
0
 76
0
 77
1
 78
8
 79
3
170
0
171
3
172
1
173
0
174
0
175
0
176
0
177
0
178
0
179
2
271
2
272
2
273
2
274
3
275
0
276
0
277
2
278
44
279
0
280
0
281
0
282
0
283
0
284
8
285
0
286
0
288
0
289
3
290
0
371
-2
372
-2
  0
ENDTAB
  0
TABLE
  2
BLOCK_RECORD
  5
9
330
0
100
AcDbSymbolTable
 70
2
  0
BLOCK_RECORD
  5
17
330
9
100
AcDbSymbolTableRecord
100
AcDbBlockTableRecord
  2
*Model_Space
340
1A
 70
0
280
1
281
0
  0
BLOCK_RECORD
  5
1B
330
9
100
AcDbSymbolTableRecord
100
AcDbBlockTableRecord
  2
*Paper_Space
340
1E
 70
0
280
1
281
0
  0
ENDTAB
  0
ENDSEC
  0
SECTION
  2
BLOCKS
  0
BLOCK
  5
18
330
17
100
AcDbEntity
  8
0
100
AcDbBlockBegin
  2
*Model_Space
 70
0
 10
0.0
 20
0.0
 30
0.0
  3
*Model_Space
  1

  0
ENDBLK
  5
19
330
17
100
AcDbEntity
  8
0
100
AcDbBlockEnd
  0
BLOCK
  5
1C
330
1B
100
AcDbEntity
  8
0
100
AcDbBlockBegin
  2
*Paper_Space
 70
0
 10
0.0
 20
0.0
 30
0.0
  3
*Paper_Space
  1

  0
ENDBLK
  5
1D
330
1B
100
AcDbEntity
  8
0
100
AcDbBlockEnd
  0
ENDSEC
  0
SECTION
  2
ENTITIES
  0
CIRCLE
  5
2F
330
17
100
AcDbEntity
  8
0
100
AcDbCircle
 10
3.0
 20
0.0
 30
0.0
 40
16.1
  0
CIRCLE
  5
30
330
17
100
AcDbEntity
  8
0
100
AcDbCircle
 10
3.0
 20
0.0
 30
0.0
 40
10.075
  0
CIRCLE
  5
31
330
17
100
AcDbEntity
  8
0
100
AcDbCircle
 10
53.8
 20
0.0
 30
7.0
 40
2.5
  0
CIRCLE
  5
32
330
17
100
AcDbEntity
  8
0
100
AcDbCircle
 10
44.09806331424733
 20
29.859490816457633
 30
7.0
 40
2.5
  0
CIRCLE
  5
33
330
17
100
AcDbEntity
  8
0
100
AcDbCircle
 10
18.698063314247328
 20
48.313671027793795
 30
7.0
 40
2.5
  0
CIRCLE
  5
34
330
17
100
AcDbEntity
  8
0
100
AcDbCircle
 10
-12.698063314247324
 20
48.3136710277938
 30
7.0
 40
2.5
  0
CIRCLE
  5
35
330
17
100
AcDbEntity
  8
0
100
AcDbCircle
 10
-38.09806331424732
 20
29.85949081645764
 30
7.0
 40
2.5
  0
CIRCLE
  5
36
330
17
100
AcDbEntity
  8
0
100
AcDbCircle
 10
-47.8
 20
6.221205739668554e-15
 30
7.0
 40
2.5
  0
CIRCLE
  5
37
330
17
100
AcDbEntity
  8
0
100
AcDbCircle
 10
-38.098063314247334
 20
-29.85949081645763
 30
7.0
 40
2.5
  0
CIRCLE
  5
38
330
17
100
AcDbEntity
  8
0
100
AcDbCircle
 10
-12.698063314247335
 20
-48.313671027793795
 30
7.0
 40
2.5
  0
CIRCLE
  5
39
330
17
100
AcDbEntity
  8
0
100
AcDbCircle
 10
18.69806331424732
 20
-48.3136710277938
 30
7.0
 40
2.5
  0
CIRCLE
  5
3A
330
17
100
AcDbEntity
  8
0
100
AcDbCircle
 10
44.09806331424732
 20
-29.859490816457644
 30
7.0
 40
2.5
  0
CIRCLE
  5
3B
330
17
100
AcDbEntity
  8
0
100
AcDbCircle
 10
53.8
 20
-1.2442411479337107e-14
 30
7.0
 40
2.5
  0
CIRCLE
  5
3C
330
17
100
AcDbEntity
  8
0
100
AcDbCircle
 10
0.0
 20
0.0
 30
9.0
 40
16.1
  0
CIRCLE
  5
3D
330
17
100
AcDbEntity
  8
0
100
AcDbCircle
 10
0.0
 20
0.0
 30
9.0
 40
10.075
  0
LINE
  5
3E
330
17
100
AcDbEntity
  8
0
100
AcDbLine
 10
50.49817950324169
 20
-8.375103990110265e-15
 30
9.0
 11
50.49817950324169
 21
-8.375103990110265e-15
 31
9.0
  0
LINE
  5
3F
330
17
100
AcDbEntity
  8
0
100
AcDbLine
 10
50.49817950324169
 20
-8.375103990110265e-15
 30
9.0
 11
50.452261394552046
 21
1.202998246911526
 31
9.0
  0
LINE
  5
40
330
17
100
AcDbEntity
  8
0
100
AcDbLine
 10
50.452261394552046
 20
1.202998246911526
 30
9.0
 11
50.31576410293284
 21
2.391584139661185
 31
9.0
  0
LINE
  5
41
330
17
100
AcDbEntity
  8
0
100
AcDbLine
 10
50.31576410293284
 20
2.391584139661185
 30
9.0
 11
50.09241411024475
 21
3.5518126083706365
 31
9.0
  0
LINE
  5
42
330
17
100
AcDbEntity
  8
0
100
AcDbLine
 10
50.09241411024475
 20
3.5518126083706365
 30
9.0
 11
49.78827434956678
 21
4.670659238287928
 31
9.0
  0
LINE
  5
43
330
17
100
AcDbEntity
  8
0
100
AcDbLine
 10
49.78827434956678
 20
4.670659238287928
 30
9.0
 11
49.411525326133614
 21
5.736446411708772
 31
9.0
  0
LINE
  5
44
330
17
100
AcDbEntity
  8
0
100
AcDbLine
 10
49.411525326133614
 20
5.736446411708772
 30
9.0
 11
48.972164115112335
 21
6.739230143551483
 31
9.0
  0
LINE
  5
45
330
17
100
AcDbEntity
  8
0
100
AcDbLine
 10
48.972164115112335
 20
6.739230143551483
 30
9.0
 11
48.4816256106585
 21
7.67113752147078
 31
9.0
  0
LINE
  5
46
330
17
100
AcDbEntity
  8
0
100
AcDbLine
 10
48.4816256106585
 20
7.67113752147078
 30
9.0
 11
47.95232995811525
 21
8.52664764469371
 31
9.0
  0
LINE
  5
47
330
17
100
AcDbEntity
  8
0
100
AcDbLine
 10
47.95232995811525
 20
8.52664764469371
 30
9.0
 11
47.39715801741572
 21
9.302813458951574
 31
9.0
  0
LINE
  5
48
330
17
100
AcDbEntity
  8
0
100
AcDbLine
 10
47.39715801741572
 20
9.302813458951574
 30
9.0
 11
46.828852131808986
 21
9.999429027392026
 31
9.0
  0
LINE
  5
49
330
17
100
AcDbEntity
  8
0
100
AcDbLine
 10
46.828852131808986
 20
9.999429027392026
 30
9.0
 11
46.259331287670165
 21
10.619158953903364
 31
9.0
  0
LINE
  5
4A
330
17
100
AcDbEntity
  8
0
100
AcDbLine
 10
46.259331287670165
 20
10.619158953903364
 30
9.0
 11
45.6988970144969
 21
11.167669024162274
 31
9.0
  0
LINE
  5
4B
330
17
100
AcDbEntity
  8
0
100
AcDbLine
 10
45.6988970144969
 20
11.167669024162274
 30
9.0
 11
45.15529088319615
 21
11.65384055583594
 31
9.0
  0
LINE
  5
4C
330
17
100
AcDbEntity
  8
0
100
AcDbLine
 10
45.15529088319615
 20
11.65384055583594
 30
9.0
 11
44.63256131005581
 21
12.09023731582116
 31
9.0
  0
LINE
  5
4D
330
17
100
AcDbEntity
  8
0
100
AcDbLine
 10
44.63256131005581
 20
12.09023731582116
 30
9.0
 11
44.132482272313446
 21
12.491983116684684
 31
9.0
  0
LINE
  5
4E
330
17
100
AcDbEntity
  8
0
100
AcDbLine
 10
44.132482272313446
 20
12.491983116684684
 30
9.0
 11
44.12707303407809
 21
12.496341086036125
 31
9.0
  0
LINE
  5
4F
330
17
100
AcDbEntity
  8
0
100
AcDbLine
 10
44.12707303407809
 20
12.496341086036125
 30
9.0
 11
43.67286486553621
 21
12.863317051737052
 31
9.0
  0
LINE
  5
50
330
17
100
AcDbEntity
  8
0
100
AcDbLine
 10
43.67286486553621
 20
12.863317051737052
 30
9.0
 11
43.60808554021321
 21
12.917488803251178
 31
9.0
  0
LINE
  5
51
330
17
100
AcDbEntity
  8
0
100
AcDbLine
 10
43.60808554021321
 20
12.917488803251178
 30
9.0
 11
43.224893144770135
 21
13.249090351561842
 31
9.0
  0
LINE
  5
52
330
17
100
AcDbEntity
  8
0
100
AcDbLine
 10
43.224893144770135
 20
13.249090351561842
 30
9.0
 11
43.08356458118043
 21
13.381296966855446
 31
9.0
  0
LINE
  5
53
330
17
100
AcDbEntity
  8
0
100
AcDbLine
 10
43.08356458118043
 20
13.381296966855446
 30
9.0
 11
42.77557585682296
 21
13.692616916465187
 31
9.0
  0
LINE
  5
54
330
17
100
AcDbEntity
  8
0
100
AcDbLine
 10
42.77557585682296
 20
13.692616916465187
 30
9.0
 11
42.557083501481614
 21
13.945189525011905
 31
9.0
  0
LINE
  5
55
330
17
100
AcDbEntity
  8
0
100
AcDbLine
 10
42.557083501481614
 20
13.945189525011905
 30
9.0
 11
42.32576320765316
 21
14.25180299612158
 31
9.0
  0
LINE
  5
56
330
17
100
AcDbEntity
  8
0
100
AcDbLine
 10
42.32576320765316
 20
14.25180299612158
 30
9.0
 11
42.19210973644227
 21
14.447625950727998
 31
9.0
  0
LINE
  5
57
330
17
100
AcDbEntity
  8
0
100
AcDbLine
 10
42.19210973644227
 20
14.447625950727998
 30
9.0
 11
42.07760715824624
 21
14.655229032362085
 31
9.0
  0
LINE
  5
58
330
17
100
AcDbEntity
  8
0
100
AcDbLine
 10
42.07760715824624
 20
14.655229032362085
 30
9.0
 11
41.921654814254715
 21
14.972712578811471
 31
9.0
  0
LINE
  5
59
330
17
100
AcDbEntity
  8
0
100
AcDbLine
 10
41.921654814254715
 20
14.972712578811471
 30
9.0
 11
41.816321624972936
 21
15.21989637799224
 31
9.0
  0
LINE
  5
5A
330
17
100
AcDbEntity
  8
0
100
AcDbLine
 10
41.816321624972936
 20
15.21989637799224
 30
9.0
 11
41.73812484586959
 21
15.476957022742798
 31
9.0
  0
LINE
  5
5B
330
17
100
AcDbEntity
  8
0
100
AcDbLine
 10
41.73812484586959
 20
15.476957022742798
 30
9.0
 11
41.653516782438665
 21
15.820407763701382
 31
9.0
  0
LINE
  5
5C
330
17
100
AcDbEntity
  8
0
100
AcDbLine
 10
41.653516782438665
 20
15.820407763701382
 30
9.0
 11
41.60778615758139
 21
16.053041789303172
 31
9.0
  0
LINE
  5
5D
330
17
100
AcDbEntity
  8
0
100
AcDbLine
 10
41.60778615758139
 20
16.053041789303172
 30
9.0
 11
41.584298087592835
 21
16.288961670800568
 31
9.0
  0
LINE
  5
5E
330
17
100
AcDbEntity
  8
0
100
AcDbLine
 10
41.584298087592835
 20
16.288961670800568
 30
9.0
 11
41.5644123730685
 21
16.672531035271536
 31
9.0
  0
LINE
  5
5F
330
17
100
AcDbEntity
  8
0
100
AcDbLine
 10
41.5644123730685
 20
16.672531035271536
 30
9.0
 11
41.56943668442168
 21
17.00645705735742
 31
9.0
  0
LINE
  5
60
330
17
100
AcDbEntity
  8
0
100
AcDbLine
 10
41.56943668442168
 20
17.00645705735742
 30
9.0
 11
41.60525712900165
 21
17.442913310728194
 31
9.0
  0
LINE
  5
61
330
17
100
AcDbEntity
  8
0
100
AcDbLine
 10
41.60525712900165
 20
17.442913310728194
 30
9.0
 11
41.628540315564194
 21
17.6350337032876
 31
9.0
  0
LINE
  5
62
330
17
100
AcDbEntity
  8
0
100
AcDbLine
 10
41.628540315564194
 20
17.6350337032876
 30
9.0
 11
41.70893335413183
 21
18.135366550617537
 31
9.0
  0
LINE
  5
63
330
17
100
AcDbEntity
  8
0
100
AcDbLine
 10
41.70893335413183
 20
18.135366550617537
 30
9.0
 11
41.72373626565623
 21
18.218503867520504
 31
9.0
  0
LINE
  5
64
330
17
100
AcDbEntity
  8
0
100
AcDbLine
 10
41.72373626565623
 20
18.218503867520504
 30
9.0
 11
41.83579230538167
 21
18.791583149761056
 31
9.0
  0
LINE
  5
65
330
17
100
AcDbEntity
  8
0
100
AcDbLine
 10
41.83579230538167
 20
18.791583149761056
 30
9.0
 11
41.83713477357088
 21
18.798398539281557
 31
9.0
  0
LINE
  5
66
330
17
100
AcDbEntity
  8
0
100
AcDbLine
 10
41.83713477357088
 20
18.798398539281557
 30
9.0
 11
41.961980318514996
 21
19.42759828690397
 31
9.0
  0
LINE
  5
67
330
17
100
AcDbEntity
  8
0
100
AcDbLine
 10
41.961980318514996
 20
19.42759828690397
 30
9.0
 11
42.081903973047304
 21
20.097901692717407
 31
9.0
  0
LINE
  5
68
330
17
100
AcDbEntity
  8
0
100
AcDbLine
 10
42.081903973047304
 20
20.097901692717407
 30
9.0
 11
42.18582539243346
 21
20.819753978708246
 31
9.0
  0
LINE
  5
69
330
17
100
AcDbEntity
  8
0
100
AcDbLine
 10
42.18582539243346
 20
20.819753978708246
 30
9.0
 11
42.26256747618058
 21
21.600177276864567
 31
9.0
  0
LINE
  5
6A
330
17
100
AcDbEntity
  8
0
100
AcDbLine
 10
42.26256747618058
 20
21.600177276864567
 30
9.0
 11
42.30049103596011
 21
22.440998885373695
 31
9.0
  0
LINE
  5
6B
330
17
100
AcDbEntity
  8
0
100
AcDbLine
 10
42.30049103596011
 20
22.440998885373695
 30
9.0
 11
42.288062745512676
 21
23.339937352347555
 31
9.0
  0
LINE
  5
6C
330
17
100
AcDbEntity
  8
0
100
AcDbLine
 10
42.288062745512676
 20
23.339937352347555
 30
9.0
 11
42.214439357193925
 21
24.291372506025926
 31
9.0
  0
LINE
  5
6D
330
17
100
AcDbEntity
  8
0
100
AcDbLine
 10
42.214439357193925
 20
24.291372506025926
 30
9.0
 11
42.06999204342262
 21
25.286955969268586
 31
9.0
  0
LINE
  5
6E
330
17
100
AcDbEntity
  8
0
100
AcDbLine
 10
42.06999204342262
 20
25.286955969268586
 30
9.0
 11
41.846747822993365
 21
26.316150510362405
 31
9.0
  0
LINE
  5
6F
330
17
100
AcDbEntity
  8
0
100
AcDbLine
 10
41.846747822993365
 20
26.316150510362405
 30
9.0
 11
41.53874107919451
 21
27.366743358412002
 31
9.0
  0
LINE
  5
70
330
17
100
AcDbEntity
  8
0
100
AcDbLine
 10
41.53874107919451
 20
27.366743358412002
 30
9.0
 11
41.14227278540821
 21
28.425353304382938
 31
9.0
  0
LINE
  5
71
330
17
100
AcDbEntity
  8
0
100
AcDbLine
 10
41.14227278540821
 20
28.425353304382938
 30
9.0
 11
40.65607660815676
 21
29.47793681771023
 31
9.0
  0
LINE
  5
72
330
17
100
AcDbEntity
  8
0
100
AcDbLine
 10
40.65607660815676
 20
29.47793681771023
 30
9.0
 11
40.0813921448341
 21
30.51028999683705
 31
9.0
  0
LINE
  5
73
330
17
100
AcDbEntity
  8
0
100
AcDbLine
 10
40.0813921448341
 20
30.51028999683705
 30
9.0
 11
39.42194685167211
 21
31.5085383829561
 31
9.0
  0
LINE
  5
74
330
17
100
AcDbEntity
  8
0
100
AcDbLine
 10
39.42194685167211
 20
31.5085383829561
 30
9.0
 11
38.68384979608298
 21
32.4596040964105
 31
9.0
  0
LINE
  5
75
330
17
100
AcDbEntity
  8
0
100
AcDbLine
 10
38.68384979608298
 20
32.4596040964105
 30
9.0
 11
37.87540211649332
 21
33.35163862721308
 31
9.0
  0
LINE
  5
76
330
17
100
AcDbEntity
  8
0
100
AcDbLine
 10
37.87540211649332
 20
33.35163862721308
 30
9.0
 11
37.006830839840056
 21
34.17440947771487
 31
9.0
  0
LINE
  5
77
330
17
100
AcDbEntity
  8
0
100
AcDbLine
 10
37.006830839840056
 20
34.17440947771487
 30
9.0
 11
36.089954334978565
 21
34.919629440994775
 31
9.0
  0
LINE
  5
78
330
17
100
AcDbEntity
  8
0
100
AcDbLine
 10
36.089954334978565
 20
34.919629440994775
 30
9.0
 11
35.13778901052936
 21
35.581218414768436
 31
9.0
  0
LINE
  5
79
330
17
100
AcDbEntity
  8
0
100
AcDbLine
 10
35.13778901052936
 20
35.581218414768436
 30
9.0
 11
34.164107725040054
 21
36.155489152290656
 31
9.0
  0
LINE
  5
7A
330
17
100
AcDbEntity
  8
0
100
AcDbLine
 10
34.164107725040054
 20
36.155489152290656
 30
9.0
 11
33.18296055279153
 21
36.64125011509749
 31
9.0
  0
LINE
  5
7B
330
17
100
AcDbEntity
  8
0
100
AcDbLine
 10
33.18296055279153
 20
36.64125011509749
 30
9.0
 11
32.20816774141668
 21
37.03982051071709
 31
9.0
  0
LINE
  5
7C
330
17
100
AcDbEntity
  8
0
100
AcDbLine
 10
32.20816774141668
 20
37.03982051071709
 30
9.0
 11
31.252792440849802
 21
37.35495459932829
 31
9.0
  0
LINE
  5
7D
330
17
100
AcDbEntity
  8
0
100
AcDbLine
 10
31.252792440849802
 20
37.35495459932829
 30
9.0
 11
30.328596292234206
 21
37.59267446355213
 31
9.0
  0
LINE
  5
7E
330
17
100
AcDbEntity
  8
0
100
AcDbLine
 10
30.328596292234206
 20
37.59267446355213
 30
9.0
 11
29.445472870465107
 21
37.76101296696616
 31
9.0
  0
LINE
  5
7F
330
17
100
AcDbEntity
  8
0
100
AcDbLine
 10
29.445472870465107
 20
37.76101296696616
 30
9.0
 11
28.610839874458666
 21
37.86967269133405
 31
9.0
  0
LINE
  5
80
330
17
100
AcDbEntity
  8
0
100
AcDbLine
 10
28.610839874458666
 20
37.86967269133405
 30
9.0
 11
27.828946836810104
 21
37.92961557581124
 31
9.0
  0
LINE
  5
81
330
17
100
AcDbEntity
  8
0
100
AcDbLine
 10
27.828946836810104
 20
37.92961557581124
 30
9.0
 11
27.100015343939496
 21
37.952621290302744
 31
9.0
  0
LINE
  5
82
330
17
100
AcDbEntity
  8
0
100
AcDbLine
 10
27.100015343939496
 20
37.952621290302744
 30
9.0
 11
26.41907082895568
 21
37.950916510453204
 31
9.0
  0
LINE
  5
83
330
17
100
AcDbEntity
  8
0
100
AcDbLine
 10
26.41907082895568
 20
37.950916510453204
 30
9.0
 11
25.77775083793416
 21
37.93722703942633
 31
9.0
  0
LINE
  5
84
330
17
100
AcDbEntity
  8
0
100
AcDbLine
 10
25.77775083793416
 20
37.93722703942633
 30
9.0
 11
25.770805872339956
 21
37.93708844631575
 31
9.0
  0
LINE
  5
85
330
17
100
AcDbEntity
  8
0
100
AcDbLine
 10
25.770805872339956
 20
37.93708844631575
 30
9.0
 11
25.186974625003884
 21
37.926248962642035
 31
9.0
  0
LINE
  5
86
330
17
100
AcDbEntity
  8
0
100
AcDbLine
 10
25.186974625003884
 20
37.926248962642035
 30
9.0
 11
25.102529852142936
 21
37.92610758418198
 31
9.0
  0
LINE
  5
87
330
17
100
AcDbEntity
  8
0
100
AcDbLine
 10
25.102529852142936
 20
37.92610758418198
 30
9.0
 11
24.59583808036136
 21
37.933817783678094
 31
9.0
  0
LINE
  5
88
330
17
100
AcDbEntity
  8
0
100
AcDbLine
 10
24.59583808036136
 20
37.933817783678094
 30
9.0
 11
24.402593345340165
 21
37.94424967709707
 31
9.0
  0
LINE
  5
89
330
17
100
AcDbEntity
  8
0
100
AcDbLine
 10
24.402593345340165
 20
37.94424967709707
 30
9.0
 11
23.96654768824544
 21
37.98476325858754
 31
9.0
  0
LINE
  5
8A
330
17
100
AcDbEntity
  8
0
100
AcDbLine
 10
23.96654768824544
 20
37.98476325858754
 30
9.0
 11
23.63682229025221
 21
38.037800923024164
 31
9.0
  0
LINE
  5
8B
330
17
100
AcDbEntity
  8
0
100
AcDbLine
 10
23.63682229025221
 20
38.037800923024164
 30
9.0
 11
23.26253332439199
 21
38.123990650011166
 31
9.0
  0
LINE
  5
8C
330
17
100
AcDbEntity
  8
0
100
AcDbLine
 10
23.26253332439199
 20
38.123990650011166
 30
9.0
 11
23.034276256554065
 21
38.18808894093661
 31
9.0
  0
LINE
  5
8D
330
17
100
AcDbEntity
  8
0
100
AcDbLine
 10
23.034276256554065
 20
38.18808894093661
 30
9.0
 11
22.813117504197027
 21
38.27352128945522
 31
9.0
  0
LINE
  5
8E
330
17
100
AcDbEntity
  8
0
100
AcDbLine
 10
22.813117504197027
 20
38.27352128945522
 30
9.0
 11
22.48957658775394
 21
38.416483561575156
 31
9.0
  0
LINE
  5
8F
330
17
100
AcDbEntity
  8
0
100
AcDbLine
 10
22.48957658775394
 20
38.416483561575156
 30
9.0
 11
22.249999999999996
 21
38.53813046840752
 31
9.0
  0
LINE
  5
90
330
17
100
AcDbEntity
  8
0
100
AcDbLine
 10
22.249999999999996
 20
38.53813046840752
 30
9.0
 11
22.024862394514393
 21
38.68478642613825
 31
9.0
  0
LINE
  5
91
330
17
100
AcDbEntity
  8
0
100
AcDbLine
 10
22.024862394514393
 20
38.68478642613825
 30
9.0
 11
21.739282976854234
 21
38.893499942881704
 31
9.0
  0
LINE
  5
92
330
17
100
AcDbEntity
  8
0
100
AcDbLine
 10
21.739282976854234
 20
38.893499942881704
 30
9.0
 11
21.554717016553646
 21
39.04231286643285
 31
9.0
  0
LINE
  5
93
330
17
100
AcDbEntity
  8
0
100
AcDbLine
 10
21.554717016553646
 20
39.04231286643285
 30
9.0
 11
21.385077734354105
 21
39.20794014031111
 31
9.0
  0
LINE
  5
94
330
17
100
AcDbEntity
  8
0
100
AcDbLine
 10
21.385077734354105
 20
39.20794014031111
 30
9.0
 11
21.12329075830801
 21
39.48898902960876
 31
9.0
  0
LINE
  5
95
330
17
100
AcDbEntity
  8
0
100
AcDbLine
 10
21.12329075830801
 20
39.48898902960876
 30
9.0
 11
20.9124960945519
 21
39.74802076832549
 31
9.0
  0
LINE
  5
96
330
17
100
AcDbEntity
  8
0
100
AcDbLine
 10
20.9124960945519
 20
39.74802076832549
 30
9.0
 11
20.65938747523549
 21
40.10539059383416
 31
9.0
  0
LINE
  5
97
330
17
100
AcDbEntity
  8
0
100
AcDbLine
 10
20.65938747523549
 20
40.10539059383416
 30
9.0
 11
20.553730823014465
 21
40.267529496800655
 31
9.0
  0
LINE
  5
98
330
17
100
AcDbEntity
  8
0
100
AcDbLine
 10
20.553730823014465
 20
40.267529496800655
 30
9.0
 11
20.293707708491787
 21
40.702482343304
 31
9.0
  0
LINE
  5
99
330
17
100
AcDbEntity
  8
0
100
AcDbLine
 10
20.293707708491787
 20
40.702482343304
 30
9.0
 11
20.251607759399263
 21
40.775684351048426
 31
9.0
  0
LINE
  5
9A
330
17
100
AcDbEntity
  8
0
100
AcDbLine
 10
20.251607759399263
 20
40.775684351048426
 30
9.0
 11
19.969079403956577
 21
41.28671678460147
 31
9.0
  0
LINE
  5
9B
330
17
100
AcDbEntity
  8
0
100
AcDbLine
 10
19.969079403956577
 20
41.28671678460147
 30
9.0
 11
19.965726946314035
 21
41.292800597789736
 31
9.0
  0
LINE
  5
9C
330
17
100
AcDbEntity
  8
0
100
AcDbLine
 10
19.965726946314035
 20
41.292800597789736
 30
9.0
 11
19.656922380476935
 21
41.85504473748257
 31
9.0
  0
LINE
  5
9D
330
17
100
AcDbEntity
  8
0
100
AcDbLine
 10
19.656922380476935
 20
41.85504473748257
 30
9.0
 11
19.317926505642504
 21
42.44561237595116
 31
9.0
  0
LINE
  5
9E
330
17
100
AcDbEntity
  8
0
100
AcDbLine
 10
19.317926505642504
 20
42.44561237595116
 30
9.0
 11
18.93353722602537
 21
43.06538270914983
 31
9.0
  0
LINE
  5
9F
330
17
100
AcDbEntity
  8
0
100
AcDbLine
 10
18.93353722602537
 20
43.06538270914983
 30
9.0
 11
18.490678646467792
 21
43.712550500557
 31
9.0
  0
LINE
  5
A0
330
17
100
AcDbEntity
  8
0
100
AcDbLine
 10
18.490678646467792
 20
43.712550500557
 30
9.0
 11
17.979260066793813
 21
44.381034015751275
 31
9.0
  0
LINE
  5
A1
330
17
100
AcDbEntity
  8
0
100
AcDbLine
 10
17.979260066793813
 20
44.381034015751275
 30
9.0
 11
17.391912935517585
 21
45.06167208197341
 31
9.0
  0
LINE
  5
A2
330
17
100
AcDbEntity
  8
0
100
AcDbLine
 10
17.391912935517585
 20
45.06167208197341
 30
9.0
 11
16.72394341980775
 21
45.74318949264234
 31
9.0
  0
LINE
  5
A3
330
17
100
AcDbEntity
  8
0
100
AcDbLine
 10
16.72394341980775
 20
45.74318949264234
 30
9.0
 11
15.973341643188515
 21
46.41300172877589
 31
9.0
  0
LINE
  5
A4
330
17
100
AcDbEntity
  8
0
100
AcDbLine
 10
15.973341643188515
 20
46.41300172877589
 30
9.0
 11
15.140773149698164
 21
47.05791186904312
 31
9.0
  0
LINE
  5
A5
330
17
100
AcDbEntity
  8
0
100
AcDbLine
 10
15.140773149698164
 20
47.05791186904312
 30
9.0
 11
14.229518229616389
 21
47.664729763658194
 31
9.0
  0
LINE
  5
A6
330
17
100
AcDbEntity
  8
0
100
AcDbLine
 10
14.229518229616389
 20
47.664729763658194
 30
9.0
 11
13.245344539527482
 21
48.2208271233203
 31
9.0
  0
LINE
  5
A7
330
17
100
AcDbEntity
  8
0
100
AcDbLine
 10
13.245344539527482
 20
48.2208271233203
 30
9.0
 11
12.196309019151109
 21
48.71463199600919
 31
9.0
  0
LINE
  5
A8
330
17
100
AcDbEntity
  8
0
100
AcDbLine
 10
12.196309019151109
 20
48.71463199600919
 30
9.0
 11
11.092491347112825
 21
49.1360603597123
 31
9.0
  0
LINE
  5
A9
330
17
100
AcDbEntity
  8
0
100
AcDbLine
 10
11.092491347112825
 20
49.1360603597123
 30
9.0
 11
9.945665250758138
 21
49.476879725040675
 31
9.0
  0
LINE
  5
AA
330
17
100
AcDbEntity
  8
0
100
AcDbLine
 10
9.945665250758138
 20
49.476879725040675
 30
9.0
 11
8.768916846235484
 21
49.73099868779458
 31
9.0
  0
LINE
  5
AB
330
17
100
AcDbEntity
  8
0
100
AcDbLine
 10
8.768916846235484
 20
49.73099868779458
 30
9.0
 11
7.5762212499209705
 21
49.89467663166608
 31
9.0
  0
LINE
  5
AC
330
17
100
AcDbEntity
  8
0
100
AcDbLine
 10
7.5762212499209705
 20
49.89467663166608
 30
9.0
 11
6.381990141674161
 21
49.9666488148909
 31
9.0
  0
LINE
  5
AD
330
17
100
AcDbEntity
  8
0
100
AcDbLine
 10
6.381990141674161
 20
49.9666488148909
 30
9.0
 11
5.200603831211243
 21
49.94816356972514
 31
9.0
  0
LINE
  5
AE
330
17
100
AcDbEntity
  8
0
100
AcDbLine
 10
5.200603831211243
 20
49.94816356972514
 30
9.0
 11
4.045941680439408
 21
49.84293005378413
 31
9.0
  0
LINE
  5
AF
330
17
100
AcDbEntity
  8
0
100
AcDbLine
 10
4.045941680439408
 20
49.84293005378413
 30
9.0
 11
2.930924427636609
 21
49.65697669501269
 31
9.0
  0
LINE
  5
B0
330
17
100
AcDbEntity
  8
0
100
AcDbLine
 10
2.930924427636609
 20
49.65697669501269
 30
9.0
 11
1.8670809602920815
 21
49.39842193565464
 31
9.0
  0
LINE
  5
B1
330
17
100
AcDbEntity
  8
0
100
AcDbLine
 10
1.8670809602920815
 20
49.39842193565464
 30
9.0
 11
0.8641502320538301
 21
49.077159831247485
 31
9.0
  0
LINE
  5
B2
330
17
100
AcDbEntity
  8
0
100
AcDbLine
 10
0.8641502320538301
 20
49.077159831247485
 30
9.0
 11
-0.0702739955876117
 21
48.70446314286054
 31
9.0
  0
LINE
  5
B3
330
17
100
AcDbEntity
  8
0
100
AcDbLine
 10
-0.0702739955876117
 20
48.70446314286054
 30
9.0
 11
-0.9310527028860025
 21
48.292505290618095
 31
9.0
  0
LINE
  5
B4
330
17
100
AcDbEntity
  8
0
100
AcDbLine
 10
-0.9310527028860025
 20
48.292505290618095
 30
9.0
 11
-1.7157703969482367
 21
47.85379927238417
 31
9.0
  0
LINE
  5
B5
330
17
100
AcDbEntity
  8
0
100
AcDbLine
 10
-1.7157703969482367
 20
47.85379927238417
 30
9.0
 11
-2.4249814900782884
 21
47.40054570195859
 31
9.0
  0
LINE
  5
B6
330
17
100
AcDbEntity
  8
0
100
AcDbLine
 10
-2.4249814900782884
 20
47.40054570195859
 30
9.0
 11
-3.0624768501132102
 21
46.94387345881618
 31
9.0
  0
LINE
  5
B7
330
17
100
AcDbEntity
  8
0
100
AcDbLine
 10
-3.0624768501132102
 20
46.94387345881618
 30
9.0
 11
-3.635658557868122
 21
46.49294872663496
 31
9.0
  0
LINE
  5
B8
330
17
100
AcDbEntity
  8
0
100
AcDbLine
 10
-3.635658557868122
 20
46.49294872663496
 30
9.0
 11
-4.156196508279504
 21
46.0539400923887
 31
9.0
  0
LINE
  5
B9
330
17
100
AcDbEntity
  8
0
100
AcDbLine
 10
-4.156196508279504
 20
46.0539400923887
 30
9.0
 11
-4.638676701303382
 21
45.63122080510645
 31
9.0
  0
LINE
  5
BA
330
17
100
AcDbEntity
  8
0
100
AcDbLine
 10
-4.638676701303382
 20
45.63122080510645
 30
9.0
 11
-4.643907767670148
 21
45.62665049879064
 31
9.0
  0
LINE
  5
BB
330
17
100
AcDbEntity
  8
0
100
AcDbLine
 10
-4.643907767670148
 20
45.62665049879064
 30
9.0
 11
-5.084180964610297
 21
45.24306748062064
 31
9.0
  0
LINE
  5
BC
330
17
100
AcDbEntity
  8
0
100
AcDbLine
 10
-5.084180964610297
 20
45.24306748062064
 30
9.0
 11
-5.148778537288521
 21
45.188679124739075
 31
9.0
  0
LINE
  5
BD
330
17
100
AcDbEntity
  8
0
100
AcDbLine
 10
-5.148778537288521
 20
45.188679124739075
 30
9.0
 11
-5.54188297414022
 21
44.8688902873871
 31
9.0
  0
LINE
  5
BE
330
17
100
AcDbEntity
  8
0
100
AcDbLine
 10
-5.54188297414022
 20
44.8688902873871
 30
9.0
 11
-5.696622521400476
 21
44.752666260063144
 31
9.0
  0
LINE
  5
BF
330
17
100
AcDbEntity
  8
0
100
AcDbLine
 10
-5.696622521400476
 20
44.752666260063144
 30
9.0
 11
-6.056694502170149
 21
44.50341671839666
 31
9.0
  0
LINE
  5
C0
330
17
100
AcDbEntity
  8
0
100
AcDbLine
 10
-6.056694502170149
 20
44.50341671839666
 30
9.0
 11
-6.343370764604645
 21
44.33210252608532
 31
9.0
  0
LINE
  5
C1
330
17
100
AcDbEntity
  8
0
100
AcDbLine
 10
-6.343370764604645
 20
44.33210252608532
 30
9.0
 11
-6.685494435612128
 21
44.15753937780032
 31
9.0
  0
LINE
  5
C2
330
17
100
AcDbEntity
  8
0
100
AcDbLine
 10
-6.685494435612128
 20
44.15753937780032
 30
9.0
 11
-6.901551081240925
 21
44.0599207023476
 31
9.0
  0
LINE
  5
C3
330
17
100
AcDbEntity
  8
0
100
AcDbLine
 10
-6.901551081240925
 20
44.0599207023476
 30
9.0
 11
-7.1258833696253125
 21
43.98320757240405
 31
9.0
  0
LINE
  5
C4
330
17
100
AcDbEntity
  8
0
100
AcDbLine
 10
-7.1258833696253125
 20
43.98320757240405
 30
9.0
 11
-7.465624467959496
 21
43.884754934220936
 31
9.0
  0
LINE
  5
C5
330
17
100
AcDbEntity
  8
0
100
AcDbLine
 10
-7.465624467959496
 20
43.884754934220936
 30
9.0
 11
-7.727343906178408
 21
43.82394500904326
 31
9.0
  0
LINE
  5
C6
330
17
100
AcDbEntity
  8
0
100
AcDbLine
 10
-7.727343906178408
 20
43.82394500904326
 30
9.0
 11
-7.994077950313848
 21
43.791574327232524
 31
9.0
  0
LINE
  5
C7
330
17
100
AcDbEntity
  8
0
100
AcDbLine
 10
-7.994077950313848
 20
43.791574327232524
 30
9.0
 11
-8.34700293881836
 21
43.767891245684226
 31
9.0
  0
LINE
  5
C8
330
17
100
AcDbEntity
  8
0
100
AcDbLine
 10
-8.34700293881836
 20
43.767891245684226
 30
9.0
 11
-8.584043770515423
 21
43.76325184638377
 31
9.0
  0
LINE
  5
C9
330
17
100
AcDbEntity
  8
0
100
AcDbLine
 10
-8.584043770515423
 20
43.76325184638377
 30
9.0
 11
-8.820458159454148
 21
43.78108767045316
 31
9.0
  0
LINE
  5
CA
330
17
100
AcDbEntity
  8
0
100
AcDbLine
 10
-8.820458159454148
 20
43.78108767045316
 30
9.0
 11
-9.20165336149188
 21
43.82811018576465
 31
9.0
  0
LINE
  5
CB
330
17
100
AcDbEntity
  8
0
100
AcDbLine
 10
-9.20165336149188
 20
43.82811018576465
 30
9.0
 11
-9.529633834464056
 21
43.89104381174958
 31
9.0
  0
LINE
  5
CC
330
17
100
AcDbEntity
  8
0
100
AcDbLine
 10
-9.529633834464056
 20
43.89104381174958
 30
9.0
 11
-9.953239181709723
 21
44.00210989631744
 31
9.0
  0
LINE
  5
CD
330
17
100
AcDbEntity
  8
0
100
AcDbLine
 10
-9.953239181709723
 20
44.00210989631744
 30
9.0
 11
-10.138397750897209
 21
44.058400715019694
 31
9.0
  0
LINE
  5
CE
330
17
100
AcDbEntity
  8
0
100
AcDbLine
 10
-10.138397750897209
 20
44.058400715019694
 30
9.0
 11
-10.617169313390031
 21
44.224454289855075
 31
9.0
  0
LINE
  5
CF
330
17
100
AcDbEntity
  8
0
100
AcDbLine
 10
-10.617169313390031
 20
44.224454289855075
 30
9.0
 11
-10.696473089030263
 21
44.253468955467746
 31
9.0
  0
LINE
  5
D0
330
17
100
AcDbEntity
  8
0
100
AcDbLine
 10
-10.696473089030263
 20
44.253468955467746
 30
9.0
 11
-11.241387682176534
 21
44.46333678518095
 31
9.0
  0
LINE
  5
D1
330
17
100
AcDbEntity
  8
0
100
AcDbLine
 10
-11.241387682176534
 20
44.46333678518095
 30
9.0
 11
-11.247866413461493
 21
44.46584233823218
 31
9.0
  0
LINE
  5
D2
330
17
100
AcDbEntity
  8
0
100
AcDbLine
 10
-11.247866413461493
 20
44.46584233823218
 30
9.0
 11
-11.845828001744154
 21
44.698050588385364
 31
9.0
  0
LINE
  5
D3
330
17
100
AcDbEntity
  8
0
100
AcDbLine
 10
-11.845828001744154
 20
44.698050588385364
 30
9.0
 11
-12.485123468590738
 21
44.93254929804167
 31
9.0
  0
LINE
  5
D4
330
17
100
AcDbEntity
  8
0
100
AcDbLine
 10
-12.485123468590738
 20
44.93254929804167
 30
9.0
 11
-13.177963431267333
 21
45.16024025156428
 31
9.0
  0
LINE
  5
D5
330
17
100
AcDbEntity
  8
0
100
AcDbLine
 10
-13.177963431267333
 20
45.16024025156428
 30
9.0
 11
-13.933204222929696
 21
45.37133553415433
 31
9.0
  0
LINE
  5
D6
330
17
100
AcDbEntity
  8
0
100
AcDbLine
 10
-13.933204222929696
 20
45.37133553415433
 30
9.0
 11
-14.754666504843549
 21
45.55469008990767
 31
9.0
  0
LINE
  5
D7
330
17
100
AcDbEntity
  8
0
100
AcDbLine
 10
-14.754666504843549
 20
45.55469008990767
 30
9.0
 11
-15.642106226588043
 21
45.69854963974308
 31
9.0
  0
LINE
  5
D8
330
17
100
AcDbEntity
  8
0
100
AcDbLine
 10
-15.642106226588043
 20
45.69854963974308
 30
9.0
 11
-16.591871509634043
 21
45.79125973672824
 31
9.0
  0
LINE
  5
D9
330
17
100
AcDbEntity
  8
0
100
AcDbLine
 10
-16.591871509634043
 20
45.79125973672824
 30
9.0
 11
-17.597412835811408
 21
45.821888156331894
 31
9.0
  0
LINE
  5
DA
330
17
100
AcDbEntity
  8
0
100
AcDbLine
 10
-17.597412835811408
 20
45.821888156331894
 30
9.0
 11
-18.649737551290826
 21
45.780753273763686
 31
9.0
  0
LINE
  5
DB
330
17
100
AcDbEntity
  8
0
100
AcDbLine
 10
-18.649737551290826
 20
45.780753273763686
 30
9.0
 11
-19.73785434307888
 21
45.65985937802427
 31
9.0
  0
LINE
  5
DC
330
17
100
AcDbEntity
  8
0
100
AcDbLine
 10
-19.73785434307888
 20
45.65985937802427
 30
9.0
 11
-20.849227622005614
 21
45.45324001645793
 31
9.0
  0
LINE
  5
DD
330
17
100
AcDbEntity
  8
0
100
AcDbLine
 10
-20.849227622005614
 20
45.45324001645793
 30
9.0
 11
-21.970247106791536
 21
45.15720946054734
 31
9.0
  0
LINE
  5
DE
330
17
100
AcDbEntity
  8
0
100
AcDbLine
 10
-21.970247106791536
 20
45.15720946054734
 30
9.0
 11
-23.086709431231892
 21
44.77052199379556
 31
9.0
  0
LINE
  5
DF
330
17
100
AcDbEntity
  8
0
100
AcDbLine
 10
-23.086709431231892
 20
44.77052199379556
 30
9.0
 11
-24.184303654742436
 21
44.29443916951077
 31
9.0
  0
LINE
  5
E0
330
17
100
AcDbEntity
  8
0
100
AcDbLine
 10
-24.184303654742436
 20
44.29443916951077
 30
9.0
 11
-25.249089751620886
 21
43.73270629467392
 31
9.0
  0
LINE
  5
E1
330
17
100
AcDbEntity
  8
0
100
AcDbLine
 10
-25.249089751620886
 20
43.73270629467392
 30
9.0
 11
-26.267957739809567
 21
43.09144092259921
 31
9.0
  0
LINE
  5
E2
330
17
100
AcDbEntity
  8
0
100
AcDbLine
 10
-26.267957739809567
 20
43.09144092259921
 30
9.0
 11
-27.229054671700883
 21
42.378937854134435
 31
9.0
  0
LINE
  5
E3
330
17
100
AcDbEntity
  8
0
100
AcDbLine
 10
-27.229054671700883
 20
42.378937854134435
 30
9.0
 11
-28.122167003453264
 21
41.60539685217665
 31
9.0
  0
LINE
  5
E4
330
17
100
AcDbEntity
  8
0
100
AcDbLine
 10
-28.122167003453264
 20
41.60539685217665
 30
9.0
 11
-28.939046727561177
 21
40.78258077817005
 31
9.0
  0
LINE
  5
E5
330
17
100
AcDbEntity
  8
0
100
AcDbLine
 10
-28.939046727561177
 20
40.78258077817005
 30
9.0
 11
-29.673670983054713
 21
39.92341296631547
 31
9.0
  0
LINE
  5
E6
330
17
100
AcDbEntity
  8
0
100
AcDbLine
 10
-29.673670983054713
 20
39.92341296631547
 30
9.0
 11
-30.322426563821566
 21
39.041523130212255
 31
9.0
  0
LINE
  5
E7
330
17
100
AcDbEntity
  8
0
100
AcDbLine
 10
-30.322426563821566
 20
39.041523130212255
 30
9.0
 11
-30.88421277484701
 21
38.150750634861
 31
9.0
  0
LINE
  5
E8
330
17
100
AcDbEntity
  8
0
100
AcDbLine
 10
-30.88421277484701
 20
38.150750634861
 30
9.0
 11
-31.36045844848114
 21
37.26461209203452
 31
9.0
  0
LINE
  5
E9
330
17
100
AcDbEntity
  8
0
100
AcDbLine
 10
-31.36045844848114
 20
37.26461209203452
 30
9.0
 11
-31.75505179082768
 21
36.39573618079156
 31
9.0
  0
LINE
  5
EA
330
17
100
AcDbEntity
  8
0
100
AcDbLine
 10
-31.75505179082768
 20
36.39573618079156
 30
9.0
 11
-32.0741856269655
 21
35.55526106251569
 31
9.0
  0
LINE
  5
EB
330
17
100
AcDbEntity
  8
0
100
AcDbLine
 10
-32.0741856269655
 20
35.55526106251569
 30
9.0
 11
-32.32612706474038
 21
34.752176580250996
 31
9.0
  0
LINE
  5
EC
330
17
100
AcDbEntity
  8
0
100
AcDbLine
 10
-32.32612706474038
 20
34.752176580250996
 30
9.0
 11
-32.52093358322957
 21
33.992571227401946
 31
9.0
  0
LINE
  5
ED
330
17
100
AcDbEntity
  8
0
100
AcDbLine
 10
-32.52093358322957
 20
33.992571227401946
 30
9.0
 11
-32.67016741460533
 21
33.27870874220584
 31
9.0
  0
LINE
  5
EE
330
17
100
AcDbEntity
  8
0
100
AcDbLine
 10
-32.67016741460533
 20
33.27870874220584
 30
9.0
 11
-32.78673330831164
 21
32.60781327256403
 31
9.0
  0
LINE
  5
EF
330
17
100
AcDbEntity
  8
0
100
AcDbLine
 10
-32.78673330831164
 20
32.60781327256403
 30
9.0
 11
-32.884615858851966
 21
31.973859221547496
 31
9.0
  0
LINE
  5
F0
330
17
100
AcDbEntity
  8
0
100
AcDbLine
 10
-32.884615858851966
 20
31.973859221547496
 30
9.0
 11
-32.88568535190155
 21
31.96699569914481
 31
9.0
  0
LINE
  5
F1
330
17
100
AcDbEntity
  8
0
100
AcDbLine
 10
-32.88568535190155
 20
31.96699569914481
 30
9.0
 11
-32.97639177650595
 21
31.39015190373067
 31
9.0
  0
LINE
  5
F2
330
17
100
AcDbEntity
  8
0
100
AcDbLine
 10
-32.97639177650595
 20
31.39015190373067
 30
9.0
 11
-32.990916226823174
 21
31.30696548660388
 31
9.0
  0
LINE
  5
F3
330
17
100
AcDbEntity
  8
0
100
AcDbLine
 10
-32.990916226823174
 20
31.30696548660388
 30
9.0
 11
-33.08649539387292
 21
30.809310363457847
 31
9.0
  0
LINE
  5
F4
330
17
100
AcDbEntity
  8
0
100
AcDbLine
 10
-33.08649539387292
 20
30.809310363457847
 30
9.0
 11
-33.13032539947068
 21
30.620812929462044
 31
9.0
  0
LINE
  5
F5
330
17
100
AcDbEntity
  8
0
100
AcDbLine
 10
-33.13032539947068
 20
30.620812929462044
 30
9.0
 11
-33.24594202235886
 21
30.198426895284445
 31
9.0
  0
LINE
  5
F6
330
17
100
AcDbEntity
  8
0
100
AcDbLine
 10
-33.24594202235886
 20
30.198426895284445
 30
9.0
 11
-33.355430139989764
 21
29.88292066075274
 31
9.0
  0
LINE
  5
F7
330
17
100
AcDbEntity
  8
0
100
AcDbLine
 10
-33.355430139989764
 20
29.88292066075274
 30
9.0
 11
-33.50530504819905
 21
29.529284674331567
 31
9.0
  0
LINE
  5
F8
330
17
100
AcDbEntity
  8
0
100
AcDbLine
 10
-33.50530504819905
 20
29.529284674331567
 30
9.0
 11
-33.60806596592687
 21
29.315625895655785
 31
9.0
  0
LINE
  5
F9
330
17
100
AcDbEntity
  8
0
100
AcDbLine
 10
-33.60806596592687
 20
29.315625895655785
 30
9.0
 11
-33.73060421942789
 21
29.11266221332219
 31
9.0
  0
LINE
  5
FA
330
17
100
AcDbEntity
  8
0
100
AcDbLine
 10
-33.73060421942789
 20
29.11266221332219
 30
9.0
 11
-33.927576863940864
 21
28.818861748421106
 31
9.0
  0
LINE
  5
FB
330
17
100
AcDbEntity
  8
0
100
AcDbLine
 10
-33.927576863940864
 20
28.818861748421106
 30
9.0
 11
-34.088977718794496
 21
28.60404863105103
 31
9.0
  0
LINE
  5
FC
330
17
100
AcDbEntity
  8
0
100
AcDbLine
 10
-34.088977718794496
 20
28.60404863105103
 30
9.0
 11
-34.27250037791004
 21
28.407797911478106
 31
9.0
  0
LINE
  5
FD
330
17
100
AcDbEntity
  8
0
100
AcDbLine
 10
-34.27250037791004
 20
28.407797911478106
 30
9.0
 11
-34.52763341281331
 21
28.162799808702623
 31
9.0
  0
LINE
  5
FE
330
17
100
AcDbEntity
  8
0
100
AcDbLine
 10
-34.52763341281331
 20
28.162799808702623
 30
9.0
 11
-34.70623507634047
 21
28.006878913044385
 31
9.0
  0
LINE
  5
FF
330
17
100
AcDbEntity
  8
0
100
AcDbLine
 10
-34.70623507634047
 20
28.006878913044385
 30
9.0
 11
-34.898803651980764
 21
27.868577706999734
 31
9.0
  0
LINE
  5
100
330
17
100
AcDbEntity
  8
0
100
AcDbLine
 10
-34.898803651980764
 20
27.868577706999734
 30
9.0
 11
-35.221041608463906
 21
27.65957149081378
 31
9.0
  0
LINE
  5
101
330
17
100
AcDbEntity
  8
0
100
AcDbLine
 10
-35.221041608463906
 20
27.65957149081378
 30
9.0
 11
-35.51274218225143
 21
27.496959661039277
 31
9.0
  0
LINE
  5
102
330
17
100
AcDbEntity
  8
0
100
AcDbLine
 10
-35.51274218225143
 20
27.496959661039277
 30
9.0
 11
-35.90863460760108
 21
27.309752949334978
 31
9.0
  0
LINE
  5
103
330
17
100
AcDbEntity
  8
0
100
AcDbLine
 10
-35.90863460760108
 20
27.309752949334978
 30
9.0
 11
-36.086657341423994
 21
27.233856584099428
 31
9.0
  0
LINE
  5
104
330
17
100
AcDbEntity
  8
0
100
AcDbLine
 10
-36.086657341423994
 20
27.233856584099428
 30
9.0
 11
-36.56015481684334
 21
27.05331257412147
 31
9.0
  0
LINE
  5
105
330
17
100
AcDbEntity
  8
0
100
AcDbLine
 10
-36.56015481684334
 20
27.05331257412147
 30
9.0
 11
-36.63955530104588
 21
27.02456361310012
 31
9.0
  0
LINE
  5
106
330
17
100
AcDbEntity
  8
0
100
AcDbLine
 10
-36.63955530104588
 20
27.02456361310012
 30
9.0
 11
-37.19188453771149
 21
26.835067349029547
 31
9.0
  0
LINE
  5
107
330
17
100
AcDbEntity
  8
0
100
AcDbLine
 10
-37.19188453771149
 20
26.835067349029547
 30
9.0
 11
-37.198458072267556
 21
26.832822265824916
 31
9.0
  0
LINE
  5
108
330
17
100
AcDbEntity
  8
0
100
AcDbLine
 10
-37.198458072267556
 20
26.832822265824916
 30
9.0
 11
-37.80578381023548
 21
26.62634180548459
 31
9.0
  0
LINE
  5
109
330
17
100
AcDbEntity
  8
0
100
AcDbLine
 10
-37.80578381023548
 20
26.62634180548459
 30
9.0
 11
-38.44624541517916
 21
26.395047033917574
 31
9.0
  0
LINE
  5
10A
330
17
100
AcDbEntity
  8
0
100
AcDbLine
 10
-38.44624541517916
 20
26.395047033917574
 30
9.0
 11
-39.12334854232028
 21
26.12411948010786
 31
9.0
  0
LINE
  5
10B
330
17
100
AcDbEntity
  8
0
100
AcDbLine
 10
-39.12334854232028
 20
26.12411948010786
 30
9.0
 11
-39.83758598610224
 21
25.800368425094153
 31
9.0
  0
LINE
  5
10C
330
17
100
AcDbEntity
  8
0
100
AcDbLine
 10
-39.83758598610224
 20
25.800368425094153
 30
9.0
 11
-40.5847206390119
 21
25.41280038701055
 31
9.0
  0
LINE
  5
10D
330
17
100
AcDbEntity
  8
0
100
AcDbLine
 10
-40.5847206390119
 20
25.41280038701055
 30
9.0
 11
-41.35701004262666
 21
24.9525679382705
 31
9.0
  0
LINE
  5
10E
330
17
100
AcDbEntity
  8
0
100
AcDbLine
 10
-41.35701004262666
 20
24.9525679382705
 30
9.0
 11
-42.14416536160624
 21
24.413090636834617
 31
9.0
  0
LINE
  5
10F
330
17
100
AcDbEntity
  8
0
100
AcDbLine
 10
-42.14416536160624
 20
24.413090636834617
 30
9.0
 11
-42.93414227547649
 21
23.79020386197887
 31
9.0
  0
LINE
  5
110
330
17
100
AcDbEntity
  8
0
100
AcDbLine
 10
-42.93414227547649
 20
23.79020386197887
 30
9.0
 11
-43.713828783285415
 21
23.082271425292145
 31
9.0
  0
LINE
  5
111
330
17
100
AcDbEntity
  8
0
100
AcDbLine
 10
-43.713828783285415
 20
23.082271425292145
 30
9.0
 11
-44.469665506831106
 21
22.290233336600693
 31
9.0
  0
LINE
  5
112
330
17
100
AcDbEntity
  8
0
100
AcDbLine
 10
-44.469665506831106
 20
22.290233336600693
 30
9.0
 11
-45.18821446584764
 21
21.41757674940122
 31
9.0
  0
LINE
  5
113
330
17
100
AcDbEntity
  8
0
100
AcDbLine
 10
-45.18821446584764
 20
21.41757674940122
 30
9.0
 11
-45.856680439368056
 21
20.47022675201491
 31
9.0
  0
LINE
  5
114
330
17
100
AcDbEntity
  8
0
100
AcDbLine
 10
-45.856680439368056
 20
20.47022675201491
 30
9.0
 11
-46.4633822865082
 21
19.456358818053815
 31
9.0
  0
LINE
  5
115
330
17
100
AcDbEntity
  8
0
100
AcDbLine
 10
-46.4633822865082
 20
19.456358818053815
 30
9.0
 11
-46.99816810159309
 21
18.38613824870999
 31
9.0
  0
LINE
  5
116
330
17
100
AcDbEntity
  8
0
100
AcDbLine
 10
-46.99816810159309
 20
18.38613824870999
 30
9.0
 11
-47.45276664231844
 21
17.271394591384016
 31
9.0
  0
LINE
  5
117
330
17
100
AcDbEntity
  8
0
100
AcDbLine
 10
-47.45276664231844
 20
17.271394591384016
 30
9.0
 11
-47.821067367251544
 21
16.125241097827622
 31
9.0
  0
LINE
  5
118
330
17
100
AcDbEntity
  8
0
100
AcDbLine
 10
-47.821067367251544
 20
16.125241097827622
 30
9.0
 11
-48.09932218695279
 21
14.961650881997459
 31
9.0
  0
LINE
  5
119
330
17
100
AcDbEntity
  8
0
100
AcDbLine
 10
-48.09932218695279
 20
14.961650881997459
 30
9.0
 11
-48.286263354129765
 21
13.795002555014353
 31
9.0
  0
LINE
  5
11A
330
17
100
AcDbEntity
  8
0
100
AcDbLine
 10
-48.286263354129765
 20
13.795002555014353
 30
9.0
 11
-48.383133550056826
 21
12.639608708551917
 31
9.0
  0
LINE
  5
11B
330
17
100
AcDbEntity
  8
0
100
AcDbLine
 10
-48.383133550056826
 20
12.639608708551917
 30
9.0
 11
-48.393625954656436
 21
11.509240611367579
 31
9.0
  0
LINE
  5
11C
330
17
100
AcDbEntity
  8
0
100
AcDbLine
 10
-48.393625954656436
 20
11.509240611367579
 30
9.0
 11
-48.323733702489676
 21
10.416661753945629
 31
9.0
  0
LINE
  5
11D
330
17
100
AcDbEntity
  8
0
100
AcDbLine
 10
-48.323733702489676
 20
10.416661753945629
 30
9.0
 11
-48.18150938460525
 21
9.373181218058834
 31
9.0
  0
LINE
  5
11E
330
17
100
AcDbEntity
  8
0
100
AcDbLine
 10
-48.18150938460525
 20
9.373181218058834
 30
9.0
 11
-47.97673586065754
 21
8.388234893314007
 31
9.0
  0
LINE
  5
11F
330
17
100
AcDbEntity
  8
0
100
AcDbLine
 10
-47.97673586065754
 20
8.388234893314007
 30
9.0
 11
-47.7205092277518
 21
7.468997618421339
 31
9.0
  0
LINE
  5
120
330
17
100
AcDbEntity
  8
0
100
AcDbLine
 10
-47.7205092277518
 20
7.468997618421339
 30
9.0
 11
-47.42473293725882
 21
6.620021048785115
 31
9.0
  0
LINE
  5
121
330
17
100
AcDbEntity
  8
0
100
AcDbLine
 10
-47.42473293725882
 20
6.620021048785115
 30
9.0
 11
-47.10151852092645
 21
5.842877809222983
 31
9.0
  0
LINE
  5
122
330
17
100
AcDbEntity
  8
0
100
AcDbLine
 10
-47.10151852092645
 20
5.842877809222983
 30
9.0
 11
-46.76248406283554
 21
5.1357671333385815
 31
9.0
  0
LINE
  5
123
330
17
100
AcDbEntity
  8
0
100
AcDbLine
 10
-46.76248406283554
 20
5.1357671333385815
 30
9.0
 11
-46.41794184958204
 21
4.492991085648295
 31
9.0
  0
LINE
  5
124
330
17
100
AcDbEntity
  8
0
100
AcDbLine
 10
-46.41794184958204
 20
4.492991085648295
 30
9.0
 11
-46.07599320943256
 21
3.90412822702939
 31
9.0
  0
LINE
  5
125
330
17
100
AcDbEntity
  8
0
100
AcDbLine
 10
-46.07599320943256
 20
3.90412822702939
 30
9.0
 11
-45.74347778424818
 21
3.355573558363383
 31
9.0
  0
LINE
  5
126
330
17
100
AcDbEntity
  8
0
100
AcDbLine
 10
-45.74347778424818
 20
3.355573558363383
 30
9.0
 11
-45.73988527629659
 21
3.3496283382857985
 31
9.0
  0
LINE
  5
127
330
17
100
AcDbEntity
  8
0
100
AcDbLine
 10
-45.73988527629659
 20
3.3496283382857985
 30
9.0
 11
-45.4385823844032
 21
2.8494353884064814
 31
9.0
  0
LINE
  5
128
330
17
100
AcDbEntity
  8
0
100
AcDbLine
 10
-45.4385823844032
 20
2.8494353884064814
 30
9.0
 11
-45.396237560634674
 21
2.7763747591219587
 31
9.0
  0
LINE
  5
129
330
17
100
AcDbEntity
  8
0
100
AcDbLine
 10
-45.396237560634674
 20
2.7763747591219587
 30
9.0
 11
-45.14956890337578
 21
2.33371171312249
 31
9.0
  0
LINE
  5
12A
330
17
100
AcDbEntity
  8
0
100
AcDbLine
 10
-45.14956890337578
 20
2.33371171312249
 30
9.0
 11
-45.06198082057562
 21
2.161140916737124
 31
9.0
  0
LINE
  5
12B
330
17
100
AcDbEntity
  8
0
100
AcDbLine
 10
-45.06198082057562
 20
2.161140916737124
 30
9.0
 11
-44.879043782797304
 21
1.763257509737984
 31
9.0
  0
LINE
  5
12C
330
17
100
AcDbEntity
  8
0
100
AcDbLine
 10
-44.879043782797304
 20
1.763257509737984
 30
9.0
 11
-44.76011304856019
 21
1.4511881065845795
 31
9.0
  0
LINE
  5
12D
330
17
100
AcDbEntity
  8
0
100
AcDbLine
 10
-44.76011304856019
 20
1.4511881065845795
 30
9.0
 11
-44.64761105874607
 21
1.0839494902999087
 31
9.0
  0
LINE
  5
12E
330
17
100
AcDbEntity
  8
0
100
AcDbLine
 10
-44.64761105874607
 20
1.0839494902999087
 30
9.0
 11
-44.588993273107725
 21
0.8542239254962462
 31
9.0
  0
LINE
  5
12F
330
17
100
AcDbEntity
  8
0
100
AcDbLine
 10
-44.588993273107725
 20
0.8542239254962462
 30
9.0
 11
-44.552400481051286
 21
0.6199786534265204
 31
9.0
  0
LINE
  5
130
330
17
100
AcDbEntity
  8
0
100
AcDbLine
 10
-44.552400481051286
 20
0.6199786534265204
 30
9.0
 11
-44.514438982268345
 21
0.2683028645631449
 31
9.0
  0
LINE
  5
131
330
17
100
AcDbEntity
  8
0
100
AcDbLine
 10
-44.514438982268345
 20
0.2683028645631449
 30
9.0
 11
-44.5
 21
1.0671882874424772e-14
 31
9.0
  0
LINE
  5
132
330
17
100
AcDbEntity
  8
0
100
AcDbLine
 10
-44.5
 20
1.0671882874424772e-14
 30
9.0
 11
-44.514438982268345
 21
-0.26830286456312347
 31
9.0
  0
LINE
  5
133
330
17
100
AcDbEntity
  8
0
100
AcDbLine
 10
-44.514438982268345
 20
-0.26830286456312347
 30
9.0
 11
-44.552400481051286
 21
-0.6199786534265209
 31
9.0
  0
LINE
  5
134
330
17
100
AcDbEntity
  8
0
100
AcDbLine
 10
-44.552400481051286
 20
-0.6199786534265209
 30
9.0
 11
-44.58899327310772
 21
-0.8542239254962549
 31
9.0
  0
LINE
  5
135
330
17
100
AcDbEntity
  8
0
100
AcDbLine
 10
-44.58899327310772
 20
-0.8542239254962549
 30
9.0
 11
-44.64761105874607
 21
-1.0839494902999252
 31
9.0
  0
LINE
  5
136
330
17
100
AcDbEntity
  8
0
100
AcDbLine
 10
-44.64761105874607
 20
-1.0839494902999252
 30
9.0
 11
-44.760113048560186
 21
-1.4511881065845733
 31
9.0
  0
LINE
  5
137
330
17
100
AcDbEntity
  8
0
100
AcDbLine
 10
-44.760113048560186
 20
-1.4511881065845733
 30
9.0
 11
-44.87904378279731
 21
-1.763257509738012
 31
9.0
  0
LINE
  5
138
330
17
100
AcDbEntity
  8
0
100
AcDbLine
 10
-44.87904378279731
 20
-1.763257509738012
 30
9.0
 11
-45.061980820575634
 21
-2.1611409167371516
 31
9.0
  0
LINE
  5
139
330
17
100
AcDbEntity
  8
0
100
AcDbLine
 10
-45.061980820575634
 20
-2.1611409167371516
 30
9.0
 11
-45.14956890337578
 21
-2.333711713122488
 31
9.0
  0
LINE
  5
13A
330
17
100
AcDbEntity
  8
0
100
AcDbLine
 10
-45.14956890337578
 20
-2.333711713122488
 30
9.0
 11
-45.396237560634674
 21
-2.776374759121955
 31
9.0
  0
LINE
  5
13B
330
17
100
AcDbEntity
  8
0
100
AcDbLine
 10
-45.396237560634674
 20
-2.776374759121955
 30
9.0
 11
-45.438582384403205
 21
-2.849435388406487
 31
9.0
  0
LINE
  5
13C
330
17
100
AcDbEntity
  8
0
100
AcDbLine
 10
-45.438582384403205
 20
-2.849435388406487
 30
9.0
 11
-45.7398852762966
 21
-3.349628338285797
 31
9.0
  0
LINE
  5
13D
330
17
100
AcDbEntity
  8
0
100
AcDbLine
 10
-45.7398852762966
 20
-3.349628338285797
 30
9.0
 11
-45.74347778424816
 21
-3.355573558363337
 31
9.0
  0
LINE
  5
13E
330
17
100
AcDbEntity
  8
0
100
AcDbLine
 10
-45.74347778424816
 20
-3.355573558363337
 30
9.0
 11
-46.07599320943252
 21
-3.9041282270293203
 31
9.0
  0
LINE
  5
13F
330
17
100
AcDbEntity
  8
0
100
AcDbLine
 10
-46.07599320943252
 20
-3.9041282270293203
 30
9.0
 11
-46.41794184958208
 21
-4.4929910856483435
 31
9.0
  0
LINE
  5
140
330
17
100
AcDbEntity
  8
0
100
AcDbLine
 10
-46.41794184958208
 20
-4.4929910856483435
 30
9.0
 11
-46.76248406283555
 21
-5.135767133338622
 31
9.0
  0
LINE
  5
141
330
17
100
AcDbEntity
  8
0
100
AcDbLine
 10
-46.76248406283555
 20
-5.135767133338622
 30
9.0
 11
-47.101518520926454
 21
-5.8428778092229665
 31
9.0
  0
LINE
  5
142
330
17
100
AcDbEntity
  8
0
100
AcDbLine
 10
-47.101518520926454
 20
-5.8428778092229665
 30
9.0
 11
-47.424732937258796
 21
-6.620021048785092
 31
9.0
  0
LINE
  5
143
330
17
100
AcDbEntity
  8
0
100
AcDbLine
 10
-47.424732937258796
 20
-6.620021048785092
 30
9.0
 11
-47.72050922775182
 21
-7.468997618421364
 31
9.0
  0
LINE
  5
144
330
17
100
AcDbEntity
  8
0
100
AcDbLine
 10
-47.72050922775182
 20
-7.468997618421364
 30
9.0
 11
-47.97673586065752
 21
-8.38823489331398
 31
9.0
  0
LINE
  5
145
330
17
100
AcDbEntity
  8
0
100
AcDbLine
 10
-47.97673586065752
 20
-8.38823489331398
 30
9.0
 11
-48.181509384605235
 21
-9.373181218058765
 31
9.0
  0
LINE
  5
146
330
17
100
AcDbEntity
  8
0
100
AcDbLine
 10
-48.181509384605235
 20
-9.373181218058765
 30
9.0
 11
-48.323733702489676
 21
-10.41666175394567
 31
9.0
  0
LINE
  5
147
330
17
100
AcDbEntity
  8
0
100
AcDbLine
 10
-48.323733702489676
 20
-10.41666175394567
 30
9.0
 11
-48.393625954656436
 21
-11.509240611367579
 31
9.0
  0
LINE
  5
148
330
17
100
AcDbEntity
  8
0
100
AcDbLine
 10
-48.393625954656436
 20
-11.509240611367579
 30
9.0
 11
-48.383133550056826
 21
-12.639608708551888
 31
9.0
  0
LINE
  5
149
330
17
100
AcDbEntity
  8
0
100
AcDbLine
 10
-48.383133550056826
 20
-12.639608708551888
 30
9.0
 11
-48.28626335412976
 21
-13.795002555014328
 31
9.0
  0
LINE
  5
14A
330
17
100
AcDbEntity
  8
0
100
AcDbLine
 10
-48.28626335412976
 20
-13.795002555014328
 30
9.0
 11
-48.0993221869528
 21
-14.961650881997436
 31
9.0
  0
LINE
  5
14B
330
17
100
AcDbEntity
  8
0
100
AcDbLine
 10
-48.0993221869528
 20
-14.961650881997436
 30
9.0
 11
-47.82106736725152
 21
-16.125241097827647
 31
9.0
  0
LINE
  5
14C
330
17
100
AcDbEntity
  8
0
100
AcDbLine
 10
-47.82106736725152
 20
-16.125241097827647
 30
9.0
 11
-47.45276664231843
 21
-17.271394591384045
 31
9.0
  0
LINE
  5
14D
330
17
100
AcDbEntity
  8
0
100
AcDbLine
 10
-47.45276664231843
 20
-17.271394591384045
 30
9.0
 11
-46.99816810159307
 21
-18.38613824871003
 31
9.0
  0
LINE
  5
14E
330
17
100
AcDbEntity
  8
0
100
AcDbLine
 10
-46.99816810159307
 20
-18.38613824871003
 30
9.0
 11
-46.46338228650822
 21
-19.456358818053783
 31
9.0
  0
LINE
  5
14F
330
17
100
AcDbEntity
  8
0
100
AcDbLine
 10
-46.46338228650822
 20
-19.456358818053783
 30
9.0
 11
-45.856680439368056
 21
-20.47022675201491
 31
9.0
  0
LINE
  5
150
330
17
100
AcDbEntity
  8
0
100
AcDbLine
 10
-45.856680439368056
 20
-20.47022675201491
 30
9.0
 11
-45.18821446584763
 21
-21.41757674940123
 31
9.0
  0
LINE
  5
151
330
17
100
AcDbEntity
  8
0
100
AcDbLine
 10
-45.18821446584763
 20
-21.41757674940123
 30
9.0
 11
-44.46966550683113
 21
-22.290233336600668
 31
9.0
  0
LINE
  5
152
330
17
100
AcDbEntity
  8
0
100
AcDbLine
 10
-44.46966550683113
 20
-22.290233336600668
 30
9.0
 11
-43.71382878328537
 21
-23.082271425292184
 31
9.0
  0
LINE
  5
153
330
17
100
AcDbEntity
  8
0
100
AcDbLine
 10
-43.71382878328537
 20
-23.082271425292184
 30
9.0
 11
-42.934142275476525
 21
-23.79020386197885
 31
9.0
  0
LINE
  5
154
330
17
100
AcDbEntity
  8
0
100
AcDbLine
 10
-42.934142275476525
 20
-23.79020386197885
 30
9.0
 11
-42.144165361606255
 21
-24.41309063683461
 31
9.0
  0
LINE
  5
155
330
17
100
AcDbEntity
  8
0
100
AcDbLine
 10
-42.144165361606255
 20
-24.41309063683461
 30
9.0
 11
-41.35701004262665
 21
-24.952567938270512
 31
9.0
  0
LINE
  5
156
330
17
100
AcDbEntity
  8
0
100
AcDbLine
 10
-41.35701004262665
 20
-24.952567938270512
 30
9.0
 11
-40.58472063901189
 21
-25.412800387010563
 31
9.0
  0
LINE
  5
157
330
17
100
AcDbEntity
  8
0
100
AcDbLine
 10
-40.58472063901189
 20
-25.412800387010563
 30
9.0
 11
-39.83758598610228
 21
-25.80036842509414
 31
9.0
  0
LINE
  5
158
330
17
100
AcDbEntity
  8
0
100
AcDbLine
 10
-39.83758598610228
 20
-25.80036842509414
 30
9.0
 11
-39.123348542320294
 21
-26.124119480107854
 31
9.0
  0
LINE
  5
159
330
17
100
AcDbEntity
  8
0
100
AcDbLine
 10
-39.123348542320294
 20
-26.124119480107854
 30
9.0
 11
-38.44624541517916
 21
-26.395047033917564
 31
9.0
  0
LINE
  5
15A
330
17
100
AcDbEntity
  8
0
100
AcDbLine
 10
-38.44624541517916
 20
-26.395047033917564
 30
9.0
 11
-37.80578381023546
 21
-26.626341805484596
 31
9.0
  0
LINE
  5
15B
330
17
100
AcDbEntity
  8
0
100
AcDbLine
 10
-37.80578381023546
 20
-26.626341805484596
 30
9.0
 11
-37.19845807226755
 21
-26.832822265824923
 31
9.0
  0
LINE
  5
15C
330
17
100
AcDbEntity
  8
0
100
AcDbLine
 10
-37.19845807226755
 20
-26.832822265824923
 30
9.0
 11
-37.191884537711495
 21
-26.835067349029547
 31
9.0
  0
LINE
  5
15D
330
17
100
AcDbEntity
  8
0
100
AcDbLine
 10
-37.191884537711495
 20
-26.835067349029547
 30
9.0
 11
-36.63955530104591
 21
-27.02456361310011
 31
9.0
  0
LINE
  5
15E
330
17
100
AcDbEntity
  8
0
100
AcDbLine
 10
-36.63955530104591
 20
-27.02456361310011
 30
9.0
 11
-36.56015481684333
 21
-27.053312574121474
 31
9.0
  0
LINE
  5
15F
330
17
100
AcDbEntity
  8
0
100
AcDbLine
 10
-36.56015481684333
 20
-27.053312574121474
 30
9.0
 11
-36.08665734142397
 21
-27.233856584099442
 31
9.0
  0
LINE
  5
160
330
17
100
AcDbEntity
  8
0
100
AcDbLine
 10
-36.08665734142397
 20
-27.233856584099442
 30
9.0
 11
-35.90863460760113
 21
-27.309752949334964
 31
9.0
  0
LINE
  5
161
330
17
100
AcDbEntity
  8
0
100
AcDbLine
 10
-35.90863460760113
 20
-27.309752949334964
 30
9.0
 11
-35.51274218225148
 21
-27.496959661039252
 31
9.0
  0
LINE
  5
162
330
17
100
AcDbEntity
  8
0
100
AcDbLine
 10
-35.51274218225148
 20
-27.496959661039252
 30
9.0
 11
-35.22104160846388
 21
-27.659571490813793
 31
9.0
  0
LINE
  5
163
330
17
100
AcDbEntity
  8
0
100
AcDbLine
 10
-35.22104160846388
 20
-27.659571490813793
 30
9.0
 11
-34.89880365198073
 21
-27.86857770699976
 31
9.0
  0
LINE
  5
164
330
17
100
AcDbEntity
  8
0
100
AcDbLine
 10
-34.89880365198073
 20
-27.86857770699976
 30
9.0
 11
-34.706235076340434
 21
-28.006878913044414
 31
9.0
  0
LINE
  5
165
330
17
100
AcDbEntity
  8
0
100
AcDbLine
 10
-34.706235076340434
 20
-28.006878913044414
 30
9.0
 11
-34.52763341281328
 21
-28.162799808702655
 31
9.0
  0
LINE
  5
166
330
17
100
AcDbEntity
  8
0
100
AcDbLine
 10
-34.52763341281328
 20
-28.162799808702655
 30
9.0
 11
-34.27250037791003
 21
-28.40779791147813
 31
9.0
  0
LINE
  5
167
330
17
100
AcDbEntity
  8
0
100
AcDbLine
 10
-34.27250037791003
 20
-28.40779791147813
 30
9.0
 11
-34.08897771879451
 21
-28.604048631051015
 31
9.0
  0
LINE
  5
168
330
17
100
AcDbEntity
  8
0
100
AcDbLine
 10
-34.08897771879451
 20
-28.604048631051015
 30
9.0
 11
-33.927576863940914
 21
-28.818861748421046
 31
9.0
  0
LINE
  5
169
330
17
100
AcDbEntity
  8
0
100
AcDbLine
 10
-33.927576863940914
 20
-28.818861748421046
 30
9.0
 11
-33.73060421942794
 21
-29.11266221332211
 31
9.0
  0
LINE
  5
16A
330
17
100
AcDbEntity
  8
0
100
AcDbLine
 10
-33.73060421942794
 20
-29.11266221332211
 30
9.0
 11
-33.60806596592689
 21
-29.31562589565575
 31
9.0
  0
LINE
  5
16B
330
17
100
AcDbEntity
  8
0
100
AcDbLine
 10
-33.60806596592689
 20
-29.31562589565575
 30
9.0
 11
-33.50530504819904
 21
-29.52928467433158
 31
9.0
  0
LINE
  5
16C
330
17
100
AcDbEntity
  8
0
100
AcDbLine
 10
-33.50530504819904
 20
-29.52928467433158
 30
9.0
 11
-33.35543013998976
 21
-29.882920660752767
 31
9.0
  0
LINE
  5
16D
330
17
100
AcDbEntity
  8
0
100
AcDbLine
 10
-33.35543013998976
 20
-29.882920660752767
 30
9.0
 11
-33.24594202235888
 21
-30.198426895284392
 31
9.0
  0
LINE
  5
16E
330
17
100
AcDbEntity
  8
0
100
AcDbLine
 10
-33.24594202235888
 20
-30.198426895284392
 30
9.0
 11
-33.13032539947069
 21
-30.620812929461984
 31
9.0
  0
LINE
  5
16F
330
17
100
AcDbEntity
  8
0
100
AcDbLine
 10
-33.13032539947069
 20
-30.620812929461984
 30
9.0
 11
-33.08649539387294
 21
-30.809310363457787
 31
9.0
  0
LINE
  5
170
330
17
100
AcDbEntity
  8
0
100
AcDbLine
 10
-33.08649539387294
 20
-30.809310363457787
 30
9.0
 11
-32.990916226823174
 21
-31.306965486603836
 31
9.0
  0
LINE
  5
171
330
17
100
AcDbEntity
  8
0
100
AcDbLine
 10
-32.990916226823174
 20
-31.306965486603836
 30
9.0
 11
-32.97639177650591
 21
-31.390151903730782
 31
9.0
  0
LINE
  5
172
330
17
100
AcDbEntity
  8
0
100
AcDbLine
 10
-32.97639177650591
 20
-31.390151903730782
 30
9.0
 11
-32.88568535190154
 21
-31.96699569914491
 31
9.0
  0
LINE
  5
173
330
17
100
AcDbEntity
  8
0
100
AcDbLine
 10
-32.88568535190154
 20
-31.96699569914491
 30
9.0
 11
-32.884615858851994
 21
-31.973859221547393
 31
9.0
  0
LINE
  5
174
330
17
100
AcDbEntity
  8
0
100
AcDbLine
 10
-32.884615858851994
 20
-31.973859221547393
 30
9.0
 11
-32.786733308311604
 21
-32.60781327256419
 31
9.0
  0
LINE
  5
175
330
17
100
AcDbEntity
  8
0
100
AcDbLine
 10
-32.786733308311604
 20
-32.60781327256419
 30
9.0
 11
-32.670167414605366
 21
-33.27870874220572
 31
9.0
  0
LINE
  5
176
330
17
100
AcDbEntity
  8
0
100
AcDbLine
 10
-32.670167414605366
 20
-33.27870874220572
 30
9.0
 11
-32.52093358322956
 21
-33.99257122740193
 31
9.0
  0
LINE
  5
177
330
17
100
AcDbEntity
  8
0
100
AcDbLine
 10
-32.52093358322956
 20
-33.99257122740193
 30
9.0
 11
-32.32612706474034
 21
-34.75217658025112
 31
9.0
  0
LINE
  5
178
330
17
100
AcDbEntity
  8
0
100
AcDbLine
 10
-32.32612706474034
 20
-34.75217658025112
 30
9.0
 11
-32.07418562696552
 21
-35.55526106251563
 31
9.0
  0
LINE
  5
179
330
17
100
AcDbEntity
  8
0
100
AcDbLine
 10
-32.07418562696552
 20
-35.55526106251563
 30
9.0
 11
-31.755051790827693
 21
-36.39573618079156
 31
9.0
  0
LINE
  5
17A
330
17
100
AcDbEntity
  8
0
100
AcDbLine
 10
-31.755051790827693
 20
-36.39573618079156
 30
9.0
 11
-31.360458448481175
 21
-37.26461209203444
 31
9.0
  0
LINE
  5
17B
330
17
100
AcDbEntity
  8
0
100
AcDbLine
 10
-31.360458448481175
 20
-37.26461209203444
 30
9.0
 11
-30.884212774846947
 21
-38.150750634861105
 31
9.0
  0
LINE
  5
17C
330
17
100
AcDbEntity
  8
0
100
AcDbLine
 10
-30.884212774846947
 20
-38.150750634861105
 30
9.0
 11
-30.322426563821605
 21
-39.04152313021222
 31
9.0
  0
LINE
  5
17D
330
17
100
AcDbEntity
  8
0
100
AcDbLine
 10
-30.322426563821605
 20
-39.04152313021222
 30
9.0
 11
-29.67367098305475
 21
-39.92341296631542
 31
9.0
  0
LINE
  5
17E
330
17
100
AcDbEntity
  8
0
100
AcDbLine
 10
-29.67367098305475
 20
-39.92341296631542
 30
9.0
 11
-28.93904672756117
 21
-40.78258077817005
 31
9.0
  0
LINE
  5
17F
330
17
100
AcDbEntity
  8
0
100
AcDbLine
 10
-28.93904672756117
 20
-40.78258077817005
 30
9.0
 11
-28.122167003453225
 21
-41.60539685217669
 31
9.0
  0
LINE
  5
180
330
17
100
AcDbEntity
  8
0
100
AcDbLine
 10
-28.122167003453225
 20
-41.60539685217669
 30
9.0
 11
-27.229054671700876
 21
-42.378937854134456
 31
9.0
  0
LINE
  5
181
330
17
100
AcDbEntity
  8
0
100
AcDbLine
 10
-27.229054671700876
 20
-42.378937854134456
 30
9.0
 11
-26.267957739809656
 21
-43.09144092259914
 31
9.0
  0
LINE
  5
182
330
17
100
AcDbEntity
  8
0
100
AcDbLine
 10
-26.267957739809656
 20
-43.09144092259914
 30
9.0
 11
-25.24908975162087
 21
-43.732706294673925
 31
9.0
  0
LINE
  5
183
330
17
100
AcDbEntity
  8
0
100
AcDbLine
 10
-25.24908975162087
 20
-43.732706294673925
 30
9.0
 11
-24.184303654742394
 21
-44.294439169510795
 31
9.0
  0
LINE
  5
184
330
17
100
AcDbEntity
  8
0
100
AcDbLine
 10
-24.184303654742394
 20
-44.294439169510795
 30
9.0
 11
-23.086709431231974
 21
-44.77052199379553
 31
9.0
  0
LINE
  5
185
330
17
100
AcDbEntity
  8
0
100
AcDbLine
 10
-23.086709431231974
 20
-44.77052199379553
 30
9.0
 11
-21.97024710679148
 21
-45.15720946054736
 31
9.0
  0
LINE
  5
186
330
17
100
AcDbEntity
  8
0
100
AcDbLine
 10
-21.97024710679148
 20
-45.15720946054736
 30
9.0
 11
-20.849227622005696
 21
-45.453240016457904
 31
9.0
  0
LINE
  5
187
330
17
100
AcDbEntity
  8
0
100
AcDbLine
 10
-20.849227622005696
 20
-45.453240016457904
 30
9.0
 11
-19.7378543430788
 21
-45.65985937802429
 31
9.0
  0
LINE
  5
188
330
17
100
AcDbEntity
  8
0
100
AcDbLine
 10
-19.7378543430788
 20
-45.65985937802429
 30
9.0
 11
-18.64973755129082
 21
-45.78075327376369
 31
9.0
  0
LINE
  5
189
330
17
100
AcDbEntity
  8
0
100
AcDbLine
 10
-18.64973755129082
 20
-45.78075327376369
 30
9.0
 11
-17.597412835811532
 21
-45.82188815633191
 31
9.0
  0
LINE
  5
18A
330
17
100
AcDbEntity
  8
0
100
AcDbLine
 10
-17.597412835811532
 20
-45.82188815633191
 30
9.0
 11
-16.591871509634124
 21
-45.79125973672824
 31
9.0
  0
LINE
  5
18B
330
17
100
AcDbEntity
  8
0
100
AcDbLine
 10
-16.591871509634124
 20
-45.79125973672824
 30
9.0
 11
-15.642106226588078
 21
-45.698549639743064
 31
9.0
  0
LINE
  5
18C
330
17
100
AcDbEntity
  8
0
100
AcDbLine
 10
-15.642106226588078
 20
-45.698549639743064
 30
9.0
 11
-14.7546665048434
 21
-45.55469008990765
 31
9.0
  0
LINE
  5
18D
330
17
100
AcDbEntity
  8
0
100
AcDbLine
 10
-14.7546665048434
 20
-45.55469008990765
 30
9.0
 11
-13.933204222929792
 21
-45.371335534154355
 31
9.0
  0
LINE
  5
18E
330
17
100
AcDbEntity
  8
0
100
AcDbLine
 10
-13.933204222929792
 20
-45.371335534154355
 30
9.0
 11
-13.177963431267358
 21
-45.16024025156429
 31
9.0
  0
LINE
  5
18F
330
17
100
AcDbEntity
  8
0
100
AcDbLine
 10
-13.177963431267358
 20
-45.16024025156429
 30
9.0
 11
-12.485123468590828
 21
-44.932549298041685
 31
9.0
  0
LINE
  5
190
330
17
100
AcDbEntity
  8
0
100
AcDbLine
 10
-12.485123468590828
 20
-44.932549298041685
 30
9.0
 11
-11.845828001744064
 21
-44.69805058838534
 31
9.0
  0
LINE
  5
191
330
17
100
AcDbEntity
  8
0
100
AcDbLine
 10
-11.845828001744064
 20
-44.69805058838534
 30
9.0
 11
-11.247866413461534
 21
-44.4658423382322
 31
9.0
  0
LINE
  5
192
330
17
100
AcDbEntity
  8
0
100
AcDbLine
 10
-11.247866413461534
 20
-44.4658423382322
 30
9.0
 11
-11.24138768217653
 21
-44.46333678518095
 31
9.0
  0
LINE
  5
193
330
17
100
AcDbEntity
  8
0
100
AcDbLine
 10
-11.24138768217653
 20
-44.46333678518095
 30
9.0
 11
-10.696473089030262
 21
-44.253468955467746
 31
9.0
  0
LINE
  5
194
330
17
100
AcDbEntity
  8
0
100
AcDbLine
 10
-10.696473089030262
 20
-44.253468955467746
 30
9.0
 11
-10.617169313390086
 21
-44.224454289855096
 31
9.0
  0
LINE
  5
195
330
17
100
AcDbEntity
  8
0
100
AcDbLine
 10
-10.617169313390086
 20
-44.224454289855096
 30
9.0
 11
-10.138397750897283
 21
-44.05840071501971
 31
9.0
  0
LINE
  5
196
330
17
100
AcDbEntity
  8
0
100
AcDbLine
 10
-10.138397750897283
 20
-44.05840071501971
 30
9.0
 11
-9.953239181709703
 21
-44.00210989631743
 31
9.0
  0
LINE
  5
197
330
17
100
AcDbEntity
  8
0
100
AcDbLine
 10
-9.953239181709703
 20
-44.00210989631743
 30
9.0
 11
-9.52963383446404
 21
-43.891043811749576
 31
9.0
  0
LINE
  5
198
330
17
100
AcDbEntity
  8
0
100
AcDbLine
 10
-9.52963383446404
 20
-43.891043811749576
 30
9.0
 11
-9.201653361491879
 21
-43.82811018576465
 31
9.0
  0
LINE
  5
199
330
17
100
AcDbEntity
  8
0
100
AcDbLine
 10
-9.201653361491879
 20
-43.82811018576465
 30
9.0
 11
-8.820458159454121
 21
-43.78108767045316
 31
9.0
  0
LINE
  5
19A
330
17
100
AcDbEntity
  8
0
100
AcDbLine
 10
-8.820458159454121
 20
-43.78108767045316
 30
9.0
 11
-8.584043770515406
 21
-43.76325184638376
 31
9.0
  0
LINE
  5
19B
330
17
100
AcDbEntity
  8
0
100
AcDbLine
 10
-8.584043770515406
 20
-43.76325184638376
 30
9.0
 11
-8.34700293881835
 21
-43.767891245684226
 31
9.0
  0
LINE
  5
19C
330
17
100
AcDbEntity
  8
0
100
AcDbLine
 10
-8.34700293881835
 20
-43.767891245684226
 30
9.0
 11
-7.994077950313842
 21
-43.791574327232524
 31
9.0
  0
LINE
  5
19D
330
17
100
AcDbEntity
  8
0
100
AcDbLine
 10
-7.994077950313842
 20
-43.791574327232524
 30
9.0
 11
-7.727343906178406
 21
-43.82394500904326
 31
9.0
  0
LINE
  5
19E
330
17
100
AcDbEntity
  8
0
100
AcDbLine
 10
-7.727343906178406
 20
-43.82394500904326
 30
9.0
 11
-7.4656244679595
 21
-43.884754934220936
 31
9.0
  0
LINE
  5
19F
330
17
100
AcDbEntity
  8
0
100
AcDbLine
 10
-7.4656244679595
 20
-43.884754934220936
 30
9.0
 11
-7.125883369625336
 21
-43.98320757240404
 31
9.0
  0
LINE
  5
1A0
330
17
100
AcDbEntity
  8
0
100
AcDbLine
 10
-7.125883369625336
 20
-43.98320757240404
 30
9.0
 11
-6.90155108124092
 21
-44.0599207023476
 31
9.0
  0
LINE
  5
1A1
330
17
100
AcDbEntity
  8
0
100
AcDbLine
 10
-6.90155108124092
 20
-44.0599207023476
 30
9.0
 11
-6.685494435612099
 21
-44.15753937780033
 31
9.0
  0
LINE
  5
1A2
330
17
100
AcDbEntity
  8
0
100
AcDbLine
 10
-6.685494435612099
 20
-44.15753937780033
 30
9.0
 11
-6.343370764604618
 21
-44.33210252608535
 31
9.0
  0
LINE
  5
1A3
330
17
100
AcDbEntity
  8
0
100
AcDbLine
 10
-6.343370764604618
 20
-44.33210252608535
 30
9.0
 11
-6.056694502170259
 21
-44.50341671839659
 31
9.0
  0
LINE
  5
1A4
330
17
100
AcDbEntity
  8
0
100
AcDbLine
 10
-6.056694502170259
 20
-44.50341671839659
 30
9.0
 11
-5.696622521400551
 21
-44.75266626006308
 31
9.0
  0
LINE
  5
1A5
330
17
100
AcDbEntity
  8
0
100
AcDbLine
 10
-5.696622521400551
 20
-44.75266626006308
 30
9.0
 11
-5.541882974140241
 21
-44.86889028738707
 31
9.0
  0
LINE
  5
1A6
330
17
100
AcDbEntity
  8
0
100
AcDbLine
 10
-5.541882974140241
 20
-44.86889028738707
 30
9.0
 11
-5.148778537288535
 21
-45.18867912473903
 31
9.0
  0
LINE
  5
1A7
330
17
100
AcDbEntity
  8
0
100
AcDbLine
 10
-5.148778537288535
 20
-45.18867912473903
 30
9.0
 11
-5.084180964610232
 21
-45.24306748062067
 31
9.0
  0
LINE
  5
1A8
330
17
100
AcDbEntity
  8
0
100
AcDbLine
 10
-5.084180964610232
 20
-45.24306748062067
 30
9.0
 11
-4.643907767670102
 21
-45.62665049879067
 31
9.0
  0
LINE
  5
1A9
330
17
100
AcDbEntity
  8
0
100
AcDbLine
 10
-4.643907767670102
 20
-45.62665049879067
 30
9.0
 11
-4.638676701303311
 21
-45.6312208051065
 31
9.0
  0
LINE
  5
1AA
330
17
100
AcDbEntity
  8
0
100
AcDbLine
 10
-4.638676701303311
 20
-45.6312208051065
 30
9.0
 11
-4.1561965082793275
 21
-46.05394009238887
 31
9.0
  0
LINE
  5
1AB
330
17
100
AcDbEntity
  8
0
100
AcDbLine
 10
-4.1561965082793275
 20
-46.05394009238887
 30
9.0
 11
-3.6356585578682914
 21
-46.492948726634836
 31
9.0
  0
LINE
  5
1AC
330
17
100
AcDbEntity
  8
0
100
AcDbLine
 10
-3.6356585578682914
 20
-46.492948726634836
 30
9.0
 11
-3.062476850113167
 21
-46.9438734588162
 31
9.0
  0
LINE
  5
1AD
330
17
100
AcDbEntity
  8
0
100
AcDbLine
 10
-3.062476850113167
 20
-46.9438734588162
 30
9.0
 11
-2.424981490078252
 21
-47.40054570195861
 31
9.0
  0
LINE
  5
1AE
330
17
100
AcDbEntity
  8
0
100
AcDbLine
 10
-2.424981490078252
 20
-47.40054570195861
 30
9.0
 11
-1.715770396948263
 21
-47.85379927238417
 31
9.0
  0
LINE
  5
1AF
330
17
100
AcDbEntity
  8
0
100
AcDbLine
 10
-1.715770396948263
 20
-47.85379927238417
 30
9.0
 11
-0.9310527028860283
 21
-48.29250529061809
 31
9.0
  0
LINE
  5
1B0
330
17
100
AcDbEntity
  8
0
100
AcDbLine
 10
-0.9310527028860283
 20
-48.29250529061809
 30
9.0
 11
-0.07027399558762124
 21
-48.70446314286053
 31
9.0
  0
LINE
  5
1B1
330
17
100
AcDbEntity
  8
0
100
AcDbLine
 10
-0.07027399558762124
 20
-48.70446314286053
 30
9.0
 11
0.864150232053869
 21
-49.07715983124749
 31
9.0
  0
LINE
  5
1B2
330
17
100
AcDbEntity
  8
0
100
AcDbLine
 10
0.864150232053869
 20
-49.07715983124749
 30
9.0
 11
1.867080960292054
 21
-49.398421935654646
 31
9.0
  0
LINE
  5
1B3
330
17
100
AcDbEntity
  8
0
100
AcDbLine
 10
1.867080960292054
 20
-49.398421935654646
 30
9.0
 11
2.930924427636548
 21
-49.65697669501267
 31
9.0
  0
LINE
  5
1B4
330
17
100
AcDbEntity
  8
0
100
AcDbLine
 10
2.930924427636548
 20
-49.65697669501267
 30
9.0
 11
4.045941680439427
 21
-49.84293005378413
 31
9.0
  0
LINE
  5
1B5
330
17
100
AcDbEntity
  8
0
100
AcDbLine
 10
4.045941680439427
 20
-49.84293005378413
 30
9.0
 11
5.200603831211236
 21
-49.94816356972514
 31
9.0
  0
LINE
  5
1B6
330
17
100
AcDbEntity
  8
0
100
AcDbLine
 10
5.200603831211236
 20
-49.94816356972514
 30
9.0
 11
6.381990141674156
 21
-49.9666488148909
 31
9.0
  0
LINE
  5
1B7
330
17
100
AcDbEntity
  8
0
100
AcDbLine
 10
6.381990141674156
 20
-49.9666488148909
 30
9.0
 11
7.576221249920976
 21
-49.89467663166607
 31
9.0
  0
LINE
  5
1B8
330
17
100
AcDbEntity
  8
0
100
AcDbLine
 10
7.576221249920976
 20
-49.89467663166607
 30
9.0
 11
8.76891684623543
 21
-49.73099868779459
 31
9.0
  0
LINE
  5
1B9
330
17
100
AcDbEntity
  8
0
100
AcDbLine
 10
8.76891684623543
 20
-49.73099868779459
 30
9.0
 11
9.945665250758154
 21
-49.476879725040675
 31
9.0
  0
LINE
  5
1BA
330
17
100
AcDbEntity
  8
0
100
AcDbLine
 10
9.945665250758154
 20
-49.476879725040675
 30
9.0
 11
11.092491347112782
 21
-49.13606035971231
 31
9.0
  0
LINE
  5
1BB
330
17
100
AcDbEntity
  8
0
100
AcDbLine
 10
11.092491347112782
 20
-49.13606035971231
 30
9.0
 11
12.196309019151176
 21
-48.71463199600915
 31
9.0
  0
LINE
  5
1BC
330
17
100
AcDbEntity
  8
0
100
AcDbLine
 10
12.196309019151176
 20
-48.71463199600915
 30
9.0
 11
13.245344539527432
 21
-48.22082712332033
 31
9.0
  0
LINE
  5
1BD
330
17
100
AcDbEntity
  8
0
100
AcDbLine
 10
13.245344539527432
 20
-48.22082712332033
 30
9.0
 11
14.22951822961634
 21
-47.66472976365821
 31
9.0
  0
LINE
  5
1BE
330
17
100
AcDbEntity
  8
0
100
AcDbLine
 10
14.22951822961634
 20
-47.66472976365821
 30
9.0
 11
15.140773149698163
 21
-47.05791186904312
 31
9.0
  0
LINE
  5
1BF
330
17
100
AcDbEntity
  8
0
100
AcDbLine
 10
15.140773149698163
 20
-47.05791186904312
 30
9.0
 11
15.973341643188569
 21
-46.41300172877584
 31
9.0
  0
LINE
  5
1C0
330
17
100
AcDbEntity
  8
0
100
AcDbLine
 10
15.973341643188569
 20
-46.41300172877584
 30
9.0
 11
16.723943419807732
 21
-45.74318949264236
 31
9.0
  0
LINE
  5
1C1
330
17
100
AcDbEntity
  8
0
100
AcDbLine
 10
16.723943419807732
 20
-45.74318949264236
 30
9.0
 11
17.391912935517563
 21
-45.06167208197342
 31
9.0
  0
LINE
  5
1C2
330
17
100
AcDbEntity
  8
0
100
AcDbLine
 10
17.391912935517563
 20
-45.06167208197342
 30
9.0
 11
17.97926006679386
 21
-44.38103401575123
 31
9.0
  0
LINE
  5
1C3
330
17
100
AcDbEntity
  8
0
100
AcDbLine
 10
17.97926006679386
 20
-44.38103401575123
 30
9.0
 11
18.490678646467735
 21
-43.71255050055708
 31
9.0
  0
LINE
  5
1C4
330
17
100
AcDbEntity
  8
0
100
AcDbLine
 10
18.490678646467735
 20
-43.71255050055708
 30
9.0
 11
18.933537226025372
 21
-43.06538270914983
 31
9.0
  0
LINE
  5
1C5
330
17
100
AcDbEntity
  8
0
100
AcDbLine
 10
18.933537226025372
 20
-43.06538270914983
 30
9.0
 11
19.317926505642493
 21
-42.44561237595115
 31
9.0
  0
LINE
  5
1C6
330
17
100
AcDbEntity
  8
0
100
AcDbLine
 10
19.317926505642493
 20
-42.44561237595115
 30
9.0
 11
19.65692238047696
 21
-41.85504473748253
 31
9.0
  0
LINE
  5
1C7
330
17
100
AcDbEntity
  8
0
100
AcDbLine
 10
19.65692238047696
 20
-41.85504473748253
 30
9.0
 11
19.965726946314053
 21
-41.292800597789714
 31
9.0
  0
LINE
  5
1C8
330
17
100
AcDbEntity
  8
0
100
AcDbLine
 10
19.965726946314053
 20
-41.292800597789714
 30
9.0
 11
19.969079403956584
 21
-41.28671678460147
 31
9.0
  0
LINE
  5
1C9
330
17
100
AcDbEntity
  8
0
100
AcDbLine
 10
19.969079403956584
 20
-41.28671678460147
 30
9.0
 11
20.25160775939927
 21
-40.775684351048426
 31
9.0
  0
LINE
  5
1CA
330
17
100
AcDbEntity
  8
0
100
AcDbLine
 10
20.25160775939927
 20
-40.775684351048426
 30
9.0
 11
20.293707708491773
 21
-40.702482343304034
 31
9.0
  0
LINE
  5
1CB
330
17
100
AcDbEntity
  8
0
100
AcDbLine
 10
20.293707708491773
 20
-40.702482343304034
 30
9.0
 11
20.553730823014433
 21
-40.267529496800705
 31
9.0
  0
LINE
  5
1CC
330
17
100
AcDbEntity
  8
0
100
AcDbLine
 10
20.553730823014433
 20
-40.267529496800705
 30
9.0
 11
20.65938747523548
 21
-40.10539059383417
 31
9.0
  0
LINE
  5
1CD
330
17
100
AcDbEntity
  8
0
100
AcDbLine
 10
20.65938747523548
 20
-40.10539059383417
 30
9.0
 11
20.91249609455189
 21
-39.7480207683255
 31
9.0
  0
LINE
  5
1CE
330
17
100
AcDbEntity
  8
0
100
AcDbLine
 10
20.91249609455189
 20
-39.7480207683255
 30
9.0
 11
21.123290758308002
 21
-39.48898902960877
 31
9.0
  0
LINE
  5
1CF
330
17
100
AcDbEntity
  8
0
100
AcDbLine
 10
21.123290758308002
 20
-39.48898902960877
 30
9.0
 11
21.38507773435412
 21
-39.207940140311095
 31
9.0
  0
LINE
  5
1D0
330
17
100
AcDbEntity
  8
0
100
AcDbLine
 10
21.38507773435412
 20
-39.207940140311095
 30
9.0
 11
21.55471701655366
 21
-39.042312866432844
 31
9.0
  0
LINE
  5
1D1
330
17
100
AcDbEntity
  8
0
100
AcDbLine
 10
21.55471701655366
 20
-39.042312866432844
 30
9.0
 11
21.739282976854245
 21
-38.8934999428817
 31
9.0
  0
LINE
  5
1D2
330
17
100
AcDbEntity
  8
0
100
AcDbLine
 10
21.739282976854245
 20
-38.8934999428817
 30
9.0
 11
22.024862394514404
 21
-38.684786426138245
 31
9.0
  0
LINE
  5
1D3
330
17
100
AcDbEntity
  8
0
100
AcDbLine
 10
22.024862394514404
 20
-38.684786426138245
 30
9.0
 11
22.250000000000014
 21
-38.538130468407516
 31
9.0
  0
LINE
  5
1D4
330
17
100
AcDbEntity
  8
0
100
AcDbLine
 10
22.250000000000014
 20
-38.538130468407516
 30
9.0
 11
22.489576587753966
 21
-38.41648356157514
 31
9.0
  0
LINE
  5
1D5
330
17
100
AcDbEntity
  8
0
100
AcDbLine
 10
22.489576587753966
 20
-38.41648356157514
 30
9.0
 11
22.81311750419704
 21
-38.27352128945521
 31
9.0
  0
LINE
  5
1D6
330
17
100
AcDbEntity
  8
0
100
AcDbLine
 10
22.81311750419704
 20
-38.27352128945521
 30
9.0
 11
23.034276256554104
 21
-38.188088940936595
 31
9.0
  0
LINE
  5
1D7
330
17
100
AcDbEntity
  8
0
100
AcDbLine
 10
23.034276256554104
 20
-38.188088940936595
 30
9.0
 11
23.262533324392052
 21
-38.12399065001115
 31
9.0
  0
LINE
  5
1D8
330
17
100
AcDbEntity
  8
0
100
AcDbLine
 10
23.262533324392052
 20
-38.12399065001115
 30
9.0
 11
23.636822290252255
 21
-38.037800923024164
 31
9.0
  0
LINE
  5
1D9
330
17
100
AcDbEntity
  8
0
100
AcDbLine
 10
23.636822290252255
 20
-38.037800923024164
 30
9.0
 11
23.966547688245345
 21
-37.98476325858756
 31
9.0
  0
LINE
  5
1DA
330
17
100
AcDbEntity
  8
0
100
AcDbLine
 10
23.966547688245345
 20
-37.98476325858756
 30
9.0
 11
24.40259334534007
 21
-37.944249677097076
 31
9.0
  0
LINE
  5
1DB
330
17
100
AcDbEntity
  8
0
100
AcDbLine
 10
24.40259334534007
 20
-37.944249677097076
 30
9.0
 11
24.595838080361307
 21
-37.933817783678094
 31
9.0
  0
LINE
  5
1DC
330
17
100
AcDbEntity
  8
0
100
AcDbLine
 10
24.595838080361307
 20
-37.933817783678094
 30
9.0
 11
25.10252985214291
 21
-37.92610758418197
 31
9.0
  0
LINE
  5
1DD
330
17
100
AcDbEntity
  8
0
100
AcDbLine
 10
25.10252985214291
 20
-37.92610758418197
 30
9.0
 11
25.186974625003895
 21
-37.92624896264203
 31
9.0
  0
LINE
  5
1DE
330
17
100
AcDbEntity
  8
0
100
AcDbLine
 10
25.186974625003895
 20
-37.92624896264203
 30
9.0
 11
25.770805872339952
 21
-37.93708844631574
 31
9.0
  0
LINE
  5
1DF
330
17
100
AcDbEntity
  8
0
100
AcDbLine
 10
25.770805872339952
 20
-37.93708844631574
 30
9.0
 11
25.77775083793424
 21
-37.937227039426325
 31
9.0
  0
LINE
  5
1E0
330
17
100
AcDbEntity
  8
0
100
AcDbLine
 10
25.77775083793424
 20
-37.937227039426325
 30
9.0
 11
26.419070828955782
 21
-37.95091651045322
 31
9.0
  0
LINE
  5
1E1
330
17
100
AcDbEntity
  8
0
100
AcDbLine
 10
26.419070828955782
 20
-37.95091651045322
 30
9.0
 11
27.100015343939393
 21
-37.952621290302744
 31
9.0
  0
LINE
  5
1E2
330
17
100
AcDbEntity
  8
0
100
AcDbLine
 10
27.100015343939393
 20
-37.952621290302744
 30
9.0
 11
27.82894683681012
 21
-37.929615575811226
 31
9.0
  0
LINE
  5
1E3
330
17
100
AcDbEntity
  8
0
100
AcDbLine
 10
27.82894683681012
 20
-37.929615575811226
 30
9.0
 11
28.61083987445869
 21
-37.86967269133404
 31
9.0
  0
LINE
  5
1E4
330
17
100
AcDbEntity
  8
0
100
AcDbLine
 10
28.61083987445869
 20
-37.86967269133404
 30
9.0
 11
29.445472870465103
 21
-37.76101296696617
 31
9.0
  0
LINE
  5
1E5
330
17
100
AcDbEntity
  8
0
100
AcDbLine
 10
29.445472870465103
 20
-37.76101296696617
 30
9.0
 11
30.328596292234263
 21
-37.59267446355212
 31
9.0
  0
LINE
  5
1E6
330
17
100
AcDbEntity
  8
0
100
AcDbLine
 10
30.328596292234263
 20
-37.59267446355212
 30
9.0
 11
31.252792440849667
 21
-37.35495459932834
 31
9.0
  0
LINE
  5
1E7
330
17
100
AcDbEntity
  8
0
100
AcDbLine
 10
31.252792440849667
 20
-37.35495459932834
 30
9.0
 11
32.20816774141669
 21
-37.03982051071708
 31
9.0
  0
LINE
  5
1E8
330
17
100
AcDbEntity
  8
0
100
AcDbLine
 10
32.20816774141669
 20
-37.03982051071708
 30
9.0
 11
33.18296055279156
 21
-36.64125011509748
 31
9.0
  0
LINE
  5
1E9
330
17
100
AcDbEntity
  8
0
100
AcDbLine
 10
33.18296055279156
 20
-36.64125011509748
 30
9.0
 11
34.164107725040004
 21
-36.155489152290684
 31
9.0
  0
LINE
  5
1EA
330
17
100
AcDbEntity
  8
0
100
AcDbLine
 10
34.164107725040004
 20
-36.155489152290684
 30
9.0
 11
35.137789010529396
 21
-35.581218414768415
 31
9.0
  0
LINE
  5
1EB
330
17
100
AcDbEntity
  8
0
100
AcDbLine
 10
35.137789010529396
 20
-35.581218414768415
 30
9.0
 11
36.089954334978565
 21
-34.91962944099477
 31
9.0
  0
LINE
  5
1EC
330
17
100
AcDbEntity
  8
0
100
AcDbLine
 10
36.089954334978565
 20
-34.91962944099477
 30
9.0
 11
37.00683083984001
 21
-34.174409477714896
 31
9.0
  0
LINE
  5
1ED
330
17
100
AcDbEntity
  8
0
100
AcDbLine
 10
37.00683083984001
 20
-34.174409477714896
 30
9.0
 11
37.875402116493376
 21
-33.35163862721302
 31
9.0
  0
LINE
  5
1EE
330
17
100
AcDbEntity
  8
0
100
AcDbLine
 10
37.875402116493376
 20
-33.35163862721302
 30
9.0
 11
38.68384979608292
 21
-32.45960409641057
 31
9.0
  0
LINE
  5
1EF
330
17
100
AcDbEntity
  8
0
100
AcDbLine
 10
38.68384979608292
 20
-32.45960409641057
 30
9.0
 11
39.42194685167213
 21
-31.508538382956065
 31
9.0
  0
LINE
  5
1F0
330
17
100
AcDbEntity
  8
0
100
AcDbLine
 10
39.42194685167213
 20
-31.508538382956065
 30
9.0
 11
40.08139214483408
 21
-30.510289996837084
 31
9.0
  0
LINE
  5
1F1
330
17
100
AcDbEntity
  8
0
100
AcDbLine
 10
40.08139214483408
 20
-30.510289996837084
 30
9.0
 11
40.65607660815674
 21
-29.477936817710276
 31
9.0
  0
LINE
  5
1F2
330
17
100
AcDbEntity
  8
0
100
AcDbLine
 10
40.65607660815674
 20
-29.477936817710276
 30
9.0
 11
41.14227278540822
 21
-28.425353304382917
 31
9.0
  0
LINE
  5
1F3
330
17
100
AcDbEntity
  8
0
100
AcDbLine
 10
41.14227278540822
 20
-28.425353304382917
 30
9.0
 11
41.53874107919453
 21
-27.366743358411956
 31
9.0
  0
LINE
  5
1F4
330
17
100
AcDbEntity
  8
0
100
AcDbLine
 10
41.53874107919453
 20
-27.366743358411956
 30
9.0
 11
41.84674782299336
 21
-26.316150510362515
 31
9.0
  0
LINE
  5
1F5
330
17
100
AcDbEntity
  8
0
100
AcDbLine
 10
41.84674782299336
 20
-26.316150510362515
 30
9.0
 11
42.06999204342261
 21
-25.286955969268643
 31
9.0
  0
LINE
  5
1F6
330
17
100
AcDbEntity
  8
0
100
AcDbLine
 10
42.06999204342261
 20
-25.286955969268643
 30
9.0
 11
42.21443935719393
 21
-24.291372506025862
 31
9.0
  0
LINE
  5
1F7
330
17
100
AcDbEntity
  8
0
100
AcDbLine
 10
42.21443935719393
 20
-24.291372506025862
 30
9.0
 11
42.28806274551266
 21
-23.339937352347622
 31
9.0
  0
LINE
  5
1F8
330
17
100
AcDbEntity
  8
0
100
AcDbLine
 10
42.28806274551266
 20
-23.339937352347622
 30
9.0
 11
42.30049103596009
 21
-22.440998885373695
 31
9.0
  0
LINE
  5
1F9
330
17
100
AcDbEntity
  8
0
100
AcDbLine
 10
42.30049103596009
 20
-22.440998885373695
 30
9.0
 11
42.262567476180564
 21
-21.600177276864407
 31
9.0
  0
LINE
  5
1FA
330
17
100
AcDbEntity
  8
0
100
AcDbLine
 10
42.262567476180564
 20
-21.600177276864407
 30
9.0
 11
42.18582539243347
 21
-20.819753978708288
 31
9.0
  0
LINE
  5
1FB
330
17
100
AcDbEntity
  8
0
100
AcDbLine
 10
42.18582539243347
 20
-20.819753978708288
 30
9.0
 11
42.08190397304729
 21
-20.097901692717354
 31
9.0
  0
LINE
  5
1FC
330
17
100
AcDbEntity
  8
0
100
AcDbLine
 10
42.08190397304729
 20
-20.097901692717354
 30
9.0
 11
41.96198031851501
 21
-19.427598286904075
 31
9.0
  0
LINE
  5
1FD
330
17
100
AcDbEntity
  8
0
100
AcDbLine
 10
41.96198031851501
 20
-19.427598286904075
 30
9.0
 11
41.83713477357088
 21
-18.79839853928147
 31
9.0
  0
LINE
  5
1FE
330
17
100
AcDbEntity
  8
0
100
AcDbLine
 10
41.83713477357088
 20
-18.79839853928147
 30
9.0
 11
41.835792305381695
 21
-18.791583149761113
 31
9.0
  0
LINE
  5
1FF
330
17
100
AcDbEntity
  8
0
100
AcDbLine
 10
41.835792305381695
 20
-18.791583149761113
 30
9.0
 11
41.723736265656235
 21
-18.21850386752057
 31
9.0
  0
LINE
  5
200
330
17
100
AcDbEntity
  8
0
100
AcDbLine
 10
41.723736265656235
 20
-18.21850386752057
 30
9.0
 11
41.70893335413184
 21
-18.13536655061757
 31
9.0
  0
LINE
  5
201
330
17
100
AcDbEntity
  8
0
100
AcDbLine
 10
41.70893335413184
 20
-18.13536655061757
 30
9.0
 11
41.628540315564194
 21
-17.635033703287633
 31
9.0
  0
LINE
  5
202
330
17
100
AcDbEntity
  8
0
100
AcDbLine
 10
41.628540315564194
 20
-17.635033703287633
 30
9.0
 11
41.60525712900164
 21
-17.442913310728205
 31
9.0
  0
LINE
  5
203
330
17
100
AcDbEntity
  8
0
100
AcDbLine
 10
41.60525712900164
 20
-17.442913310728205
 30
9.0
 11
41.569436684421674
 21
-17.00645705735745
 31
9.0
  0
LINE
  5
204
330
17
100
AcDbEntity
  8
0
100
AcDbLine
 10
41.569436684421674
 20
-17.00645705735745
 30
9.0
 11
41.56441237306849
 21
-16.672531035271604
 31
9.0
  0
LINE
  5
205
330
17
100
AcDbEntity
  8
0
100
AcDbLine
 10
41.56441237306849
 20
-16.672531035271604
 30
9.0
 11
41.58429808759282
 21
-16.288961670800635
 31
9.0
  0
LINE
  5
206
330
17
100
AcDbEntity
  8
0
100
AcDbLine
 10
41.58429808759282
 20
-16.288961670800635
 30
9.0
 11
41.60778615758137
 21
-16.05304178930321
 31
9.0
  0
LINE
  5
207
330
17
100
AcDbEntity
  8
0
100
AcDbLine
 10
41.60778615758137
 20
-16.05304178930321
 30
9.0
 11
41.65351678243866
 21
-15.820407763701391
 31
9.0
  0
LINE
  5
208
330
17
100
AcDbEntity
  8
0
100
AcDbLine
 10
41.65351678243866
 20
-15.820407763701391
 30
9.0
 11
41.73812484586959
 21
-15.476957022742786
 31
9.0
  0
LINE
  5
209
330
17
100
AcDbEntity
  8
0
100
AcDbLine
 10
41.73812484586959
 20
-15.476957022742786
 30
9.0
 11
41.816321624972936
 21
-15.21989637799222
 31
9.0
  0
LINE
  5
20A
330
17
100
AcDbEntity
  8
0
100
AcDbLine
 10
41.816321624972936
 20
-15.21989637799222
 30
9.0
 11
41.92165481425472
 21
-14.972712578811446
 31
9.0
  0
LINE
  5
20B
330
17
100
AcDbEntity
  8
0
100
AcDbLine
 10
41.92165481425472
 20
-14.972712578811446
 30
9.0
 11
42.07760715824625
 21
-14.655229032362055
 31
9.0
  0
LINE
  5
20C
330
17
100
AcDbEntity
  8
0
100
AcDbLine
 10
42.07760715824625
 20
-14.655229032362055
 30
9.0
 11
42.1921097364423
 21
-14.447625950727945
 31
9.0
  0
LINE
  5
20D
330
17
100
AcDbEntity
  8
0
100
AcDbLine
 10
42.1921097364423
 20
-14.447625950727945
 30
9.0
 11
42.32576320765321
 21
-14.251802996121507
 31
9.0
  0
LINE
  5
20E
330
17
100
AcDbEntity
  8
0
100
AcDbLine
 10
42.32576320765321
 20
-14.251802996121507
 30
9.0
 11
42.557083501481664
 21
-13.945189525011854
 31
9.0
  0
LINE
  5
20F
330
17
100
AcDbEntity
  8
0
100
AcDbLine
 10
42.557083501481664
 20
-13.945189525011854
 30
9.0
 11
42.77557585682293
 21
-13.692616916465234
 31
9.0
  0
LINE
  5
210
330
17
100
AcDbEntity
  8
0
100
AcDbLine
 10
42.77557585682293
 20
-13.692616916465234
 30
9.0
 11
43.0835645811804
 21
-13.381296966855489
 31
9.0
  0
LINE
  5
211
330
17
100
AcDbEntity
  8
0
100
AcDbLine
 10
43.0835645811804
 20
-13.381296966855489
 30
9.0
 11
43.224893144770085
 21
-13.249090351561891
 31
9.0
  0
LINE
  5
212
330
17
100
AcDbEntity
  8
0
100
AcDbLine
 10
43.224893144770085
 20
-13.249090351561891
 30
9.0
 11
43.60808554021317
 21
-12.917488803251207
 31
9.0
  0
LINE
  5
213
330
17
100
AcDbEntity
  8
0
100
AcDbLine
 10
43.60808554021317
 20
-12.917488803251207
 30
9.0
 11
43.67286486553619
 21
-12.86331705173706
 31
9.0
  0
LINE
  5
214
330
17
100
AcDbEntity
  8
0
100
AcDbLine
 10
43.67286486553619
 20
-12.86331705173706
 30
9.0
 11
44.12707303407806
 21
-12.49634108603613
 31
9.0
  0
LINE
  5
215
330
17
100
AcDbEntity
  8
0
100
AcDbLine
 10
44.12707303407806
 20
-12.49634108603613
 30
9.0
 11
44.132482272313496
 21
-12.49198311668463
 31
9.0
  0
LINE
  5
216
330
17
100
AcDbEntity
  8
0
100
AcDbLine
 10
44.132482272313496
 20
-12.49198311668463
 30
9.0
 11
44.63256131005586
 21
-12.090237315821126
 31
9.0
  0
LINE
  5
217
330
17
100
AcDbEntity
  8
0
100
AcDbLine
 10
44.63256131005586
 20
-12.090237315821126
 30
9.0
 11
45.15529088319607
 21
-11.653840555836004
 31
9.0
  0
LINE
  5
218
330
17
100
AcDbEntity
  8
0
100
AcDbLine
 10
45.15529088319607
 20
-11.653840555836004
 30
9.0
 11
45.698897014496914
 21
-11.167669024162274
 31
9.0
  0
LINE
  5
219
330
17
100
AcDbEntity
  8
0
100
AcDbLine
 10
45.698897014496914
 20
-11.167669024162274
 30
9.0
 11
46.259331287670165
 21
-10.619158953903357
 31
9.0
  0
LINE
  5
21A
330
17
100
AcDbEntity
  8
0
100
AcDbLine
 10
46.259331287670165
 20
-10.619158953903357
 30
9.0
 11
46.82885213180892
 21
-9.9994290273921
 31
9.0
  0
LINE
  5
21B
330
17
100
AcDbEntity
  8
0
100
AcDbLine
 10
46.82885213180892
 20
-9.9994290273921
 30
9.0
 11
47.39715801741574
 21
-9.302813458951524
 31
9.0
  0
LINE
  5
21C
330
17
100
AcDbEntity
  8
0
100
AcDbLine
 10
47.39715801741574
 20
-9.302813458951524
 30
9.0
 11
47.9523299581152
 21
-8.526647644693794
 31
9.0
  0
LINE
  5
21D
330
17
100
AcDbEntity
  8
0
100
AcDbLine
 10
47.9523299581152
 20
-8.526647644693794
 30
9.0
 11
48.48162561065846
 21
-7.67113752147082
 31
9.0
  0
LINE
  5
21E
330
17
100
AcDbEntity
  8
0
100
AcDbLine
 10
48.48162561065846
 20
-7.67113752147082
 30
9.0
 11
48.972164115112356
 21
-6.739230143551447
 31
9.0
  0
LINE
  5
21F
330
17
100
AcDbEntity
  8
0
100
AcDbLine
 10
48.972164115112356
 20
-6.739230143551447
 30
9.0
 11
49.41152532613361
 21
-5.736446411708813
 31
9.0
  0
LINE
  5
220
330
17
100
AcDbEntity
  8
0
100
AcDbLine
 10
49.41152532613361
 20
-5.736446411708813
 30
9.0
 11
49.78827434956679
 21
-4.67065923828788
 31
9.0
  0
LINE
  5
221
330
17
100
AcDbEntity
  8
0
100
AcDbLine
 10
49.78827434956679
 20
-4.67065923828788
 30
9.0
 11
50.09241411024477
 21
-3.5518126083705988
 31
9.0
  0
LINE
  5
222
330
17
100
AcDbEntity
  8
0
100
AcDbLine
 10
50.09241411024477
 20
-3.5518126083705988
 30
9.0
 11
50.31576410293283
 21
-2.391584139661208
 31
9.0
  0
LINE
  5
223
330
17
100
AcDbEntity
  8
0
100
AcDbLine
 10
50.31576410293283
 20
-2.391584139661208
 30
9.0
 11
50.452261394552046
 21
-1.2029982469115246
 31
9.0
  0
LINE
  5
224
330
17
100
AcDbEntity
  8
0
100
AcDbLine
 10
50.452261394552046
 20
-1.2029982469115246
 30
9.0
 11
50.49817950324169
 21
-8.375103990110265e-15
 31
9.0
  0
CIRCLE
  5
225
330
17
100
AcDbEntity
  8
0
100
AcDbCircle
 10
30.3
 20
0.0
 30
9.0
 40
8.0
  0
CIRCLE
  5
226
330
17
100
AcDbEntity
  8
0
100
AcDbCircle
 10
1.85533990070824e-15
 20
30.3
 30
9.0
 40
8.0
  0
CIRCLE
  5
227
330
17
100
AcDbEntity
  8
0
100
AcDbCircle
 10
-30.3
 20
3.71067980141648e-15
 30
9.0
 40
8.0
  0
CIRCLE
  5
228
330
17
100
AcDbEntity
  8
0
100
AcDbCircle
 10
-5.56601970212472e-15
 20
-30.3
 30
9.0
 40
8.0
  0
CIRCLE
  5
229
330
17
100
AcDbEntity
  8
0
100
AcDbCircle
 10
30.3
 20
-7.42135960283296e-15
 30
9.0
 40
8.0
  0
CIRCLE
  5
22A
330
17
100
AcDbEntity
  8
0
100
AcDbCircle
 10
6.0
 20
0.0
 30
18.0
 40
16.1
  0
CIRCLE
  5
22B
330
17
100
AcDbEntity
  8
0
100
AcDbCircle
 10
6.0
 20
0.0
 30
18.0
 40
10.075
  0
LINE
  5
22C
330
17
100
AcDbEntity
  8
0
100
AcDbLine
 10
-44.49817950324169
 20
8.375103990110265e-15
 30
18.0
 11
-44.49817950324169
 21
8.375103990110265e-15
 31
18.0
  0
LINE
  5
22D
330
17
100
AcDbEntity
  8
0
100
AcDbLine
 10
-44.49817950324169
 20
8.375103990110265e-15
 30
18.0
 11
-44.452261394552046
 21
-1.202998246911526
 31
18.0
  0
LINE
  5
22E
330
17
100
AcDbEntity
  8
0
100
AcDbLine
 10
-44.452261394552046
 20
-1.202998246911526
 30
18.0
 11
-44.31576410293284
 21
-2.391584139661185
 31
18.0
  0
LINE
  5
22F
330
17
100
AcDbEntity
  8
0
100
AcDbLine
 10
-44.31576410293284
 20
-2.391584139661185
 30
18.0
 11
-44.09241411024475
 21
-3.5518126083706365
 31
18.0
  0
LINE
  5
230
330
17
100
AcDbEntity
  8
0
100
AcDbLine
 10
-44.09241411024475
 20
-3.5518126083706365
 30
18.0
 11
-43.78827434956678
 21
-4.670659238287928
 31
18.0
  0
LINE
  5
231
330
17
100
AcDbEntity
  8
0
100
AcDbLine
 10
-43.78827434956678
 20
-4.670659238287928
 30
18.0
 11
-43.411525326133614
 21
-5.736446411708772
 31
18.0
  0
LINE
  5
232
330
17
100
AcDbEntity
  8
0
100
AcDbLine
 10
-43.411525326133614
 20
-5.736446411708772
 30
18.0
 11
-42.972164115112335
 21
-6.739230143551483
 31
18.0
  0
LINE
  5
233
330
17
100
AcDbEntity
  8
0
100
AcDbLine
 10
-42.972164115112335
 20
-6.739230143551483
 30
18.0
 11
-42.4816256106585
 21
-7.67113752147078
 31
18.0
  0
LINE
  5
234
330
17
100
AcDbEntity
  8
0
100
AcDbLine
 10
-42.4816256106585
 20
-7.67113752147078
 30
18.0
 11
-41.95232995811525
 21
-8.52664764469371
 31
18.0
  0
LINE
  5
235
330
17
100
AcDbEntity
  8
0
100
AcDbLine
 10
-41.95232995811525
 20
-8.52664764469371
 30
18.0
 11
-41.39715801741572
 21
-9.302813458951574
 31
18.0
  0
LINE
  5
236
330
17
100
AcDbEntity
  8
0
100
AcDbLine
 10
-41.39715801741572
 20
-9.302813458951574
 30
18.0
 11
-40.828852131808986
 21
-9.999429027392026
 31
18.0
  0
LINE
  5
237
330
17
100
AcDbEntity
  8
0
100
AcDbLine
 10
-40.828852131808986
 20
-9.999429027392026
 30
18.0
 11
-40.259331287670165
 21
-10.619158953903364
 31
18.0
  0
LINE
  5
238
330
17
100
AcDbEntity
  8
0
100
AcDbLine
 10
-40.259331287670165
 20
-10.619158953903364
 30
18.0
 11
-39.6988970144969
 21
-11.167669024162274
 31
18.0
  0
LINE
  5
239
330
17
100
AcDbEntity
  8
0
100
AcDbLine
 10
-39.6988970144969
 20
-11.167669024162274
 30
18.0
 11
-39.15529088319615
 21
-11.65384055583594
 31
18.0
  0
LINE
  5
23A
330
17
100
AcDbEntity
  8
0
100
AcDbLine
 10
-39.15529088319615
 20
-11.65384055583594
 30
18.0
 11
-38.63256131005581
 21
-12.09023731582116
 31
18.0
  0
LINE
  5
23B
330
17
100
AcDbEntity
  8
0
100
AcDbLine
 10
-38.63256131005581
 20
-12.09023731582116
 30
18.0
 11
-38.132482272313446
 21
-12.491983116684684
 31
18.0
  0
LINE
  5
23C
330
17
100
AcDbEntity
  8
0
100
AcDbLine
 10
-38.132482272313446
 20
-12.491983116684684
 30
18.0
 11
-38.12707303407809
 21
-12.496341086036125
 31
18.0
  0
LINE
  5
23D
330
17
100
AcDbEntity
  8
0
100
AcDbLine
 10
-38.12707303407809
 20
-12.496341086036125
 30
18.0
 11
-37.67286486553621
 21
-12.863317051737052
 31
18.0
  0
LINE
  5
23E
330
17
100
AcDbEntity
  8
0
100
AcDbLine
 10
-37.67286486553621
 20
-12.863317051737052
 30
18.0
 11
-37.60808554021321
 21
-12.917488803251178
 31
18.0
  0
LINE
  5
23F
330
17
100
AcDbEntity
  8
0
100
AcDbLine
 10
-37.60808554021321
 20
-12.917488803251178
 30
18.0
 11
-37.224893144770135
 21
-13.249090351561842
 31
18.0
  0
LINE
  5
240
330
17
100
AcDbEntity
  8
0
100
AcDbLine
 10
-37.224893144770135
 20
-13.249090351561842
 30
18.0
 11
-37.08356458118043
 21
-13.381296966855446
 31
18.0
  0
LINE
  5
241
330
17
100
AcDbEntity
  8
0
100
AcDbLine
 10
-37.08356458118043
 20
-13.381296966855446
 30
18.0
 11
-36.77557585682296
 21
-13.692616916465187
 31
18.0
  0
LINE
  5
242
330
17
100
AcDbEntity
  8
0
100
AcDbLine
 10
-36.77557585682296
 20
-13.692616916465187
 30
18.0
 11
-36.557083501481614
 21
-13.945189525011905
 31
18.0
  0
LINE
  5
243
330
17
100
AcDbEntity
  8
0
100
AcDbLine
 10
-36.557083501481614
 20
-13.945189525011905
 30
18.0
 11
-36.32576320765316
 21
-14.25180299612158
 31
18.0
  0
LINE
  5
244
330
17
100
AcDbEntity
  8
0
100
AcDbLine
 10
-36.32576320765316
 20
-14.25180299612158
 30
18.0
 11
-36.19210973644227
 21
-14.447625950727998
 31
18.0
  0
LINE
  5
245
330
17
100
AcDbEntity
  8
0
100
AcDbLine
 10
-36.19210973644227
 20
-14.447625950727998
 30
18.0
 11
-36.07760715824624
 21
-14.655229032362085
 31
18.0
  0
LINE
  5
246
330
17
100
AcDbEntity
  8
0
100
AcDbLine
 10
-36.07760715824624
 20
-14.655229032362085
 30
18.0
 11
-35.921654814254715
 21
-14.972712578811471
 31
18.0
  0
LINE
  5
247
330
17
100
AcDbEntity
  8
0
100
AcDbLine
 10
-35.921654814254715
 20
-14.972712578811471
 30
18.0
 11
-35.816321624972936
 21
-15.21989637799224
 31
18.0
  0
LINE
  5
248
330
17
100
AcDbEntity
  8
0
100
AcDbLine
 10
-35.816321624972936
 20
-15.21989637799224
 30
18.0
 11
-35.73812484586959
 21
-15.476957022742798
 31
18.0
  0
LINE
  5
249
330
17
100
AcDbEntity
  8
0
100
AcDbLine
 10
-35.73812484586959
 20
-15.476957022742798
 30
18.0
 11
-35.653516782438665
 21
-15.820407763701382
 31
18.0
  0
LINE
  5
24A
330
17
100
AcDbEntity
  8
0
100
AcDbLine
 10
-35.653516782438665
 20
-15.820407763701382
 30
18.0
 11
-35.60778615758139
 21
-16.053041789303172
 31
18.0
  0
LINE
  5
24B
330
17
100
AcDbEntity
  8
0
100
AcDbLine
 10
-35.60778615758139
 20
-16.053041789303172
 30
18.0
 11
-35.584298087592835
 21
-16.288961670800568
 31
18.0
  0
LINE
  5
24C
330
17
100
AcDbEntity
  8
0
100
AcDbLine
 10
-35.584298087592835
 20
-16.288961670800568
 30
18.0
 11
-35.5644123730685
 21
-16.672531035271536
 31
18.0
  0
LINE
  5
24D
330
17
100
AcDbEntity
  8
0
100
AcDbLine
 10
-35.5644123730685
 20
-16.672531035271536
 30
18.0
 11
-35.56943668442168
 21
-17.00645705735742
 31
18.0
  0
LINE
  5
24E
330
17
100
AcDbEntity
  8
0
100
AcDbLine
 10
-35.56943668442168
 20
-17.00645705735742
 30
18.0
 11
-35.60525712900165
 21
-17.442913310728194
 31
18.0
  0
LINE
  5
24F
330
17
100
AcDbEntity
  8
0
100
AcDbLine
 10
-35.60525712900165
 20
-17.442913310728194
 30
18.0
 11
-35.628540315564194
 21
-17.6350337032876
 31
18.0
  0
LINE
  5
250
330
17
100
AcDbEntity
  8
0
100
AcDbLine
 10
-35.628540315564194
 20
-17.6350337032876
 30
18.0
 11
-35.70893335413183
 21
-18.135366550617537
 31
18.0
  0
LINE
  5
251
330
17
100
AcDbEntity
  8
0
100
AcDbLine
 10
-35.70893335413183
 20
-18.135366550617537
 30
18.0
 11
-35.72373626565623
 21
-18.218503867520504
 31
18.0
  0
LINE
  5
252
330
17
100
AcDbEntity
  8
0
100
AcDbLine
 10
-35.72373626565623
 20
-18.218503867520504
 30
18.0
 11
-35.83579230538167
 21
-18.791583149761056
 31
18.0
  0
LINE
  5
253
330
17
100
AcDbEntity
  8
0
100
AcDbLine
 10
-35.83579230538167
 20
-18.791583149761056
 30
18.0
 11
-35.83713477357088
 21
-18.798398539281557
 31
18.0
  0
LINE
  5
254
330
17
100
AcDbEntity
  8
0
100
AcDbLine
 10
-35.83713477357088
 20
-18.798398539281557
 30
18.0
 11
-35.961980318514996
 21
-19.42759828690397
 31
18.0
  0
LINE
  5
255
330
17
100
AcDbEntity
  8
0
100
AcDbLine
 10
-35.961980318514996
 20
-19.42759828690397
 30
18.0
 11
-36.081903973047304
 21
-20.097901692717407
 31
18.0
  0
LINE
  5
256
330
17
100
AcDbEntity
  8
0
100
AcDbLine
 10
-36.081903973047304
 20
-20.097901692717407
 30
18.0
 11
-36.18582539243346
 21
-20.819753978708246
 31
18.0
  0
LINE
  5
257
330
17
100
AcDbEntity
  8
0
100
AcDbLine
 10
-36.18582539243346
 20
-20.819753978708246
 30
18.0
 11
-36.26256747618058
 21
-21.600177276864567
 31
18.0
  0
LINE
  5
258
330
17
100
AcDbEntity
  8
0
100
AcDbLine
 10
-36.26256747618058
 20
-21.600177276864567
 30
18.0
 11
-36.30049103596011
 21
-22.440998885373695
 31
18.0
  0
LINE
  5
259
330
17
100
AcDbEntity
  8
0
100
AcDbLine
 10
-36.30049103596011
 20
-22.440998885373695
 30
18.0
 11
-36.288062745512676
 21
-23.339937352347555
 31
18.0
  0
LINE
  5
25A
330
17
100
AcDbEntity
  8
0
100
AcDbLine
 10
-36.288062745512676
 20
-23.339937352347555
 30
18.0
 11
-36.214439357193925
 21
-24.291372506025926
 31
18.0
  0
LINE
  5
25B
330
17
100
AcDbEntity
  8
0
100
AcDbLine
 10
-36.214439357193925
 20
-24.291372506025926
 30
18.0
 11
-36.06999204342262
 21
-25.286955969268586
 31
18.0
  0
LINE
  5
25C
330
17
100
AcDbEntity
  8
0
100
AcDbLine
 10
-36.06999204342262
 20
-25.286955969268586
 30
18.0
 11
-35.846747822993365
 21
-26.316150510362405
 31
18.0
  0
LINE
  5
25D
330
17
100
AcDbEntity
  8
0
100
AcDbLine
 10
-35.846747822993365
 20
-26.316150510362405
 30
18.0
 11
-35.53874107919451
 21
-27.366743358412002
 31
18.0
  0
LINE
  5
25E
330
17
100
AcDbEntity
  8
0
100
AcDbLine
 10
-35.53874107919451
 20
-27.366743358412002
 30
18.0
 11
-35.14227278540821
 21
-28.425353304382938
 31
18.0
  0
LINE
  5
25F
330
17
100
AcDbEntity
  8
0
100
AcDbLine
 10
-35.14227278540821
 20
-28.425353304382938
 30
18.0
 11
-34.65607660815676
 21
-29.47793681771023
 31
18.0
  0
LINE
  5
260
330
17
100
AcDbEntity
  8
0
100
AcDbLine
 10
-34.65607660815676
 20
-29.47793681771023
 30
18.0
 11
-34.0813921448341
 21
-30.51028999683705
 31
18.0
  0
LINE
  5
261
330
17
100
AcDbEntity
  8
0
100
AcDbLine
 10
-34.0813921448341
 20
-30.51028999683705
 30
18.0
 11
-33.42194685167211
 21
-31.5085383829561
 31
18.0
  0
LINE
  5
262
330
17
100
AcDbEntity
  8
0
100
AcDbLine
 10
-33.42194685167211
 20
-31.5085383829561
 30
18.0
 11
-32.68384979608298
 21
-32.4596040964105
 31
18.0
  0
LINE
  5
263
330
17
100
AcDbEntity
  8
0
100
AcDbLine
 10
-32.68384979608298
 20
-32.4596040964105
 30
18.0
 11
-31.87540211649332
 21
-33.35163862721308
 31
18.0
  0
LINE
  5
264
330
17
100
AcDbEntity
  8
0
100
AcDbLine
 10
-31.87540211649332
 20
-33.35163862721308
 30
18.0
 11
-31.006830839840056
 21
-34.17440947771487
 31
18.0
  0
LINE
  5
265
330
17
100
AcDbEntity
  8
0
100
AcDbLine
 10
-31.006830839840056
 20
-34.17440947771487
 30
18.0
 11
-30.089954334978565
 21
-34.919629440994775
 31
18.0
  0
LINE
  5
266
330
17
100
AcDbEntity
  8
0
100
AcDbLine
 10
-30.089954334978565
 20
-34.919629440994775
 30
18.0
 11
-29.13778901052936
 21
-35.581218414768436
 31
18.0
  0
LINE
  5
267
330
17
100
AcDbEntity
  8
0
100
AcDbLine
 10
-29.13778901052936
 20
-35.581218414768436
 30
18.0
 11
-28.164107725040054
 21
-36.155489152290656
 31
18.0
  0
LINE
  5
268
330
17
100
AcDbEntity
  8
0
100
AcDbLine
 10
-28.164107725040054
 20
-36.155489152290656
 30
18.0
 11
-27.182960552791528
 21
-36.64125011509749
 31
18.0
  0
LINE
  5
269
330
17
100
AcDbEntity
  8
0
100
AcDbLine
 10
-27.182960552791528
 20
-36.64125011509749
 30
18.0
 11
-26.20816774141668
 21
-37.03982051071709
 31
18.0
  0
LINE
  5
26A
330
17
100
AcDbEntity
  8
0
100
AcDbLine
 10
-26.20816774141668
 20
-37.03982051071709
 30
18.0
 11
-25.252792440849802
 21
-37.35495459932829
 31
18.0
  0
LINE
  5
26B
330
17
100
AcDbEntity
  8
0
100
AcDbLine
 10
-25.252792440849802
 20
-37.35495459932829
 30
18.0
 11
-24.328596292234206
 21
-37.59267446355213
 31
18.0
  0
LINE
  5
26C
330
17
100
AcDbEntity
  8
0
100
AcDbLine
 10
-24.328596292234206
 20
-37.59267446355213
 30
18.0
 11
-23.445472870465107
 21
-37.76101296696616
 31
18.0
  0
LINE
  5
26D
330
17
100
AcDbEntity
  8
0
100
AcDbLine
 10
-23.445472870465107
 20
-37.76101296696616
 30
18.0
 11
-22.610839874458666
 21
-37.86967269133405
 31
18.0
  0
LINE
  5
26E
330
17
100
AcDbEntity
  8
0
100
AcDbLine
 10
-22.610839874458666
 20
-37.86967269133405
 30
18.0
 11
-21.828946836810104
 21
-37.92961557581124
 31
18.0
  0
LINE
  5
26F
330
17
100
AcDbEntity
  8
0
100
AcDbLine
 10
-21.828946836810104
 20
-37.92961557581124
 30
18.0
 11
-21.100015343939496
 21
-37.952621290302744
 31
18.0
  0
LINE
  5
270
330
17
100
AcDbEntity
  8
0
100
AcDbLine
 10
-21.100015343939496
 20
-37.952621290302744
 30
18.0
 11
-20.41907082895568
 21
-37.950916510453204
 31
18.0
  0
LINE
  5
271
330
17
100
AcDbEntity
  8
0
100
AcDbLine
 10
-20.41907082895568
 20
-37.950916510453204
 30
18.0
 11
-19.77775083793416
 21
-37.93722703942633
 31
18.0
  0
LINE
  5
272
330
17
100
AcDbEntity
  8
0
100
AcDbLine
 10
-19.77775083793416
 20
-37.93722703942633
 30
18.0
 11
-19.770805872339956
 21
-37.93708844631575
 31
18.0
  0
LINE
  5
273
330
17
100
AcDbEntity
  8
0
100
AcDbLine
 10
-19.770805872339956
 20
-37.93708844631575
 30
18.0
 11
-19.186974625003884
 21
-37.926248962642035
 31
18.0
  0
LINE
  5
274
330
17
100
AcDbEntity
  8
0
100
AcDbLine
 10
-19.186974625003884
 20
-37.926248962642035
 30
18.0
 11
-19.102529852142936
 21
-37.92610758418198
 31
18.0
  0
LINE
  5
275
330
17
100
AcDbEntity
  8
0
100
AcDbLine
 10
-19.102529852142936
 20
-37.92610758418198
 30
18.0
 11
-18.59583808036136
 21
-37.933817783678094
 31
18.0
  0
LINE
  5
276
330
17
100
AcDbEntity
  8
0
100
AcDbLine
 10
-18.59583808036136
 20
-37.933817783678094
 30
18.0
 11
-18.402593345340165
 21
-37.94424967709707
 31
18.0
  0
LINE
  5
277
330
17
100
AcDbEntity
  8
0
100
AcDbLine
 10
-18.402593345340165
 20
-37.94424967709707
 30
18.0
 11
-17.96654768824544
 21
-37.98476325858754
 31
18.0
  0
LINE
  5
278
330
17
100
AcDbEntity
  8
0
100
AcDbLine
 10
-17.96654768824544
 20
-37.98476325858754
 30
18.0
 11
-17.63682229025221
 21
-38.037800923024164
 31
18.0
  0
LINE
  5
279
330
17
100
AcDbEntity
  8
0
100
AcDbLine
 10
-17.63682229025221
 20
-38.037800923024164
 30
18.0
 11
-17.26253332439199
 21
-38.123990650011166
 31
18.0
  0
LINE
  5
27A
330
17
100
AcDbEntity
  8
0
100
AcDbLine
 10
-17.26253332439199
 20
-38.123990650011166
 30
18.0
 11
-17.034276256554065
 21
-38.18808894093661
 31
18.0
  0
LINE
  5
27B
330
17
100
AcDbEntity
  8
0
100
AcDbLine
 10
-17.034276256554065
 20
-38.18808894093661
 30
18.0
 11
-16.813117504197027
 21
-38.27352128945522
 31
18.0
  0
LINE
  5
27C
330
17
100
AcDbEntity
  8
0
100
AcDbLine
 10
-16.813117504197027
 20
-38.27352128945522
 30
18.0
 11
-16.48957658775394
 21
-38.416483561575156
 31
18.0
  0
LINE
  5
27D
330
17
100
AcDbEntity
  8
0
100
AcDbLine
 10
-16.48957658775394
 20
-38.416483561575156
 30
18.0
 11
-16.249999999999996
 21
-38.53813046840752
 31
18.0
  0
LINE
  5
27E
330
17
100
AcDbEntity
  8
0
100
AcDbLine
 10
-16.249999999999996
 20
-38.53813046840752
 30
18.0
 11
-16.024862394514393
 21
-38.68478642613825
 31
18.0
  0
LINE
  5
27F
330
17
100
AcDbEntity
  8
0
100
AcDbLine
 10
-16.024862394514393
 20
-38.68478642613825
 30
18.0
 11
-15.739282976854234
 21
-38.893499942881704
 31
18.0
  0
LINE
  5
280
330
17
100
AcDbEntity
  8
0
100
AcDbLine
 10
-15.739282976854234
 20
-38.893499942881704
 30
18.0
 11
-15.554717016553646
 21
-39.04231286643285
 31
18.0
  0
LINE
  5
281
330
17
100
AcDbEntity
  8
0
100
AcDbLine
 10
-15.554717016553646
 20
-39.04231286643285
 30
18.0
 11
-15.385077734354105
 21
-39.20794014031111
 31
18.0
  0
LINE
  5
282
330
17
100
AcDbEntity
  8
0
100
AcDbLine
 10
-15.385077734354105
 20
-39.20794014031111
 30
18.0
 11
-15.12329075830801
 21
-39.48898902960876
 31
18.0
  0
LINE
  5
283
330
17
100
AcDbEntity
  8
0
100
AcDbLine
 10
-15.12329075830801
 20
-39.48898902960876
 30
18.0
 11
-14.912496094551901
 21
-39.74802076832549
 31
18.0
  0
LINE
  5
284
330
17
100
AcDbEntity
  8
0
100
AcDbLine
 10
-14.912496094551901
 20
-39.74802076832549
 30
18.0
 11
-14.65938747523549
 21
-40.10539059383416
 31
18.0
  0
LINE
  5
285
330
17
100
AcDbEntity
  8
0
100
AcDbLine
 10
-14.65938747523549
 20
-40.10539059383416
 30
18.0
 11
-14.553730823014465
 21
-40.267529496800655
 31
18.0
  0
LINE
  5
286
330
17
100
AcDbEntity
  8
0
100
AcDbLine
 10
-14.553730823014465
 20
-40.267529496800655
 30
18.0
 11
-14.293707708491787
 21
-40.702482343304
 31
18.0
  0
LINE
  5
287
330
17
100
AcDbEntity
  8
0
100
AcDbLine
 10
-14.293707708491787
 20
-40.702482343304
 30
18.0
 11
-14.251607759399263
 21
-40.775684351048426
 31
18.0
  0
LINE
  5
288
330
17
100
AcDbEntity
  8
0
100
AcDbLine
 10
-14.251607759399263
 20
-40.775684351048426
 30
18.0
 11
-13.969079403956577
 21
-41.28671678460147
 31
18.0
  0
LINE
  5
289
330
17
100
AcDbEntity
  8
0
100
AcDbLine
 10
-13.969079403956577
 20
-41.28671678460147
 30
18.0
 11
-13.965726946314035
 21
-41.292800597789736
 31
18.0
  0
LINE
  5
28A
330
17
100
AcDbEntity
  8
0
100
AcDbLine
 10
-13.965726946314035
 20
-41.292800597789736
 30
18.0
 11
-13.656922380476935
 21
-41.85504473748257
 31
18.0
  0
LINE
  5
28B
330
17
100
AcDbEntity
  8
0
100
AcDbLine
 10
-13.656922380476935
 20
-41.85504473748257
 30
18.0
 11
-13.317926505642504
 21
-42.44561237595116
 31
18.0
  0
LINE
  5
28C
330
17
100
AcDbEntity
  8
0
100
AcDbLine
 10
-13.317926505642504
 20
-42.44561237595116
 30
18.0
 11
-12.933537226025368
 21
-43.06538270914983
 31
18.0
  0
LINE
  5
28D
330
17
100
AcDbEntity
  8
0
100
AcDbLine
 10
-12.933537226025368
 20
-43.06538270914983
 30
18.0
 11
-12.490678646467792
 21
-43.712550500557
 31
18.0
  0
LINE
  5
28E
330
17
100
AcDbEntity
  8
0
100
AcDbLine
 10
-12.490678646467792
 20
-43.712550500557
 30
18.0
 11
-11.979260066793813
 21
-44.381034015751275
 31
18.0
  0
LINE
  5
28F
330
17
100
AcDbEntity
  8
0
100
AcDbLine
 10
-11.979260066793813
 20
-44.381034015751275
 30
18.0
 11
-11.391912935517585
 21
-45.06167208197341
 31
18.0
  0
LINE
  5
290
330
17
100
AcDbEntity
  8
0
100
AcDbLine
 10
-11.391912935517585
 20
-45.06167208197341
 30
18.0
 11
-10.72394341980775
 21
-45.74318949264234
 31
18.0
  0
LINE
  5
291
330
17
100
AcDbEntity
  8
0
100
AcDbLine
 10
-10.72394341980775
 20
-45.74318949264234
 30
18.0
 11
-9.973341643188515
 21
-46.41300172877589
 31
18.0
  0
LINE
  5
292
330
17
100
AcDbEntity
  8
0
100
AcDbLine
 10
-9.973341643188515
 20
-46.41300172877589
 30
18.0
 11
-9.140773149698164
 21
-47.05791186904312
 31
18.0
  0
LINE
  5
293
330
17
100
AcDbEntity
  8
0
100
AcDbLine
 10
-9.140773149698164
 20
-47.05791186904312
 30
18.0
 11
-8.229518229616389
 21
-47.664729763658194
 31
18.0
  0
LINE
  5
294
330
17
100
AcDbEntity
  8
0
100
AcDbLine
 10
-8.229518229616389
 20
-47.664729763658194
 30
18.0
 11
-7.245344539527482
 21
-48.2208271233203
 31
18.0
  0
LINE
  5
295
330
17
100
AcDbEntity
  8
0
100
AcDbLine
 10
-7.245344539527482
 20
-48.2208271233203
 30
18.0
 11
-6.1963090191511085
 21
-48.71463199600919
 31
18.0
  0
LINE
  5
296
330
17
100
AcDbEntity
  8
0
100
AcDbLine
 10
-6.1963090191511085
 20
-48.71463199600919
 30
18.0
 11
-5.092491347112825
 21
-49.1360603597123
 31
18.0
  0
LINE
  5
297
330
17
100
AcDbEntity
  8
0
100
AcDbLine
 10
-5.092491347112825
 20
-49.1360603597123
 30
18.0
 11
-3.945665250758138
 21
-49.476879725040675
 31
18.0
  0
LINE
  5
298
330
17
100
AcDbEntity
  8
0
100
AcDbLine
 10
-3.945665250758138
 20
-49.476879725040675
 30
18.0
 11
-2.7689168462354843
 21
-49.73099868779458
 31
18.0
  0
LINE
  5
299
330
17
100
AcDbEntity
  8
0
100
AcDbLine
 10
-2.7689168462354843
 20
-49.73099868779458
 30
18.0
 11
-1.5762212499209705
 21
-49.89467663166608
 31
18.0
  0
LINE
  5
29A
330
17
100
AcDbEntity
  8
0
100
AcDbLine
 10
-1.5762212499209705
 20
-49.89467663166608
 30
18.0
 11
-0.38199014167416134
 21
-49.9666488148909
 31
18.0
  0
LINE
  5
29B
330
17
100
AcDbEntity
  8
0
100
AcDbLine
 10
-0.38199014167416134
 20
-49.9666488148909
 30
18.0
 11
0.799396168788757
 21
-49.94816356972514
 31
18.0
  0
LINE
  5
29C
330
17
100
AcDbEntity
  8
0
100
AcDbLine
 10
0.799396168788757
 20
-49.94816356972514
 30
18.0
 11
1.954058319560592
 21
-49.84293005378413
 31
18.0
  0
LINE
  5
29D
330
17
100
AcDbEntity
  8
0
100
AcDbLine
 10
1.954058319560592
 20
-49.84293005378413
 30
18.0
 11
3.069075572363391
 21
-49.65697669501269
 31
18.0
  0
LINE
  5
29E
330
17
100
AcDbEntity
  8
0
100
AcDbLine
 10
3.069075572363391
 20
-49.65697669501269
 30
18.0
 11
4.132919039707918
 21
-49.39842193565464
 31
18.0
  0
LINE
  5
29F
330
17
100
AcDbEntity
  8
0
100
AcDbLine
 10
4.132919039707918
 20
-49.39842193565464
 30
18.0
 11
5.13584976794617
 21
-49.077159831247485
 31
18.0
  0
LINE
  5
2A0
330
17
100
AcDbEntity
  8
0
100
AcDbLine
 10
5.13584976794617
 20
-49.077159831247485
 30
18.0
 11
6.070273995587612
 21
-48.70446314286054
 31
18.0
  0
LINE
  5
2A1
330
17
100
AcDbEntity
  8
0
100
AcDbLine
 10
6.070273995587612
 20
-48.70446314286054
 30
18.0
 11
6.931052702886003
 21
-48.292505290618095
 31
18.0
  0
LINE
  5
2A2
330
17
100
AcDbEntity
  8
0
100
AcDbLine
 10
6.931052702886003
 20
-48.292505290618095
 30
18.0
 11
7.715770396948237
 21
-47.85379927238417
 31
18.0
  0
LINE
  5
2A3
330
17
100
AcDbEntity
  8
0
100
AcDbLine
 10
7.715770396948237
 20
-47.85379927238417
 30
18.0
 11
8.424981490078288
 21
-47.40054570195859
 31
18.0
  0
LINE
  5
2A4
330
17
100
AcDbEntity
  8
0
100
AcDbLine
 10
8.424981490078288
 20
-47.40054570195859
 30
18.0
 11
9.06247685011321
 21
-46.94387345881618
 31
18.0
  0
LINE
  5
2A5
330
17
100
AcDbEntity
  8
0
100
AcDbLine
 10
9.06247685011321
 20
-46.94387345881618
 30
18.0
 11
9.635658557868123
 21
-46.49294872663496
 31
18.0
  0
LINE
  5
2A6
330
17
100
AcDbEntity
  8
0
100
AcDbLine
 10
9.635658557868123
 20
-46.49294872663496
 30
18.0
 11
10.156196508279503
 21
-46.0539400923887
 31
18.0
  0
LINE
  5
2A7
330
17
100
AcDbEntity
  8
0
100
AcDbLine
 10
10.156196508279503
 20
-46.0539400923887
 30
18.0
 11
10.638676701303382
 21
-45.63122080510645
 31
18.0
  0
LINE
  5
2A8
330
17
100
AcDbEntity
  8
0
100
AcDbLine
 10
10.638676701303382
 20
-45.63122080510645
 30
18.0
 11
10.643907767670148
 21
-45.62665049879064
 31
18.0
  0
LINE
  5
2A9
330
17
100
AcDbEntity
  8
0
100
AcDbLine
 10
10.643907767670148
 20
-45.62665049879064
 30
18.0
 11
11.084180964610297
 21
-45.24306748062064
 31
18.0
  0
LINE
  5
2AA
330
17
100
AcDbEntity
  8
0
100
AcDbLine
 10
11.084180964610297
 20
-45.24306748062064
 30
18.0
 11
11.148778537288521
 21
-45.188679124739075
 31
18.0
  0
LINE
  5
2AB
330
17
100
AcDbEntity
  8
0
100
AcDbLine
 10
11.148778537288521
 20
-45.188679124739075
 30
18.0
 11
11.54188297414022
 21
-44.8688902873871
 31
18.0
  0
LINE
  5
2AC
330
17
100
AcDbEntity
  8
0
100
AcDbLine
 10
11.54188297414022
 20
-44.8688902873871
 30
18.0
 11
11.696622521400476
 21
-44.752666260063144
 31
18.0
  0
LINE
  5
2AD
330
17
100
AcDbEntity
  8
0
100
AcDbLine
 10
11.696622521400476
 20
-44.752666260063144
 30
18.0
 11
12.05669450217015
 21
-44.50341671839666
 31
18.0
  0
LINE
  5
2AE
330
17
100
AcDbEntity
  8
0
100
AcDbLine
 10
12.05669450217015
 20
-44.50341671839666
 30
18.0
 11
12.343370764604645
 21
-44.33210252608532
 31
18.0
  0
LINE
  5
2AF
330
17
100
AcDbEntity
  8
0
100
AcDbLine
 10
12.343370764604645
 20
-44.33210252608532
 30
18.0
 11
12.685494435612128
 21
-44.15753937780032
 31
18.0
  0
LINE
  5
2B0
330
17
100
AcDbEntity
  8
0
100
AcDbLine
 10
12.685494435612128
 20
-44.15753937780032
 30
18.0
 11
12.901551081240925
 21
-44.0599207023476
 31
18.0
  0
LINE
  5
2B1
330
17
100
AcDbEntity
  8
0
100
AcDbLine
 10
12.901551081240925
 20
-44.0599207023476
 30
18.0
 11
13.125883369625313
 21
-43.98320757240405
 31
18.0
  0
LINE
  5
2B2
330
17
100
AcDbEntity
  8
0
100
AcDbLine
 10
13.125883369625313
 20
-43.98320757240405
 30
18.0
 11
13.465624467959497
 21
-43.884754934220936
 31
18.0
  0
LINE
  5
2B3
330
17
100
AcDbEntity
  8
0
100
AcDbLine
 10
13.465624467959497
 20
-43.884754934220936
 30
18.0
 11
13.727343906178408
 21
-43.82394500904326
 31
18.0
  0
LINE
  5
2B4
330
17
100
AcDbEntity
  8
0
100
AcDbLine
 10
13.727343906178408
 20
-43.82394500904326
 30
18.0
 11
13.994077950313848
 21
-43.791574327232524
 31
18.0
  0
LINE
  5
2B5
330
17
100
AcDbEntity
  8
0
100
AcDbLine
 10
13.994077950313848
 20
-43.791574327232524
 30
18.0
 11
14.34700293881836
 21
-43.767891245684226
 31
18.0
  0
LINE
  5
2B6
330
17
100
AcDbEntity
  8
0
100
AcDbLine
 10
14.34700293881836
 20
-43.767891245684226
 30
18.0
 11
14.584043770515423
 21
-43.76325184638377
 31
18.0
  0
LINE
  5
2B7
330
17
100
AcDbEntity
  8
0
100
AcDbLine
 10
14.584043770515423
 20
-43.76325184638377
 30
18.0
 11
14.820458159454148
 21
-43.78108767045316
 31
18.0
  0
LINE
  5
2B8
330
17
100
AcDbEntity
  8
0
100
AcDbLine
 10
14.820458159454148
 20
-43.78108767045316
 30
18.0
 11
15.20165336149188
 21
-43.82811018576465
 31
18.0
  0
LINE
  5
2B9
330
17
100
AcDbEntity
  8
0
100
AcDbLine
 10
15.20165336149188
 20
-43.82811018576465
 30
18.0
 11
15.529633834464056
 21
-43.89104381174958
 31
18.0
  0
LINE
  5
2BA
330
17
100
AcDbEntity
  8
0
100
AcDbLine
 10
15.529633834464056
 20
-43.89104381174958
 30
18.0
 11
15.953239181709723
 21
-44.00210989631744
 31
18.0
  0
LINE
  5
2BB
330
17
100
AcDbEntity
  8
0
100
AcDbLine
 10
15.953239181709723
 20
-44.00210989631744
 30
18.0
 11
16.13839775089721
 21
-44.058400715019694
 31
18.0
  0
LINE
  5
2BC
330
17
100
AcDbEntity
  8
0
100
AcDbLine
 10
16.13839775089721
 20
-44.058400715019694
 30
18.0
 11
16.61716931339003
 21
-44.224454289855075
 31
18.0
  0
LINE
  5
2BD
330
17
100
AcDbEntity
  8
0
100
AcDbLine
 10
16.61716931339003
 20
-44.224454289855075
 30
18.0
 11
16.696473089030263
 21
-44.253468955467746
 31
18.0
  0
LINE
  5
2BE
330
17
100
AcDbEntity
  8
0
100
AcDbLine
 10
16.696473089030263
 20
-44.253468955467746
 30
18.0
 11
17.241387682176534
 21
-44.46333678518095
 31
18.0
  0
LINE
  5
2BF
330
17
100
AcDbEntity
  8
0
100
AcDbLine
 10
17.241387682176534
 20
-44.46333678518095
 30
18.0
 11
17.247866413461495
 21
-44.46584233823218
 31
18.0
  0
LINE
  5
2C0
330
17
100
AcDbEntity
  8
0
100
AcDbLine
 10
17.247866413461495
 20
-44.46584233823218
 30
18.0
 11
17.845828001744152
 21
-44.698050588385364
 31
18.0
  0
LINE
  5
2C1
330
17
100
AcDbEntity
  8
0
100
AcDbLine
 10
17.845828001744152
 20
-44.698050588385364
 30
18.0
 11
18.485123468590736
 21
-44.93254929804167
 31
18.0
  0
LINE
  5
2C2
330
17
100
AcDbEntity
  8
0
100
AcDbLine
 10
18.485123468590736
 20
-44.93254929804167
 30
18.0
 11
19.177963431267333
 21
-45.16024025156428
 31
18.0
  0
LINE
  5
2C3
330
17
100
AcDbEntity
  8
0
100
AcDbLine
 10
19.177963431267333
 20
-45.16024025156428
 30
18.0
 11
19.933204222929696
 21
-45.37133553415433
 31
18.0
  0
LINE
  5
2C4
330
17
100
AcDbEntity
  8
0
100
AcDbLine
 10
19.933204222929696
 20
-45.37133553415433
 30
18.0
 11
20.75466650484355
 21
-45.55469008990767
 31
18.0
  0
LINE
  5
2C5
330
17
100
AcDbEntity
  8
0
100
AcDbLine
 10
20.75466650484355
 20
-45.55469008990767
 30
18.0
 11
21.64210622658804
 21
-45.69854963974308
 31
18.0
  0
LINE
  5
2C6
330
17
100
AcDbEntity
  8
0
100
AcDbLine
 10
21.64210622658804
 20
-45.69854963974308
 30
18.0
 11
22.591871509634043
 21
-45.79125973672824
 31
18.0
  0
LINE
  5
2C7
330
17
100
AcDbEntity
  8
0
100
AcDbLine
 10
22.591871509634043
 20
-45.79125973672824
 30
18.0
 11
23.597412835811408
 21
-45.821888156331894
 31
18.0
  0
LINE
  5
2C8
330
17
100
AcDbEntity
  8
0
100
AcDbLine
 10
23.597412835811408
 20
-45.821888156331894
 30
18.0
 11
24.649737551290826
 21
-45.780753273763686
 31
18.0
  0
LINE
  5
2C9
330
17
100
AcDbEntity
  8
0
100
AcDbLine
 10
24.649737551290826
 20
-45.780753273763686
 30
18.0
 11
25.73785434307888
 21
-45.65985937802427
 31
18.0
  0
LINE
  5
2CA
330
17
100
AcDbEntity
  8
0
100
AcDbLine
 10
25.73785434307888
 20
-45.65985937802427
 30
18.0
 11
26.849227622005614
 21
-45.45324001645793
 31
18.0
  0
LINE
  5
2CB
330
17
100
AcDbEntity
  8
0
100
AcDbLine
 10
26.849227622005614
 20
-45.45324001645793
 30
18.0
 11
27.970247106791536
 21
-45.15720946054734
 31
18.0
  0
LINE
  5
2CC
330
17
100
AcDbEntity
  8
0
100
AcDbLine
 10
27.970247106791536
 20
-45.15720946054734
 30
18.0
 11
29.086709431231892
 21
-44.77052199379556
 31
18.0
  0
LINE
  5
2CD
330
17
100
AcDbEntity
  8
0
100
AcDbLine
 10
29.086709431231892
 20
-44.77052199379556
 30
18.0
 11
30.184303654742436
 21
-44.29443916951077
 31
18.0
  0
LINE
  5
2CE
330
17
100
AcDbEntity
  8
0
100
AcDbLine
 10
30.184303654742436
 20
-44.29443916951077
 30
18.0
 11
31.249089751620886
 21
-43.73270629467392
 31
18.0
  0
LINE
  5
2CF
330
17
100
AcDbEntity
  8
0
100
AcDbLine
 10
31.249089751620886
 20
-43.73270629467392
 30
18.0
 11
32.26795773980957
 21
-43.09144092259921
 31
18.0
  0
LINE
  5
2D0
330
17
100
AcDbEntity
  8
0
100
AcDbLine
 10
32.26795773980957
 20
-43.09144092259921
 30
18.0
 11
33.22905467170088
 21
-42.378937854134435
 31
18.0
  0
LINE
  5
2D1
330
17
100
AcDbEntity
  8
0
100
AcDbLine
 10
33.22905467170088
 20
-42.378937854134435
 30
18.0
 11
34.122167003453264
 21
-41.60539685217665
 31
18.0
  0
LINE
  5
2D2
330
17
100
AcDbEntity
  8
0
100
AcDbLine
 10
34.122167003453264
 20
-41.60539685217665
 30
18.0
 11
34.93904672756118
 21
-40.78258077817005
 31
18.0
  0
LINE
  5
2D3
330
17
100
AcDbEntity
  8
0
100
AcDbLine
 10
34.93904672756118
 20
-40.78258077817005
 30
18.0
 11
35.67367098305471
 21
-39.92341296631547
 31
18.0
  0
LINE
  5
2D4
330
17
100
AcDbEntity
  8
0
100
AcDbLine
 10
35.67367098305471
 20
-39.92341296631547
 30
18.0
 11
36.322426563821566
 21
-39.041523130212255
 31
18.0
  0
LINE
  5
2D5
330
17
100
AcDbEntity
  8
0
100
AcDbLine
 10
36.322426563821566
 20
-39.041523130212255
 30
18.0
 11
36.884212774847015
 21
-38.150750634861
 31
18.0
  0
LINE
  5
2D6
330
17
100
AcDbEntity
  8
0
100
AcDbLine
 10
36.884212774847015
 20
-38.150750634861
 30
18.0
 11
37.36045844848114
 21
-37.26461209203452
 31
18.0
  0
LINE
  5
2D7
330
17
100
AcDbEntity
  8
0
100
AcDbLine
 10
37.36045844848114
 20
-37.26461209203452
 30
18.0
 11
37.75505179082768
 21
-36.39573618079156
 31
18.0
  0
LINE
  5
2D8
330
17
100
AcDbEntity
  8
0
100
AcDbLine
 10
37.75505179082768
 20
-36.39573618079156
 30
18.0
 11
38.0741856269655
 21
-35.55526106251569
 31
18.0
  0
LINE
  5
2D9
330
17
100
AcDbEntity
  8
0
100
AcDbLine
 10
38.0741856269655
 20
-35.55526106251569
 30
18.0
 11
38.32612706474038
 21
-34.752176580250996
 31
18.0
  0
LINE
  5
2DA
330
17
100
AcDbEntity
  8
0
100
AcDbLine
 10
38.32612706474038
 20
-34.752176580250996
 30
18.0
 11
38.52093358322957
 21
-33.992571227401946
 31
18.0
  0
LINE
  5
2DB
330
17
100
AcDbEntity
  8
0
100
AcDbLine
 10
38.52093358322957
 20
-33.992571227401946
 30
18.0
 11
38.67016741460533
 21
-33.27870874220584
 31
18.0
  0
LINE
  5
2DC
330
17
100
AcDbEntity
  8
0
100
AcDbLine
 10
38.67016741460533
 20
-33.27870874220584
 30
18.0
 11
38.78673330831164
 21
-32.60781327256403
 31
18.0
  0
LINE
  5
2DD
330
17
100
AcDbEntity
  8
0
100
AcDbLine
 10
38.78673330831164
 20
-32.60781327256403
 30
18.0
 11
38.884615858851966
 21
-31.973859221547496
 31
18.0
  0
LINE
  5
2DE
330
17
100
AcDbEntity
  8
0
100
AcDbLine
 10
38.884615858851966
 20
-31.973859221547496
 30
18.0
 11
38.88568535190155
 21
-31.96699569914481
 31
18.0
  0
LINE
  5
2DF
330
17
100
AcDbEntity
  8
0
100
AcDbLine
 10
38.88568535190155
 20
-31.96699569914481
 30
18.0
 11
38.97639177650595
 21
-31.39015190373067
 31
18.0
  0
LINE
  5
2E0
330
17
100
AcDbEntity
  8
0
100
AcDbLine
 10
38.97639177650595
 20
-31.39015190373067
 30
18.0
 11
38.990916226823174
 21
-31.30696548660388
 31
18.0
  0
LINE
  5
2E1
330
17
100
AcDbEntity
  8
0
100
AcDbLine
 10
38.990916226823174
 20
-31.30696548660388
 30
18.0
 11
39.08649539387292
 21
-30.809310363457847
 31
18.0
  0
LINE
  5
2E2
330
17
100
AcDbEntity
  8
0
100
AcDbLine
 10
39.08649539387292
 20
-30.809310363457847
 30
18.0
 11
39.13032539947068
 21
-30.620812929462044
 31
18.0
  0
LINE
  5
2E3
330
17
100
AcDbEntity
  8
0
100
AcDbLine
 10
39.13032539947068
 20
-30.620812929462044
 30
18.0
 11
39.24594202235886
 21
-30.198426895284445
 31
18.0
  0
LINE
  5
2E4
330
17
100
AcDbEntity
  8
0
100
AcDbLine
 10
39.24594202235886
 20
-30.198426895284445
 30
18.0
 11
39.355430139989764
 21
-29.88292066075274
 31
18.0
  0
LINE
  5
2E5
330
17
100
AcDbEntity
  8
0
100
AcDbLine
 10
39.355430139989764
 20
-29.88292066075274
 30
18.0
 11
39.50530504819905
 21
-29.529284674331567
 31
18.0
  0
LINE
  5
2E6
330
17
100
AcDbEntity
  8
0
100
AcDbLine
 10
39.50530504819905
 20
-29.529284674331567
 30
18.0
 11
39.60806596592687
 21
-29.315625895655785
 31
18.0
  0
LINE
  5
2E7
330
17
100
AcDbEntity
  8
0
100
AcDbLine
 10
39.60806596592687
 20
-29.315625895655785
 30
18.0
 11
39.73060421942789
 21
-29.11266221332219
 31
18.0
  0
LINE
  5
2E8
330
17
100
AcDbEntity
  8
0
100
AcDbLine
 10
39.73060421942789
 20
-29.11266221332219
 30
18.0
 11
39.927576863940864
 21
-28.818861748421106
 31
18.0
  0
LINE
  5
2E9
330
17
100
AcDbEntity
  8
0
100
AcDbLine
 10
39.927576863940864
 20
-28.818861748421106
 30
18.0
 11
40.088977718794496
 21
-28.60404863105103
 31
18.0
  0
LINE
  5
2EA
330
17
100
AcDbEntity
  8
0
100
AcDbLine
 10
40.088977718794496
 20
-28.60404863105103
 30
18.0
 11
40.27250037791004
 21
-28.407797911478106
 31
18.0
  0
LINE
  5
2EB
330
17
100
AcDbEntity
  8
0
100
AcDbLine
 10
40.27250037791004
 20
-28.407797911478106
 30
18.0
 11
40.52763341281331
 21
-28.162799808702623
 31
18.0
  0
LINE
  5
2EC
330
17
100
AcDbEntity
  8
0
100
AcDbLine
 10
40.52763341281331
 20
-28.162799808702623
 30
18.0
 11
40.70623507634047
 21
-28.006878913044385
 31
18.0
  0
LINE
  5
2ED
330
17
100
AcDbEntity
  8
0
100
AcDbLine
 10
40.70623507634047
 20
-28.006878913044385
 30
18.0
 11
40.898803651980764
 21
-27.868577706999734
 31
18.0
  0
LINE
  5
2EE
330
17
100
AcDbEntity
  8
0
100
AcDbLine
 10
40.898803651980764
 20
-27.868577706999734
 30
18.0
 11
41.221041608463906
 21
-27.65957149081378
 31
18.0
  0
LINE
  5
2EF
330
17
100
AcDbEntity
  8
0
100
AcDbLine
 10
41.221041608463906
 20
-27.65957149081378
 30
18.0
 11
41.51274218225143
 21
-27.496959661039277
 31
18.0
  0
LINE
  5
2F0
330
17
100
AcDbEntity
  8
0
100
AcDbLine
 10
41.51274218225143
 20
-27.496959661039277
 30
18.0
 11
41.90863460760108
 21
-27.309752949334978
 31
18.0
  0
LINE
  5
2F1
330
17
100
AcDbEntity
  8
0
100
AcDbLine
 10
41.90863460760108
 20
-27.309752949334978
 30
18.0
 11
42.086657341423994
 21
-27.233856584099428
 31
18.0
  0
LINE
  5
2F2
330
17
100
AcDbEntity
  8
0
100
AcDbLine
 10
42.086657341423994
 20
-27.233856584099428
 30
18.0
 11
42.56015481684334
 21
-27.05331257412147
 31
18.0
  0
LINE
  5
2F3
330
17
100
AcDbEntity
  8
0
100
AcDbLine
 10
42.56015481684334
 20
-27.05331257412147
 30
18.0
 11
42.63955530104588
 21
-27.02456361310012
 31
18.0
  0
LINE
  5
2F4
330
17
100
AcDbEntity
  8
0
100
AcDbLine
 10
42.63955530104588
 20
-27.02456361310012
 30
18.0
 11
43.19188453771149
 21
-26.835067349029547
 31
18.0
  0
LINE
  5
2F5
330
17
100
AcDbEntity
  8
0
100
AcDbLine
 10
43.19188453771149
 20
-26.835067349029547
 30
18.0
 11
43.198458072267556
 21
-26.832822265824916
 31
18.0
  0
LINE
  5
2F6
330
17
100
AcDbEntity
  8
0
100
AcDbLine
 10
43.198458072267556
 20
-26.832822265824916
 30
18.0
 11
43.80578381023548
 21
-26.62634180548459
 31
18.0
  0
LINE
  5
2F7
330
17
100
AcDbEntity
  8
0
100
AcDbLine
 10
43.80578381023548
 20
-26.62634180548459
 30
18.0
 11
44.44624541517916
 21
-26.395047033917574
 31
18.0
  0
LINE
  5
2F8
330
17
100
AcDbEntity
  8
0
100
AcDbLine
 10
44.44624541517916
 20
-26.395047033917574
 30
18.0
 11
45.12334854232028
 21
-26.12411948010786
 31
18.0
  0
LINE
  5
2F9
330
17
100
AcDbEntity
  8
0
100
AcDbLine
 10
45.12334854232028
 20
-26.12411948010786
 30
18.0
 11
45.83758598610224
 21
-25.800368425094153
 31
18.0
  0
LINE
  5
2FA
330
17
100
AcDbEntity
  8
0
100
AcDbLine
 10
45.83758598610224
 20
-25.800368425094153
 30
18.0
 11
46.5847206390119
 21
-25.41280038701055
 31
18.0
  0
LINE
  5
2FB
330
17
100
AcDbEntity
  8
0
100
AcDbLine
 10
46.5847206390119
 20
-25.41280038701055
 30
18.0
 11
47.35701004262666
 21
-24.9525679382705
 31
18.0
  0
LINE
  5
2FC
330
17
100
AcDbEntity
  8
0
100
AcDbLine
 10
47.35701004262666
 20
-24.9525679382705
 30
18.0
 11
48.14416536160624
 21
-24.413090636834617
 31
18.0
  0
LINE
  5
2FD
330
17
100
AcDbEntity
  8
0
100
AcDbLine
 10
48.14416536160624
 20
-24.413090636834617
 30
18.0
 11
48.93414227547649
 21
-23.79020386197887
 31
18.0
  0
LINE
  5
2FE
330
17
100
AcDbEntity
  8
0
100
AcDbLine
 10
48.93414227547649
 20
-23.79020386197887
 30
18.0
 11
49.713828783285415
 21
-23.082271425292145
 31
18.0
  0
LINE
  5
2FF
330
17
100
AcDbEntity
  8
0
100
AcDbLine
 10
49.713828783285415
 20
-23.082271425292145
 30
18.0
 11
50.469665506831106
 21
-22.290233336600693
 31
18.0
  0
LINE
  5
300
330
17
100
AcDbEntity
  8
0
100
AcDbLine
 10
50.469665506831106
 20
-22.290233336600693
 30
18.0
 11
51.18821446584764
 21
-21.41757674940122
 31
18.0
  0
LINE
  5
301
330
17
100
AcDbEntity
  8
0
100
AcDbLine
 10
51.18821446584764
 20
-21.41757674940122
 30
18.0
 11
51.856680439368056
 21
-20.47022675201491
 31
18.0
  0
LINE
  5
302
330
17
100
AcDbEntity
  8
0
100
AcDbLine
 10
51.856680439368056
 20
-20.47022675201491
 30
18.0
 11
52.4633822865082
 21
-19.456358818053815
 31
18.0
  0
LINE
  5
303
330
17
100
AcDbEntity
  8
0
100
AcDbLine
 10
52.4633822865082
 20
-19.456358818053815
 30
18.0
 11
52.99816810159309
 21
-18.38613824870999
 31
18.0
  0
LINE
  5
304
330
17
100
AcDbEntity
  8
0
100
AcDbLine
 10
52.99816810159309
 20
-18.38613824870999
 30
18.0
 11
53.45276664231844
 21
-17.271394591384016
 31
18.0
  0
LINE
  5
305
330
17
100
AcDbEntity
  8
0
100
AcDbLine
 10
53.45276664231844
 20
-17.271394591384016
 30
18.0
 11
53.821067367251544
 21
-16.125241097827622
 31
18.0
  0
LINE
  5
306
330
17
100
AcDbEntity
  8
0
100
AcDbLine
 10
53.821067367251544
 20
-16.125241097827622
 30
18.0
 11
54.09932218695279
 21
-14.961650881997459
 31
18.0
  0
LINE
  5
307
330
17
100
AcDbEntity
  8
0
100
AcDbLine
 10
54.09932218695279
 20
-14.961650881997459
 30
18.0
 11
54.286263354129765
 21
-13.795002555014353
 31
18.0
  0
LINE
  5
308
330
17
100
AcDbEntity
  8
0
100
AcDbLine
 10
54.286263354129765
 20
-13.795002555014353
 30
18.0
 11
54.383133550056826
 21
-12.639608708551917
 31
18.0
  0
LINE
  5
309
330
17
100
AcDbEntity
  8
0
100
AcDbLine
 10
54.383133550056826
 20
-12.639608708551917
 30
18.0
 11
54.393625954656436
 21
-11.509240611367579
 31
18.0
  0
LINE
  5
30A
330
17
100
AcDbEntity
  8
0
100
AcDbLine
 10
54.393625954656436
 20
-11.509240611367579
 30
18.0
 11
54.323733702489676
 21
-10.416661753945629
 31
18.0
  0
LINE
  5
30B
330
17
100
AcDbEntity
  8
0
100
AcDbLine
 10
54.323733702489676
 20
-10.416661753945629
 30
18.0
 11
54.18150938460525
 21
-9.373181218058834
 31
18.0
  0
LINE
  5
30C
330
17
100
AcDbEntity
  8
0
100
AcDbLine
 10
54.18150938460525
 20
-9.373181218058834
 30
18.0
 11
53.97673586065754
 21
-8.388234893314007
 31
18.0
  0
LINE
  5
30D
330
17
100
AcDbEntity
  8
0
100
AcDbLine
 10
53.97673586065754
 20
-8.388234893314007
 30
18.0
 11
53.7205092277518
 21
-7.468997618421339
 31
18.0
  0
LINE
  5
30E
330
17
100
AcDbEntity
  8
0
100
AcDbLine
 10
53.7205092277518
 20
-7.468997618421339
 30
18.0
 11
53.42473293725882
 21
-6.620021048785115
 31
18.0
  0
LINE
  5
30F
330
17
100
AcDbEntity
  8
0
100
AcDbLine
 10
53.42473293725882
 20
-6.620021048785115
 30
18.0
 11
53.10151852092645
 21
-5.842877809222983
 31
18.0
  0
LINE
  5
310
330
17
100
AcDbEntity
  8
0
100
AcDbLine
 10
53.10151852092645
 20
-5.842877809222983
 30
18.0
 11
52.76248406283554
 21
-5.1357671333385815
 31
18.0
  0
LINE
  5
311
330
17
100
AcDbEntity
  8
0
100
AcDbLine
 10
52.76248406283554
 20
-5.1357671333385815
 30
18.0
 11
52.41794184958204
 21
-4.492991085648295
 31
18.0
  0
LINE
  5
312
330
17
100
AcDbEntity
  8
0
100
AcDbLine
 10
52.41794184958204
 20
-4.492991085648295
 30
18.0
 11
52.07599320943256
 21
-3.90412822702939
 31
18.0
  0
LINE
  5
313
330
17
100
AcDbEntity
  8
0
100
AcDbLine
 10
52.07599320943256
 20
-3.90412822702939
 30
18.0
 11
51.74347778424818
 21
-3.355573558363383
 31
18.0
  0
LINE
  5
314
330
17
100
AcDbEntity
  8
0
100
AcDbLine
 10
51.74347778424818
 20
-3.355573558363383
 30
18.0
 11
51.73988527629659
 21
-3.3496283382857985
 31
18.0
  0
LINE
  5
315
330
17
100
AcDbEntity
  8
0
100
AcDbLine
 10
51.73988527629659
 20
-3.3496283382857985
 30
18.0
 11
51.4385823844032
 21
-2.8494353884064814
 31
18.0
  0
LINE
  5
316
330
17
100
AcDbEntity
  8
0
100
AcDbLine
 10
51.4385823844032
 20
-2.8494353884064814
 30
18.0
 11
51.396237560634674
 21
-2.7763747591219587
 31
18.0
  0
LINE
  5
317
330
17
100
AcDbEntity
  8
0
100
AcDbLine
 10
51.396237560634674
 20
-2.7763747591219587
 30
18.0
 11
51.14956890337578
 21
-2.33371171312249
 31
18.0
  0
LINE
  5
318
330
17
100
AcDbEntity
  8
0
100
AcDbLine
 10
51.14956890337578
 20
-2.33371171312249
 30
18.0
 11
51.06198082057562
 21
-2.161140916737124
 31
18.0
  0
LINE
  5
319
330
17
100
AcDbEntity
  8
0
100
AcDbLine
 10
51.06198082057562
 20
-2.161140916737124
 30
18.0
 11
50.879043782797304
 21
-1.763257509737984
 31
18.0
  0
LINE
  5
31A
330
17
100
AcDbEntity
  8
0
100
AcDbLine
 10
50.879043782797304
 20
-1.763257509737984
 30
18.0
 11
50.76011304856019
 21
-1.4511881065845795
 31
18.0
  0
LINE
  5
31B
330
17
100
AcDbEntity
  8
0
100
AcDbLine
 10
50.76011304856019
 20
-1.4511881065845795
 30
18.0
 11
50.64761105874607
 21
-1.0839494902999087
 31
18.0
  0
LINE
  5
31C
330
17
100
AcDbEntity
  8
0
100
AcDbLine
 10
50.64761105874607
 20
-1.0839494902999087
 30
18.0
 11
50.588993273107725
 21
-0.8542239254962462
 31
18.0
  0
LINE
  5
31D
330
17
100
AcDbEntity
  8
0
100
AcDbLine
 10
50.588993273107725
 20
-0.8542239254962462
 30
18.0
 11
50.552400481051286
 21
-0.6199786534265204
 31
18.0
  0
LINE
  5
31E
330
17
100
AcDbEntity
  8
0
100
AcDbLine
 10
50.552400481051286
 20
-0.6199786534265204
 30
18.0
 11
50.514438982268345
 21
-0.2683028645631449
 31
18.0
  0
LINE
  5
31F
330
17
100
AcDbEntity
  8
0
100
AcDbLine
 10
50.514438982268345
 20
-0.2683028645631449
 30
18.0
 11
50.5
 21
-1.0671882874424772e-14
 31
18.0
  0
LINE
  5
320
330
17
100
AcDbEntity
  8
0
100
AcDbLine
 10
50.5
 20
-1.0671882874424772e-14
 30
18.0
 11
50.514438982268345
 21
0.26830286456312347
 31
18.0
  0
LINE
  5
321
330
17
100
AcDbEntity
  8
0
100
AcDbLine
 10
50.514438982268345
 20
0.26830286456312347
 30
18.0
 11
50.552400481051286
 21
0.6199786534265209
 31
18.0
  0
LINE
  5
322
330
17
100
AcDbEntity
  8
0
100
AcDbLine
 10
50.552400481051286
 20
0.6199786534265209
 30
18.0
 11
50.58899327310772
 21
0.8542239254962549
 31
18.0
  0
LINE
  5
323
330
17
100
AcDbEntity
  8
0
100
AcDbLine
 10
50.58899327310772
 20
0.8542239254962549
 30
18.0
 11
50.64761105874607
 21
1.0839494902999252
 31
18.0
  0
LINE
  5
324
330
17
100
AcDbEntity
  8
0
100
AcDbLine
 10
50.64761105874607
 20
1.0839494902999252
 30
18.0
 11
50.760113048560186
 21
1.4511881065845733
 31
18.0
  0
LINE
  5
325
330
17
100
AcDbEntity
  8
0
100
AcDbLine
 10
50.760113048560186
 20
1.4511881065845733
 30
18.0
 11
50.87904378279731
 21
1.763257509738012
 31
18.0
  0
LINE
  5
326
330
17
100
AcDbEntity
  8
0
100
AcDbLine
 10
50.87904378279731
 20
1.763257509738012
 30
18.0
 11
51.061980820575634
 21
2.1611409167371516
 31
18.0
  0
LINE
  5
327
330
17
100
AcDbEntity
  8
0
100
AcDbLine
 10
51.061980820575634
 20
2.1611409167371516
 30
18.0
 11
51.14956890337578
 21
2.333711713122488
 31
18.0
  0
LINE
  5
328
330
17
100
AcDbEntity
  8
0
100
AcDbLine
 10
51.14956890337578
 20
2.333711713122488
 30
18.0
 11
51.396237560634674
 21
2.776374759121955
 31
18.0
  0
LINE
  5
329
330
17
100
AcDbEntity
  8
0
100
AcDbLine
 10
51.396237560634674
 20
2.776374759121955
 30
18.0
 11
51.438582384403205
 21
2.849435388406487
 31
18.0
  0
LINE
  5
32A
330
17
100
AcDbEntity
  8
0
100
AcDbLine
 10
51.438582384403205
 20
2.849435388406487
 30
18.0
 11
51.7398852762966
 21
3.349628338285797
 31
18.0
  0
LINE
  5
32B
330
17
100
AcDbEntity
  8
0
100
AcDbLine
 10
51.7398852762966
 20
3.349628338285797
 30
18.0
 11
51.74347778424816
 21
3.355573558363337
 31
18.0
  0
LINE
  5
32C
330
17
100
AcDbEntity
  8
0
100
AcDbLine
 10
51.74347778424816
 20
3.355573558363337
 30
18.0
 11
52.07599320943252
 21
3.9041282270293203
 31
18.0
  0
LINE
  5
32D
330
17
100
AcDbEntity
  8
0
100
AcDbLine
 10
52.07599320943252
 20
3.9041282270293203
 30
18.0
 11
52.41794184958208
 21
4.4929910856483435
 31
18.0
  0
LINE
  5
32E
330
17
100
AcDbEntity
  8
0
100
AcDbLine
 10
52.41794184958208
 20
4.4929910856483435
 30
18.0
 11
52.76248406283555
 21
5.135767133338622
 31
18.0
  0
LINE
  5
32F
330
17
100
AcDbEntity
  8
0
100
AcDbLine
 10
52.76248406283555
 20
5.135767133338622
 30
18.0
 11
53.101518520926454
 21
5.8428778092229665
 31
18.0
  0
LINE
  5
330
330
17
100
AcDbEntity
  8
0
100
AcDbLine
 10
53.101518520926454
 20
5.8428778092229665
 30
18.0
 11
53.424732937258796
 21
6.620021048785092
 31
18.0
  0
LINE
  5
331
330
17
100
AcDbEntity
  8
0
100
AcDbLine
 10
53.424732937258796
 20
6.620021048785092
 30
18.0
 11
53.72050922775182
 21
7.468997618421364
 31
18.0
  0
LINE
  5
332
330
17
100
AcDbEntity
  8
0
100
AcDbLine
 10
53.72050922775182
 20
7.468997618421364
 30
18.0
 11
53.97673586065752
 21
8.38823489331398
 31
18.0
  0
LINE
  5
333
330
17
100
AcDbEntity
  8
0
100
AcDbLine
 10
53.97673586065752
 20
8.38823489331398
 30
18.0
 11
54.181509384605235
 21
9.373181218058765
 31
18.0
  0
LINE
  5
334
330
17
100
AcDbEntity
  8
0
100
AcDbLine
 10
54.181509384605235
 20
9.373181218058765
 30
18.0
 11
54.323733702489676
 21
10.41666175394567
 31
18.0
  0
LINE
  5
335
330
17
100
AcDbEntity
  8
0
100
AcDbLine
 10
54.323733702489676
 20
10.41666175394567
 30
18.0
 11
54.393625954656436
 21
11.509240611367579
 31
18.0
  0
LINE
  5
336
330
17
100
AcDbEntity
  8
0
100
AcDbLine
 10
54.393625954656436
 20
11.509240611367579
 30
18.0
 11
54.383133550056826
 21
12.639608708551888
 31
18.0
  0
LINE
  5
337
330
17
100
AcDbEntity
  8
0
100
AcDbLine
 10
54.383133550056826
 20
12.639608708551888
 30
18.0
 11
54.28626335412976
 21
13.795002555014328
 31
18.0
  0
LINE
  5
338
330
17
100
AcDbEntity
  8
0
100
AcDbLine
 10
54.28626335412976
 20
13.795002555014328
 30
18.0
 11
54.0993221869528
 21
14.961650881997436
 31
18.0
  0
LINE
  5
339
330
17
100
AcDbEntity
  8
0
100
AcDbLine
 10
54.0993221869528
 20
14.961650881997436
 30
18.0
 11
53.82106736725152
 21
16.125241097827647
 31
18.0
  0
LINE
  5
33A
330
17
100
AcDbEntity
  8
0
100
AcDbLine
 10
53.82106736725152
 20
16.125241097827647
 30
18.0
 11
53.45276664231843
 21
17.271394591384045
 31
18.0
  0
LINE
  5
33B
330
17
100
AcDbEntity
  8
0
100
AcDbLine
 10
53.45276664231843
 20
17.271394591384045
 30
18.0
 11
52.99816810159307
 21
18.38613824871003
 31
18.0
  0
LINE
  5
33C
330
17
100
AcDbEntity
  8
0
100
AcDbLine
 10
52.99816810159307
 20
18.38613824871003
 30
18.0
 11
52.46338228650822
 21
19.456358818053783
 31
18.0
  0
LINE
  5
33D
330
17
100
AcDbEntity
  8
0
100
AcDbLine
 10
52.46338228650822
 20
19.456358818053783
 30
18.0
 11
51.856680439368056
 21
20.47022675201491
 31
18.0
  0
LINE
  5
33E
330
17
100
AcDbEntity
  8
0
100
AcDbLine
 10
51.856680439368056
 20
20.47022675201491
 30
18.0
 11
51.18821446584763
 21
21.41757674940123
 31
18.0
  0
LINE
  5
33F
330
17
100
AcDbEntity
  8
0
100
AcDbLine
 10
51.18821446584763
 20
21.41757674940123
 30
18.0
 11
50.46966550683113
 21
22.290233336600668
 31
18.0
  0
LINE
  5
340
330
17
100
AcDbEntity
  8
0
100
AcDbLine
 10
50.46966550683113
 20
22.290233336600668
 30
18.0
 11
49.71382878328537
 21
23.082271425292184
 31
18.0
  0
LINE
  5
341
330
17
100
AcDbEntity
  8
0
100
AcDbLine
 10
49.71382878328537
 20
23.082271425292184
 30
18.0
 11
48.934142275476525
 21
23.79020386197885
 31
18.0
  0
LINE
  5
342
330
17
100
AcDbEntity
  8
0
100
AcDbLine
 10
48.934142275476525
 20
23.79020386197885
 30
18.0
 11
48.144165361606255
 21
24.41309063683461
 31
18.0
  0
LINE
  5
343
330
17
100
AcDbEntity
  8
0
100
AcDbLine
 10
48.144165361606255
 20
24.41309063683461
 30
18.0
 11
47.35701004262665
 21
24.952567938270512
 31
18.0
  0
LINE
  5
344
330
17
100
AcDbEntity
  8
0
100
AcDbLine
 10
47.35701004262665
 20
24.952567938270512
 30
18.0
 11
46.58472063901189
 21
25.412800387010563
 31
18.0
  0
LINE
  5
345
330
17
100
AcDbEntity
  8
0
100
AcDbLine
 10
46.58472063901189
 20
25.412800387010563
 30
18.0
 11
45.83758598610228
 21
25.80036842509414
 31
18.0
  0
LINE
  5
346
330
17
100
AcDbEntity
  8
0
100
AcDbLine
 10
45.83758598610228
 20
25.80036842509414
 30
18.0
 11
45.123348542320294
 21
26.124119480107854
 31
18.0
  0
LINE
  5
347
330
17
100
AcDbEntity
  8
0
100
AcDbLine
 10
45.123348542320294
 20
26.124119480107854
 30
18.0
 11
44.44624541517916
 21
26.395047033917564
 31
18.0
  0
LINE
  5
348
330
17
100
AcDbEntity
  8
0
100
AcDbLine
 10
44.44624541517916
 20
26.395047033917564
 30
18.0
 11
43.80578381023546
 21
26.626341805484596
 31
18.0
  0
LINE
  5
349
330
17
100
AcDbEntity
  8
0
100
AcDbLine
 10
43.80578381023546
 20
26.626341805484596
 30
18.0
 11
43.19845807226755
 21
26.832822265824923
 31
18.0
  0
LINE
  5
34A
330
17
100
AcDbEntity
  8
0
100
AcDbLine
 10
43.19845807226755
 20
26.832822265824923
 30
18.0
 11
43.191884537711495
 21
26.835067349029547
 31
18.0
  0
LINE
  5
34B
330
17
100
AcDbEntity
  8
0
100
AcDbLine
 10
43.191884537711495
 20
26.835067349029547
 30
18.0
 11
42.63955530104591
 21
27.02456361310011
 31
18.0
  0
LINE
  5
34C
330
17
100
AcDbEntity
  8
0
100
AcDbLine
 10
42.63955530104591
 20
27.02456361310011
 30
18.0
 11
42.56015481684333
 21
27.053312574121474
 31
18.0
  0
LINE
  5
34D
330
17
100
AcDbEntity
  8
0
100
AcDbLine
 10
42.56015481684333
 20
27.053312574121474
 30
18.0
 11
42.08665734142397
 21
27.233856584099442
 31
18.0
  0
LINE
  5
34E
330
17
100
AcDbEntity
  8
0
100
AcDbLine
 10
42.08665734142397
 20
27.233856584099442
 30
18.0
 11
41.90863460760113
 21
27.309752949334964
 31
18.0
  0
LINE
  5
34F
330
17
100
AcDbEntity
  8
0
100
AcDbLine
 10
41.90863460760113
 20
27.309752949334964
 30
18.0
 11
41.51274218225148
 21
27.496959661039252
 31
18.0
  0
LINE
  5
350
330
17
100
AcDbEntity
  8
0
100
AcDbLine
 10
41.51274218225148
 20
27.496959661039252
 30
18.0
 11
41.22104160846388
 21
27.659571490813793
 31
18.0
  0
LINE
  5
351
330
17
100
AcDbEntity
  8
0
100
AcDbLine
 10
41.22104160846388
 20
27.659571490813793
 30
18.0
 11
40.89880365198073
 21
27.86857770699976
 31
18.0
  0
LINE
  5
352
330
17
100
AcDbEntity
  8
0
100
AcDbLine
 10
40.89880365198073
 20
27.86857770699976
 30
18.0
 11
40.706235076340434
 21
28.006878913044414
 31
18.0
  0
LINE
  5
353
330
17
100
AcDbEntity
  8
0
100
AcDbLine
 10
40.706235076340434
 20
28.006878913044414
 30
18.0
 11
40.52763341281328
 21
28.162799808702655
 31
18.0
  0
LINE
  5
354
330
17
100
AcDbEntity
  8
0
100
AcDbLine
 10
40.52763341281328
 20
28.162799808702655
 30
18.0
 11
40.27250037791003
 21
28.40779791147813
 31
18.0
  0
LINE
  5
355
330
17
100
AcDbEntity
  8
0
100
AcDbLine
 10
40.27250037791003
 20
28.40779791147813
 30
18.0
 11
40.08897771879451
 21
28.604048631051015
 31
18.0
  0
LINE
  5
356
330
17
100
AcDbEntity
  8
0
100
AcDbLine
 10
40.08897771879451
 20
28.604048631051015
 30
18.0
 11
39.927576863940914
 21
28.818861748421046
 31
18.0
  0
LINE
  5
357
330
17
100
AcDbEntity
  8
0
100
AcDbLine
 10
39.927576863940914
 20
28.818861748421046
 30
18.0
 11
39.73060421942794
 21
29.11266221332211
 31
18.0
  0
LINE
  5
358
330
17
100
AcDbEntity
  8
0
100
AcDbLine
 10
39.73060421942794
 20
29.11266221332211
 30
18.0
 11
39.60806596592689
 21
29.31562589565575
 31
18.0
  0
LINE
  5
359
330
17
100
AcDbEntity
  8
0
100
AcDbLine
 10
39.60806596592689
 20
29.31562589565575
 30
18.0
 11
39.50530504819904
 21
29.52928467433158
 31
18.0
  0
LINE
  5
35A
330
17
100
AcDbEntity
  8
0
100
AcDbLine
 10
39.50530504819904
 20
29.52928467433158
 30
18.0
 11
39.35543013998976
 21
29.882920660752767
 31
18.0
  0
LINE
  5
35B
330
17
100
AcDbEntity
  8
0
100
AcDbLine
 10
39.35543013998976
 20
29.882920660752767
 30
18.0
 11
39.24594202235888
 21
30.198426895284392
 31
18.0
  0
LINE
  5
35C
330
17
100
AcDbEntity
  8
0
100
AcDbLine
 10
39.24594202235888
 20
30.198426895284392
 30
18.0
 11
39.13032539947069
 21
30.620812929461984
 31
18.0
  0
LINE
  5
35D
330
17
100
AcDbEntity
  8
0
100
AcDbLine
 10
39.13032539947069
 20
30.620812929461984
 30
18.0
 11
39.08649539387294
 21
30.809310363457787
 31
18.0
  0
LINE
  5
35E
330
17
100
AcDbEntity
  8
0
100
AcDbLine
 10
39.08649539387294
 20
30.809310363457787
 30
18.0
 11
38.990916226823174
 21
31.306965486603836
 31
18.0
  0
LINE
  5
35F
330
17
100
AcDbEntity
  8
0
100
AcDbLine
 10
38.990916226823174
 20
31.306965486603836
 30
18.0
 11
38.97639177650591
 21
31.390151903730782
 31
18.0
  0
LINE
  5
360
330
17
100
AcDbEntity
  8
0
100
AcDbLine
 10
38.97639177650591
 20
31.390151903730782
 30
18.0
 11
38.88568535190154
 21
31.96699569914491
 31
18.0
  0
LINE
  5
361
330
17
100
AcDbEntity
  8
0
100
AcDbLine
 10
38.88568535190154
 20
31.96699569914491
 30
18.0
 11
38.884615858851994
 21
31.973859221547393
 31
18.0
  0
LINE
  5
362
330
17
100
AcDbEntity
  8
0
100
AcDbLine
 10
38.884615858851994
 20
31.973859221547393
 30
18.0
 11
38.786733308311604
 21
32.60781327256419
 31
18.0
  0
LINE
  5
363
330
17
100
AcDbEntity
  8
0
100
AcDbLine
 10
38.786733308311604
 20
32.60781327256419
 30
18.0
 11
38.670167414605366
 21
33.27870874220572
 31
18.0
  0
LINE
  5
364
330
17
100
AcDbEntity
  8
0
100
AcDbLine
 10
38.670167414605366
 20
33.27870874220572
 30
18.0
 11
38.52093358322956
 21
33.99257122740193
 31
18.0
  0
LINE
  5
365
330
17
100
AcDbEntity
  8
0
100
AcDbLine
 10
38.52093358322956
 20
33.99257122740193
 30
18.0
 11
38.32612706474034
 21
34.75217658025112
 31
18.0
  0
LINE
  5
366
330
17
100
AcDbEntity
  8
0
100
AcDbLine
 10
38.32612706474034
 20
34.75217658025112
 30
18.0
 11
38.07418562696552
 21
35.55526106251563
 31
18.0
  0
LINE
  5
367
330
17
100
AcDbEntity
  8
0
100
AcDbLine
 10
38.07418562696552
 20
35.55526106251563
 30
18.0
 11
37.75505179082769
 21
36.39573618079156
 31
18.0
  0
LINE
  5
368
330
17
100
AcDbEntity
  8
0
100
AcDbLine
 10
37.75505179082769
 20
36.39573618079156
 30
18.0
 11
37.360458448481175
 21
37.26461209203444
 31
18.0
  0
LINE
  5
369
330
17
100
AcDbEntity
  8
0
100
AcDbLine
 10
37.360458448481175
 20
37.26461209203444
 30
18.0
 11
36.884212774846944
 21
38.150750634861105
 31
18.0
  0
LINE
  5
36A
330
17
100
AcDbEntity
  8
0
100
AcDbLine
 10
36.884212774846944
 20
38.150750634861105
 30
18.0
 11
36.32242656382161
 21
39.04152313021222
 31
18.0
  0
LINE
  5
36B
330
17
100
AcDbEntity
  8
0
100
AcDbLine
 10
36.32242656382161
 20
39.04152313021222
 30
18.0
 11
35.67367098305475
 21
39.92341296631542
 31
18.0
  0
LINE
  5
36C
330
17
100
AcDbEntity
  8
0
100
AcDbLine
 10
35.67367098305475
 20
39.92341296631542
 30
18.0
 11
34.93904672756117
 21
40.78258077817005
 31
18.0
  0
LINE
  5
36D
330
17
100
AcDbEntity
  8
0
100
AcDbLine
 10
34.93904672756117
 20
40.78258077817005
 30
18.0
 11
34.12216700345323
 21
41.60539685217669
 31
18.0
  0
LINE
  5
36E
330
17
100
AcDbEntity
  8
0
100
AcDbLine
 10
34.12216700345323
 20
41.60539685217669
 30
18.0
 11
33.22905467170088
 21
42.378937854134456
 31
18.0
  0
LINE
  5
36F
330
17
100
AcDbEntity
  8
0
100
AcDbLine
 10
33.22905467170088
 20
42.378937854134456
 30
18.0
 11
32.26795773980966
 21
43.09144092259914
 31
18.0
  0
LINE
  5
370
330
17
100
AcDbEntity
  8
0
100
AcDbLine
 10
32.26795773980966
 20
43.09144092259914
 30
18.0
 11
31.24908975162087
 21
43.732706294673925
 31
18.0
  0
LINE
  5
371
330
17
100
AcDbEntity
  8
0
100
AcDbLine
 10
31.24908975162087
 20
43.732706294673925
 30
18.0
 11
30.184303654742394
 21
44.294439169510795
 31
18.0
  0
LINE
  5
372
330
17
100
AcDbEntity
  8
0
100
AcDbLine
 10
30.184303654742394
 20
44.294439169510795
 30
18.0
 11
29.086709431231974
 21
44.77052199379553
 31
18.0
  0
LINE
  5
373
330
17
100
AcDbEntity
  8
0
100
AcDbLine
 10
29.086709431231974
 20
44.77052199379553
 30
18.0
 11
27.97024710679148
 21
45.15720946054736
 31
18.0
  0
LINE
  5
374
330
17
100
AcDbEntity
  8
0
100
AcDbLine
 10
27.97024710679148
 20
45.15720946054736
 30
18.0
 11
26.849227622005696
 21
45.453240016457904
 31
18.0
  0
LINE
  5
375
330
17
100
AcDbEntity
  8
0
100
AcDbLine
 10
26.849227622005696
 20
45.453240016457904
 30
18.0
 11
25.7378543430788
 21
45.65985937802429
 31
18.0
  0
LINE
  5
376
330
17
100
AcDbEntity
  8
0
100
AcDbLine
 10
25.7378543430788
 20
45.65985937802429
 30
18.0
 11
24.64973755129082
 21
45.78075327376369
 31
18.0
  0
LINE
  5
377
330
17
100
AcDbEntity
  8
0
100
AcDbLine
 10
24.64973755129082
 20
45.78075327376369
 30
18.0
 11
23.597412835811532
 21
45.82188815633191
 31
18.0
  0
LINE
  5
378
330
17
100
AcDbEntity
  8
0
100
AcDbLine
 10
23.597412835811532
 20
45.82188815633191
 30
18.0
 11
22.591871509634124
 21
45.79125973672824
 31
18.0
  0
LINE
  5
379
330
17
100
AcDbEntity
  8
0
100
AcDbLine
 10
22.591871509634124
 20
45.79125973672824
 30
18.0
 11
21.642106226588076
 21
45.698549639743064
 31
18.0
  0
LINE
  5
37A
330
17
100
AcDbEntity
  8
0
100
AcDbLine
 10
21.642106226588076
 20
45.698549639743064
 30
18.0
 11
20.7546665048434
 21
45.55469008990765
 31
18.0
  0
LINE
  5
37B
330
17
100
AcDbEntity
  8
0
100
AcDbLine
 10
20.7546665048434
 20
45.55469008990765
 30
18.0
 11
19.933204222929792
 21
45.371335534154355
 31
18.0
  0
LINE
  5
37C
330
17
100
AcDbEntity
  8
0
100
AcDbLine
 10
19.933204222929792
 20
45.371335534154355
 30
18.0
 11
19.177963431267358
 21
45.16024025156429
 31
18.0
  0
LINE
  5
37D
330
17
100
AcDbEntity
  8
0
100
AcDbLine
 10
19.177963431267358
 20
45.16024025156429
 30
18.0
 11
18.485123468590828
 21
44.932549298041685
 31
18.0
  0
LINE
  5
37E
330
17
100
AcDbEntity
  8
0
100
AcDbLine
 10
18.485123468590828
 20
44.932549298041685
 30
18.0
 11
17.845828001744064
 21
44.69805058838534
 31
18.0
  0
LINE
  5
37F
330
17
100
AcDbEntity
  8
0
100
AcDbLine
 10
17.845828001744064
 20
44.69805058838534
 30
18.0
 11
17.247866413461534
 21
44.4658423382322
 31
18.0
  0
LINE
  5
380
330
17
100
AcDbEntity
  8
0
100
AcDbLine
 10
17.247866413461534
 20
44.4658423382322
 30
18.0
 11
17.24138768217653
 21
44.46333678518095
 31
18.0
  0
LINE
  5
381
330
17
100
AcDbEntity
  8
0
100
AcDbLine
 10
17.24138768217653
 20
44.46333678518095
 30
18.0
 11
16.696473089030263
 21
44.253468955467746
 31
18.0
  0
LINE
  5
382
330
17
100
AcDbEntity
  8
0
100
AcDbLine
 10
16.696473089030263
 20
44.253468955467746
 30
18.0
 11
16.617169313390086
 21
44.224454289855096
 31
18.0
  0
LINE
  5
383
330
17
100
AcDbEntity
  8
0
100
AcDbLine
 10
16.617169313390086
 20
44.224454289855096
 30
18.0
 11
16.138397750897283
 21
44.05840071501971
 31
18.0
  0
LINE
  5
384
330
17
100
AcDbEntity
  8
0
100
AcDbLine
 10
16.138397750897283
 20
44.05840071501971
 30
18.0
 11
15.953239181709703
 21
44.00210989631743
 31
18.0
  0
LINE
  5
385
330
17
100
AcDbEntity
  8
0
100
AcDbLine
 10
15.953239181709703
 20
44.00210989631743
 30
18.0
 11
15.52963383446404
 21
43.891043811749576
 31
18.0
  0
LINE
  5
386
330
17
100
AcDbEntity
  8
0
100
AcDbLine
 10
15.52963383446404
 20
43.891043811749576
 30
18.0
 11
15.201653361491879
 21
43.82811018576465
 31
18.0
  0
LINE
  5
387
330
17
100
AcDbEntity
  8
0
100
AcDbLine
 10
15.201653361491879
 20
43.82811018576465
 30
18.0
 11
14.820458159454121
 21
43.78108767045316
 31
18.0
  0
LINE
  5
388
330
17
100
AcDbEntity
  8
0
100
AcDbLine
 10
14.820458159454121
 20
43.78108767045316
 30
18.0
 11
14.584043770515406
 21
43.76325184638376
 31
18.0
  0
LINE
  5
389
330
17
100
AcDbEntity
  8
0
100
AcDbLine
 10
14.584043770515406
 20
43.76325184638376
 30
18.0
 11
14.34700293881835
 21
43.767891245684226
 31
18.0
  0
LINE
  5
38A
330
17
100
AcDbEntity
  8
0
100
AcDbLine
 10
14.34700293881835
 20
43.767891245684226
 30
18.0
 11
13.99407795031384
 21
43.791574327232524
 31
18.0
  0
LINE
  5
38B
330
17
100
AcDbEntity
  8
0
100
AcDbLine
 10
13.99407795031384
 20
43.791574327232524
 30
18.0
 11
13.727343906178406
 21
43.82394500904326
 31
18.0
  0
LINE
  5
38C
330
17
100
AcDbEntity
  8
0
100
AcDbLine
 10
13.727343906178406
 20
43.82394500904326
 30
18.0
 11
13.4656244679595
 21
43.884754934220936
 31
18.0
  0
LINE
  5
38D
330
17
100
AcDbEntity
  8
0
100
AcDbLine
 10
13.4656244679595
 20
43.884754934220936
 30
18.0
 11
13.125883369625335
 21
43.98320757240404
 31
18.0
  0
LINE
  5
38E
330
17
100
AcDbEntity
  8
0
100
AcDbLine
 10
13.125883369625335
 20
43.98320757240404
 30
18.0
 11
12.901551081240921
 21
44.0599207023476
 31
18.0
  0
LINE
  5
38F
330
17
100
AcDbEntity
  8
0
100
AcDbLine
 10
12.901551081240921
 20
44.0599207023476
 30
18.0
 11
12.6854944356121
 21
44.15753937780033
 31
18.0
  0
LINE
  5
390
330
17
100
AcDbEntity
  8
0
100
AcDbLine
 10
12.6854944356121
 20
44.15753937780033
 30
18.0
 11
12.343370764604618
 21
44.33210252608535
 31
18.0
  0
LINE
  5
391
330
17
100
AcDbEntity
  8
0
100
AcDbLine
 10
12.343370764604618
 20
44.33210252608535
 30
18.0
 11
12.05669450217026
 21
44.50341671839659
 31
18.0
  0
LINE
  5
392
330
17
100
AcDbEntity
  8
0
100
AcDbLine
 10
12.05669450217026
 20
44.50341671839659
 30
18.0
 11
11.69662252140055
 21
44.75266626006308
 31
18.0
  0
LINE
  5
393
330
17
100
AcDbEntity
  8
0
100
AcDbLine
 10
11.69662252140055
 20
44.75266626006308
 30
18.0
 11
11.54188297414024
 21
44.86889028738707
 31
18.0
  0
LINE
  5
394
330
17
100
AcDbEntity
  8
0
100
AcDbLine
 10
11.54188297414024
 20
44.86889028738707
 30
18.0
 11
11.148778537288536
 21
45.18867912473903
 31
18.0
  0
LINE
  5
395
330
17
100
AcDbEntity
  8
0
100
AcDbLine
 10
11.148778537288536
 20
45.18867912473903
 30
18.0
 11
11.084180964610232
 21
45.24306748062067
 31
18.0
  0
LINE
  5
396
330
17
100
AcDbEntity
  8
0
100
AcDbLine
 10
11.084180964610232
 20
45.24306748062067
 30
18.0
 11
10.643907767670102
 21
45.62665049879067
 31
18.0
  0
LINE
  5
397
330
17
100
AcDbEntity
  8
0
100
AcDbLine
 10
10.643907767670102
 20
45.62665049879067
 30
18.0
 11
10.63867670130331
 21
45.6312208051065
 31
18.0
  0
LINE
  5
398
330
17
100
AcDbEntity
  8
0
100
AcDbLine
 10
10.63867670130331
 20
45.6312208051065
 30
18.0
 11
10.156196508279328
 21
46.05394009238887
 31
18.0
  0
LINE
  5
399
330
17
100
AcDbEntity
  8
0
100
AcDbLine
 10
10.156196508279328
 20
46.05394009238887
 30
18.0
 11
9.635658557868291
 21
46.492948726634836
 31
18.0
  0
LINE
  5
39A
330
17
100
AcDbEntity
  8
0
100
AcDbLine
 10
9.635658557868291
 20
46.492948726634836
 30
18.0
 11
9.062476850113168
 21
46.9438734588162
 31
18.0
  0
LINE
  5
39B
330
17
100
AcDbEntity
  8
0
100
AcDbLine
 10
9.062476850113168
 20
46.9438734588162
 30
18.0
 11
8.424981490078252
 21
47.40054570195861
 31
18.0
  0
LINE
  5
39C
330
17
100
AcDbEntity
  8
0
100
AcDbLine
 10
8.424981490078252
 20
47.40054570195861
 30
18.0
 11
7.715770396948263
 21
47.85379927238417
 31
18.0
  0
LINE
  5
39D
330
17
100
AcDbEntity
  8
0
100
AcDbLine
 10
7.715770396948263
 20
47.85379927238417
 30
18.0
 11
6.931052702886028
 21
48.29250529061809
 31
18.0
  0
LINE
  5
39E
330
17
100
AcDbEntity
  8
0
100
AcDbLine
 10
6.931052702886028
 20
48.29250529061809
 30
18.0
 11
6.0702739955876215
 21
48.70446314286053
 31
18.0
  0
LINE
  5
39F
330
17
100
AcDbEntity
  8
0
100
AcDbLine
 10
6.0702739955876215
 20
48.70446314286053
 30
18.0
 11
5.135849767946131
 21
49.07715983124749
 31
18.0
  0
LINE
  5
3A0
330
17
100
AcDbEntity
  8
0
100
AcDbLine
 10
5.135849767946131
 20
49.07715983124749
 30
18.0
 11
4.1329190397079465
 21
49.398421935654646
 31
18.0
  0
LINE
  5
3A1
330
17
100
AcDbEntity
  8
0
100
AcDbLine
 10
4.1329190397079465
 20
49.398421935654646
 30
18.0
 11
3.069075572363452
 21
49.65697669501267
 31
18.0
  0
LINE
  5
3A2
330
17
100
AcDbEntity
  8
0
100
AcDbLine
 10
3.069075572363452
 20
49.65697669501267
 30
18.0
 11
1.9540583195605734
 21
49.84293005378413
 31
18.0
  0
LINE
  5
3A3
330
17
100
AcDbEntity
  8
0
100
AcDbLine
 10
1.9540583195605734
 20
49.84293005378413
 30
18.0
 11
0.7993961687887641
 21
49.94816356972514
 31
18.0
  0
LINE
  5
3A4
330
17
100
AcDbEntity
  8
0
100
AcDbLine
 10
0.7993961687887641
 20
49.94816356972514
 30
18.0
 11
-0.381990141674156
 21
49.9666488148909
 31
18.0
  0
LINE
  5
3A5
330
17
100
AcDbEntity
  8
0
100
AcDbLine
 10
-0.381990141674156
 20
49.9666488148909
 30
18.0
 11
-1.5762212499209758
 21
49.89467663166607
 31
18.0
  0
LINE
  5
3A6
330
17
100
AcDbEntity
  8
0
100
AcDbLine
 10
-1.5762212499209758
 20
49.89467663166607
 30
18.0
 11
-2.768916846235429
 21
49.73099868779459
 31
18.0
  0
LINE
  5
3A7
330
17
100
AcDbEntity
  8
0
100
AcDbLine
 10
-2.768916846235429
 20
49.73099868779459
 30
18.0
 11
-3.9456652507581538
 21
49.476879725040675
 31
18.0
  0
LINE
  5
3A8
330
17
100
AcDbEntity
  8
0
100
AcDbLine
 10
-3.9456652507581538
 20
49.476879725040675
 30
18.0
 11
-5.092491347112782
 21
49.13606035971231
 31
18.0
  0
LINE
  5
3A9
330
17
100
AcDbEntity
  8
0
100
AcDbLine
 10
-5.092491347112782
 20
49.13606035971231
 30
18.0
 11
-6.196309019151176
 21
48.71463199600915
 31
18.0
  0
LINE
  5
3AA
330
17
100
AcDbEntity
  8
0
100
AcDbLine
 10
-6.196309019151176
 20
48.71463199600915
 30
18.0
 11
-7.245344539527432
 21
48.22082712332033
 31
18.0
  0
LINE
  5
3AB
330
17
100
AcDbEntity
  8
0
100
AcDbLine
 10
-7.245344539527432
 20
48.22082712332033
 30
18.0
 11
-8.22951822961634
 21
47.66472976365821
 31
18.0
  0
LINE
  5
3AC
330
17
100
AcDbEntity
  8
0
100
AcDbLine
 10
-8.22951822961634
 20
47.66472976365821
 30
18.0
 11
-9.140773149698163
 21
47.05791186904312
 31
18.0
  0
LINE
  5
3AD
330
17
100
AcDbEntity
  8
0
100
AcDbLine
 10
-9.140773149698163
 20
47.05791186904312
 30
18.0
 11
-9.973341643188569
 21
46.41300172877584
 31
18.0
  0
LINE
  5
3AE
330
17
100
AcDbEntity
  8
0
100
AcDbLine
 10
-9.973341643188569
 20
46.41300172877584
 30
18.0
 11
-10.723943419807732
 21
45.74318949264236
 31
18.0
  0
LINE
  5
3AF
330
17
100
AcDbEntity
  8
0
100
AcDbLine
 10
-10.723943419807732
 20
45.74318949264236
 30
18.0
 11
-11.391912935517563
 21
45.06167208197342
 31
18.0
  0
LINE
  5
3B0
330
17
100
AcDbEntity
  8
0
100
AcDbLine
 10
-11.391912935517563
 20
45.06167208197342
 30
18.0
 11
-11.97926006679386
 21
44.38103401575123
 31
18.0
  0
LINE
  5
3B1
330
17
100
AcDbEntity
  8
0
100
AcDbLine
 10
-11.97926006679386
 20
44.38103401575123
 30
18.0
 11
-12.490678646467735
 21
43.71255050055708
 31
18.0
  0
LINE
  5
3B2
330
17
100
AcDbEntity
  8
0
100
AcDbLine
 10
-12.490678646467735
 20
43.71255050055708
 30
18.0
 11
-12.933537226025372
 21
43.06538270914983
 31
18.0
  0
LINE
  5
3B3
330
17
100
AcDbEntity
  8
0
100
AcDbLine
 10
-12.933537226025372
 20
43.06538270914983
 30
18.0
 11
-13.317926505642493
 21
42.44561237595115
 31
18.0
  0
LINE
  5
3B4
330
17
100
AcDbEntity
  8
0
100
AcDbLine
 10
-13.317926505642493
 20
42.44561237595115
 30
18.0
 11
-13.65692238047696
 21
41.85504473748253
 31
18.0
  0
LINE
  5
3B5
330
17
100
AcDbEntity
  8
0
100
AcDbLine
 10
-13.65692238047696
 20
41.85504473748253
 30
18.0
 11
-13.965726946314053
 21
41.292800597789714
 31
18.0
  0
LINE
  5
3B6
330
17
100
AcDbEntity
  8
0
100
AcDbLine
 10
-13.965726946314053
 20
41.292800597789714
 30
18.0
 11
-13.969079403956584
 21
41.28671678460147
 31
18.0
  0
LINE
  5
3B7
330
17
100
AcDbEntity
  8
0
100
AcDbLine
 10
-13.969079403956584
 20
41.28671678460147
 30
18.0
 11
-14.25160775939927
 21
40.775684351048426
 31
18.0
  0
LINE
  5
3B8
330
17
100
AcDbEntity
  8
0
100
AcDbLine
 10
-14.25160775939927
 20
40.775684351048426
 30
18.0
 11
-14.293707708491773
 21
40.702482343304034
 31
18.0
  0
LINE
  5
3B9
330
17
100
AcDbEntity
  8
0
100
AcDbLine
 10
-14.293707708491773
 20
40.702482343304034
 30
18.0
 11
-14.553730823014433
 21
40.267529496800705
 31
18.0
  0
LINE
  5
3BA
330
17
100
AcDbEntity
  8
0
100
AcDbLine
 10
-14.553730823014433
 20
40.267529496800705
 30
18.0
 11
-14.65938747523548
 21
40.10539059383417
 31
18.0
  0
LINE
  5
3BB
330
17
100
AcDbEntity
  8
0
100
AcDbLine
 10
-14.65938747523548
 20
40.10539059383417
 30
18.0
 11
-14.91249609455189
 21
39.7480207683255
 31
18.0
  0
LINE
  5
3BC
330
17
100
AcDbEntity
  8
0
100
AcDbLine
 10
-14.91249609455189
 20
39.7480207683255
 30
18.0
 11
-15.123290758308002
 21
39.48898902960877
 31
18.0
  0
LINE
  5
3BD
330
17
100
AcDbEntity
  8
0
100
AcDbLine
 10
-15.123290758308002
 20
39.48898902960877
 30
18.0
 11
-15.38507773435412
 21
39.207940140311095
 31
18.0
  0
LINE
  5
3BE
330
17
100
AcDbEntity
  8
0
100
AcDbLine
 10
-15.38507773435412
 20
39.207940140311095
 30
18.0
 11
-15.55471701655366
 21
39.042312866432844
 31
18.0
  0
LINE
  5
3BF
330
17
100
AcDbEntity
  8
0
100
AcDbLine
 10
-15.55471701655366
 20
39.042312866432844
 30
18.0
 11
-15.739282976854245
 21
38.8934999428817
 31
18.0
  0
LINE
  5
3C0
330
17
100
AcDbEntity
  8
0
100
AcDbLine
 10
-15.739282976854245
 20
38.8934999428817
 30
18.0
 11
-16.024862394514404
 21
38.684786426138245
 31
18.0
  0
LINE
  5
3C1
330
17
100
AcDbEntity
  8
0
100
AcDbLine
 10
-16.024862394514404
 20
38.684786426138245
 30
18.0
 11
-16.250000000000014
 21
38.538130468407516
 31
18.0
  0
LINE
  5
3C2
330
17
100
AcDbEntity
  8
0
100
AcDbLine
 10
-16.250000000000014
 20
38.538130468407516
 30
18.0
 11
-16.489576587753966
 21
38.41648356157514
 31
18.0
  0
LINE
  5
3C3
330
17
100
AcDbEntity
  8
0
100
AcDbLine
 10
-16.489576587753966
 20
38.41648356157514
 30
18.0
 11
-16.81311750419704
 21
38.27352128945521
 31
18.0
  0
LINE
  5
3C4
330
17
100
AcDbEntity
  8
0
100
AcDbLine
 10
-16.81311750419704
 20
38.27352128945521
 30
18.0
 11
-17.034276256554104
 21
38.188088940936595
 31
18.0
  0
LINE
  5
3C5
330
17
100
AcDbEntity
  8
0
100
AcDbLine
 10
-17.034276256554104
 20
38.188088940936595
 30
18.0
 11
-17.262533324392052
 21
38.12399065001115
 31
18.0
  0
LINE
  5
3C6
330
17
100
AcDbEntity
  8
0
100
AcDbLine
 10
-17.262533324392052
 20
38.12399065001115
 30
18.0
 11
-17.636822290252255
 21
38.037800923024164
 31
18.0
  0
LINE
  5
3C7
330
17
100
AcDbEntity
  8
0
100
AcDbLine
 10
-17.636822290252255
 20
38.037800923024164
 30
18.0
 11
-17.966547688245345
 21
37.98476325858756
 31
18.0
  0
LINE
  5
3C8
330
17
100
AcDbEntity
  8
0
100
AcDbLine
 10
-17.966547688245345
 20
37.98476325858756
 30
18.0
 11
-18.40259334534007
 21
37.944249677097076
 31
18.0
  0
LINE
  5
3C9
330
17
100
AcDbEntity
  8
0
100
AcDbLine
 10
-18.40259334534007
 20
37.944249677097076
 30
18.0
 11
-18.595838080361307
 21
37.933817783678094
 31
18.0
  0
LINE
  5
3CA
330
17
100
AcDbEntity
  8
0
100
AcDbLine
 10
-18.595838080361307
 20
37.933817783678094
 30
18.0
 11
-19.10252985214291
 21
37.92610758418197
 31
18.0
  0
LINE
  5
3CB
330
17
100
AcDbEntity
  8
0
100
AcDbLine
 10
-19.10252985214291
 20
37.92610758418197
 30
18.0
 11
-19.186974625003895
 21
37.92624896264203
 31
18.0
  0
LINE
  5
3CC
330
17
100
AcDbEntity
  8
0
100
AcDbLine
 10
-19.186974625003895
 20
37.92624896264203
 30
18.0
 11
-19.770805872339952
 21
37.93708844631574
 31
18.0
  0
LINE
  5
3CD
330
17
100
AcDbEntity
  8
0
100
AcDbLine
 10
-19.770805872339952
 20
37.93708844631574
 30
18.0
 11
-19.77775083793424
 21
37.937227039426325
 31
18.0
  0
LINE
  5
3CE
330
17
100
AcDbEntity
  8
0
100
AcDbLine
 10
-19.77775083793424
 20
37.937227039426325
 30
18.0
 11
-20.419070828955782
 21
37.95091651045322
 31
18.0
  0
LINE
  5
3CF
330
17
100
AcDbEntity
  8
0
100
AcDbLine
 10
-20.419070828955782
 20
37.95091651045322
 30
18.0
 11
-21.100015343939393
 21
37.952621290302744
 31
18.0
  0
LINE
  5
3D0
330
17
100
AcDbEntity
  8
0
100
AcDbLine
 10
-21.100015343939393
 20
37.952621290302744
 30
18.0
 11
-21.82894683681012
 21
37.929615575811226
 31
18.0
  0
LINE
  5
3D1
330
17
100
AcDbEntity
  8
0
100
AcDbLine
 10
-21.82894683681012
 20
37.929615575811226
 30
18.0
 11
-22.61083987445869
 21
37.86967269133404
 31
18.0
  0
LINE
  5
3D2
330
17
100
AcDbEntity
  8
0
100
AcDbLine
 10
-22.61083987445869
 20
37.86967269133404
 30
18.0
 11
-23.445472870465103
 21
37.76101296696617
 31
18.0
  0
LINE
  5
3D3
330
17
100
AcDbEntity
  8
0
100
AcDbLine
 10
-23.445472870465103
 20
37.76101296696617
 30
18.0
 11
-24.328596292234263
 21
37.59267446355212
 31
18.0
  0
LINE
  5
3D4
330
17
100
AcDbEntity
  8
0
100
AcDbLine
 10
-24.328596292234263
 20
37.59267446355212
 30
18.0
 11
-25.252792440849667
 21
37.35495459932834
 31
18.0
  0
LINE
  5
3D5
330
17
100
AcDbEntity
  8
0
100
AcDbLine
 10
-25.252792440849667
 20
37.35495459932834
 30
18.0
 11
-26.208167741416688
 21
37.03982051071708
 31
18.0
  0
LINE
  5
3D6
330
17
100
AcDbEntity
  8
0
100
AcDbLine
 10
-26.208167741416688
 20
37.03982051071708
 30
18.0
 11
-27.182960552791563
 21
36.64125011509748
 31
18.0
  0
LINE
  5
3D7
330
17
100
AcDbEntity
  8
0
100
AcDbLine
 10
-27.182960552791563
 20
36.64125011509748
 30
18.0
 11
-28.164107725040004
 21
36.155489152290684
 31
18.0
  0
LINE
  5
3D8
330
17
100
AcDbEntity
  8
0
100
AcDbLine
 10
-28.164107725040004
 20
36.155489152290684
 30
18.0
 11
-29.137789010529396
 21
35.581218414768415
 31
18.0
  0
LINE
  5
3D9
330
17
100
AcDbEntity
  8
0
100
AcDbLine
 10
-29.137789010529396
 20
35.581218414768415
 30
18.0
 11
-30.089954334978565
 21
34.91962944099477
 31
18.0
  0
LINE
  5
3DA
330
17
100
AcDbEntity
  8
0
100
AcDbLine
 10
-30.089954334978565
 20
34.91962944099477
 30
18.0
 11
-31.006830839840013
 21
34.174409477714896
 31
18.0
  0
LINE
  5
3DB
330
17
100
AcDbEntity
  8
0
100
AcDbLine
 10
-31.006830839840013
 20
34.174409477714896
 30
18.0
 11
-31.875402116493376
 21
33.35163862721302
 31
18.0
  0
LINE
  5
3DC
330
17
100
AcDbEntity
  8
0
100
AcDbLine
 10
-31.875402116493376
 20
33.35163862721302
 30
18.0
 11
-32.68384979608292
 21
32.45960409641057
 31
18.0
  0
LINE
  5
3DD
330
17
100
AcDbEntity
  8
0
100
AcDbLine
 10
-32.68384979608292
 20
32.45960409641057
 30
18.0
 11
-33.42194685167213
 21
31.508538382956065
 31
18.0
  0
LINE
  5
3DE
330
17
100
AcDbEntity
  8
0
100
AcDbLine
 10
-33.42194685167213
 20
31.508538382956065
 30
18.0
 11
-34.08139214483408
 21
30.510289996837084
 31
18.0
  0
LINE
  5
3DF
330
17
100
AcDbEntity
  8
0
100
AcDbLine
 10
-34.08139214483408
 20
30.510289996837084
 30
18.0
 11
-34.65607660815674
 21
29.477936817710276
 31
18.0
  0
LINE
  5
3E0
330
17
100
AcDbEntity
  8
0
100
AcDbLine
 10
-34.65607660815674
 20
29.477936817710276
 30
18.0
 11
-35.14227278540822
 21
28.425353304382917
 31
18.0
  0
LINE
  5
3E1
330
17
100
AcDbEntity
  8
0
100
AcDbLine
 10
-35.14227278540822
 20
28.425353304382917
 30
18.0
 11
-35.53874107919453
 21
27.366743358411956
 31
18.0
  0
LINE
  5
3E2
330
17
100
AcDbEntity
  8
0
100
AcDbLine
 10
-35.53874107919453
 20
27.366743358411956
 30
18.0
 11
-35.84674782299336
 21
26.316150510362515
 31
18.0
  0
LINE
  5
3E3
330
17
100
AcDbEntity
  8
0
100
AcDbLine
 10
-35.84674782299336
 20
26.316150510362515
 30
18.0
 11
-36.06999204342261
 21
25.286955969268643
 31
18.0
  0
LINE
  5
3E4
330
17
100
AcDbEntity
  8
0
100
AcDbLine
 10
-36.06999204342261
 20
25.286955969268643
 30
18.0
 11
-36.21443935719393
 21
24.291372506025862
 31
18.0
  0
LINE
  5
3E5
330
17
100
AcDbEntity
  8
0
100
AcDbLine
 10
-36.21443935719393
 20
24.291372506025862
 30
18.0
 11
-36.28806274551266
 21
23.339937352347622
 31
18.0
  0
LINE
  5
3E6
330
17
100
AcDbEntity
  8
0
100
AcDbLine
 10
-36.28806274551266
 20
23.339937352347622
 30
18.0
 11
-36.30049103596009
 21
22.440998885373695
 31
18.0
  0
LINE
  5
3E7
330
17
100
AcDbEntity
  8
0
100
AcDbLine
 10
-36.30049103596009
 20
22.440998885373695
 30
18.0
 11
-36.262567476180564
 21
21.600177276864407
 31
18.0
  0
LINE
  5
3E8
330
17
100
AcDbEntity
  8
0
100
AcDbLine
 10
-36.262567476180564
 20
21.600177276864407
 30
18.0
 11
-36.18582539243347
 21
20.819753978708288
 31
18.0
  0
LINE
  5
3E9
330
17
100
AcDbEntity
  8
0
100
AcDbLine
 10
-36.18582539243347
 20
20.819753978708288
 30
18.0
 11
-36.08190397304729
 21
20.097901692717354
 31
18.0
  0
LINE
  5
3EA
330
17
100
AcDbEntity
  8
0
100
AcDbLine
 10
-36.08190397304729
 20
20.097901692717354
 30
18.0
 11
-35.96198031851501
 21
19.427598286904075
 31
18.0
  0
LINE
  5
3EB
330
17
100
AcDbEntity
  8
0
100
AcDbLine
 10
-35.96198031851501
 20
19.427598286904075
 30
18.0
 11
-35.83713477357088
 21
18.79839853928147
 31
18.0
  0
LINE
  5
3EC
330
17
100
AcDbEntity
  8
0
100
AcDbLine
 10
-35.83713477357088
 20
18.79839853928147
 30
18.0
 11
-35.835792305381695
 21
18.791583149761113
 31
18.0
  0
LINE
  5
3ED
330
17
100
AcDbEntity
  8
0
100
AcDbLine
 10
-35.835792305381695
 20
18.791583149761113
 30
18.0
 11
-35.723736265656235
 21
18.21850386752057
 31
18.0
  0
LINE
  5
3EE
330
17
100
AcDbEntity
  8
0
100
AcDbLine
 10
-35.723736265656235
 20
18.21850386752057
 30
18.0
 11
-35.70893335413184
 21
18.13536655061757
 31
18.0
  0
LINE
  5
3EF
330
17
100
AcDbEntity
  8
0
100
AcDbLine
 10
-35.70893335413184
 20
18.13536655061757
 30
18.0
 11
-35.628540315564194
 21
17.635033703287633
 31
18.0
  0
LINE
  5
3F0
330
17
100
AcDbEntity
  8
0
100
AcDbLine
 10
-35.628540315564194
 20
17.635033703287633
 30
18.0
 11
-35.60525712900164
 21
17.442913310728205
 31
18.0
  0
LINE
  5
3F1
330
17
100
AcDbEntity
  8
0
100
AcDbLine
 10
-35.60525712900164
 20
17.442913310728205
 30
18.0
 11
-35.569436684421674
 21
17.00645705735745
 31
18.0
  0
LINE
  5
3F2
330
17
100
AcDbEntity
  8
0
100
AcDbLine
 10
-35.569436684421674
 20
17.00645705735745
 30
18.0
 11
-35.56441237306849
 21
16.672531035271604
 31
18.0
  0
LINE
  5
3F3
330
17
100
AcDbEntity
  8
0
100
AcDbLine
 10
-35.56441237306849
 20
16.672531035271604
 30
18.0
 11
-35.58429808759282
 21
16.288961670800635
 31
18.0
  0
LINE
  5
3F4
330
17
100
AcDbEntity
  8
0
100
AcDbLine
 10
-35.58429808759282
 20
16.288961670800635
 30
18.0
 11
-35.60778615758137
 21
16.05304178930321
 31
18.0
  0
LINE
  5
3F5
330
17
100
AcDbEntity
  8
0
100
AcDbLine
 10
-35.60778615758137
 20
16.05304178930321
 30
18.0
 11
-35.65351678243866
 21
15.820407763701391
 31
18.0
  0
LINE
  5
3F6
330
17
100
AcDbEntity
  8
0
100
AcDbLine
 10
-35.65351678243866
 20
15.820407763701391
 30
18.0
 11
-35.73812484586959
 21
15.476957022742786
 31
18.0
  0
LINE
  5
3F7
330
17
100
AcDbEntity
  8
0
100
AcDbLine
 10
-35.73812484586959
 20
15.476957022742786
 30
18.0
 11
-35.816321624972936
 21
15.21989637799222
 31
18.0
  0
LINE
  5
3F8
330
17
100
AcDbEntity
  8
0
100
AcDbLine
 10
-35.816321624972936
 20
15.21989637799222
 30
18.0
 11
-35.92165481425472
 21
14.972712578811446
 31
18.0
  0
LINE
  5
3F9
330
17
100
AcDbEntity
  8
0
100
AcDbLine
 10
-35.92165481425472
 20
14.972712578811446
 30
18.0
 11
-36.07760715824625
 21
14.655229032362055
 31
18.0
  0
LINE
  5
3FA
330
17
100
AcDbEntity
  8
0
100
AcDbLine
 10
-36.07760715824625
 20
14.655229032362055
 30
18.0
 11
-36.1921097364423
 21
14.447625950727945
 31
18.0
  0
LINE
  5
3FB
330
17
100
AcDbEntity
  8
0
100
AcDbLine
 10
-36.1921097364423
 20
14.447625950727945
 30
18.0
 11
-36.32576320765321
 21
14.251802996121507
 31
18.0
  0
LINE
  5
3FC
330
17
100
AcDbEntity
  8
0
100
AcDbLine
 10
-36.32576320765321
 20
14.251802996121507
 30
18.0
 11
-36.557083501481664
 21
13.945189525011854
 31
18.0
  0
LINE
  5
3FD
330
17
100
AcDbEntity
  8
0
100
AcDbLine
 10
-36.557083501481664
 20
13.945189525011854
 30
18.0
 11
-36.77557585682293
 21
13.692616916465234
 31
18.0
  0
LINE
  5
3FE
330
17
100
AcDbEntity
  8
0
100
AcDbLine
 10
-36.77557585682293
 20
13.692616916465234
 30
18.0
 11
-37.0835645811804
 21
13.381296966855489
 31
18.0
  0
LINE
  5
3FF
330
17
100
AcDbEntity
  8
0
100
AcDbLine
 10
-37.0835645811804
 20
13.381296966855489
 30
18.0
 11
-37.224893144770085
 21
13.249090351561891
 31
18.0
  0
LINE
  5
400
330
17
100
AcDbEntity
  8
0
100
AcDbLine
 10
-37.224893144770085
 20
13.249090351561891
 30
18.0
 11
-37.60808554021317
 21
12.917488803251207
 31
18.0
  0
LINE
  5
401
330
17
100
AcDbEntity
  8
0
100
AcDbLine
 10
-37.60808554021317
 20
12.917488803251207
 30
18.0
 11
-37.67286486553619
 21
12.86331705173706
 31
18.0
  0
LINE
  5
402
330
17
100
AcDbEntity
  8
0
100
AcDbLine
 10
-37.67286486553619
 20
12.86331705173706
 30
18.0
 11
-38.12707303407806
 21
12.49634108603613
 31
18.0
  0
LINE
  5
403
330
17
100
AcDbEntity
  8
0
100
AcDbLine
 10
-38.12707303407806
 20
12.49634108603613
 30
18.0
 11
-38.132482272313496
 21
12.49198311668463
 31
18.0
  0
LINE
  5
404
330
17
100
AcDbEntity
  8
0
100
AcDbLine
 10
-38.132482272313496
 20
12.49198311668463
 30
18.0
 11
-38.63256131005586
 21
12.090237315821126
 31
18.0
  0
LINE
  5
405
330
17
100
AcDbEntity
  8
0
100
AcDbLine
 10
-38.63256131005586
 20
12.090237315821126
 30
18.0
 11
-39.15529088319607
 21
11.653840555836004
 31
18.0
  0
LINE
  5
406
330
17
100
AcDbEntity
  8
0
100
AcDbLine
 10
-39.15529088319607
 20
11.653840555836004
 30
18.0
 11
-39.698897014496914
 21
11.167669024162274
 31
18.0
  0
LINE
  5
407
330
17
100
AcDbEntity
  8
0
100
AcDbLine
 10
-39.698897014496914
 20
11.167669024162274
 30
18.0
 11
-40.259331287670165
 21
10.619158953903357
 31
18.0
  0
LINE
  5
408
330
17
100
AcDbEntity
  8
0
100
AcDbLine
 10
-40.259331287670165
 20
10.619158953903357
 30
18.0
 11
-40.82885213180892
 21
9.9994290273921
 31
18.0
  0
LINE
  5
409
330
17
100
AcDbEntity
  8
0
100
AcDbLine
 10
-40.82885213180892
 20
9.9994290273921
 30
18.0
 11
-41.39715801741574
 21
9.302813458951524
 31
18.0
  0
LINE
  5
40A
330
17
100
AcDbEntity
  8
0
100
AcDbLine
 10
-41.39715801741574
 20
9.302813458951524
 30
18.0
 11
-41.9523299581152
 21
8.526647644693794
 31
18.0
  0
LINE
  5
40B
330
17
100
AcDbEntity
  8
0
100
AcDbLine
 10
-41.9523299581152
 20
8.526647644693794
 30
18.0
 11
-42.48162561065846
 21
7.67113752147082
 31
18.0
  0
LINE
  5
40C
330
17
100
AcDbEntity
  8
0
100
AcDbLine
 10
-42.48162561065846
 20
7.67113752147082
 30
18.0
 11
-42.972164115112356
 21
6.739230143551447
 31
18.0
  0
LINE
  5
40D
330
17
100
AcDbEntity
  8
0
100
AcDbLine
 10
-42.972164115112356
 20
6.739230143551447
 30
18.0
 11
-43.41152532613361
 21
5.736446411708813
 31
18.0
  0
LINE
  5
40E
330
17
100
AcDbEntity
  8
0
100
AcDbLine
 10
-43.41152532613361
 20
5.736446411708813
 30
18.0
 11
-43.78827434956679
 21
4.67065923828788
 31
18.0
  0
LINE
  5
40F
330
17
100
AcDbEntity
  8
0
100
AcDbLine
 10
-43.78827434956679
 20
4.67065923828788
 30
18.0
 11
-44.09241411024477
 21
3.5518126083705988
 31
18.0
  0
LINE
  5
410
330
17
100
AcDbEntity
  8
0
100
AcDbLine
 10
-44.09241411024477
 20
3.5518126083705988
 30
18.0
 11
-44.31576410293283
 21
2.391584139661208
 31
18.0
  0
LINE
  5
411
330
17
100
AcDbEntity
  8
0
100
AcDbLine
 10
-44.31576410293283
 20
2.391584139661208
 30
18.0
 11
-44.452261394552046
 21
1.2029982469115246
 31
18.0
  0
LINE
  5
412
330
17
100
AcDbEntity
  8
0
100
AcDbLine
 10
-44.452261394552046
 20
1.2029982469115246
 30
18.0
 11
-44.49817950324169
 21
8.375103990110265e-15
 31
18.0
  0
CIRCLE
  5
413
330
17
100
AcDbEntity
  8
0
100
AcDbCircle
 10
36.3
 20
0.0
 30
18.0
 40
8.0
  0
CIRCLE
  5
414
330
17
100
AcDbEntity
  8
0
100
AcDbCircle
 10
6.000000000000002
 20
30.3
 30
18.0
 40
8.0
  0
CIRCLE
  5
415
330
17
100
AcDbEntity
  8
0
100
AcDbCircle
 10
-24.3
 20
3.71067980141648e-15
 30
18.0
 40
8.0
  0
CIRCLE
  5
416
330
17
100
AcDbEntity
  8
0
100
AcDbCircle
 10
5.999999999999995
 20
-30.3
 30
18.0
 40
8.0
  0
CIRCLE
  5
417
330
17
100
AcDbEntity
  8
0
100
AcDbCircle
 10
36.3
 20
-7.42135960283296e-15
 30
18.0
 40
8.0
  0
CIRCLE
  5
418
330
17
100
AcDbEntity
  8
0
100
AcDbCircle
 10
3.0
 20
0.0
 30
27.0
 40
16.1
  0
CIRCLE
  5
419
330
17
100
AcDbEntity
  8
0
100
AcDbCircle
 10
3.0
 20
0.0
 30
27.0
 40
10.075
  0
CIRCLE
  5
41A
330
17
100
AcDbEntity
  8
0
100
AcDbCircle
 10
33.3
 20
0.0
 30
27.0
 40
4.8
  0
CIRCLE
  5
41B
330
17
100
AcDbEntity
  8
0
100
AcDbCircle
 10
3.0000000000000018
 20
30.3
 30
27.0
 40
4.8
  0
CIRCLE
  5
41C
330
17
100
AcDbEntity
  8
0
100
AcDbCircle
 10
-27.3
 20
3.71067980141648e-15
 30
27.0
 40
4.8
  0
CIRCLE
  5
41D
330
17
100
AcDbEntity
  8
0
100
AcDbCircle
 10
2.9999999999999942
 20
-30.3
 30
27.0
 40
4.8
  0
CIRCLE
  5
41E
330
17
100
AcDbEntity
  8
0
100
AcDbCircle
 10
33.3
 20
-7.42135960283296e-15
 30
27.0
 40
4.8
  0
ENDSEC
  0
SECTION
  2
OBJECTS
  0
DICTIONARY
  5
A
330
0
100
AcDbDictionary
280
0
281
1
  3
ACAD_COLOR
350
B
  3
ACAD_GROUP
350
C
  3
ACAD_LAYOUT
350
D
  3
ACAD_MATERIAL
350
E
  3
ACAD_MLEADERSTYLE
350
F
  3
ACAD_MLINESTYLE
350
10
  3
ACAD_PLOTSETTINGS
350
11
  3
ACAD_PLOTSTYLENAME
350
12
  3
ACAD_SCALELIST
350
14
  3
ACAD_TABLESTYLE
350
15
  3
ACAD_VISUALSTYLE
350
16
  3
EZDXF_META
350
2D
  0
DICTIONARY
  5
B
330
A
100
AcDbDictionary
280
0
281
1
  0
DICTIONARY
  5
C
330
A
100
AcDbDictionary
280
0
281
1
  0
DICTIONARY
  5
D
330
A
100
AcDbDictionary
280
0
281
1
  3
Model
350
1A
  3
Layout1
350
1E
  0
DICTIONARY
  5
E
330
A
100
AcDbDictionary
280
0
281
1
  3
ByBlock
350
1F
  3
ByLayer
350
20
  3
Global
350
21
  0
DICTIONARY
  5
F
330
A
100
AcDbDictionary
280
0
281
1
  3
Standard
350
2C
  0
DICTIONARY
  5
10
330
A
100
AcDbDictionary
280
0
281
1
  3
Standard
350
22
  0
DICTIONARY
  5
11
330
A
100
AcDbDictionary
280
0
281
1
  0
ACDBDICTIONARYWDFLT
  5
12
330
A
100
AcDbDictionary
280
0
281
1
  3
Normal
350
13
100
AcDbDictionaryWithDefault
340
13
  0
ACDBPLACEHOLDER
  5
13
330
12
  0
DICTIONARY
  5
14
330
A
100
AcDbDictionary
280
0
281
1
  0
DICTIONARY
  5
15
330
A
100
AcDbDictionary
280
0
281
1
  0
DICTIONARY
  5
16
330
A
100
AcDbDictionary
280
0
281
1
  0
LAYOUT
  5
1A
330
D
100
AcDbPlotSettings
  1

  2
Adobe PDF
  4
A3
  6

 40
7.5
 41
20.0
 42
7.5
 43
20.0
 44
420.0
 45
297.0
 46
0.0
 47
0.0
 48
0.0
 49
0.0
140
0.0
141
0.0
142
1.0
143
1.0
 70
1024
 72
1
 73
0
 74
5
  7

 75
16
 76
0
 77
2
 78
300
147
1.0
148
0.0
149
0.0
100
AcDbLayout
  1
Model
 70
1
 71
0
 10
0.0
 20
0.0
 11
420.0
 21
297.0
 12
0.0
 22
0.0
 32
0.0
 14
1e+20
 24
1e+20
 34
1e+20
 15
-1e+20
 25
-1e+20
 35
-1e+20
146
0.0
 13
0.0
 23
0.0
 33
0.0
 16
1.0
 26
0.0
 36
0.0
 17
0.0
 27
1.0
 37
0.0
 76
1
330
17
  0
LAYOUT
  5
1E
330
D
100
AcDbPlotSettings
  1

  2
Adobe PDF
  4
A3
  6

 40
7.5
 41
20.0
 42
7.5
 43
20.0
 44
420.0
 45
297.0
 46
0.0
 47
0.0
 48
0.0
 49
0.0
140
0.0
141
0.0
142
1.0
143
1.0
 70
0
 72
1
 73
0
 74
5
  7

 75
16
 76
0
 77
2
 78
300
147
1.0
148
0.0
149
0.0
100
AcDbLayout
  1
Layout1
 70
1
 71
1
 10
0.0
 20
0.0
 11
420.0
 21
297.0
 12
0.0
 22
0.0
 32
0.0
 14
1e+20
 24
1e+20
 34
1e+20
 15
-1e+20
 25
-1e+20
 35
-1e+20
146
0.0
 13
0.0
 23
0.0
 33
0.0
 16
1.0
 26
0.0
 36
0.0
 17
0.0
 27
1.0
 37
0.0
 76
1
330
1B
  0
MATERIAL
  5
1F
102
{ACAD_REACTORS
330
E
102
}
330
E
100
AcDbMaterial
  1
ByBlock
  2

 70
0
 40
1.0
 71
1
 41
1.0
 91
-1023410177
 42
1.0
 72
1
  3

 73
1
 74
1
 75
1
 44
0.5
 73
0
 45
1.0
 46
1.0
 77
1
  4

 78
1
 79
1
170
1
 48
1.0
171
1
  6

172
1
173
1
174
1
140
1.0
141
1.0
175
1
  7

176
1
177
1
178
1
143
1.0
179
1
  8

270
1
271
1
272
1
145
1.0
146
1.0
273
1
  9

274
1
275
1
276
1
 42
1.0
 72
1
  3

 73
1
 74
1
 75
1
 94
63
  0
MATERIAL
  5
20
102
{ACAD_REACTORS
330
E
102
}
330
E
100
AcDbMaterial
  1
ByLayer
  2

 70
0
 40
1.0
 71
1
 41
1.0
 91
-1023410177
 42
1.0
 72
1
  3

 73
1
 74
1
 75
1
 44
0.5
 73
0
 45
1.0
 46
1.0
 77
1
  4

 78
1
 79
1
170
1
 48
1.0
171
1
  6

172
1
173
1
174
1
140
1.0
141
1.0
175
1
  7

176
1
177
1
178
1
143
1.0
179
1
  8

270
1
271
1
272
1
145
1.0
146
1.0
273
1
  9

274
1
275
1
276
1
 42
1.0
 72
1
  3

 73
1
 74
1
 75
1
 94
63
  0
MATERIAL
  5
21
102
{ACAD_REACTORS
330
E
102
}
330
E
100
AcDbMaterial
  1
Global
  2

 70
0
 40
1.0
 71
1
 41
1.0
 91
-1023410177
 42
1.0
 72
1
  3

 73
1
 74
1
 75
1
 44
0.5
 73
0
 45
1.0
 46
1.0
 77
1
  4

 78
1
 79
1
170
1
 48
1.0
171
1
  6

172
1
173
1
174
1
140
1.0
141
1.0
175
1
  7

176
1
177
1
178
1
143
1.0
179
1
  8

270
1
271
1
272
1
145
1.0
146
1.0
273
1
  9

274
1
275
1
276
1
 42
1.0
 72
1
  3

 73
1
 74
1
 75
1
 94
63
  0
MLINESTYLE
  5
22
102
{ACAD_REACTORS
330
10
102
}
330
10
100
AcDbMlineStyle
  2
Standard
 70
0
  3

 62
256
 51
90.0
 52
90.0
 71
2
 49
0.5
 62
256
  6
BYLAYER
 49
-0.5
 62
256
  6
BYLAYER
  0
MLEADERSTYLE
  5
2C
102
{ACAD_REACTORS
330
F
102
}
330
F
100
AcDbMLeaderStyle
179
2
170
2
171
1
172
0
 90
2
 40
0.0
 41
0.0
173
1
 91
-1056964608
 92
-2
290
1
 42
2.0
291
1
 43
8.0
  3
Standard
 44
4.0
300

342
29
174
1
175
1
176
0
178
1
 93
-1056964608
 45
4.0
292
0
297
0
 46
4.0
 94
-1056964608
 47
1.0
 49
1.0
140
1.0
294
1
141
0.0
177
0
142
1.0
295
0
296
0
143
3.75
271
0
272
9
273
9
  0
DICTIONARY
  5
2D
330
A
100
AcDbDictionary
281
1
  3
CREATED_BY_EZDXF
350
2E
  3
WRITTEN_BY_EZDXF
350
421
  0
DICTIONARYVAR
  5
2E
330
2D
100
DictionaryVariables
280
0
  1
1.0.3 @ 2023-06-12T17:00:03.187017+00:00
  0
DICTIONARYVAR
  5
421
330
2D
100
DictionaryVariables
280
0
  1
1.0.3 @ 2023-06-12T17:00:03.226364+00:00
  0
ENDSEC
  0
EOF
