<?xml version="1.0" encoding="ISO-8859-1" standalone="no"?><svg xmlns="http://www.w3.org/2000/svg" xmlns:xlink="http://www.w3.org/1999/xlink" version="1.1" x="test"  >
<line x1="1341.8145215334976" y1="791.9999999999999" x2="1341.8145215334976" y2="791.9999999999999" style="stroke-width:1; stroke:black; "  />
<line x1="1341.8145215334976" y1="791.9999999999999" x2="1341.3400344103711" y2="804.350782001625" style="stroke-width:1; stroke:black; "  />
<line x1="1341.3400344103711" y1="804.350782001625" x2="1339.9295623969726" y2="816.5535971671882" style="stroke-width:1; stroke:black; "  />
<line x1="1339.9295623969726" y1="816.5535971671882" x2="1337.6216124725293" y2="828.4652761126052" style="stroke-width:1; stroke:black; "  />
<line x1="1337.6216124725293" y1="828.4652761126052" x2="1334.4788349455234" y2="839.9521015130894" style="stroke-width:1; stroke:black; "  />
<line x1="1334.4788349455234" y1="839.9521015130894" x2="1330.5857617033807" y2="850.8941831602101" style="stroke-width:1; stroke:black; "  />
<line x1="1330.5857617033807" y1="850.8941831602101" x2="1326.0456958561608" y2="861.1894294737953" style="stroke-width:1; stroke:black; "  />
<line x1="1326.0456958561608" y1="861.1894294737953" x2="1320.9767979768044" y2="870.7570118871" style="stroke-width:1; stroke:black; "  />
<line x1="1320.9767979768044" y1="870.7570118871" x2="1315.507409567191" y2="879.5402491521887" style="stroke-width:1; stroke:black; "  />
<line x1="1315.507409567191" y1="879.5402491521887" x2="1309.7706328466293" y2="887.5088848452361" style="stroke-width:1; stroke:black; "  />
<line x1="1309.7706328466293" y1="887.5088848452361" x2="1303.8981386953596" y2="894.6608046812248" style="stroke-width:1; stroke:black; "  />
<line x1="1303.8981386953596" y1="894.6608046812248" x2="1298.0130899725918" y2="901.0233652600746" style="stroke-width:1; stroke:black; "  />
<line x1="1298.0130899725918" y1="901.0233652600746" x2="1292.221935816468" y2="906.6547353147326" style="stroke-width:1; stroke:black; "  />
<line x1="1292.221935816468" y1="906.6547353147326" x2="1286.6046724596936" y2="911.646096373249" style="stroke-width:1; stroke:black; "  />
<line x1="1286.6046724596936" y1="911.646096373249" x2="1281.2031335372435" y2="916.1264364424305" style="stroke-width:1; stroke:black; "  />
<line x1="1281.2031335372435" y1="916.1264364424305" x2="1276.035650147239" y2="920.2510266646294" style="stroke-width:1; stroke:black; "  />
<line x1="1276.035650147239" y1="920.2510266646294" x2="1275.9797546854736" y2="920.2957684833042" style="stroke-width:1; stroke:black; "  />
<line x1="1275.9797546854736" y1="920.2957684833042" x2="1271.2862702772077" y2="924.0633883978337" style="stroke-width:1; stroke:black; "  />
<line x1="1271.2862702772077" y1="924.0633883978337" x2="1270.6168839155366" y2="924.6195517133788" style="stroke-width:1; stroke:black; "  />
<line x1="1270.6168839155366" y1="924.6195517133788" x2="1266.6572291626248" y2="928.023994276035" style="stroke-width:1; stroke:black; "  />
<line x1="1266.6572291626248" y1="928.023994276035" x2="1265.1968340055312" y2="929.3813155263825" style="stroke-width:1; stroke:black; "  />
<line x1="1265.1968340055312" y1="929.3813155263825" x2="1262.0142838538372" y2="932.5775336757092" style="stroke-width:1; stroke:black; "  />
<line x1="1262.0142838538372" y1="932.5775336757092" x2="1259.75652951531" y2="935.1706124567888" style="stroke-width:1; stroke:black; "  />
<line x1="1259.75652951531" y1="935.1706124567888" x2="1257.3662198124161" y2="938.3185107601815" style="stroke-width:1; stroke:black; "  />
<line x1="1257.3662198124161" y1="938.3185107601815" x2="1255.9851339432369" y2="940.3289597608075" style="stroke-width:1; stroke:black; "  />
<line x1="1255.9851339432369" y1="940.3289597608075" x2="1254.8019406352112" y2="942.4603513989174" style="stroke-width:1; stroke:black; "  />
<line x1="1254.8019406352112" y1="942.4603513989174" x2="1253.1904330806321" y2="945.7198491424645" style="stroke-width:1; stroke:black; "  />
<line x1="1253.1904330806321" y1="945.7198491424645" x2="1252.1019901247205" y2="948.2576028140536" style="stroke-width:1; stroke:black; "  />
<line x1="1252.1019901247205" y1="948.2576028140536" x2="1251.2939567406524" y2="950.896758766826" style="stroke-width:1; stroke:black; "  />
<line x1="1251.2939567406524" y1="950.896758766826" x2="1250.419673418533" y2="954.4228530406675" style="stroke-width:1; stroke:black; "  />
<line x1="1250.419673418533" y1="954.4228530406675" x2="1249.9471236283412" y2="956.8112290368459" style="stroke-width:1; stroke:black; "  />
<line x1="1249.9471236283412" y1="956.8112290368459" x2="1249.7044135717927" y2="959.2333398202192" style="stroke-width:1; stroke:black; "  />
<line x1="1249.7044135717927" y1="959.2333398202192" x2="1249.498927855041" y2="963.1713186287877" style="stroke-width:1; stroke:black; "  />
<line x1="1249.498927855041" y1="963.1713186287877" x2="1249.550845739024" y2="966.5996257888695" style="stroke-width:1; stroke:black; "  />
<line x1="1249.550845739024" y1="966.5996257888695" x2="1249.920990333017" y2="971.0805766568094" style="stroke-width:1; stroke:black; "  />
<line x1="1249.920990333017" y1="971.0805766568094" x2="1250.16158326083" y2="973.053012687086" style="stroke-width:1; stroke:black; "  />
<line x1="1250.16158326083" y1="973.053012687086" x2="1250.9923113260288" y2="978.1897632530067" style="stroke-width:1; stroke:black; "  />
<line x1="1250.9923113260288" y1="978.1897632530067" x2="1251.1452747451144" y2="979.0433063732105" style="stroke-width:1; stroke:black; "  />
<line x1="1251.1452747451144" y1="979.0433063732105" x2="1252.3031871556107" y2="984.9269203375468" style="stroke-width:1; stroke:black; "  />
<line x1="1252.3031871556107" y1="984.9269203375468" x2="1252.3170593268992" y2="984.9968916699572" style="stroke-width:1; stroke:black; "  />
<line x1="1252.3170593268992" y1="984.9968916699572" x2="1253.6071299579883" y2="991.456675745547" style="stroke-width:1; stroke:black; "  />
<line x1="1253.6071299579883" y1="991.456675745547" x2="1254.8463410548222" y2="998.3384573785653" style="stroke-width:1; stroke:black; "  />
<line x1="1254.8463410548222" y1="998.3384573785653" x2="1255.9201957218124" y2="1005.7494741814047" style="stroke-width:1; stroke:black; "  />
<line x1="1255.9201957218124" y1="1005.7494741814047" x2="1256.713197253866" y2="1013.7618200424762" style="stroke-width:1; stroke:black; "  />
<line x1="1256.713197253866" y1="1013.7618200424762" x2="1257.1050740382545" y2="1022.3942552231699" style="stroke-width:1; stroke:black; "  />
<line x1="1257.1050740382545" y1="1022.3942552231699" x2="1256.9766483702977" y2="1031.6233568174348" style="stroke-width:1; stroke:black; "  />
<line x1="1256.9766483702977" y1="1031.6233568174348" x2="1256.2158733576707" y2="1041.3914243951995" style="stroke-width:1; stroke:black; "  />
<line x1="1256.2158733576707" y1="1041.3914243951995" x2="1254.723251115367" y2="1051.6127479511579" style="stroke-width:1; stroke:black; "  />
<line x1="1254.723251115367" y1="1051.6127479511579" x2="1252.4163941709312" y2="1062.1791452397215" style="stroke-width:1; stroke:black; "  />
<line x1="1252.4163941709312" y1="1062.1791452397215" x2="1249.2336578183435" y2="1072.9652318130295" style="stroke-width:1; stroke:black; "  />
<line x1="1249.2336578183435" y1="1072.9652318130295" x2="1245.1368187825515" y2="1083.8336272583315" style="stroke-width:1; stroke:black; "  />
<line x1="1245.1368187825515" y1="1083.8336272583315" x2="1240.11279161762" y2="1094.6401513284916" style="stroke-width:1; stroke:black; "  />
<line x1="1240.11279161762" y1="1094.6401513284916" x2="1234.174385496619" y2="1105.2389773008604" style="stroke-width:1; stroke:black; "  />
<line x1="1234.174385496619" y1="1105.2389773008604" x2="1227.3601174672785" y2="1115.4876607316826" style="stroke-width:1; stroke:black; "  />
<line x1="1227.3601174672785" y1="1115.4876607316826" x2="1219.7331145595242" y2="1125.2519353898144" style="stroke-width:1; stroke:black; "  />
<line x1="1219.7331145595242" y1="1125.2519353898144" x2="1211.3791552037642" y2="1134.410156572721" style="stroke-width:1; stroke:black; "  />
<line x1="1211.3791552037642" y1="1134.410156572721" x2="1202.4039186783473" y2="1142.8572706378727" style="stroke-width:1; stroke:black; "  />
<line x1="1202.4039186783473" y1="1142.8572706378727" x2="1192.929528128112" y2="1150.508195594213" style="stroke-width:1; stroke:black; "  />
<line x1="1192.929528128112" y1="1150.508195594213" x2="1183.0904864421368" y2="1157.3005090582892" style="stroke-width:1; stroke:black; "  />
<line x1="1183.0904864421368" y1="1157.3005090582892" x2="1173.0291131587474" y2="1163.1963552968507" style="stroke-width:1; stroke:black; "  />
<line x1="1173.0291131587474" y1="1163.1963552968507" x2="1162.8905923788457" y2="1168.1835011816675" style="stroke-width:1; stroke:black; "  />
<line x1="1162.8905923788457" y1="1168.1835011816675" x2="1152.8177333279723" y2="1172.2754905766956" style="stroke-width:1; stroke:black; "  />
<line x1="1152.8177333279723" y1="1172.2754905766956" x2="1142.9455218887813" y2="1175.5108672197703" style="stroke-width:1; stroke:black; "  />
<line x1="1142.9455218887813" y1="1175.5108672197703" x2="1133.3954950197535" y2="1177.9514578258018" style="stroke-width:1; stroke:black; "  />
<line x1="1133.3954950197535" y1="1177.9514578258018" x2="1124.2698863281394" y2="1179.6797331275193" style="stroke-width:1; stroke:black; "  />
<line x1="1124.2698863281394" y1="1179.6797331275193" x2="1115.6453453694062" y2="1180.7953062976962" style="stroke-width:1; stroke:black; "  />
<line x1="1115.6453453694062" y1="1180.7953062976962" x2="1107.5657839803712" y2="1181.410719911662" style="stroke-width:1; stroke:black; "  />
<line x1="1107.5657839803712" y1="1181.410719911662" x2="1100.0334918873748" y2="1181.6469119137748" style="stroke-width:1; stroke:black; "  />
<line x1="1100.0334918873748" y1="1181.6469119137748" x2="1092.997065232542" y2="1181.6294095073195" style="stroke-width:1; stroke:black; "  />
<line x1="1092.997065232542" y1="1181.6294095073195" x2="1086.3700919919863" y2="1181.4888642714436" style="stroke-width:1; stroke:black; "  />
<line x1="1086.3700919919863" y1="1181.4888642714436" x2="1086.298327347513" y2="1181.487441382175" style="stroke-width:1; stroke:black; "  />
<line x1="1086.298327347513" y1="1181.487441382175" x2="1080.2654044583735" y2="1181.3761560164583" style="stroke-width:1; stroke:black; "  />
<line x1="1080.2654044583735" y1="1181.3761560164583" x2="1079.3928084721438" y2="1181.3747045309349" style="stroke-width:1; stroke:black; "  />
<line x1="1079.3928084721438" y1="1181.3747045309349" x2="1074.1569934970673" y2="1181.4538625790951" style="stroke-width:1; stroke:black; "  />
<line x1="1074.1569934970673" y1="1181.4538625790951" x2="1072.1601312351818" y2="1181.5609633515298" style="stroke-width:1; stroke:black; "  />
<line x1="1072.1601312351818" y1="1181.5609633515298" x2="1067.6543261118695" y2="1181.9769027881653" style="stroke-width:1; stroke:black; "  />
<line x1="1067.6543261118695" y1="1181.9769027881653" x2="1064.2471636659395" y2="1182.5214228097147" style="stroke-width:1; stroke:black; "  />
<line x1="1064.2471636659395" y1="1182.5214228097147" x2="1060.3795110187173" y2="1183.4063040067813" style="stroke-width:1; stroke:black; "  />
<line x1="1060.3795110187173" y1="1183.4063040067813" x2="1058.0208546510587" y2="1184.064379793616" style="stroke-width:1; stroke:black; "  />
<line x1="1058.0208546510587" y1="1184.064379793616" x2="1055.7355475433692" y2="1184.9414852384068" style="stroke-width:1; stroke:black; "  />
<line x1="1055.7355475433692" y1="1184.9414852384068" x2="1052.3922914067907" y2="1186.4092312321716" style="stroke-width:1; stroke:black; "  />
<line x1="1052.3922914067907" y1="1186.4092312321716" x2="1049.9166666666667" y2="1187.6581394756506" style="stroke-width:1; stroke:black; "  />
<line x1="1049.9166666666667" y1="1187.6581394756506" x2="1047.5902447433155" y2="1189.1638073083527" style="stroke-width:1; stroke:black; "  />
<line x1="1047.5902447433155" y1="1189.1638073083527" x2="1044.6392574274937" y2="1191.3065994135854" style="stroke-width:1; stroke:black; "  />
<line x1="1044.6392574274937" y1="1191.3065994135854" x2="1042.732075837721" y2="1192.8344120953773" style="stroke-width:1; stroke:black; "  />
<line x1="1042.732075837721" y1="1192.8344120953773" x2="1040.9791365883257" y2="1194.534852107194" style="stroke-width:1; stroke:black; "  />
<line x1="1040.9791365883257" y1="1194.534852107194" x2="1038.2740045025162" y2="1197.42028737065" style="stroke-width:1; stroke:black; "  />
<line x1="1038.2740045025162" y1="1197.42028737065" x2="1036.0957929770361" y2="1200.079679888142" style="stroke-width:1; stroke:black; "  />
<line x1="1036.0957929770361" y1="1200.079679888142" x2="1033.4803372441" y2="1203.7486767633645" style="stroke-width:1; stroke:black; "  />
<line x1="1033.4803372441" y1="1203.7486767633645" x2="1032.3885518378165" y2="1205.4133028338197" style="stroke-width:1; stroke:black; "  />
<line x1="1032.3885518378165" y1="1205.4133028338197" x2="1029.701646321082" y2="1209.8788187245873" style="stroke-width:1; stroke:black; "  />
<line x1="1029.701646321082" y1="1209.8788187245873" x2="1029.2666135137924" y2="1210.6303593374305" style="stroke-width:1; stroke:black; "  />
<line x1="1029.2666135137924" y1="1210.6303593374305" x2="1026.3471538408846" y2="1215.876958988575" style="stroke-width:1; stroke:black; "  />
<line x1="1026.3471538408846" y1="1215.876958988575" x2="1026.3125117785785" y2="1215.9394194706413" style="stroke-width:1; stroke:black; "  />
<line x1="1026.3125117785785" y1="1215.9394194706413" x2="1023.1215312649283" y2="1221.7117926381543" style="stroke-width:1; stroke:black; "  />
<line x1="1023.1215312649283" y1="1221.7117926381543" x2="1019.6185738916392" y2="1227.7749537264317" style="stroke-width:1; stroke:black; "  />
<line x1="1019.6185738916392" y1="1227.7749537264317" x2="1015.6465513355955" y2="1234.1379291472715" style="stroke-width:1; stroke:black; "  />
<line x1="1015.6465513355955" y1="1234.1379291472715" x2="1011.0703460135005" y2="1240.7821851390518" style="stroke-width:1; stroke:black; "  />
<line x1="1011.0703460135005" y1="1240.7821851390518" x2="1005.7856873568694" y2="1247.645282561713" style="stroke-width:1; stroke:black; "  />
<line x1="1005.7856873568694" y1="1247.645282561713" x2="999.716433667015" y2="1254.6331667082604" style="stroke-width:1; stroke:black; "  />
<line x1="999.716433667015" y1="1254.6331667082604" x2="992.8140820046801" y2="1261.630078791128" style="stroke-width:1; stroke:black; "  />
<line x1="992.8140820046801" y1="1261.630078791128" x2="985.0578636462814" y2="1268.5068177487658" style="stroke-width:1; stroke:black; "  />
<line x1="985.0578636462814" y1="1268.5068177487658" x2="976.4546558802144" y2="1275.1278951888426" style="stroke-width:1; stroke:black; "  />
<line x1="976.4546558802144" y1="1275.1278951888426" x2="967.0383550393693" y2="1281.3578922402241" style="stroke-width:1; stroke:black; "  />
<line x1="967.0383550393693" y1="1281.3578922402241" x2="956.868560241784" y2="1287.0671584660884" style="stroke-width:1; stroke:black; "  />
<line x1="956.868560241784" y1="1287.0671584660884" x2="946.0285265312282" y2="1292.1368884923609" style="stroke-width:1; stroke:black; "  />
<line x1="946.0285265312282" y1="1292.1368884923609" x2="934.6224105868325" y2="1296.4635530263795" style="stroke-width:1; stroke:black; "  />
<line x1="934.6224105868325" y1="1296.4635530263795" x2="922.771874257834" y2="1299.9626318437508" style="stroke-width:1; stroke:black; "  />
<line x1="922.771874257834" y1="1299.9626318437508" x2="910.6121407444333" y2="1302.5715865280245" style="stroke-width:1; stroke:black; "  />
<line x1="910.6121407444333" y1="1302.5715865280245" x2="898.2876195825168" y2="1304.2520134184383" style="stroke-width:1; stroke:black; "  />
<line x1="898.2876195825168" y1="1304.2520134184383" x2="885.9472314639663" y2="1304.9909278328798" style="stroke-width:1; stroke:black; "  />
<line x1="885.9472314639663" y1="1304.9909278328798" x2="873.7395729225162" y2="1304.8011459825113" style="stroke-width:1; stroke:black; "  />
<line x1="873.7395729225162" y1="1304.8011459825113" x2="861.8080640312072" y2="1303.7207485521837" style="stroke-width:1; stroke:black; "  />
<line x1="861.8080640312072" y1="1303.7207485521837" x2="850.2862190855783" y2="1301.8116274021302" style="stroke-width:1; stroke:black; "  />
<line x1="850.2862190855783" y1="1301.8116274021302" x2="839.2931699230181" y2="1299.157131872721" style="stroke-width:1; stroke:black; "  />
<line x1="839.2931699230181" y1="1299.157131872721" x2="828.9295523978896" y2="1295.8588409341407" style="stroke-width:1; stroke:black; "  />
<line x1="828.9295523978896" y1="1295.8588409341407" x2="819.273835378928" y2="1292.0324882667014" style="stroke-width:1; stroke:black; "  />
<line x1="819.273835378928" y1="1292.0324882667014" x2="810.379122070178" y2="1287.8030543170125" style="stroke-width:1; stroke:black; "  />
<line x1="810.379122070178" y1="1287.8030543170125" x2="802.2703725648682" y2="1283.2990058631442" style="stroke-width:1; stroke:black; "  />
<line x1="802.2703725648682" y1="1283.2990058631442" x2="794.9418579358577" y2="1278.645602540108" style="stroke-width:1; stroke:black; "  />
<line x1="794.9418579358577" y1="1278.645602540108" x2="788.3544058821635" y2="1273.957100843846" style="stroke-width:1; stroke:black; "  />
<line x1="788.3544058821635" y1="1273.957100843846" x2="782.4315282353627" y2="1269.3276069267854" style="stroke-width:1; stroke:black; "  />
<line x1="782.4315282353627" y1="1269.3276069267854" x2="777.0526360811118" y2="1264.8204516151907" style="stroke-width:1; stroke:black; "  />
<line x1="777.0526360811118" y1="1264.8204516151907" x2="772.067007419865" y2="1260.4805335990927" style="stroke-width:1; stroke:black; "  />
<line x1="772.067007419865" y1="1260.4805335990927" x2="772.0129530674085" y2="1260.433611787584" style="stroke-width:1; stroke:black; "  />
<line x1="772.0129530674085" y1="1260.433611787584" x2="767.4634633656935" y2="1256.4954928010384" style="stroke-width:1; stroke:black; "  />
<line x1="767.4634633656935" y1="1256.4954928010384" x2="766.7959551146853" y2="1255.9371056806544" style="stroke-width:1; stroke:black; "  />
<line x1="766.7959551146853" y1="1255.9371056806544" x2="762.7338759338844" y2="1252.653940283841" style="stroke-width:1; stroke:black; "  />
<line x1="762.7338759338844" y1="1252.653940283841" x2="761.1349006121951" y2="1251.4607069366482" style="stroke-width:1; stroke:black; "  />
<line x1="761.1349006121951" y1="1251.4607069366482" x2="757.4141568109085" y2="1248.901744975539" style="stroke-width:1; stroke:black; "  />
<line x1="757.4141568109085" y1="1248.901744975539" x2="754.4518354324186" y2="1247.1429192678092" style="stroke-width:1; stroke:black; "  />
<line x1="754.4518354324186" y1="1247.1429192678092" x2="750.9165574986747" y2="1245.3507376120833" style="stroke-width:1; stroke:black; "  />
<line x1="750.9165574986747" y1="1245.3507376120833" x2="748.6839721605104" y2="1244.3485192107687" style="stroke-width:1; stroke:black; "  />
<line x1="748.6839721605104" y1="1244.3485192107687" x2="746.3658718472051" y2="1243.5609310766815" style="stroke-width:1; stroke:black; "  />
<line x1="746.3658718472051" y1="1243.5609310766815" x2="742.8552138310852" y2="1242.5501506580017" style="stroke-width:1; stroke:black; "  />
<line x1="742.8552138310852" y1="1242.5501506580017" x2="740.1507796361565" y2="1241.9258354261774" style="stroke-width:1; stroke:black; "  />
<line x1="740.1507796361565" y1="1241.9258354261774" x2="737.3945278467569" y2="1241.5934964262538" style="stroke-width:1; stroke:black; "  />
<line x1="737.3945278467569" y1="1241.5934964262538" x2="733.747636298877" y2="1241.3503501223581" style="stroke-width:1; stroke:black; "  />
<line x1="733.747636298877" y1="1241.3503501223581" x2="731.2982143713406" y2="1241.3027189562067" style="stroke-width:1; stroke:black; "  />
<line x1="731.2982143713406" y1="1241.3027189562067" x2="728.8552656856405" y2="1241.4858334166524" style="stroke-width:1; stroke:black; "  />
<line x1="728.8552656856405" y1="1241.4858334166524" x2="724.9162485979173" y2="1241.9685979071837" style="stroke-width:1; stroke:black; "  />
<line x1="724.9162485979173" y1="1241.9685979071837" x2="721.5271170438714" y2="1242.6147164672957" style="stroke-width:1; stroke:black; "  />
<line x1="721.5271170438714" y1="1242.6147164672957" x2="717.1498617889995" y2="1243.7549949355257" style="stroke-width:1; stroke:black; "  />
<line x1="717.1498617889995" y1="1243.7549949355257" x2="715.2365565740622" y2="1244.3329140075355" style="stroke-width:1; stroke:black; "  />
<line x1="715.2365565740622" y1="1244.3329140075355" x2="710.289250428303" y2="1246.0377307091787" style="stroke-width:1; stroke:black; "  />
<line x1="710.289250428303" y1="1246.0377307091787" x2="709.4697780800207" y2="1246.3356146094688" style="stroke-width:1; stroke:black; "  />
<line x1="709.4697780800207" y1="1246.3356146094688" x2="703.8389939508425" y2="1248.490257661191" style="stroke-width:1; stroke:black; "  />
<line x1="703.8389939508425" y1="1248.490257661191" x2="703.7720470608979" y2="1248.5159813391838" style="stroke-width:1; stroke:black; "  />
<line x1="703.7720470608979" y1="1248.5159813391838" x2="697.5931106486437" y2="1250.8999860407564" style="stroke-width:1; stroke:black; "  />
<line x1="697.5931106486437" y1="1250.8999860407564" x2="690.987057491229" y2="1253.307506126561" style="stroke-width:1; stroke:black; "  />
<line x1="690.987057491229" y1="1253.307506126561" x2="683.8277112102376" y2="1255.6451332493932" style="stroke-width:1; stroke:black; "  />
<line x1="683.8277112102376" y1="1255.6451332493932" x2="676.0235563630598" y2="1257.812378150651" style="stroke-width:1; stroke:black; "  />
<line x1="676.0235563630598" y1="1257.812378150651" x2="667.5351127832834" y2="1259.6948182563854" style="stroke-width:1; stroke:black; "  />
<line x1="667.5351127832834" y1="1259.6948182563854" x2="658.3649023252569" y2="1261.1717763013621" style="stroke-width:1; stroke:black; "  />
<line x1="658.3649023252569" y1="1261.1717763013621" x2="648.5506610671149" y2="1262.1235999637433" style="stroke-width:1; stroke:black; "  />
<line x1="648.5506610671149" y1="1262.1235999637433" x2="638.1600673632821" y2="1262.4380517383406" style="stroke-width:1; stroke:black; "  />
<line x1="638.1600673632821" y1="1262.4380517383406" x2="627.2860453033281" y2="1262.0157336106404" style="stroke-width:1; stroke:black; "  />
<line x1="627.2860453033281" y1="1262.0157336106404" x2="616.0421717881849" y2="1260.7745562810492" style="stroke-width:1; stroke:black; "  />
<line x1="616.0421717881849" y1="1260.7745562810492" x2="604.5579812392753" y2="1258.653264168968" style="stroke-width:1; stroke:black; "  />
<line x1="604.5579812392753" y1="1258.653264168968" x2="592.974113229821" y2="1255.6140171282862" style="stroke-width:1; stroke:black; "  />
<line x1="592.974113229821" y1="1255.6140171282862" x2="581.4373358772704" y2="1251.6440258029677" style="stroke-width:1; stroke:black; "  />
<line x1="581.4373358772704" y1="1251.6440258029677" x2="570.0955289009946" y2="1246.7562421403104" style="stroke-width:1; stroke:black; "  />
<line x1="570.0955289009946" y1="1246.7562421403104" x2="559.0927392332512" y2="1240.9891179586525" style="stroke-width:1; stroke:black; "  />
<line x1="559.0927392332512" y1="1240.9891179586525" x2="548.5644366886343" y2="1234.4054601386852" style="stroke-width:1; stroke:black; "  />
<line x1="548.5644366886343" y1="1234.4054601386852" x2="538.633101725757" y2="1227.0904286357797" style="stroke-width:1; stroke:black; "  />
<line x1="538.633101725757" y1="1227.0904286357797" x2="529.4042742976499" y2="1219.1487410156806" style="stroke-width:1; stroke:black; "  />
<line x1="529.4042742976499" y1="1219.1487410156806" x2="520.9631838152012" y2="1210.7011626558792" style="stroke-width:1; stroke:black; "  />
<line x1="520.9631838152012" y1="1210.7011626558792" x2="513.3720665084346" y2="1201.8803731208388" style="stroke-width:1; stroke:black; "  />
<line x1="513.3720665084346" y1="1201.8803731208388" x2="506.6682588405105" y2="1192.826304136846" style="stroke-width:1; stroke:black; "  />
<line x1="506.6682588405105" y1="1192.826304136846" x2="500.8631346599142" y2="1183.6810398512396" style="stroke-width:1; stroke:black; "  />
<line x1="500.8631346599142" y1="1183.6810398512396" x2="495.9419293656949" y2="1174.5833508115543" style="stroke-width:1; stroke:black; "  />
<line x1="495.9419293656949" y1="1174.5833508115543" x2="491.86446482811397" y2="1165.6628914561265" style="stroke-width:1; stroke:black; "  />
<line x1="491.86446482811397" y1="1165.6628914561265" x2="488.5667485213565" y2="1157.034013575161" style="stroke-width:1; stroke:black; "  />
<line x1="488.5667485213565" y1="1157.034013575161" x2="485.96335366434937" y2="1148.789012890577" style="stroke-width:1; stroke:black; "  />
<line x1="485.96335366434937" y1="1148.789012890577" x2="483.9503529732945" y2="1140.9903979346602" style="stroke-width:1; stroke:black; "  />
<line x1="483.9503529732945" y1="1140.9903979346602" x2="482.40827004907806" y2="1133.6614097533125" style="stroke-width:1; stroke:black; "  />
<line x1="482.40827004907806" y1="1133.6614097533125" x2="481.2037558141131" y2="1126.7735495983247" style="stroke-width:1; stroke:black; "  />
<line x1="481.2037558141131" y1="1126.7735495983247" x2="480.192302791863" y2="1120.2649546745542" style="stroke-width:1; stroke:black; "  />
<line x1="480.192302791863" y1="1120.2649546745542" x2="480.18125136368394" y2="1120.1944891778867" style="stroke-width:1; stroke:black; "  />
<line x1="480.18125136368394" y1="1120.1944891778867" x2="479.24395164277183" y2="1114.272226211635" style="stroke-width:1; stroke:black; "  />
<line x1="479.24395164277183" y1="1114.272226211635" x2="479.0938656561605" y2="1113.4181789957997" style="stroke-width:1; stroke:black; "  />
<line x1="479.0938656561605" y1="1113.4181789957997" x2="478.1062142633131" y2="1108.3089197315005" style="stroke-width:1; stroke:black; "  />
<line x1="478.1062142633131" y1="1108.3089197315005" x2="477.6533042054696" y2="1106.3736794091437" style="stroke-width:1; stroke:black; "  />
<line x1="477.6533042054696" y1="1106.3736794091437" x2="476.45859910229177" y2="1102.037182791587" style="stroke-width:1; stroke:black; "  />
<line x1="476.45859910229177" y1="1102.037182791587" x2="475.3272218867724" y2="1098.7979854503947" style="stroke-width:1; stroke:black; "  />
<line x1="475.3272218867724" y1="1098.7979854503947" x2="473.77851450194316" y2="1095.1673226564708" style="stroke-width:1; stroke:black; "  />
<line x1="473.77851450194316" y1="1095.1673226564708" x2="472.71665168542233" y2="1092.9737591953995" style="stroke-width:1; stroke:black; "  />
<line x1="472.71665168542233" y1="1092.9737591953995" x2="471.4504230659118" y2="1090.889998723441" style="stroke-width:1; stroke:black; "  />
<line x1="471.4504230659118" y1="1090.889998723441" x2="469.4150390726111" y2="1087.87364728379" style="stroke-width:1; stroke:black; "  />
<line x1="469.4150390726111" y1="1087.87364728379" x2="467.7472302391235" y2="1085.6682326121238" style="stroke-width:1; stroke:black; "  />
<line x1="467.7472302391235" y1="1085.6682326121238" x2="465.8508294282629" y2="1083.6533918911753" style="stroke-width:1; stroke:black; "  />
<line x1="465.8508294282629" y1="1083.6533918911753" x2="463.21445473426246" y2="1081.1380780360137" style="stroke-width:1; stroke:black; "  />
<line x1="463.21445473426246" y1="1081.1380780360137" x2="461.36890421114845" y2="1079.5372901739224" style="stroke-width:1; stroke:black; "  />
<line x1="461.36890421114845" y1="1079.5372901739224" x2="459.37902892953207" y2="1078.1173977918638" style="stroke-width:1; stroke:black; "  />
<line x1="459.37902892953207" y1="1078.1173977918638" x2="456.0492367125396" y2="1075.9716006390215" style="stroke-width:1; stroke:black; "  />
<line x1="456.0492367125396" y1="1075.9716006390215" x2="453.03499745006854" y2="1074.3021191866699" style="stroke-width:1; stroke:black; "  />
<line x1="453.03499745006854" y1="1074.3021191866699" x2="448.94410905478884" y2="1072.380130279839" style="stroke-width:1; stroke:black; "  />
<line x1="448.94410905478884" y1="1072.380130279839" x2="447.10454080528535" y2="1071.600927596754" style="stroke-width:1; stroke:black; "  />
<line x1="447.10454080528535" y1="1071.600927596754" x2="442.2117335592855" y2="1069.747342427647" style="stroke-width:1; stroke:black; "  />
<line x1="442.2117335592855" y1="1069.747342427647" x2="441.39126188919255" y2="1069.4521864278279" style="stroke-width:1; stroke:black; "  />
<line x1="441.39126188919255" y1="1069.4521864278279" x2="435.68385977698125" y2="1067.5066914500367" style="stroke-width:1; stroke:black; "  />
<line x1="435.68385977698125" y1="1067.5066914500367" x2="435.61593325323526" y2="1067.4836419291357" style="stroke-width:1; stroke:black; "  />
<line x1="435.61593325323526" y1="1067.4836419291357" x2="429.3402339609" y2="1065.3637758696418" style="stroke-width:1; stroke:black; "  />
<line x1="429.3402339609" y1="1065.3637758696418" x2="422.7221307098153" y2="1062.9891495482204" style="stroke-width:1; stroke:black; "  />
<line x1="422.7221307098153" y1="1062.9891495482204" x2="415.72539839602376" y2="1060.2076266624408" style="stroke-width:1; stroke:black; "  />
<line x1="415.72539839602376" y1="1060.2076266624408" x2="408.34494481027684" y2="1056.8837824976333" style="stroke-width:1; stroke:black; "  />
<line x1="408.34494481027684" y1="1056.8837824976333" x2="400.62455339687705" y2="1052.904750639975" style="stroke-width:1; stroke:black; "  />
<line x1="400.62455339687705" y1="1052.904750639975" x2="392.6442295595245" y2="1048.179697499577" style="stroke-width:1; stroke:black; "  />
<line x1="392.6442295595245" y1="1048.179697499577" x2="384.51029126340217" y2="1042.641063871502" style="stroke-width:1; stroke:black; "  />
<line x1="384.51029126340217" y1="1042.641063871502" x2="376.3471964867429" y2="1036.246092982983" style="stroke-width:1; stroke:black; "  />
<line x1="376.3471964867429" y1="1036.246092982983" x2="368.2904359060507" y2="1028.9779866329993" style="stroke-width:1; stroke:black; "  />
<line x1="368.2904359060507" y1="1028.9779866329993" x2="360.48012309607856" y2="1020.8463955891004" style="stroke-width:1; stroke:black; "  />
<line x1="360.48012309607856" y1="1020.8463955891004" x2="353.055117186241" y2="1011.8871212938525" style="stroke-width:1; stroke:black; "  />
<line x1="353.055117186241" y1="1011.8871212938525" x2="346.1476354598634" y2="1002.1609946540198" style="stroke-width:1; stroke:black; "  />
<line x1="346.1476354598634" y1="1002.1609946540198" x2="339.87838303941527" y2="991.7519505320191" style="stroke-width:1; stroke:black; "  />
<line x1="339.87838303941527" y1="991.7519505320191" x2="334.35226295020476" y2="980.7643526867558" style="stroke-width:1; stroke:black; "  />
<line x1="334.35226295020476" y1="980.7643526867558" x2="329.65474469604277" y2="969.3196511382092" style="stroke-width:1; stroke:black; "  />
<line x1="329.65474469604277" y1="969.3196511382092" x2="325.8489705384007" y2="957.5524752710303" style="stroke-width:1; stroke:black; "  />
<line x1="325.8489705384007" y1="957.5524752710303" x2="322.97367073482116" y2="945.6062823885072" style="stroke-width:1; stroke:black; "  />
<line x1="322.97367073482116" y1="945.6062823885072" x2="321.0419453406591" y2="933.6286928981474" style="stroke-width:1; stroke:black; "  />
<line x1="321.0419453406591" y1="933.6286928981474" x2="320.0409533160794" y2="921.7666494077996" style="stroke-width:1; stroke:black; "  />
<line x1="320.0409533160794" y1="921.7666494077996" x2="319.93253180188344" y2="910.1615369433738" style="stroke-width:1; stroke:black; "  />
<line x1="319.93253180188344" y1="910.1615369433738" x2="320.65475174093996" y2="898.9443940071751" style="stroke-width:1; stroke:black; "  />
<line x1="320.65475174093996" y1="898.9443940071751" x2="322.1244030257457" y2="888.2313271720707" style="stroke-width:1; stroke:black; "  />
<line x1="322.1244030257457" y1="888.2313271720707" x2="324.2403961065386" y2="878.1192115713578" style="stroke-width:1; stroke:black; "  />
<line x1="324.2403961065386" y1="878.1192115713578" x2="326.88807131323153" y2="868.6817088824588" style="stroke-width:1; stroke:black; "  />
<line x1="326.88807131323153" y1="868.6817088824588" x2="329.94442631499237" y2="859.9655494341935" style="stroke-width:1; stroke:black; "  />
<line x1="329.94442631499237" y1="859.9655494341935" x2="333.28430861709336" y2="851.986878841356" style="stroke-width:1; stroke:black; "  />
<line x1="333.28430861709336" y1="851.986878841356" x2="336.78766468403273" y2="844.7272092356094" style="stroke-width:1; stroke:black; "  />
<line x1="336.78766468403273" y1="844.7272092356094" x2="340.3479342209855" y2="838.1280418126559" style="stroke-width:1; stroke:black; "  />
<line x1="340.3479342209855" y1="838.1280418126559" x2="343.8814035025302" y2="832.0823831308351" style="stroke-width:1; stroke:black; "  />
<line x1="343.8814035025302" y1="832.0823831308351" x2="347.3173962294355" y2="826.4505551991974" style="stroke-width:1; stroke:black; "  />
<line x1="347.3173962294355" y1="826.4505551991974" x2="347.35451881160185" y2="826.3895176064009" style="stroke-width:1; stroke:black; "  />
<line x1="347.35451881160185" y1="826.3895176064009" x2="350.4679820278336" y2="821.2542033209731" style="stroke-width:1; stroke:black; "  />
<line x1="350.4679820278336" y1="821.2542033209731" x2="350.905545206775" y2="820.5041141936521" style="stroke-width:1; stroke:black; "  />
<line x1="350.905545206775" y1="820.5041141936521" x2="353.45445466511694" y2="815.9594402547242" style="stroke-width:1; stroke:black; "  />
<line x1="353.45445466511694" y1="815.9594402547242" x2="354.3595315207186" y2="814.1877134118345" style="stroke-width:1; stroke:black; "  />
<line x1="354.3595315207186" y1="814.1877134118345" x2="356.2498809110945" y2="810.1027770999766" style="stroke-width:1; stroke:black; "  />
<line x1="356.2498809110945" y1="810.1027770999766" x2="357.47883183154465" y2="806.8988645609351" style="stroke-width:1; stroke:black; "  />
<line x1="357.47883183154465" y1="806.8988645609351" x2="358.64135239295723" y2="803.1285481004124" style="stroke-width:1; stroke:black; "  />
<line x1="358.64135239295723" y1="803.1285481004124" x2="359.24706951122016" y2="800.7700323017615" style="stroke-width:1; stroke:black; "  />
<line x1="359.24706951122016" y1="800.7700323017615" x2="359.6251950291367" y2="798.365114175179" style="stroke-width:1; stroke:black; "  />
<line x1="359.6251950291367" y1="798.365114175179" x2="360.0174638498937" y2="794.7545760761816" style="stroke-width:1; stroke:black; "  />
<line x1="360.0174638498937" y1="794.7545760761816" x2="360.16666666666663" y2="792.0000000000001" style="stroke-width:1; stroke:black; "  />
<line x1="360.16666666666663" y1="792.0000000000001" x2="360.0174638498937" y2="789.2454239238186" style="stroke-width:1; stroke:black; "  />
<line x1="360.0174638498937" y1="789.2454239238186" x2="359.6251950291367" y2="785.634885824821" style="stroke-width:1; stroke:black; "  />
<line x1="359.6251950291367" y1="785.634885824821" x2="359.2470695112202" y2="783.2299676982384" style="stroke-width:1; stroke:black; "  />
<line x1="359.2470695112202" y1="783.2299676982384" x2="358.64135239295723" y2="780.8714518995874" style="stroke-width:1; stroke:black; "  />
<line x1="358.64135239295723" y1="780.8714518995874" x2="357.4788318315447" y2="777.101135439065" style="stroke-width:1; stroke:black; "  />
<line x1="357.4788318315447" y1="777.101135439065" x2="356.2498809110944" y2="773.897222900023" style="stroke-width:1; stroke:black; "  />
<line x1="356.2498809110944" y1="773.897222900023" x2="354.3595315207184" y2="769.8122865881652" style="stroke-width:1; stroke:black; "  />
<line x1="354.3595315207184" y1="769.8122865881652" x2="353.45445466511694" y2="768.0405597452758" style="stroke-width:1; stroke:black; "  />
<line x1="353.45445466511694" y1="768.0405597452758" x2="350.905545206775" y2="763.4958858063479" style="stroke-width:1; stroke:black; "  />
<line x1="350.905545206775" y1="763.4958858063479" x2="350.4679820278335" y2="762.7457966790267" style="stroke-width:1; stroke:black; "  />
<line x1="350.4679820278335" y1="762.7457966790267" x2="347.3545188116018" y2="757.6104823935991" style="stroke-width:1; stroke:black; "  />
<line x1="347.3545188116018" y1="757.6104823935991" x2="347.3173962294357" y2="757.549444800803" style="stroke-width:1; stroke:black; "  />
<line x1="347.3173962294357" y1="757.549444800803" x2="343.8814035025305" y2="751.9176168691654" style="stroke-width:1; stroke:black; "  />
<line x1="343.8814035025305" y1="751.9176168691654" x2="340.34793422098517" y2="745.8719581873437" style="stroke-width:1; stroke:black; "  />
<line x1="340.34793422098517" y1="745.8719581873437" x2="336.7876646840327" y2="739.2727907643902" style="stroke-width:1; stroke:black; "  />
<line x1="336.7876646840327" y1="739.2727907643902" x2="333.2843086170933" y2="732.0131211586443" style="stroke-width:1; stroke:black; "  />
<line x1="333.2843086170933" y1="732.0131211586443" x2="329.9444263149924" y2="724.0344505658064" style="stroke-width:1; stroke:black; "  />
<line x1="329.9444263149924" y1="724.0344505658064" x2="326.8880713132312" y2="715.3182911175406" style="stroke-width:1; stroke:black; "  />
<line x1="326.8880713132312" y1="715.3182911175406" x2="324.2403961065389" y2="705.8807884286432" style="stroke-width:1; stroke:black; "  />
<line x1="324.2403961065389" y1="705.8807884286432" x2="322.1244030257459" y2="695.76867282793" style="stroke-width:1; stroke:black; "  />
<line x1="322.1244030257459" y1="695.76867282793" x2="320.65475174093996" y2="685.0556059928244" style="stroke-width:1; stroke:black; "  />
<line x1="320.65475174093996" y1="685.0556059928244" x2="319.93253180188344" y2="673.8384630566262" style="stroke-width:1; stroke:black; "  />
<line x1="319.93253180188344" y1="673.8384630566262" x2="320.0409533160794" y2="662.2333505922006" style="stroke-width:1; stroke:black; "  />
<line x1="320.0409533160794" y1="662.2333505922006" x2="321.04194534065914" y2="650.371307101853" style="stroke-width:1; stroke:black; "  />
<line x1="321.04194534065914" y1="650.371307101853" x2="322.97367073482104" y2="638.393717611493" style="stroke-width:1; stroke:black; "  />
<line x1="322.97367073482104" y1="638.393717611493" x2="325.8489705384009" y2="626.4475247289695" style="stroke-width:1; stroke:black; "  />
<line x1="325.8489705384009" y1="626.4475247289695" x2="329.6547446960429" y2="614.6803488617904" style="stroke-width:1; stroke:black; "  />
<line x1="329.6547446960429" y1="614.6803488617904" x2="334.35226295020476" y2="603.2356473132443" style="stroke-width:1; stroke:black; "  />
<line x1="334.35226295020476" y1="603.2356473132443" x2="339.8783830394153" y2="592.2480494679808" style="stroke-width:1; stroke:black; "  />
<line x1="339.8783830394153" y1="592.2480494679808" x2="346.1476354598634" y2="581.8390053459802" style="stroke-width:1; stroke:black; "  />
<line x1="346.1476354598634" y1="581.8390053459802" x2="353.05511718624115" y2="572.1128787061474" style="stroke-width:1; stroke:black; "  />
<line x1="353.05511718624115" y1="572.1128787061474" x2="360.48012309607833" y2="563.1536044108998" style="stroke-width:1; stroke:black; "  />
<line x1="360.48012309607833" y1="563.1536044108998" x2="368.29043590605113" y2="555.0220133670002" style="stroke-width:1; stroke:black; "  />
<line x1="368.29043590605113" y1="555.0220133670002" x2="376.3471964867426" y2="547.7539070170171" style="stroke-width:1; stroke:black; "  />
<line x1="376.3471964867426" y1="547.7539070170171" x2="384.510291263402" y2="541.358936128498" style="stroke-width:1; stroke:black; "  />
<line x1="384.510291263402" y1="541.358936128498" x2="392.6442295595246" y2="535.8203025004227" style="stroke-width:1; stroke:black; "  />
<line x1="392.6442295595246" y1="535.8203025004227" x2="400.6245533968771" y2="531.0952493600249" style="stroke-width:1; stroke:black; "  />
<line x1="400.6245533968771" y1="531.0952493600249" x2="408.3449448102764" y2="527.1162175023669" style="stroke-width:1; stroke:black; "  />
<line x1="408.3449448102764" y1="527.1162175023669" x2="415.7253983960236" y2="523.7923733375594" style="stroke-width:1; stroke:black; "  />
<line x1="415.7253983960236" y1="523.7923733375594" x2="422.7221307098153" y2="521.0108504517798" style="stroke-width:1; stroke:black; "  />
<line x1="422.7221307098153" y1="521.0108504517798" x2="429.3402339609002" y2="518.6362241303582" style="stroke-width:1; stroke:black; "  />
<line x1="429.3402339609002" y1="518.6362241303582" x2="435.6159332532353" y2="516.5163580708642" style="stroke-width:1; stroke:black; "  />
<line x1="435.6159332532353" y1="516.5163580708642" x2="435.683859776981" y2="516.4933085499633" style="stroke-width:1; stroke:black; "  />
<line x1="435.683859776981" y1="516.4933085499633" x2="441.39126188919215" y2="514.5478135721723" style="stroke-width:1; stroke:black; "  />
<line x1="441.39126188919215" y1="514.5478135721723" x2="442.2117335592858" y2="514.2526575723529" style="stroke-width:1; stroke:black; "  />
<line x1="442.2117335592858" y1="514.2526575723529" x2="447.10454080528575" y2="512.3990724032458" style="stroke-width:1; stroke:black; "  />
<line x1="447.10454080528575" y1="512.3990724032458" x2="448.9441090547883" y2="511.61986972016103" style="stroke-width:1; stroke:black; "  />
<line x1="448.9441090547883" y1="511.61986972016103" x2="453.03499745006803" y2="509.69788081333036" style="stroke-width:1; stroke:black; "  />
<line x1="453.03499745006803" y1="509.69788081333036" x2="456.0492367125399" y2="508.0283993609784" style="stroke-width:1; stroke:black; "  />
<line x1="456.0492367125399" y1="508.0283993609784" x2="459.37902892953247" y2="505.88260220813584" style="stroke-width:1; stroke:black; "  />
<line x1="459.37902892953247" y1="505.88260220813584" x2="461.36890421114884" y2="504.4627098260774" style="stroke-width:1; stroke:black; "  />
<line x1="461.36890421114884" y1="504.4627098260774" x2="463.21445473426274" y2="502.8619219639861" style="stroke-width:1; stroke:black; "  />
<line x1="463.21445473426274" y1="502.8619219639861" x2="465.850829428263" y2="500.34660810882457" style="stroke-width:1; stroke:black; "  />
<line x1="465.850829428263" y1="500.34660810882457" x2="467.7472302391234" y2="498.33176738787625" style="stroke-width:1; stroke:black; "  />
<line x1="467.7472302391234" y1="498.33176738787625" x2="469.4150390726105" y2="496.12635271621065" style="stroke-width:1; stroke:black; "  />
<line x1="469.4150390726105" y1="496.12635271621065" x2="471.4504230659113" y2="493.1100012765597" style="stroke-width:1; stroke:black; "  />
<line x1="471.4504230659113" y1="493.1100012765597" x2="472.7166516854221" y2="491.026240804601" style="stroke-width:1; stroke:black; "  />
<line x1="472.7166516854221" y1="491.026240804601" x2="473.7785145019432" y2="488.8326773435291" style="stroke-width:1; stroke:black; "  />
<line x1="473.7785145019432" y1="488.8326773435291" x2="475.3272218867725" y2="485.20201454960494" style="stroke-width:1; stroke:black; "  />
<line x1="475.3272218867725" y1="485.20201454960494" x2="476.45859910229154" y2="481.9628172084136" style="stroke-width:1; stroke:black; "  />
<line x1="476.45859910229154" y1="481.9628172084136" x2="477.6533042054695" y2="477.626320590857" style="stroke-width:1; stroke:black; "  />
<line x1="477.6533042054695" y1="477.626320590857" x2="478.10621426331295" y2="475.6910802685001" style="stroke-width:1; stroke:black; "  />
<line x1="478.10621426331295" y1="475.6910802685001" x2="479.0938656561605" y2="470.58182100420066" style="stroke-width:1; stroke:black; "  />
<line x1="479.0938656561605" y1="470.58182100420066" x2="479.24395164277223" y2="469.727773788364" style="stroke-width:1; stroke:black; "  />
<line x1="479.24395164277223" y1="469.727773788364" x2="480.18125136368405" y2="463.8055108221123" style="stroke-width:1; stroke:black; "  />
<line x1="480.18125136368405" y1="463.8055108221123" x2="480.1923027918627" y2="463.7350453254468" style="stroke-width:1; stroke:black; "  />
<line x1="480.1923027918627" y1="463.7350453254468" x2="481.20375581411344" y2="457.22645040167436" style="stroke-width:1; stroke:black; "  />
<line x1="481.20375581411344" y1="457.22645040167436" x2="482.40827004907794" y2="450.3385902466876" style="stroke-width:1; stroke:black; "  />
<line x1="482.40827004907794" y1="450.3385902466876" x2="483.9503529732945" y2="443.0096020653405" style="stroke-width:1; stroke:black; "  />
<line x1="483.9503529732945" y1="443.0096020653405" x2="485.96335366434977" y2="435.2109871094219" style="stroke-width:1; stroke:black; "  />
<line x1="485.96335366434977" y1="435.2109871094219" x2="488.56674852135626" y2="426.9659864248395" style="stroke-width:1; stroke:black; "  />
<line x1="488.56674852135626" y1="426.9659864248395" x2="491.8644648281138" y2="418.33710854387334" style="stroke-width:1; stroke:black; "  />
<line x1="491.8644648281138" y1="418.33710854387334" x2="495.9419293656945" y2="409.41664918844646" style="stroke-width:1; stroke:black; "  />
<line x1="495.9419293656945" y1="409.41664918844646" x2="500.86313465991486" y2="400.31896014875934" style="stroke-width:1; stroke:black; "  />
<line x1="500.86313465991486" y1="400.31896014875934" x2="506.6682588405101" y2="391.1736958631546" style="stroke-width:1; stroke:black; "  />
<line x1="506.6682588405101" y1="391.1736958631546" x2="513.3720665084343" y2="382.11962687916173" style="stroke-width:1; stroke:black; "  />
<line x1="513.3720665084343" y1="382.11962687916173" x2="520.9631838152013" y2="373.2988373441208" style="stroke-width:1; stroke:black; "  />
<line x1="520.9631838152013" y1="373.2988373441208" x2="529.4042742976499" y2="364.8512589843194" style="stroke-width:1; stroke:black; "  />
<line x1="529.4042742976499" y1="364.8512589843194" x2="538.6331017257573" y2="356.9095713642199" style="stroke-width:1; stroke:black; "  />
<line x1="538.6331017257573" y1="356.9095713642199" x2="548.564436688634" y2="349.59453986131524" style="stroke-width:1; stroke:black; "  />
<line x1="548.564436688634" y1="349.59453986131524" x2="559.092739233251" y2="343.01088204134777" style="stroke-width:1; stroke:black; "  />
<line x1="559.092739233251" y1="343.01088204134777" x2="570.0955289009953" y2="337.2437578596892" style="stroke-width:1; stroke:black; "  />
<line x1="570.0955289009953" y1="337.2437578596892" x2="581.4373358772694" y2="332.35597419703265" style="stroke-width:1; stroke:black; "  />
<line x1="581.4373358772694" y1="332.35597419703265" x2="592.9741132298215" y2="328.38598287171385" style="stroke-width:1; stroke:black; "  />
<line x1="592.9741132298215" y1="328.38598287171385" x2="604.5579812392745" y2="325.3467358310322" style="stroke-width:1; stroke:black; "  />
<line x1="604.5579812392745" y1="325.3467358310322" x2="616.0421717881857" y2="323.2254437189507" style="stroke-width:1; stroke:black; "  />
<line x1="616.0421717881857" y1="323.2254437189507" x2="627.2860453033281" y2="321.98426638935945" style="stroke-width:1; stroke:black; "  />
<line x1="627.2860453033281" y1="321.98426638935945" x2="638.1600673632809" y2="321.5619482616591" style="stroke-width:1; stroke:black; "  />
<line x1="638.1600673632809" y1="321.5619482616591" x2="648.5506610671138" y2="321.87640003625677" style="stroke-width:1; stroke:black; "  />
<line x1="648.5506610671138" y1="321.87640003625677" x2="658.3649023252572" y2="322.82822369863806" style="stroke-width:1; stroke:black; "  />
<line x1="658.3649023252572" y1="322.82822369863806" x2="667.5351127832845" y2="324.30518174361475" style="stroke-width:1; stroke:black; "  />
<line x1="667.5351127832845" y1="324.30518174361475" x2="676.0235563630588" y2="326.18762184934866" style="stroke-width:1; stroke:black; "  />
<line x1="676.0235563630588" y1="326.18762184934866" x2="683.8277112102373" y2="328.3548667506067" style="stroke-width:1; stroke:black; "  />
<line x1="683.8277112102373" y1="328.3548667506067" x2="690.9870574912281" y2="330.69249387343876" style="stroke-width:1; stroke:black; "  />
<line x1="690.9870574912281" y1="330.69249387343876" x2="697.5931106486447" y2="333.1000139592439" style="stroke-width:1; stroke:black; "  />
<line x1="697.5931106486447" y1="333.1000139592439" x2="703.7720470608974" y2="335.4840186608161" style="stroke-width:1; stroke:black; "  />
<line x1="703.7720470608974" y1="335.4840186608161" x2="703.8389939508426" y2="335.50974233880896" style="stroke-width:1; stroke:black; "  />
<line x1="703.8389939508426" y1="335.50974233880896" x2="709.4697780800207" y2="337.6643853905312" style="stroke-width:1; stroke:black; "  />
<line x1="709.4697780800207" y1="337.6643853905312" x2="710.2892504283025" y2="337.96226929082104" style="stroke-width:1; stroke:black; "  />
<line x1="710.2892504283025" y1="337.96226929082104" x2="715.2365565740614" y2="339.66708599246437" style="stroke-width:1; stroke:black; "  />
<line x1="715.2365565740614" y1="339.66708599246437" x2="717.1498617889997" y2="340.24500506447447" style="stroke-width:1; stroke:black; "  />
<line x1="717.1498617889997" y1="340.24500506447447" x2="721.5271170438716" y2="341.3852835327044" style="stroke-width:1; stroke:black; "  />
<line x1="721.5271170438716" y1="341.3852835327044" x2="724.9162485979173" y2="342.0314020928163" style="stroke-width:1; stroke:black; "  />
<line x1="724.9162485979173" y1="342.0314020928163" x2="728.8552656856407" y2="342.5141665833476" style="stroke-width:1; stroke:black; "  />
<line x1="728.8552656856407" y1="342.5141665833476" x2="731.2982143713408" y2="342.69728104379345" style="stroke-width:1; stroke:black; "  />
<line x1="731.2982143713408" y1="342.69728104379345" x2="733.7476362988771" y2="342.649649877642" style="stroke-width:1; stroke:black; "  />
<line x1="733.7476362988771" y1="342.649649877642" x2="737.394527846757" y2="342.40650357374614" style="stroke-width:1; stroke:black; "  />
<line x1="737.394527846757" y1="342.40650357374614" x2="740.1507796361565" y2="342.0741645738226" style="stroke-width:1; stroke:black; "  />
<line x1="740.1507796361565" y1="342.0741645738226" x2="742.8552138310852" y2="341.4498493419984" style="stroke-width:1; stroke:black; "  />
<line x1="742.8552138310852" y1="341.4498493419984" x2="746.3658718472049" y2="340.43906892331853" style="stroke-width:1; stroke:black; "  />
<line x1="746.3658718472049" y1="340.43906892331853" x2="748.6839721605105" y2="339.65148078923136" style="stroke-width:1; stroke:black; "  />
<line x1="748.6839721605105" y1="339.65148078923136" x2="750.9165574986749" y2="338.6492623879166" style="stroke-width:1; stroke:black; "  />
<line x1="750.9165574986749" y1="338.6492623879166" x2="754.451835432419" y2="336.85708073219047" style="stroke-width:1; stroke:black; "  />
<line x1="754.451835432419" y1="336.85708073219047" x2="757.4141568109073" y2="335.0982550244617" style="stroke-width:1; stroke:black; "  />
<line x1="757.4141568109073" y1="335.0982550244617" x2="761.1349006121943" y2="332.53929306335243" style="stroke-width:1; stroke:black; "  />
<line x1="761.1349006121943" y1="332.53929306335243" x2="762.7338759338842" y2="331.34605971615946" style="stroke-width:1; stroke:black; "  />
<line x1="762.7338759338842" y1="331.34605971615946" x2="766.7959551146852" y2="328.06289431934596" style="stroke-width:1; stroke:black; "  />
<line x1="766.7959551146852" y1="328.06289431934596" x2="767.4634633656942" y2="327.5045071989612" style="stroke-width:1; stroke:black; "  />
<line x1="767.4634633656942" y1="327.5045071989612" x2="772.012953067409" y2="323.56638821241586" style="stroke-width:1; stroke:black; "  />
<line x1="772.012953067409" y1="323.56638821241586" x2="772.0670074198658" y2="323.51946640090665" style="stroke-width:1; stroke:black; "  />
<line x1="772.0670074198658" y1="323.51946640090665" x2="777.0526360811136" y2="319.1795483848076" style="stroke-width:1; stroke:black; "  />
<line x1="777.0526360811136" y1="319.1795483848076" x2="782.4315282353609" y2="314.67239307321574" style="stroke-width:1; stroke:black; "  />
<line x1="782.4315282353609" y1="314.67239307321574" x2="788.354405882164" y2="310.04289915615374" style="stroke-width:1; stroke:black; "  />
<line x1="788.354405882164" y1="310.04289915615374" x2="794.941857935858" y2="305.35439745989163" style="stroke-width:1; stroke:black; "  />
<line x1="794.941857935858" y1="305.35439745989163" x2="802.2703725648679" y2="300.70099413685585" style="stroke-width:1; stroke:black; "  />
<line x1="802.2703725648679" y1="300.70099413685585" x2="810.3791220701777" y2="296.1969456829877" style="stroke-width:1; stroke:black; "  />
<line x1="810.3791220701777" y1="296.1969456829877" x2="819.273835378928" y2="291.9675117332986" style="stroke-width:1; stroke:black; "  />
<line x1="819.273835378928" y1="291.9675117332986" x2="828.92955239789" y2="288.14115906585914" style="stroke-width:1; stroke:black; "  />
<line x1="828.92955239789" y1="288.14115906585914" x2="839.2931699230179" y2="284.842868127279" style="stroke-width:1; stroke:black; "  />
<line x1="839.2931699230179" y1="284.842868127279" x2="850.2862190855776" y2="282.18837259786994" style="stroke-width:1; stroke:black; "  />
<line x1="850.2862190855776" y1="282.18837259786994" x2="861.8080640312074" y2="280.2792514478163" style="stroke-width:1; stroke:black; "  />
<line x1="861.8080640312074" y1="280.2792514478163" x2="873.7395729225161" y2="279.19885401748866" style="stroke-width:1; stroke:black; "  />
<line x1="873.7395729225161" y1="279.19885401748866" x2="885.9472314639663" y2="279.00907216712017" style="stroke-width:1; stroke:black; "  />
<line x1="885.9472314639663" y1="279.00907216712017" x2="898.2876195825168" y2="279.7479865815617" style="stroke-width:1; stroke:black; "  />
<line x1="898.2876195825168" y1="279.7479865815617" x2="910.6121407444327" y2="281.4284134719756" style="stroke-width:1; stroke:black; "  />
<line x1="910.6121407444327" y1="281.4284134719756" x2="922.7718742578343" y2="284.0373681562491" style="stroke-width:1; stroke:black; "  />
<line x1="922.7718742578343" y1="284.0373681562491" x2="934.6224105868321" y2="287.53644697362034" style="stroke-width:1; stroke:black; "  />
<line x1="934.6224105868321" y1="287.53644697362034" x2="946.0285265312289" y2="291.8631115076394" style="stroke-width:1; stroke:black; "  />
<line x1="946.0285265312289" y1="291.8631115076394" x2="956.8685602417835" y2="296.9328415339113" style="stroke-width:1; stroke:black; "  />
<line x1="956.8685602417835" y1="296.9328415339113" x2="967.0383550393689" y2="302.6421077597758" style="stroke-width:1; stroke:black; "  />
<line x1="967.0383550393689" y1="302.6421077597758" x2="976.4546558802143" y2="308.8721048111574" style="stroke-width:1; stroke:black; "  />
<line x1="976.4546558802143" y1="308.8721048111574" x2="985.0578636462819" y2="315.49318225123477" style="stroke-width:1; stroke:black; "  />
<line x1="985.0578636462819" y1="315.49318225123477" x2="992.8140820046799" y2="322.36992120887186" style="stroke-width:1; stroke:black; "  />
<line x1="992.8140820046799" y1="322.36992120887186" x2="999.7164336670148" y2="329.3668332917396" style="stroke-width:1; stroke:black; "  />
<line x1="999.7164336670148" y1="329.3668332917396" x2="1005.7856873568699" y2="336.35471743828737" style="stroke-width:1; stroke:black; "  />
<line x1="1005.7856873568699" y1="336.35471743828737" x2="1011.0703460135" y2="343.2178148609474" style="stroke-width:1; stroke:black; "  />
<line x1="1011.0703460135" y1="343.2178148609474" x2="1015.6465513355955" y2="349.86207085272844" style="stroke-width:1; stroke:black; "  />
<line x1="1015.6465513355955" y1="349.86207085272844" x2="1019.6185738916391" y2="356.22504627356824" style="stroke-width:1; stroke:black; "  />
<line x1="1019.6185738916391" y1="356.22504627356824" x2="1023.1215312649285" y2="362.28820736184605" style="stroke-width:1; stroke:black; "  />
<line x1="1023.1215312649285" y1="362.28820736184605" x2="1026.3125117785785" y2="368.06058052935896" style="stroke-width:1; stroke:black; "  />
<line x1="1026.3125117785785" y1="368.06058052935896" x2="1026.3471538408846" y2="368.12304101142496" style="stroke-width:1; stroke:black; "  />
<line x1="1026.3471538408846" y1="368.12304101142496" x2="1029.2666135137924" y2="373.3696406625695" style="stroke-width:1; stroke:black; "  />
<line x1="1029.2666135137924" y1="373.3696406625695" x2="1029.7016463210816" y2="374.1211812754118" style="stroke-width:1; stroke:black; "  />
<line x1="1029.7016463210816" y1="374.1211812754118" x2="1032.3885518378156" y2="378.5866971661794" style="stroke-width:1; stroke:black; "  />
<line x1="1032.3885518378156" y1="378.5866971661794" x2="1033.4803372441002" y2="380.25132323663615" style="stroke-width:1; stroke:black; "  />
<line x1="1033.4803372441002" y1="380.25132323663615" x2="1036.0957929770364" y2="383.9203201118584" style="stroke-width:1; stroke:black; "  />
<line x1="1036.0957929770364" y1="383.9203201118584" x2="1038.274004502516" y2="386.57971262935" style="stroke-width:1; stroke:black; "  />
<line x1="1038.274004502516" y1="386.57971262935" x2="1040.979136588326" y2="389.4651478928061" style="stroke-width:1; stroke:black; "  />
<line x1="1040.979136588326" y1="389.4651478928061" x2="1042.7320758377211" y2="391.16558790462284" style="stroke-width:1; stroke:black; "  />
<line x1="1042.7320758377211" y1="391.16558790462284" x2="1044.639257427494" y2="392.6934005864146" style="stroke-width:1; stroke:black; "  />
<line x1="1044.639257427494" y1="392.6934005864146" x2="1047.5902447433155" y2="394.8361926916474" style="stroke-width:1; stroke:black; "  />
<line x1="1047.5902447433155" y1="394.8361926916474" x2="1049.9166666666667" y2="396.34186052434956" style="stroke-width:1; stroke:black; "  />
<line x1="1049.9166666666667" y1="396.34186052434956" x2="1052.392291406791" y2="397.5907687678286" style="stroke-width:1; stroke:black; "  />
<line x1="1052.392291406791" y1="397.5907687678286" x2="1055.7355475433694" y2="399.0585147615932" style="stroke-width:1; stroke:black; "  />
<line x1="1055.7355475433694" y1="399.0585147615932" x2="1058.0208546510592" y2="399.9356202063843" style="stroke-width:1; stroke:black; "  />
<line x1="1058.0208546510592" y1="399.9356202063843" x2="1060.379511018718" y2="400.5936959932189" style="stroke-width:1; stroke:black; "  />
<line x1="1060.379511018718" y1="400.5936959932189" x2="1064.24716366594" y2="401.4785771902853" style="stroke-width:1; stroke:black; "  />
<line x1="1064.24716366594" y1="401.4785771902853" x2="1067.6543261118686" y2="402.0230972118344" style="stroke-width:1; stroke:black; "  />
<line x1="1067.6543261118686" y1="402.0230972118344" x2="1072.1601312351806" y2="402.43903664847005" style="stroke-width:1; stroke:black; "  />
<line x1="1072.1601312351806" y1="402.43903664847005" x2="1074.1569934970669" y2="402.5461374209049" style="stroke-width:1; stroke:black; "  />
<line x1="1074.1569934970669" y1="402.5461374209049" x2="1079.3928084721433" y2="402.6252954690651" style="stroke-width:1; stroke:black; "  />
<line x1="1079.3928084721433" y1="402.6252954690651" x2="1080.2654044583737" y2="402.62384398354186" style="stroke-width:1; stroke:black; "  />
<line x1="1080.2654044583737" y1="402.62384398354186" x2="1086.298327347513" y2="402.5125586178251" style="stroke-width:1; stroke:black; "  />
<line x1="1086.298327347513" y1="402.5125586178251" x2="1086.370091991987" y2="402.51113572855644" style="stroke-width:1; stroke:black; "  />
<line x1="1086.370091991987" y1="402.51113572855644" x2="1092.9970652325433" y2="402.3705904926803" style="stroke-width:1; stroke:black; "  />
<line x1="1092.9970652325433" y1="402.3705904926803" x2="1100.0334918873737" y2="402.3530880862251" style="stroke-width:1; stroke:black; "  />
<line x1="1100.0334918873737" y1="402.3530880862251" x2="1107.5657839803712" y2="402.5892800883381" style="stroke-width:1; stroke:black; "  />
<line x1="1107.5657839803712" y1="402.5892800883381" x2="1115.6453453694064" y2="403.2046937023039" style="stroke-width:1; stroke:black; "  />
<line x1="1115.6453453694064" y1="403.2046937023039" x2="1124.2698863281394" y2="404.3202668724807" style="stroke-width:1; stroke:black; "  />
<line x1="1124.2698863281394" y1="404.3202668724807" x2="1133.395495019754" y2="406.04854217419825" style="stroke-width:1; stroke:black; "  />
<line x1="1133.395495019754" y1="406.04854217419825" x2="1142.9455218887801" y2="408.48913278022917" style="stroke-width:1; stroke:black; "  />
<line x1="1142.9455218887801" y1="408.48913278022917" x2="1152.8177333279727" y2="411.72450942330477" style="stroke-width:1; stroke:black; "  />
<line x1="1152.8177333279727" y1="411.72450942330477" x2="1162.8905923788457" y2="415.8164988183324" style="stroke-width:1; stroke:black; "  />
<line x1="1162.8905923788457" y1="415.8164988183324" x2="1173.0291131587467" y2="420.803644703149" style="stroke-width:1; stroke:black; "  />
<line x1="1173.0291131587467" y1="420.803644703149" x2="1183.090486442137" y2="426.6994909417109" style="stroke-width:1; stroke:black; "  />
<line x1="1183.090486442137" y1="426.6994909417109" x2="1192.9295281281122" y2="433.4918044057872" style="stroke-width:1; stroke:black; "  />
<line x1="1192.9295281281122" y1="433.4918044057872" x2="1202.4039186783468" y2="441.14272936212694" style="stroke-width:1; stroke:black; "  />
<line x1="1202.4039186783468" y1="441.14272936212694" x2="1211.3791552037649" y2="449.5898434272797" style="stroke-width:1; stroke:black; "  />
<line x1="1211.3791552037649" y1="449.5898434272797" x2="1219.7331145595235" y2="458.7480646101848" style="stroke-width:1; stroke:black; "  />
<line x1="1219.7331145595235" y1="458.7480646101848" x2="1227.3601174672788" y2="468.51233926831776" style="stroke-width:1; stroke:black; "  />
<line x1="1227.3601174672788" y1="468.51233926831776" x2="1234.1743854966194" y2="478.76102269913986" style="stroke-width:1; stroke:black; "  />
<line x1="1234.1743854966194" y1="478.76102269913986" x2="1240.1127916176197" y2="489.3598486715079" style="stroke-width:1; stroke:black; "  />
<line x1="1240.1127916176197" y1="489.3598486715079" x2="1245.1368187825515" y2="500.16637274166874" style="stroke-width:1; stroke:black; "  />
<line x1="1245.1368187825515" y1="500.16637274166874" x2="1249.2336578183435" y2="511.0347681869706" style="stroke-width:1; stroke:black; "  />
<line x1="1249.2336578183435" y1="511.0347681869706" x2="1252.4163941709314" y2="521.8208547602783" style="stroke-width:1; stroke:black; "  />
<line x1="1252.4163941709314" y1="521.8208547602783" x2="1254.723251115367" y2="532.3872520488424" style="stroke-width:1; stroke:black; "  />
<line x1="1254.723251115367" y1="532.3872520488424" x2="1256.2158733576705" y2="542.6085756048002" style="stroke-width:1; stroke:black; "  />
<line x1="1256.2158733576705" y1="542.6085756048002" x2="1256.9766483702977" y2="552.376643182565" style="stroke-width:1; stroke:black; "  />
<line x1="1256.9766483702977" y1="552.376643182565" x2="1257.1050740382543" y2="561.6057447768301" style="stroke-width:1; stroke:black; "  />
<line x1="1257.1050740382543" y1="561.6057447768301" x2="1256.713197253866" y2="570.2381799575259" style="stroke-width:1; stroke:black; "  />
<line x1="1256.713197253866" y1="570.2381799575259" x2="1255.920195721813" y2="578.2505258185938" style="stroke-width:1; stroke:black; "  />
<line x1="1255.920195721813" y1="578.2505258185938" x2="1254.846341054822" y2="585.661542621436" style="stroke-width:1; stroke:black; "  />
<line x1="1254.846341054822" y1="585.661542621436" x2="1253.6071299579885" y2="592.5433242544515" style="stroke-width:1; stroke:black; "  />
<line x1="1253.6071299579885" y1="592.5433242544515" x2="1252.3170593268992" y2="599.0031083300436" style="stroke-width:1; stroke:black; "  />
<line x1="1252.3170593268992" y1="599.0031083300436" x2="1252.3031871556109" y2="599.0730796624523" style="stroke-width:1; stroke:black; "  />
<line x1="1252.3031871556109" y1="599.0730796624523" x2="1251.1452747451144" y2="604.9566936267886" style="stroke-width:1; stroke:black; "  />
<line x1="1251.1452747451144" y1="604.9566936267886" x2="1250.9923113260288" y2="605.8102367469933" style="stroke-width:1; stroke:black; "  />
<line x1="1250.9923113260288" y1="605.8102367469933" x2="1250.16158326083" y2="610.946987312914" style="stroke-width:1; stroke:black; "  />
<line x1="1250.16158326083" y1="610.946987312914" x2="1249.920990333017" y2="612.9194233431905" style="stroke-width:1; stroke:black; "  />
<line x1="1249.920990333017" y1="612.9194233431905" x2="1249.550845739024" y2="617.4003742111302" style="stroke-width:1; stroke:black; "  />
<line x1="1249.550845739024" y1="617.4003742111302" x2="1249.498927855041" y2="620.8286813712116" style="stroke-width:1; stroke:black; "  />
<line x1="1249.498927855041" y1="620.8286813712116" x2="1249.7044135717924" y2="624.7666601797802" style="stroke-width:1; stroke:black; "  />
<line x1="1249.7044135717924" y1="624.7666601797802" x2="1249.947123628341" y2="627.1887709631537" style="stroke-width:1; stroke:black; "  />
<line x1="1249.947123628341" y1="627.1887709631537" x2="1250.4196734185327" y2="629.5771469593324" style="stroke-width:1; stroke:black; "  />
<line x1="1250.4196734185327" y1="629.5771469593324" x2="1251.2939567406524" y2="633.1032412331741" style="stroke-width:1; stroke:black; "  />
<line x1="1251.2939567406524" y1="633.1032412331741" x2="1252.1019901247205" y2="635.7423971859466" style="stroke-width:1; stroke:black; "  />
<line x1="1252.1019901247205" y1="635.7423971859466" x2="1253.1904330806321" y2="638.2801508575358" style="stroke-width:1; stroke:black; "  />
<line x1="1253.1904330806321" y1="638.2801508575358" x2="1254.8019406352114" y2="641.539648601083" style="stroke-width:1; stroke:black; "  />
<line x1="1254.8019406352114" y1="641.539648601083" x2="1255.985133943237" y2="643.6710402391932" style="stroke-width:1; stroke:black; "  />
<line x1="1255.985133943237" y1="643.6710402391932" x2="1257.3662198124166" y2="645.6814892398193" style="stroke-width:1; stroke:black; "  />
<line x1="1257.3662198124166" y1="645.6814892398193" x2="1259.7565295153106" y2="648.8293875432116" style="stroke-width:1; stroke:black; "  />
<line x1="1259.7565295153106" y1="648.8293875432116" x2="1262.0142838538368" y2="651.4224663242902" style="stroke-width:1; stroke:black; "  />
<line x1="1262.0142838538368" y1="651.4224663242902" x2="1265.1968340055307" y2="654.6186844736169" style="stroke-width:1; stroke:black; "  />
<line x1="1265.1968340055307" y1="654.6186844736169" x2="1266.6572291626242" y2="655.9760057239646" style="stroke-width:1; stroke:black; "  />
<line x1="1266.6572291626242" y1="655.9760057239646" x2="1270.6168839155362" y2="659.380448286621" style="stroke-width:1; stroke:black; "  />
<line x1="1270.6168839155362" y1="659.380448286621" x2="1271.2862702772072" y2="659.9366116021662" style="stroke-width:1; stroke:black; "  />
<line x1="1271.2862702772072" y1="659.9366116021662" x2="1275.9797546854734" y2="663.7042315166957" style="stroke-width:1; stroke:black; "  />
<line x1="1275.9797546854734" y1="663.7042315166957" x2="1276.0356501472395" y2="663.7489733353711" style="stroke-width:1; stroke:black; "  />
<line x1="1276.0356501472395" y1="663.7489733353711" x2="1281.203133537244" y2="667.8735635575698" style="stroke-width:1; stroke:black; "  />
<line x1="1281.203133537244" y1="667.8735635575698" x2="1286.6046724596927" y2="672.3539036267504" style="stroke-width:1; stroke:black; "  />
<line x1="1286.6046724596927" y1="672.3539036267504" x2="1292.2219358164682" y2="677.3452646852674" style="stroke-width:1; stroke:black; "  />
<line x1="1292.2219358164682" y1="677.3452646852674" x2="1298.0130899725918" y2="682.9766347399255" style="stroke-width:1; stroke:black; "  />
<line x1="1298.0130899725918" y1="682.9766347399255" x2="1303.898138695359" y2="689.3391953187745" style="stroke-width:1; stroke:black; "  />
<line x1="1303.898138695359" y1="689.3391953187745" x2="1309.7706328466293" y2="696.4911151547643" style="stroke-width:1; stroke:black; "  />
<line x1="1309.7706328466293" y1="696.4911151547643" x2="1315.5074095671905" y2="704.4597508478104" style="stroke-width:1; stroke:black; "  />
<line x1="1315.5074095671905" y1="704.4597508478104" x2="1320.9767979768042" y2="713.2429881128996" style="stroke-width:1; stroke:black; "  />
<line x1="1320.9767979768042" y1="713.2429881128996" x2="1326.045695856161" y2="722.8105705262052" style="stroke-width:1; stroke:black; "  />
<line x1="1326.045695856161" y1="722.8105705262052" x2="1330.5857617033807" y2="733.1058168397896" style="stroke-width:1; stroke:black; "  />
<line x1="1330.5857617033807" y1="733.1058168397896" x2="1334.4788349455234" y2="744.0478984869111" style="stroke-width:1; stroke:black; "  />
<line x1="1334.4788349455234" y1="744.0478984869111" x2="1337.6216124725293" y2="755.5347238873952" style="stroke-width:1; stroke:black; "  />
<line x1="1337.6216124725293" y1="755.5347238873952" x2="1339.9295623969726" y2="767.4464028328116" style="stroke-width:1; stroke:black; "  />
<line x1="1339.9295623969726" y1="767.4464028328116" x2="1341.3400344103711" y2="779.649217998375" style="stroke-width:1; stroke:black; "  />
<line x1="1341.3400344103711" y1="779.649217998375" x2="1341.8145215334976" y2="791.9999999999999" style="stroke-width:1; stroke:black; "  />
</svg>
