  0
SECTION
  2
HEADER
  9
$ACADVER
  1
AC1014
  9
$HANDSEED
  5
FFFF
  9
$MEASUREMENT
 70
     1
  0
ENDSEC
  0
SECTION
  2
TABLES
  0
TABLE
  2
VPORT
  5
8
330
0
100
AcDbSymbolTable
 70
     4
  0
VPORT
  5
2E
330
8
100
AcDbSymbolTableRecord
100
AcDbViewportTableRecord
  2
*ACTIVE
 70
     0
 10
0.0
 20
0.0
 11
1.0
 21
1.0
 12
210.0
 22
148.5
 13
0.0
 23
0.0
 14
10.0
 24
10.0
 15
10.0
 25
10.0
 16
0.0
 26
0.0
 36
1.0
 17
0.0
 27
0.0
 37
0.0
 40
341.0
 41
1.24
 42
50.0
 43
0.0
 44
0.0
 50
0.0
 51
0.0
 71
     0
 72
   100
 73
     1
 74
     3
 75
     0
 76
     0
 77
     0
 78
     0
  0
ENDTAB
  0
TABLE
  2
LTYPE
  5
5
330
0
100
AcDbSymbolTable
 70
     1
  0
LTYPE
  5
14
330
5
100
AcDbSymbolTableRecord
100
AcDbLinetypeTableRecord
  2
BYBLOCK
 70
     0
  3

 72
    65
 73
     0
 40
0.0
  0
LTYPE
  5
15
330
5
100
AcDbSymbolTableRecord
100
AcDbLinetypeTableRecord
  2
BYLAYER
 70
     0
  3

 72
    65
 73
     0
 40
0.0
  0
LTYPE
  5
16
330
5
100
AcDbSymbolTableRecord
100
AcDbLinetypeTableRecord
  2
CONTINUOUS
 70
     0
  3
Solid line
 72
    65
 73
     0
 40
0.0
  0
ENDTAB
  0
TABLE
  2
LAYER
  5
2
100
AcDbSymbolTable
 70
1
  0
LAYER
  5
50
100
AcDbSymbolTableRecord
100
AcDbLayerTableRecord
  2
0
 70
0
  6
CONTINUOUS
  0
ENDTAB
  0
TABLE
  2
STYLE
  5
3
330
0
100
AcDbSymbolTable
 70
     1
  0
STYLE
  5
11
330
3
100
AcDbSymbolTableRecord
100
AcDbTextStyleTableRecord
  2
STANDARD
 70
     0
 40
0.0
 41
1.0
 50
0.0
 71
     0
 42
2.5
  3
txt
  4

  0
ENDTAB
  0
TABLE
  2
VIEW
  5
6
330
0
100
AcDbSymbolTable
 70
     0
  0
ENDTAB
  0
TABLE
  2
UCS
  5
7
330
0
100
AcDbSymbolTable
 70
     0
  0
ENDTAB
  0
TABLE
  2
APPID
  5
9
330
0
100
AcDbSymbolTable
 70
     2
  0
APPID
  5
12
330
9
100
AcDbSymbolTableRecord
100
AcDbRegAppTableRecord
  2
ACAD
 70
     0
  0
ENDTAB
  0
TABLE
  2
DIMSTYLE
  5
A
330
0
100
AcDbSymbolTable
 70
     1
  0
DIMSTYLE
105
27
330
A
100
AcDbSymbolTableRecord
100
AcDbDimStyleTableRecord
  2
ISO-25
 70
     0
  3

  4

  5

  6

  7

 40
1.0
 41
2.5
 42
0.625
 43
3.75
 44
1.25
 45
0.0
 46
0.0
 47
0.0
 48
0.0
140
2.5
141
2.5
142
0.0
143
0.03937007874016
144
1.0
145
0.0
146
1.0
147
0.625
 71
     0
 72
     0
 73
     0
 74
     0
 75
     0
 76
     0
 77
     1
 78
     8
170
     0
171
     3
172
     1
173
     0
174
     0
175
     0
176
     0
177
     0
178
     0
270
     2
271
     2
272
     2
273
     2
274
     3
340
11
275
     0
280
     0
281
     0
282
     0
283
     0
284
     8
285
     0
286
     0
287
     3
288
     0
  0
ENDTAB
  0
TABLE
  2
BLOCK_RECORD
  5
1
330
0
100
AcDbSymbolTable
 70
     1
  0
BLOCK_RECORD
  5
1F
330
1
100
AcDbSymbolTableRecord
100
AcDbBlockTableRecord
  2
*MODEL_SPACE
  0
BLOCK_RECORD
  5
1B
330
1
100
AcDbSymbolTableRecord
100
AcDbBlockTableRecord
  2
*PAPER_SPACE
  0
ENDTAB
  0
ENDSEC
  0
SECTION
  2
BLOCKS
  0
BLOCK
  5
20
330
1F
100
AcDbEntity
  8
0
100
AcDbBlockBegin
  2
*MODEL_SPACE
 70
     0
 10
0.0
 20
0.0
 30
0.0
  3
*MODEL_SPACE
  1

  0
ENDBLK
  5
21
330
1F
100
AcDbEntity
  8
0
100
AcDbBlockEnd
  0
BLOCK
  5
1C
330
1B
100
AcDbEntity
 67
     1
  8
0
100
AcDbBlockBegin
  2
*PAPER_SPACE
  1

  0
ENDBLK
  5
1D
330
1B
100
AcDbEntity
 67
     1
  8
0
100
AcDbBlockEnd
  0
ENDSEC
  0
SECTION
  2
ENTITIES
  0
LWPOLYLINE
  5
100
100
AcDbEntity
  8
0
 62
7
100
AcDbPolyline
 90
4
 70
1
 10
355.021759
 20
-209.550000
 30
0.0
 10
355.021759
 20
-209.550000
 30
0.0
 10
355.021759
 20
-209.550000
 30
0.0
 10
354.896217
 20
-212.817811
 30
0.0
  0
LWPOLYLINE
  5
101
100
AcDbEntity
  8
0
 62
7
100
AcDbPolyline
 90
2
 70
1
 10
354.896217
 20
-212.817811
 30
0.0
 10
354.523030
 20
-216.046473
 30
0.0
  0
LWPOLYLINE
  5
102
100
AcDbEntity
  8
0
 62
7
100
AcDbPolyline
 90
2
 70
1
 10
354.523030
 20
-216.046473
 30
0.0
 10
353.912385
 20
-219.198104
 30
0.0
  0
LWPOLYLINE
  5
103
100
AcDbEntity
  8
0
 62
7
100
AcDbPolyline
 90
2
 70
1
 10
353.912385
 20
-219.198104
 30
0.0
 10
353.080858
 20
-222.237327
 30
0.0
  0
LWPOLYLINE
  5
104
100
AcDbEntity
  8
0
 62
7
100
AcDbPolyline
 90
2
 70
1
 10
353.080858
 20
-222.237327
 30
0.0
 10
352.050816
 20
-225.132419
 30
0.0
  0
LWPOLYLINE
  5
105
100
AcDbEntity
  8
0
 62
7
100
AcDbPolyline
 90
2
 70
1
 10
352.050816
 20
-225.132419
 30
0.0
 10
350.849590
 20
-227.856370
 30
0.0
  0
LWPOLYLINE
  5
106
100
AcDbEntity
  8
0
 62
7
100
AcDbPolyline
 90
2
 70
1
 10
350.849590
 20
-227.856370
 30
0.0
 10
349.508444
 20
-230.387793
 30
0.0
  0
LWPOLYLINE
  5
107
100
AcDbEntity
  8
0
 62
7
100
AcDbPolyline
 90
2
 70
1
 10
349.508444
 20
-230.387793
 30
0.0
 10
348.061335
 20
-232.711691
 30
0.0
  0
LWPOLYLINE
  5
108
100
AcDbEntity
  8
0
 62
7
100
AcDbPolyline
 90
2
 70
1
 10
348.061335
 20
-232.711691
 30
0.0
 10
346.543480
 20
-234.820059
 30
0.0
  0
LWPOLYLINE
  5
109
100
AcDbEntity
  8
0
 62
7
100
AcDbPolyline
 90
2
 70
1
 10
346.543480
 20
-234.820059
 30
0.0
 10
344.989716
 20
-236.712338
 30
0.0
  0
LWPOLYLINE
  5
10a
100
AcDbEntity
  8
0
 62
7
100
AcDbPolyline
 90
2
 70
1
 10
344.989716
 20
-236.712338
 30
0.0
 10
343.432630
 20
-238.395765
 30
0.0
  0
LWPOLYLINE
  5
10b
100
AcDbEntity
  8
0
 62
7
100
AcDbPolyline
 90
2
 70
1
 10
343.432630
 20
-238.395765
 30
0.0
 10
341.900387
 20
-239.885732
 30
0.0
  0
LWPOLYLINE
  5
10c
100
AcDbEntity
  8
0
 62
7
100
AcDbPolyline
 90
2
 70
1
 10
341.900387
 20
-239.885732
 30
0.0
 10
340.414153
 20
-241.206363
 30
0.0
  0
LWPOLYLINE
  5
10d
100
AcDbEntity
  8
0
 62
7
100
AcDbPolyline
 90
2
 70
1
 10
340.414153
 20
-241.206363
 30
0.0
 10
338.984996
 20
-242.391786
 30
0.0
  0
LWPOLYLINE
  5
10e
100
AcDbEntity
  8
0
 62
7
100
AcDbPolyline
 90
2
 70
1
 10
338.984996
 20
-242.391786
 30
0.0
 10
337.617766
 20
-243.483084
 30
0.0
  0
LWPOLYLINE
  5
10f
100
AcDbEntity
  8
0
 62
7
100
AcDbPolyline
 90
2
 70
1
 10
337.617766
 20
-243.483084
 30
0.0
 10
337.602977
 20
-243.494922
 30
0.0
  0
LWPOLYLINE
  5
110
100
AcDbEntity
  8
0
 62
7
100
AcDbPolyline
 90
2
 70
1
 10
337.602977
 20
-243.494922
 30
0.0
 10
336.361159
 20
-244.491772
 30
0.0
  0
LWPOLYLINE
  5
111
100
AcDbEntity
  8
0
 62
7
100
AcDbPolyline
 90
2
 70
1
 10
336.361159
 20
-244.491772
 30
0.0
 10
336.184051
 20
-244.638923
 30
0.0
  0
LWPOLYLINE
  5
112
100
AcDbEntity
  8
0
 62
7
100
AcDbPolyline
 90
2
 70
1
 10
336.184051
 20
-244.638923
 30
0.0
 10
335.136392
 20
-245.539682
 30
0.0
  0
LWPOLYLINE
  5
113
100
AcDbEntity
  8
0
 62
7
100
AcDbPolyline
 90
2
 70
1
 10
335.136392
 20
-245.539682
 30
0.0
 10
334.749996
 20
-245.898806
 30
0.0
  0
LWPOLYLINE
  5
114
100
AcDbEntity
  8
0
 62
7
100
AcDbPolyline
 90
2
 70
1
 10
334.749996
 20
-245.898806
 30
0.0
 10
333.907946
 20
-246.744472
 30
0.0
  0
LWPOLYLINE
  5
115
100
AcDbEntity
  8
0
 62
7
100
AcDbPolyline
 90
2
 70
1
 10
333.907946
 20
-246.744472
 30
0.0
 10
333.310582
 20
-247.430558
 30
0.0
  0
LWPOLYLINE
  5
116
100
AcDbEntity
  8
0
 62
7
100
AcDbPolyline
 90
2
 70
1
 10
333.310582
 20
-247.430558
 30
0.0
 10
332.678146
 20
-248.263439
 30
0.0
  0
LWPOLYLINE
  5
117
100
AcDbEntity
  8
0
 62
7
100
AcDbPolyline
 90
2
 70
1
 10
332.678146
 20
-248.263439
 30
0.0
 10
332.312733
 20
-248.795371
 30
0.0
  0
LWPOLYLINE
  5
118
100
AcDbEntity
  8
0
 62
7
100
AcDbPolyline
 90
2
 70
1
 10
332.312733
 20
-248.795371
 30
0.0
 10
331.999680
 20
-249.359301
 30
0.0
  0
LWPOLYLINE
  5
119
100
AcDbEntity
  8
0
 62
7
100
AcDbPolyline
 90
2
 70
1
 10
331.999680
 20
-249.359301
 30
0.0
 10
331.573302
 20
-250.221710
 30
0.0
  0
LWPOLYLINE
  5
11a
100
AcDbEntity
  8
0
 62
7
100
AcDbPolyline
 90
2
 70
1
 10
331.573302
 20
-250.221710
 30
0.0
 10
331.285318
 20
-250.893157
 30
0.0
  0
LWPOLYLINE
  5
11b
100
AcDbEntity
  8
0
 62
7
100
AcDbPolyline
 90
2
 70
1
 10
331.285318
 20
-250.893157
 30
0.0
 10
331.071526
 20
-251.591434
 30
0.0
  0
LWPOLYLINE
  5
11c
100
AcDbEntity
  8
0
 62
7
100
AcDbPolyline
 90
2
 70
1
 10
331.071526
 20
-251.591434
 30
0.0
 10
330.840205
 20
-252.524380
 30
0.0
  0
LWPOLYLINE
  5
11d
100
AcDbEntity
  8
0
 62
7
100
AcDbPolyline
 90
2
 70
1
 10
330.840205
 20
-252.524380
 30
0.0
 10
330.715176
 20
-253.156304
 30
0.0
  0
LWPOLYLINE
  5
11e
100
AcDbEntity
  8
0
 62
7
100
AcDbPolyline
 90
2
 70
1
 10
330.715176
 20
-253.156304
 30
0.0
 10
330.650959
 20
-253.797154
 30
0.0
  0
LWPOLYLINE
  5
11f
100
AcDbEntity
  8
0
 62
7
100
AcDbPolyline
 90
2
 70
1
 10
330.650959
 20
-253.797154
 30
0.0
 10
330.596591
 20
-254.839078
 30
0.0
  0
LWPOLYLINE
  5
120
100
AcDbEntity
  8
0
 62
7
100
AcDbPolyline
 90
2
 70
1
 10
330.596591
 20
-254.839078
 30
0.0
 10
330.610328
 20
-255.746151
 30
0.0
  0
LWPOLYLINE
  5
121
100
AcDbEntity
  8
0
 62
7
100
AcDbPolyline
 90
2
 70
1
 10
330.610328
 20
-255.746151
 30
0.0
 10
330.708262
 20
-256.931736
 30
0.0
  0
LWPOLYLINE
  5
122
100
AcDbEntity
  8
0
 62
7
100
AcDbPolyline
 90
2
 70
1
 10
330.708262
 20
-256.931736
 30
0.0
 10
330.771919
 20
-257.453610
 30
0.0
  0
LWPOLYLINE
  5
123
100
AcDbEntity
  8
0
 62
7
100
AcDbPolyline
 90
2
 70
1
 10
330.771919
 20
-257.453610
 30
0.0
 10
330.991716
 20
-258.812708
 30
0.0
  0
LWPOLYLINE
  5
124
100
AcDbEntity
  8
0
 62
7
100
AcDbPolyline
 90
2
 70
1
 10
330.991716
 20
-258.812708
 30
0.0
 10
331.032187
 20
-259.038541
 30
0.0
  0
LWPOLYLINE
  5
125
100
AcDbEntity
  8
0
 62
7
100
AcDbPolyline
 90
2
 70
1
 10
331.032187
 20
-259.038541
 30
0.0
 10
331.338552
 20
-260.595248
 30
0.0
  0
LWPOLYLINE
  5
126
100
AcDbEntity
  8
0
 62
7
100
AcDbPolyline
 90
2
 70
1
 10
331.338552
 20
-260.595248
 30
0.0
 10
331.342222
 20
-260.613761
 30
0.0
  0
LWPOLYLINE
  5
127
100
AcDbEntity
  8
0
 62
7
100
AcDbPolyline
 90
2
 70
1
 10
331.342222
 20
-260.613761
 30
0.0
 10
331.683553
 20
-262.322912
 30
0.0
  0
LWPOLYLINE
  5
128
100
AcDbEntity
  8
0
 62
7
100
AcDbPolyline
 90
2
 70
1
 10
331.683553
 20
-262.322912
 30
0.0
 10
332.011428
 20
-264.143717
 30
0.0
  0
LWPOLYLINE
  5
129
100
AcDbEntity
  8
0
 62
7
100
AcDbPolyline
 90
2
 70
1
 10
332.011428
 20
-264.143717
 30
0.0
 10
332.295552
 20
-266.104548
 30
0.0
  0
LWPOLYLINE
  5
12a
100
AcDbEntity
  8
0
 62
7
100
AcDbPolyline
 90
2
 70
1
 10
332.295552
 20
-266.104548
 30
0.0
 10
332.505367
 20
-268.224482
 30
0.0
  0
LWPOLYLINE
  5
12b
100
AcDbEntity
  8
0
 62
7
100
AcDbPolyline
 90
2
 70
1
 10
332.505367
 20
-268.224482
 30
0.0
 10
332.609051
 20
-270.508480
 30
0.0
  0
LWPOLYLINE
  5
12c
100
AcDbEntity
  8
0
 62
7
100
AcDbPolyline
 90
2
 70
1
 10
332.609051
 20
-270.508480
 30
0.0
 10
332.575072
 20
-272.950346
 30
0.0
  0
LWPOLYLINE
  5
12d
100
AcDbEntity
  8
0
 62
7
100
AcDbPolyline
 90
2
 70
1
 10
332.575072
 20
-272.950346
 30
0.0
 10
332.373783
 20
-275.534814
 30
0.0
  0
LWPOLYLINE
  5
12e
100
AcDbEntity
  8
0
 62
7
100
AcDbPolyline
 90
2
 70
1
 10
332.373783
 20
-275.534814
 30
0.0
 10
331.978860
 20
-278.239206
 30
0.0
  0
LWPOLYLINE
  5
12f
100
AcDbEntity
  8
0
 62
7
100
AcDbPolyline
 90
2
 70
1
 10
331.978860
 20
-278.239206
 30
0.0
 10
331.368504
 20
-281.034899
 30
0.0
  0
LWPOLYLINE
  5
130
100
AcDbEntity
  8
0
 62
7
100
AcDbPolyline
 90
2
 70
1
 10
331.368504
 20
-281.034899
 30
0.0
 10
330.526405
 20
-283.888718
 30
0.0
  0
LWPOLYLINE
  5
131
100
AcDbEntity
  8
0
 62
7
100
AcDbPolyline
 90
2
 70
1
 10
330.526405
 20
-283.888718
 30
0.0
 10
329.442450
 20
-286.764314
 30
0.0
  0
LWPOLYLINE
  5
132
100
AcDbEntity
  8
0
 62
7
100
AcDbPolyline
 90
2
 70
1
 10
329.442450
 20
-286.764314
 30
0.0
 10
328.113176
 20
-289.623540
 30
0.0
  0
LWPOLYLINE
  5
133
100
AcDbEntity
  8
0
 62
7
100
AcDbPolyline
 90
2
 70
1
 10
328.113176
 20
-289.623540
 30
0.0
 10
326.541973
 20
-292.427813
 30
0.0
  0
LWPOLYLINE
  5
134
100
AcDbEntity
  8
0
 62
7
100
AcDbPolyline
 90
2
 70
1
 10
326.541973
 20
-292.427813
 30
0.0
 10
324.739031
 20
-295.139444
 30
0.0
  0
LWPOLYLINE
  5
135
100
AcDbEntity
  8
0
 62
7
100
AcDbPolyline
 90
2
 70
1
 10
324.739031
 20
-295.139444
 30
0.0
 10
322.721053
 20
-297.722908
 30
0.0
  0
LWPOLYLINE
  5
136
100
AcDbEntity
  8
0
 62
7
100
AcDbPolyline
 90
2
 70
1
 10
322.721053
 20
-297.722908
 30
0.0
 10
320.510735
 20
-300.146021
 30
0.0
  0
LWPOLYLINE
  5
137
100
AcDbEntity
  8
0
 62
7
100
AcDbPolyline
 90
2
 70
1
 10
320.510735
 20
-300.146021
 30
0.0
 10
318.136037
 20
-302.380986
 30
0.0
  0
LWPOLYLINE
  5
138
100
AcDbEntity
  8
0
 62
7
100
AcDbPolyline
 90
2
 70
1
 10
318.136037
 20
-302.380986
 30
0.0
 10
315.629271
 20
-304.405293
 30
0.0
  0
LWPOLYLINE
  5
139
100
AcDbEntity
  8
0
 62
7
100
AcDbPolyline
 90
2
 70
1
 10
315.629271
 20
-304.405293
 30
0.0
 10
313.026025
 20
-306.202426
 30
0.0
  0
LWPOLYLINE
  5
13a
100
AcDbEntity
  8
0
 62
7
100
AcDbPolyline
 90
2
 70
1
 10
313.026025
 20
-306.202426
 30
0.0
 10
310.363953
 20
-307.762369
 30
0.0
  0
LWPOLYLINE
  5
13b
100
AcDbEntity
  8
0
 62
7
100
AcDbPolyline
 90
2
 70
1
 10
310.363953
 20
-307.762369
 30
0.0
 10
307.681469
 20
-309.081885
 30
0.0
  0
LWPOLYLINE
  5
13c
100
AcDbEntity
  8
0
 62
7
100
AcDbPolyline
 90
2
 70
1
 10
307.681469
 20
-309.081885
 30
0.0
 10
305.016359
 20
-310.164557
 30
0.0
  0
LWPOLYLINE
  5
13d
100
AcDbEntity
  8
0
 62
7
100
AcDbPolyline
 90
2
 70
1
 10
305.016359
 20
-310.164557
 30
0.0
 10
302.404336
 20
-311.020584
 30
0.0
  0
LWPOLYLINE
  5
13e
100
AcDbEntity
  8
0
 62
7
100
AcDbPolyline
 90
2
 70
1
 10
302.404336
 20
-311.020584
 30
0.0
 10
299.877558
 20
-311.666323
 30
0.0
  0
LWPOLYLINE
  5
13f
100
AcDbEntity
  8
0
 62
7
100
AcDbPolyline
 90
2
 70
1
 10
299.877558
 20
-311.666323
 30
0.0
 10
297.463074
 20
-312.123596
 30
0.0
  0
LWPOLYLINE
  5
140
100
AcDbEntity
  8
0
 62
7
100
AcDbPolyline
 90
2
 70
1
 10
297.463074
 20
-312.123596
 30
0.0
 10
295.181164
 20
-312.418758
 30
0.0
  0
LWPOLYLINE
  5
141
100
AcDbEntity
  8
0
 62
7
100
AcDbPolyline
 90
2
 70
1
 10
295.181164
 20
-312.418758
 30
0.0
 10
293.043447
 20
-312.581586
 30
0.0
  0
LWPOLYLINE
  5
142
100
AcDbEntity
  8
0
 62
7
100
AcDbPolyline
 90
2
 70
1
 10
293.043447
 20
-312.581586
 30
0.0
 10
291.050528
 20
-312.644079
 30
0.0
  0
LWPOLYLINE
  5
143
100
AcDbEntity
  8
0
 62
7
100
AcDbPolyline
 90
2
 70
1
 10
291.050528
 20
-312.644079
 30
0.0
 10
289.188807
 20
-312.639448
 30
0.0
  0
LWPOLYLINE
  5
144
100
AcDbEntity
  8
0
 62
7
100
AcDbPolyline
 90
2
 70
1
 10
289.188807
 20
-312.639448
 30
0.0
 10
287.435420
 20
-312.602262
 30
0.0
  0
LWPOLYLINE
  5
145
100
AcDbEntity
  8
0
 62
7
100
AcDbPolyline
 90
2
 70
1
 10
287.435420
 20
-312.602262
 30
0.0
 10
287.416432
 20
-312.601886
 30
0.0
  0
LWPOLYLINE
  5
146
100
AcDbEntity
  8
0
 62
7
100
AcDbPolyline
 90
2
 70
1
 10
287.416432
 20
-312.601886
 30
0.0
 10
285.820222
 20
-312.572441
 30
0.0
  0
LWPOLYLINE
  5
147
100
AcDbEntity
  8
0
 62
7
100
AcDbPolyline
 90
2
 70
1
 10
285.820222
 20
-312.572441
 30
0.0
 10
285.589347
 20
-312.572057
 30
0.0
  0
LWPOLYLINE
  5
148
100
AcDbEntity
  8
0
 62
7
100
AcDbPolyline
 90
2
 70
1
 10
285.589347
 20
-312.572057
 30
0.0
 10
284.204038
 20
-312.593001
 30
0.0
  0
LWPOLYLINE
  5
149
100
AcDbEntity
  8
0
 62
7
100
AcDbPolyline
 90
2
 70
1
 10
284.204038
 20
-312.593001
 30
0.0
 10
283.675701
 20
-312.621338
 30
0.0
  0
LWPOLYLINE
  5
14a
100
AcDbEntity
  8
0
 62
7
100
AcDbPolyline
 90
2
 70
1
 10
283.675701
 20
-312.621338
 30
0.0
 10
282.483540
 20
-312.731389
 30
0.0
  0
LWPOLYLINE
  5
14b
100
AcDbEntity
  8
0
 62
7
100
AcDbPolyline
 90
2
 70
1
 10
282.483540
 20
-312.731389
 30
0.0
 10
281.582062
 20
-312.875460
 30
0.0
  0
LWPOLYLINE
  5
14c
100
AcDbEntity
  8
0
 62
7
100
AcDbPolyline
 90
2
 70
1
 10
281.582062
 20
-312.875460
 30
0.0
 10
280.558746
 20
-313.109585
 30
0.0
  0
LWPOLYLINE
  5
14d
100
AcDbEntity
  8
0
 62
7
100
AcDbPolyline
 90
2
 70
1
 10
280.558746
 20
-313.109585
 30
0.0
 10
279.934684
 20
-313.283700
 30
0.0
  0
LWPOLYLINE
  5
14e
100
AcDbEntity
  8
0
 62
7
100
AcDbPolyline
 90
2
 70
1
 10
279.934684
 20
-313.283700
 30
0.0
 10
279.330030
 20
-313.515768
 30
0.0
  0
LWPOLYLINE
  5
14f
100
AcDbEntity
  8
0
 62
7
100
AcDbPolyline
 90
2
 70
1
 10
279.330030
 20
-313.515768
 30
0.0
 10
278.445460
 20
-313.904109
 30
0.0
  0
LWPOLYLINE
  5
150
100
AcDbEntity
  8
0
 62
7
100
AcDbPolyline
 90
2
 70
1
 10
278.445460
 20
-313.904109
 30
0.0
 10
277.790451
 20
-314.234549
 30
0.0
  0
LWPOLYLINE
  5
151
100
AcDbEntity
  8
0
 62
7
100
AcDbPolyline
 90
2
 70
1
 10
277.790451
 20
-314.234549
 30
0.0
 10
277.174919
 20
-314.632924
 30
0.0
  0
LWPOLYLINE
  5
152
100
AcDbEntity
  8
0
 62
7
100
AcDbPolyline
 90
2
 70
1
 10
277.174919
 20
-314.632924
 30
0.0
 10
276.394137
 20
-315.199871
 30
0.0
  0
LWPOLYLINE
  5
153
100
AcDbEntity
  8
0
 62
7
100
AcDbPolyline
 90
2
 70
1
 10
276.394137
 20
-315.199871
 30
0.0
 10
275.889528
 20
-315.604105
 30
0.0
  0
LWPOLYLINE
  5
154
100
AcDbEntity
  8
0
 62
7
100
AcDbPolyline
 90
2
 70
1
 10
275.889528
 20
-315.604105
 30
0.0
 10
275.425730
 20
-316.054013
 30
0.0
  0
LWPOLYLINE
  5
155
100
AcDbEntity
  8
0
 62
7
100
AcDbPolyline
 90
2
 70
1
 10
275.425730
 20
-316.054013
 30
0.0
 10
274.709997
 20
-316.817451
 30
0.0
  0
LWPOLYLINE
  5
156
100
AcDbEntity
  8
0
 62
7
100
AcDbPolyline
 90
2
 70
1
 10
274.709997
 20
-316.817451
 30
0.0
 10
274.133679
 20
-317.521082
 30
0.0
  0
LWPOLYLINE
  5
157
100
AcDbEntity
  8
0
 62
7
100
AcDbPolyline
 90
2
 70
1
 10
274.133679
 20
-317.521082
 30
0.0
 10
273.441673
 20
-318.491837
 30
0.0
  0
LWPOLYLINE
  5
158
100
AcDbEntity
  8
0
 62
7
100
AcDbPolyline
 90
2
 70
1
 10
273.441673
 20
-318.491837
 30
0.0
 10
273.152804
 20
-318.932270
 30
0.0
  0
LWPOLYLINE
  5
159
100
AcDbEntity
  8
0
 62
7
100
AcDbPolyline
 90
2
 70
1
 10
273.152804
 20
-318.932270
 30
0.0
 10
272.441894
 20
-320.113771
 30
0.0
  0
LWPOLYLINE
  5
15a
100
AcDbEntity
  8
0
 62
7
100
AcDbPolyline
 90
2
 70
1
 10
272.441894
 20
-320.113771
 30
0.0
 10
272.326791
 20
-320.312616
 30
0.0
  0
LWPOLYLINE
  5
15b
100
AcDbEntity
  8
0
 62
7
100
AcDbPolyline
 90
2
 70
1
 10
272.326791
 20
-320.312616
 30
0.0
 10
271.554351
 20
-321.700779
 30
0.0
  0
LWPOLYLINE
  5
15c
100
AcDbEntity
  8
0
 62
7
100
AcDbPolyline
 90
2
 70
1
 10
271.554351
 20
-321.700779
 30
0.0
 10
271.545185
 20
-321.717305
 30
0.0
  0
LWPOLYLINE
  5
15d
100
AcDbEntity
  8
0
 62
7
100
AcDbPolyline
 90
2
 70
1
 10
271.545185
 20
-321.717305
 30
0.0
 10
270.700905
 20
-323.244578
 30
0.0
  0
LWPOLYLINE
  5
15e
100
AcDbEntity
  8
0
 62
7
100
AcDbPolyline
 90
2
 70
1
 10
270.700905
 20
-323.244578
 30
0.0
 10
269.774081
 20
-324.848790
 30
0.0
  0
LWPOLYLINE
  5
15f
100
AcDbEntity
  8
0
 62
7
100
AcDbPolyline
 90
2
 70
1
 10
269.774081
 20
-324.848790
 30
0.0
 10
268.723150
 20
-326.532327
 30
0.0
  0
LWPOLYLINE
  5
160
100
AcDbEntity
  8
0
 62
7
100
AcDbPolyline
 90
2
 70
1
 10
268.723150
 20
-326.532327
 30
0.0
 10
267.512362
 20
-328.290286
 30
0.0
  0
LWPOLYLINE
  5
161
100
AcDbEntity
  8
0
 62
7
100
AcDbPolyline
 90
2
 70
1
 10
267.512362
 20
-328.290286
 30
0.0
 10
266.114130
 20
-330.106148
 30
0.0
  0
LWPOLYLINE
  5
162
100
AcDbEntity
  8
0
 62
7
100
AcDbPolyline
 90
2
 70
1
 10
266.114130
 20
-330.106148
 30
0.0
 10
264.508306
 20
-331.955025
 30
0.0
  0
LWPOLYLINE
  5
163
100
AcDbEntity
  8
0
 62
7
100
AcDbPolyline
 90
2
 70
1
 10
264.508306
 20
-331.955025
 30
0.0
 10
262.682059
 20
-333.806292
 30
0.0
  0
LWPOLYLINE
  5
164
100
AcDbEntity
  8
0
 62
7
100
AcDbPolyline
 90
2
 70
1
 10
262.682059
 20
-333.806292
 30
0.0
 10
260.629893
 20
-335.625762
 30
0.0
  0
LWPOLYLINE
  5
165
100
AcDbEntity
  8
0
 62
7
100
AcDbPolyline
 90
2
 70
1
 10
260.629893
 20
-335.625762
 30
0.0
 10
258.353628
 20
-337.377589
 30
0.0
  0
LWPOLYLINE
  5
166
100
AcDbEntity
  8
0
 62
7
100
AcDbPolyline
 90
2
 70
1
 10
258.353628
 20
-337.377589
 30
0.0
 10
255.862231
 20
-339.025942
 30
0.0
  0
LWPOLYLINE
  5
167
100
AcDbEntity
  8
0
 62
7
100
AcDbPolyline
 90
2
 70
1
 10
255.862231
 20
-339.025942
 30
0.0
 10
253.171473
 20
-340.536519
 30
0.0
  0
LWPOLYLINE
  5
168
100
AcDbEntity
  8
0
 62
7
100
AcDbPolyline
 90
2
 70
1
 10
253.171473
 20
-340.536519
 30
0.0
 10
250.303381
 20
-341.877885
 30
0.0
  0
LWPOLYLINE
  5
169
100
AcDbEntity
  8
0
 62
7
100
AcDbPolyline
 90
2
 70
1
 10
250.303381
 20
-341.877885
 30
0.0
 10
247.285513
 20
-343.022648
 30
0.0
  0
LWPOLYLINE
  5
16a
100
AcDbEntity
  8
0
 62
7
100
AcDbPolyline
 90
2
 70
1
 10
247.285513
 20
-343.022648
 30
0.0
 10
244.150058
 20
-343.948446
 30
0.0
  0
LWPOLYLINE
  5
16b
100
AcDbEntity
  8
0
 62
7
100
AcDbPolyline
 90
2
 70
1
 10
244.150058
 20
-343.948446
 30
0.0
 10
240.932796
 20
-344.638732
 30
0.0
  0
LWPOLYLINE
  5
16c
100
AcDbEntity
  8
0
 62
7
100
AcDbPolyline
 90
2
 70
1
 10
240.932796
 20
-344.638732
 30
0.0
 10
237.671933
 20
-345.083345
 30
0.0
  0
LWPOLYLINE
  5
16d
100
AcDbEntity
  8
0
 62
7
100
AcDbPolyline
 90
2
 70
1
 10
237.671933
 20
-345.083345
 30
0.0
 10
234.406872
 20
-345.278850
 30
0.0
  0
LWPOLYLINE
  5
16e
100
AcDbEntity
  8
0
 62
7
100
AcDbPolyline
 90
2
 70
1
 10
234.406872
 20
-345.278850
 30
0.0
 10
231.176929
 20
-345.228637
 30
0.0
  0
LWPOLYLINE
  5
16f
100
AcDbEntity
  8
0
 62
7
100
AcDbPolyline
 90
2
 70
1
 10
231.176929
 20
-345.228637
 30
0.0
 10
228.020050
 20
-344.942781
 30
0.0
  0
LWPOLYLINE
  5
170
100
AcDbEntity
  8
0
 62
7
100
AcDbPolyline
 90
2
 70
1
 10
228.020050
 20
-344.942781
 30
0.0
 10
224.971562
 20
-344.437660
 30
0.0
  0
LWPOLYLINE
  5
171
100
AcDbEntity
  8
0
 62
7
100
AcDbPolyline
 90
2
 70
1
 10
224.971562
 20
-344.437660
 30
0.0
 10
222.062985
 20
-343.735324
 30
0.0
  0
LWPOLYLINE
  5
172
100
AcDbEntity
  8
0
 62
7
100
AcDbPolyline
 90
2
 70
1
 10
222.062985
 20
-343.735324
 30
0.0
 10
219.320944
 20
-342.862652
 30
0.0
  0
LWPOLYLINE
  5
173
100
AcDbEntity
  8
0
 62
7
100
AcDbPolyline
 90
2
 70
1
 10
219.320944
 20
-342.862652
 30
0.0
 10
216.766202
 20
-341.850263
 30
0.0
  0
LWPOLYLINE
  5
174
100
AcDbEntity
  8
0
 62
7
100
AcDbPolyline
 90
2
 70
1
 10
216.766202
 20
-341.850263
 30
0.0
 10
214.412809
 20
-340.731225
 30
0.0
  0
LWPOLYLINE
  5
175
100
AcDbEntity
  8
0
 62
7
100
AcDbPolyline
 90
2
 70
1
 10
214.412809
 20
-340.731225
 30
0.0
 10
212.267369
 20
-339.539529
 30
0.0
  0
LWPOLYLINE
  5
176
100
AcDbEntity
  8
0
 62
7
100
AcDbPolyline
 90
2
 70
1
 10
212.267369
 20
-339.539529
 30
0.0
 10
210.328367
 20
-338.308316
 30
0.0
  0
LWPOLYLINE
  5
177
100
AcDbEntity
  8
0
 62
7
100
AcDbPolyline
 90
2
 70
1
 10
210.328367
 20
-338.308316
 30
0.0
 10
208.585437
 20
-337.067816
 30
0.0
  0
LWPOLYLINE
  5
178
100
AcDbEntity
  8
0
 62
7
100
AcDbPolyline
 90
2
 70
1
 10
208.585437
 20
-337.067816
 30
0.0
 10
207.018342
 20
-335.842929
 30
0.0
  0
LWPOLYLINE
  5
179
100
AcDbEntity
  8
0
 62
7
100
AcDbPolyline
 90
2
 70
1
 10
207.018342
 20
-335.842929
 30
0.0
 10
205.595177
 20
-334.650411
 30
0.0
  0
LWPOLYLINE
  5
17a
100
AcDbEntity
  8
0
 62
7
100
AcDbPolyline
 90
2
 70
1
 10
205.595177
 20
-334.650411
 30
0.0
 10
204.276062
 20
-333.502141
 30
0.0
  0
LWPOLYLINE
  5
17b
100
AcDbEntity
  8
0
 62
7
100
AcDbPolyline
 90
2
 70
1
 10
204.276062
 20
-333.502141
 30
0.0
 10
204.261760
 20
-333.489726
 30
0.0
  0
LWPOLYLINE
  5
17c
100
AcDbEntity
  8
0
 62
7
100
AcDbPolyline
 90
2
 70
1
 10
204.261760
 20
-333.489726
 30
0.0
 10
203.058041
 20
-332.447766
 30
0.0
  0
LWPOLYLINE
  5
17d
100
AcDbEntity
  8
0
 62
7
100
AcDbPolyline
 90
2
 70
1
 10
203.058041
 20
-332.447766
 30
0.0
 10
202.881430
 20
-332.300026
 30
0.0
  0
LWPOLYLINE
  5
17e
100
AcDbEntity
  8
0
 62
7
100
AcDbPolyline
 90
2
 70
1
 10
202.881430
 20
-332.300026
 30
0.0
 10
201.806671
 20
-331.431355
 30
0.0
  0
LWPOLYLINE
  5
17f
100
AcDbEntity
  8
0
 62
7
100
AcDbPolyline
 90
2
 70
1
 10
201.806671
 20
-331.431355
 30
0.0
 10
201.383609
 20
-331.115645
 30
0.0
  0
LWPOLYLINE
  5
180
100
AcDbEntity
  8
0
 62
7
100
AcDbPolyline
 90
2
 70
1
 10
201.383609
 20
-331.115645
 30
0.0
 10
200.399162
 20
-330.438587
 30
0.0
  0
LWPOLYLINE
  5
181
100
AcDbEntity
  8
0
 62
7
100
AcDbPolyline
 90
2
 70
1
 10
200.399162
 20
-330.438587
 30
0.0
 10
199.615381
 20
-329.973231
 30
0.0
  0
LWPOLYLINE
  5
182
100
AcDbEntity
  8
0
 62
7
100
AcDbPolyline
 90
2
 70
1
 10
199.615381
 20
-329.973231
 30
0.0
 10
198.680006
 20
-329.499049
 30
0.0
  0
LWPOLYLINE
  5
183
100
AcDbEntity
  8
0
 62
7
100
AcDbPolyline
 90
2
 70
1
 10
198.680006
 20
-329.499049
 30
0.0
 10
198.089301
 20
-329.233879
 30
0.0
  0
LWPOLYLINE
  5
184
100
AcDbEntity
  8
0
 62
7
100
AcDbPolyline
 90
2
 70
1
 10
198.089301
 20
-329.233879
 30
0.0
 10
197.475970
 20
-329.025496
 30
0.0
  0
LWPOLYLINE
  5
185
100
AcDbEntity
  8
0
 62
7
100
AcDbPolyline
 90
2
 70
1
 10
197.475970
 20
-329.025496
 30
0.0
 10
196.547109
 20
-328.758061
 30
0.0
  0
LWPOLYLINE
  5
186
100
AcDbEntity
  8
0
 62
7
100
AcDbPolyline
 90
2
 70
1
 10
196.547109
 20
-328.758061
 30
0.0
 10
195.831560
 20
-328.592877
 30
0.0
  0
LWPOLYLINE
  5
187
100
AcDbEntity
  8
0
 62
7
100
AcDbPolyline
 90
2
 70
1
 10
195.831560
 20
-328.592877
 30
0.0
 10
195.102302
 20
-328.504946
 30
0.0
  0
LWPOLYLINE
  5
188
100
AcDbEntity
  8
0
 62
7
100
AcDbPolyline
 90
2
 70
1
 10
195.102302
 20
-328.504946
 30
0.0
 10
194.137395
 20
-328.440613
 30
0.0
  0
LWPOLYLINE
  5
189
100
AcDbEntity
  8
0
 62
7
100
AcDbPolyline
 90
2
 70
1
 10
194.137395
 20
-328.440613
 30
0.0
 10
193.489319
 20
-328.428011
 30
0.0
  0
LWPOLYLINE
  5
18a
100
AcDbEntity
  8
0
 62
7
100
AcDbPolyline
 90
2
 70
1
 10
193.489319
 20
-328.428011
 30
0.0
 10
192.842956
 20
-328.476460
 30
0.0
  0
LWPOLYLINE
  5
18b
100
AcDbEntity
  8
0
 62
7
100
AcDbPolyline
 90
2
 70
1
 10
192.842956
 20
-328.476460
 30
0.0
 10
191.800757
 20
-328.604192
 30
0.0
  0
LWPOLYLINE
  5
18c
100
AcDbEntity
  8
0
 62
7
100
AcDbPolyline
 90
2
 70
1
 10
191.800757
 20
-328.604192
 30
0.0
 10
190.904050
 20
-328.775144
 30
0.0
  0
LWPOLYLINE
  5
18d
100
AcDbEntity
  8
0
 62
7
100
AcDbPolyline
 90
2
 70
1
 10
190.904050
 20
-328.775144
 30
0.0
 10
189.745901
 20
-329.076842
 30
0.0
  0
LWPOLYLINE
  5
18e
100
AcDbEntity
  8
0
 62
7
100
AcDbPolyline
 90
2
 70
1
 10
189.745901
 20
-329.076842
 30
0.0
 10
189.239672
 20
-329.229750
 30
0.0
  0
LWPOLYLINE
  5
18f
100
AcDbEntity
  8
0
 62
7
100
AcDbPolyline
 90
2
 70
1
 10
189.239672
 20
-329.229750
 30
0.0
 10
187.930698
 20
-329.680816
 30
0.0
  0
LWPOLYLINE
  5
190
100
AcDbEntity
  8
0
 62
7
100
AcDbPolyline
 90
2
 70
1
 10
187.930698
 20
-329.680816
 30
0.0
 10
187.713879
 20
-329.759631
 30
0.0
  0
LWPOLYLINE
  5
191
100
AcDbEntity
  8
0
 62
7
100
AcDbPolyline
 90
2
 70
1
 10
187.713879
 20
-329.759631
 30
0.0
 10
186.224067
 20
-330.329714
 30
0.0
  0
LWPOLYLINE
  5
192
100
AcDbEntity
  8
0
 62
7
100
AcDbPolyline
 90
2
 70
1
 10
186.224067
 20
-330.329714
 30
0.0
 10
186.206354
 20
-330.336520
 30
0.0
  0
LWPOLYLINE
  5
193
100
AcDbEntity
  8
0
 62
7
100
AcDbPolyline
 90
2
 70
1
 10
186.206354
 20
-330.336520
 30
0.0
 10
184.571511
 20
-330.967288
 30
0.0
  0
LWPOLYLINE
  5
194
100
AcDbEntity
  8
0
 62
7
100
AcDbPolyline
 90
2
 70
1
 10
184.571511
 20
-330.967288
 30
0.0
 10
182.823659
 20
-331.604278
 30
0.0
  0
LWPOLYLINE
  5
195
100
AcDbEntity
  8
0
 62
7
100
AcDbPolyline
 90
2
 70
1
 10
182.823659
 20
-331.604278
 30
0.0
 10
180.929415
 20
-332.222775
 30
0.0
  0
LWPOLYLINE
  5
196
100
AcDbEntity
  8
0
 62
7
100
AcDbPolyline
 90
2
 70
1
 10
180.929415
 20
-332.222775
 30
0.0
 10
178.864566
 20
-332.796192
 30
0.0
  0
LWPOLYLINE
  5
197
100
AcDbEntity
  8
0
 62
7
100
AcDbPolyline
 90
2
 70
1
 10
178.864566
 20
-332.796192
 30
0.0
 10
176.618665
 20
-333.294254
 30
0.0
  0
LWPOLYLINE
  5
198
100
AcDbEntity
  8
0
 62
7
100
AcDbPolyline
 90
2
 70
1
 10
176.618665
 20
-333.294254
 30
0.0
 10
174.192380
 20
-333.685032
 30
0.0
  0
LWPOLYLINE
  5
199
100
AcDbEntity
  8
0
 62
7
100
AcDbPolyline
 90
2
 70
1
 10
174.192380
 20
-333.685032
 30
0.0
 10
171.595696
 20
-333.936869
 30
0.0
  0
LWPOLYLINE
  5
19a
100
AcDbEntity
  8
0
 62
7
100
AcDbPolyline
 90
2
 70
1
 10
171.595696
 20
-333.936869
 30
0.0
 10
168.846518
 20
-334.020068
 30
0.0
  0
LWPOLYLINE
  5
19b
100
AcDbEntity
  8
0
 62
7
100
AcDbPolyline
 90
2
 70
1
 10
168.846518
 20
-334.020068
 30
0.0
 10
165.969433
 20
-333.908330
 30
0.0
  0
LWPOLYLINE
  5
19c
100
AcDbEntity
  8
0
 62
7
100
AcDbPolyline
 90
2
 70
1
 10
165.969433
 20
-333.908330
 30
0.0
 10
162.994491
 20
-333.579935
 30
0.0
  0
LWPOLYLINE
  5
19d
100
AcDbEntity
  8
0
 62
7
100
AcDbPolyline
 90
2
 70
1
 10
162.994491
 20
-333.579935
 30
0.0
 10
159.955966
 20
-333.018676
 30
0.0
  0
LWPOLYLINE
  5
19e
100
AcDbEntity
  8
0
 62
7
100
AcDbPolyline
 90
2
 70
1
 10
159.955966
 20
-333.018676
 30
0.0
 10
156.891067
 20
-332.214542
 30
0.0
  0
LWPOLYLINE
  5
19f
100
AcDbEntity
  8
0
 62
7
100
AcDbPolyline
 90
2
 70
1
 10
156.891067
 20
-332.214542
 30
0.0
 10
153.838628
 20
-331.164148
 30
0.0
  0
LWPOLYLINE
  5
1a0
100
AcDbEntity
  8
0
 62
7
100
AcDbPolyline
 90
2
 70
1
 10
153.838628
 20
-331.164148
 30
0.0
 10
150.837775
 20
-329.870922
 30
0.0
  0
LWPOLYLINE
  5
1a1
100
AcDbEntity
  8
0
 62
7
100
AcDbPolyline
 90
2
 70
1
 10
150.837775
 20
-329.870922
 30
0.0
 10
147.926621
 20
-328.345037
 30
0.0
  0
LWPOLYLINE
  5
1a2
100
AcDbEntity
  8
0
 62
7
100
AcDbPolyline
 90
2
 70
1
 10
147.926621
 20
-328.345037
 30
0.0
 10
145.141007
 20
-326.603111
 30
0.0
  0
LWPOLYLINE
  5
1a3
100
AcDbEntity
  8
0
 62
7
100
AcDbPolyline
 90
2
 70
1
 10
145.141007
 20
-326.603111
 30
0.0
 10
142.513341
 20
-324.667676
 30
0.0
  0
LWPOLYLINE
  5
1a4
100
AcDbEntity
  8
0
 62
7
100
AcDbPolyline
 90
2
 70
1
 10
142.513341
 20
-324.667676
 30
0.0
 10
140.071548
 20
-322.566438
 30
0.0
  0
LWPOLYLINE
  5
1a5
100
AcDbEntity
  8
0
 62
7
100
AcDbPolyline
 90
2
 70
1
 10
140.071548
 20
-322.566438
 30
0.0
 10
137.838176
 20
-320.331349
 30
0.0
  0
LWPOLYLINE
  5
1a6
100
AcDbEntity
  8
0
 62
7
100
AcDbPolyline
 90
2
 70
1
 10
137.838176
 20
-320.331349
 30
0.0
 10
135.829693
 20
-317.997515
 30
0.0
  0
LWPOLYLINE
  5
1a7
100
AcDbEntity
  8
0
 62
7
100
AcDbPolyline
 90
2
 70
1
 10
135.829693
 20
-317.997515
 30
0.0
 10
134.055977
 20
-315.601960
 30
0.0
  0
LWPOLYLINE
  5
1a8
100
AcDbEntity
  8
0
 62
7
100
AcDbPolyline
 90
2
 70
1
 10
134.055977
 20
-315.601960
 30
0.0
 10
132.520038
 20
-313.182275
 30
0.0
  0
LWPOLYLINE
  5
1a9
100
AcDbEntity
  8
0
 62
7
100
AcDbPolyline
 90
2
 70
1
 10
132.520038
 20
-313.182275
 30
0.0
 10
131.217969
 20
-310.775178
 30
0.0
  0
LWPOLYLINE
  5
1aa
100
AcDbEntity
  8
0
 62
7
100
AcDbPolyline
 90
2
 70
1
 10
131.217969
 20
-310.775178
 30
0.0
 10
130.139140
 20
-308.414973
 30
0.0
  0
LWPOLYLINE
  5
1ab
100
AcDbEntity
  8
0
 62
7
100
AcDbPolyline
 90
2
 70
1
 10
130.139140
 20
-308.414973
 30
0.0
 10
129.266619
 20
-306.131916
 30
0.0
  0
LWPOLYLINE
  5
1ac
100
AcDbEntity
  8
0
 62
7
100
AcDbPolyline
 90
2
 70
1
 10
129.266619
 20
-306.131916
 30
0.0
 10
128.577804
 20
-303.950426
 30
0.0
  0
LWPOLYLINE
  5
1ad
100
AcDbEntity
  8
0
 62
7
100
AcDbPolyline
 90
2
 70
1
 10
128.577804
 20
-303.950426
 30
0.0
 10
128.045198
 20
-301.887043
 30
0.0
  0
LWPOLYLINE
  5
1ae
100
AcDbEntity
  8
0
 62
7
100
AcDbPolyline
 90
2
 70
1
 10
128.045198
 20
-301.887043
 30
0.0
 10
127.637188
 20
-299.947915
 30
0.0
  0
LWPOLYLINE
  5
1af
100
AcDbEntity
  8
0
 62
7
100
AcDbPolyline
 90
2
 70
1
 10
127.637188
 20
-299.947915
 30
0.0
 10
127.318494
 20
-298.125502
 30
0.0
  0
LWPOLYLINE
  5
1b0
100
AcDbEntity
  8
0
 62
7
100
AcDbPolyline
 90
2
 70
1
 10
127.318494
 20
-298.125502
 30
0.0
 10
127.050880
 20
-296.403436
 30
0.0
  0
LWPOLYLINE
  5
1b1
100
AcDbEntity
  8
0
 62
7
100
AcDbPolyline
 90
2
 70
1
 10
127.050880
 20
-296.403436
 30
0.0
 10
127.047956
 20
-296.384792
 30
0.0
  0
LWPOLYLINE
  5
1b2
100
AcDbEntity
  8
0
 62
7
100
AcDbPolyline
 90
2
 70
1
 10
127.047956
 20
-296.384792
 30
0.0
 10
126.799962
 20
-294.817860
 30
0.0
  0
LWPOLYLINE
  5
1b3
100
AcDbEntity
  8
0
 62
7
100
AcDbPolyline
 90
2
 70
1
 10
126.799962
 20
-294.817860
 30
0.0
 10
126.760252
 20
-294.591893
 30
0.0
  0
LWPOLYLINE
  5
1b4
100
AcDbEntity
  8
0
 62
7
100
AcDbPolyline
 90
2
 70
1
 10
126.760252
 20
-294.591893
 30
0.0
 10
126.498936
 20
-293.240068
 30
0.0
  0
LWPOLYLINE
  5
1b5
100
AcDbEntity
  8
0
 62
7
100
AcDbPolyline
 90
2
 70
1
 10
126.498936
 20
-293.240068
 30
0.0
 10
126.379103
 20
-292.728036
 30
0.0
  0
LWPOLYLINE
  5
1b6
100
AcDbEntity
  8
0
 62
7
100
AcDbPolyline
 90
2
 70
1
 10
126.379103
 20
-292.728036
 30
0.0
 10
126.063004
 20
-291.580671
 30
0.0
  0
LWPOLYLINE
  5
1b7
100
AcDbEntity
  8
0
 62
7
100
AcDbPolyline
 90
2
 70
1
 10
126.063004
 20
-291.580671
 30
0.0
 10
125.763661
 20
-290.723634
 30
0.0
  0
LWPOLYLINE
  5
1b8
100
AcDbEntity
  8
0
 62
7
100
AcDbPolyline
 90
2
 70
1
 10
125.763661
 20
-290.723634
 30
0.0
 10
125.353899
 20
-289.763021
 30
0.0
  0
LWPOLYLINE
  5
1b9
100
AcDbEntity
  8
0
 62
7
100
AcDbPolyline
 90
2
 70
1
 10
125.353899
 20
-289.763021
 30
0.0
 10
125.072947
 20
-289.182640
 30
0.0
  0
LWPOLYLINE
  5
1ba
100
AcDbEntity
  8
0
 62
7
100
AcDbPolyline
 90
2
 70
1
 10
125.072947
 20
-289.182640
 30
0.0
 10
124.737924
 20
-288.631312
 30
0.0
  0
LWPOLYLINE
  5
1bb
100
AcDbEntity
  8
0
 62
7
100
AcDbPolyline
 90
2
 70
1
 10
124.737924
 20
-288.631312
 30
0.0
 10
124.199396
 20
-287.833236
 30
0.0
  0
LWPOLYLINE
  5
1bc
100
AcDbEntity
  8
0
 62
7
100
AcDbPolyline
 90
2
 70
1
 10
124.199396
 20
-287.833236
 30
0.0
 10
123.758121
 20
-287.249720
 30
0.0
  0
LWPOLYLINE
  5
1bd
100
AcDbEntity
  8
0
 62
7
100
AcDbPolyline
 90
2
 70
1
 10
123.758121
 20
-287.249720
 30
0.0
 10
123.256365
 20
-286.716627
 30
0.0
  0
LWPOLYLINE
  5
1be
100
AcDbEntity
  8
0
 62
7
100
AcDbPolyline
 90
2
 70
1
 10
123.256365
 20
-286.716627
 30
0.0
 10
122.558824
 20
-286.051116
 30
0.0
  0
LWPOLYLINE
  5
1bf
100
AcDbEntity
  8
0
 62
7
100
AcDbPolyline
 90
2
 70
1
 10
122.558824
 20
-286.051116
 30
0.0
 10
122.070523
 20
-285.627575
 30
0.0
  0
LWPOLYLINE
  5
1c0
100
AcDbEntity
  8
0
 62
7
100
AcDbPolyline
 90
2
 70
1
 10
122.070523
 20
-285.627575
 30
0.0
 10
121.544035
 20
-285.251895
 30
0.0
  0
LWPOLYLINE
  5
1c1
100
AcDbEntity
  8
0
 62
7
100
AcDbPolyline
 90
2
 70
1
 10
121.544035
 20
-285.251895
 30
0.0
 10
120.663027
 20
-284.684153
 30
0.0
  0
LWPOLYLINE
  5
1c2
100
AcDbEntity
  8
0
 62
7
100
AcDbPolyline
 90
2
 70
1
 10
120.663027
 20
-284.684153
 30
0.0
 10
119.865510
 20
-284.242436
 30
0.0
  0
LWPOLYLINE
  5
1c3
100
AcDbEntity
  8
0
 62
7
100
AcDbPolyline
 90
2
 70
1
 10
119.865510
 20
-284.242436
 30
0.0
 10
118.783129
 20
-283.733909
 30
0.0
  0
LWPOLYLINE
  5
1c4
100
AcDbEntity
  8
0
 62
7
100
AcDbPolyline
 90
2
 70
1
 10
118.783129
 20
-283.733909
 30
0.0
 10
118.296410
 20
-283.527745
 30
0.0
  0
LWPOLYLINE
  5
1c5
100
AcDbEntity
  8
0
 62
7
100
AcDbPolyline
 90
2
 70
1
 10
118.296410
 20
-283.527745
 30
0.0
 10
117.001855
 20
-283.037318
 30
0.0
  0
LWPOLYLINE
  5
1c6
100
AcDbEntity
  8
0
 62
7
100
AcDbPolyline
 90
2
 70
1
 10
117.001855
 20
-283.037318
 30
0.0
 10
116.784771
 20
-282.959224
 30
0.0
  0
LWPOLYLINE
  5
1c7
100
AcDbEntity
  8
0
 62
7
100
AcDbPolyline
 90
2
 70
1
 10
116.784771
 20
-282.959224
 30
0.0
 10
115.274688
 20
-282.444479
 30
0.0
  0
LWPOLYLINE
  5
1c8
100
AcDbEntity
  8
0
 62
7
100
AcDbPolyline
 90
2
 70
1
 10
115.274688
 20
-282.444479
 30
0.0
 10
115.256716
 20
-282.438380
 30
0.0
  0
LWPOLYLINE
  5
1c9
100
AcDbEntity
  8
0
 62
7
100
AcDbPolyline
 90
2
 70
1
 10
115.256716
 20
-282.438380
 30
0.0
 10
113.596270
 20
-281.877499
 30
0.0
  0
LWPOLYLINE
  5
1ca
100
AcDbEntity
  8
0
 62
7
100
AcDbPolyline
 90
2
 70
1
 10
113.596270
 20
-281.877499
 30
0.0
 10
111.845230
 20
-281.249212
 30
0.0
  0
LWPOLYLINE
  5
1cb
100
AcDbEntity
  8
0
 62
7
100
AcDbPolyline
 90
2
 70
1
 10
111.845230
 20
-281.249212
 30
0.0
 10
109.994012
 20
-280.513268
 30
0.0
  0
LWPOLYLINE
  5
1cc
100
AcDbEntity
  8
0
 62
7
100
AcDbPolyline
 90
2
 70
1
 10
109.994012
 20
-280.513268
 30
0.0
 10
108.041267
 20
-279.633834
 30
0.0
  0
LWPOLYLINE
  5
1cd
100
AcDbEntity
  8
0
 62
7
100
AcDbPolyline
 90
2
 70
1
 10
108.041267
 20
-279.633834
 30
0.0
 10
105.998580
 20
-278.581049
 30
0.0
  0
LWPOLYLINE
  5
1ce
100
AcDbEntity
  8
0
 62
7
100
AcDbPolyline
 90
2
 70
1
 10
105.998580
 20
-278.581049
 30
0.0
 10
103.887119
 20
-277.330878
 30
0.0
  0
LWPOLYLINE
  5
1cf
100
AcDbEntity
  8
0
 62
7
100
AcDbPolyline
 90
2
 70
1
 10
103.887119
 20
-277.330878
 30
0.0
 10
101.735015
 20
-275.865448
 30
0.0
  0
LWPOLYLINE
  5
1d0
100
AcDbEntity
  8
0
 62
7
100
AcDbPolyline
 90
2
 70
1
 10
101.735015
 20
-275.865448
 30
0.0
 10
99.575196
 20
-274.173445
 30
0.0
  0
LWPOLYLINE
  5
1d1
100
AcDbEntity
  8
0
 62
7
100
AcDbPolyline
 90
2
 70
1
 10
99.575196
 20
-274.173445
 30
0.0
 10
97.443511
 20
-272.250426
 30
0.0
  0
LWPOLYLINE
  5
1d2
100
AcDbEntity
  8
0
 62
7
100
AcDbPolyline
 90
2
 70
1
 10
97.443511
 20
-272.250426
 30
0.0
 10
95.377033
 20
-270.098942
 30
0.0
  0
LWPOLYLINE
  5
1d3
100
AcDbEntity
  8
0
 62
7
100
AcDbPolyline
 90
2
 70
1
 10
95.377033
 20
-270.098942
 30
0.0
 10
93.412500
 20
-267.728468
 30
0.0
  0
LWPOLYLINE
  5
1d4
100
AcDbEntity
  8
0
 62
7
100
AcDbPolyline
 90
2
 70
1
 10
93.412500
 20
-267.728468
 30
0.0
 10
91.584895
 20
-265.155097
 30
0.0
  0
LWPOLYLINE
  5
1d5
100
AcDbEntity
  8
0
 62
7
100
AcDbPolyline
 90
2
 70
1
 10
91.584895
 20
-265.155097
 30
0.0
 10
89.926156
 20
-262.401037
 30
0.0
  0
LWPOLYLINE
  5
1d6
100
AcDbEntity
  8
0
 62
7
100
AcDbPolyline
 90
2
 70
1
 10
89.926156
 20
-262.401037
 30
0.0
 10
88.464036
 20
-259.493902
 30
0.0
  0
LWPOLYLINE
  5
1d7
100
AcDbEntity
  8
0
 62
7
100
AcDbPolyline
 90
2
 70
1
 10
88.464036
 20
-259.493902
 30
0.0
 10
87.221151
 20
-256.465824
 30
0.0
  0
LWPOLYLINE
  5
1d8
100
AcDbEntity
  8
0
 62
7
100
AcDbPolyline
 90
2
 70
1
 10
87.221151
 20
-256.465824
 30
0.0
 10
86.214207
 20
-253.352426
 30
0.0
  0
LWPOLYLINE
  5
1d9
100
AcDbEntity
  8
0
 62
7
100
AcDbPolyline
 90
2
 70
1
 10
86.214207
 20
-253.352426
 30
0.0
 10
85.453450
 20
-250.191662
 30
0.0
  0
LWPOLYLINE
  5
1da
100
AcDbEntity
  8
0
 62
7
100
AcDbPolyline
 90
2
 70
1
 10
85.453450
 20
-250.191662
 30
0.0
 10
84.942348
 20
-247.022592
 30
0.0
  0
LWPOLYLINE
  5
1db
100
AcDbEntity
  8
0
 62
7
100
AcDbPolyline
 90
2
 70
1
 10
84.942348
 20
-247.022592
 30
0.0
 10
84.677502
 20
-243.884093
 30
0.0
  0
LWPOLYLINE
  5
1dc
100
AcDbEntity
  8
0
 62
7
100
AcDbPolyline
 90
2
 70
1
 10
84.677502
 20
-243.884093
 30
0.0
 10
84.648816
 20
-240.813573
 30
0.0
  0
LWPOLYLINE
  5
1dd
100
AcDbEntity
  8
0
 62
7
100
AcDbPolyline
 90
2
 70
1
 10
84.648816
 20
-240.813573
 30
0.0
 10
84.839903
 20
-237.845704
 30
0.0
  0
LWPOLYLINE
  5
1de
100
AcDbEntity
  8
0
 62
7
100
AcDbPolyline
 90
2
 70
1
 10
84.839903
 20
-237.845704
 30
0.0
 10
85.228748
 20
-235.011205
 30
0.0
  0
LWPOLYLINE
  5
1df
100
AcDbEntity
  8
0
 62
7
100
AcDbPolyline
 90
2
 70
1
 10
85.228748
 20
-235.011205
 30
0.0
 10
85.788605
 20
-232.335708
 30
0.0
  0
LWPOLYLINE
  5
1e0
100
AcDbEntity
  8
0
 62
7
100
AcDbPolyline
 90
2
 70
1
 10
85.788605
 20
-232.335708
 30
0.0
 10
86.489136
 20
-229.838702
 30
0.0
  0
LWPOLYLINE
  5
1e1
100
AcDbEntity
  8
0
 62
7
100
AcDbPolyline
 90
2
 70
1
 10
86.489136
 20
-229.838702
 30
0.0
 10
87.297796
 20
-227.532552
 30
0.0
  0
LWPOLYLINE
  5
1e2
100
AcDbEntity
  8
0
 62
7
100
AcDbPolyline
 90
2
 70
1
 10
87.297796
 20
-227.532552
 30
0.0
 10
88.181473
 20
-225.421528
 30
0.0
  0
LWPOLYLINE
  5
1e3
100
AcDbEntity
  8
0
 62
7
100
AcDbPolyline
 90
2
 70
1
 10
88.181473
 20
-225.421528
 30
0.0
 10
89.108403
 20
-223.500741
 30
0.0
  0
LWPOLYLINE
  5
1e4
100
AcDbEntity
  8
0
 62
7
100
AcDbPolyline
 90
2
 70
1
 10
89.108403
 20
-223.500741
 30
0.0
 10
90.050391
 20
-221.754711
 30
0.0
  0
LWPOLYLINE
  5
1e5
100
AcDbEntity
  8
0
 62
7
100
AcDbPolyline
 90
2
 70
1
 10
90.050391
 20
-221.754711
 30
0.0
 10
90.985288
 20
-220.155131
 30
0.0
  0
LWPOLYLINE
  5
1e6
100
AcDbEntity
  8
0
 62
7
100
AcDbPolyline
 90
2
 70
1
 10
90.985288
 20
-220.155131
 30
0.0
 10
91.894394
 20
-218.665043
 30
0.0
  0
LWPOLYLINE
  5
1e7
100
AcDbEntity
  8
0
 62
7
100
AcDbPolyline
 90
2
 70
1
 10
91.894394
 20
-218.665043
 30
0.0
 10
91.904216
 20
-218.648893
 30
0.0
  0
LWPOLYLINE
  5
1e8
100
AcDbEntity
  8
0
 62
7
100
AcDbPolyline
 90
2
 70
1
 10
91.904216
 20
-218.648893
 30
0.0
 10
92.727987
 20
-217.290175
 30
0.0
  0
LWPOLYLINE
  5
1e9
100
AcDbEntity
  8
0
 62
7
100
AcDbPolyline
 90
2
 70
1
 10
92.727987
 20
-217.290175
 30
0.0
 10
92.843759
 20
-217.091714
 30
0.0
  0
LWPOLYLINE
  5
1ea
100
AcDbEntity
  8
0
 62
7
100
AcDbPolyline
 90
2
 70
1
 10
92.843759
 20
-217.091714
 30
0.0
 10
93.518158
 20
-215.889269
 30
0.0
  0
LWPOLYLINE
  5
1eb
100
AcDbEntity
  8
0
 62
7
100
AcDbPolyline
 90
2
 70
1
 10
93.518158
 20
-215.889269
 30
0.0
 10
93.757626
 20
-215.420499
 30
0.0
  0
LWPOLYLINE
  5
1ec
100
AcDbEntity
  8
0
 62
7
100
AcDbPolyline
 90
2
 70
1
 10
93.757626
 20
-215.420499
 30
0.0
 10
94.257781
 20
-214.339693
 30
0.0
  0
LWPOLYLINE
  5
1ed
100
AcDbEntity
  8
0
 62
7
100
AcDbPolyline
 90
2
 70
1
 10
94.257781
 20
-214.339693
 30
0.0
 10
94.582941
 20
-213.491991
 30
0.0
  0
LWPOLYLINE
  5
1ee
100
AcDbEntity
  8
0
 62
7
100
AcDbPolyline
 90
2
 70
1
 10
94.582941
 20
-213.491991
 30
0.0
 10
94.890524
 20
-212.494428
 30
0.0
  0
LWPOLYLINE
  5
1ef
100
AcDbEntity
  8
0
 62
7
100
AcDbPolyline
 90
2
 70
1
 10
94.890524
 20
-212.494428
 30
0.0
 10
95.050787
 20
-211.870404
 30
0.0
  0
LWPOLYLINE
  5
1f0
100
AcDbEntity
  8
0
 62
7
100
AcDbPolyline
 90
2
 70
1
 10
95.050787
 20
-211.870404
 30
0.0
 10
95.150833
 20
-211.234103
 30
0.0
  0
LWPOLYLINE
  5
1f1
100
AcDbEntity
  8
0
 62
7
100
AcDbPolyline
 90
2
 70
1
 10
95.150833
 20
-211.234103
 30
0.0
 10
95.254621
 20
-210.278815
 30
0.0
  0
LWPOLYLINE
  5
1f2
100
AcDbEntity
  8
0
 62
7
100
AcDbPolyline
 90
2
 70
1
 10
95.254621
 20
-210.278815
 30
0.0
 10
95.294097
 20
-209.550000
 30
0.0
  0
LWPOLYLINE
  5
1f3
100
AcDbEntity
  8
0
 62
7
100
AcDbPolyline
 90
2
 70
1
 10
95.294097
 20
-209.550000
 30
0.0
 10
95.254621
 20
-208.821185
 30
0.0
  0
LWPOLYLINE
  5
1f4
100
AcDbEntity
  8
0
 62
7
100
AcDbPolyline
 90
2
 70
1
 10
95.254621
 20
-208.821185
 30
0.0
 10
95.150833
 20
-207.865897
 30
0.0
  0
LWPOLYLINE
  5
1f5
100
AcDbEntity
  8
0
 62
7
100
AcDbPolyline
 90
2
 70
1
 10
95.150833
 20
-207.865897
 30
0.0
 10
95.050787
 20
-207.229596
 30
0.0
  0
LWPOLYLINE
  5
1f6
100
AcDbEntity
  8
0
 62
7
100
AcDbPolyline
 90
2
 70
1
 10
95.050787
 20
-207.229596
 30
0.0
 10
94.890524
 20
-206.605572
 30
0.0
  0
LWPOLYLINE
  5
1f7
100
AcDbEntity
  8
0
 62
7
100
AcDbPolyline
 90
2
 70
1
 10
94.890524
 20
-206.605572
 30
0.0
 10
94.582941
 20
-205.608009
 30
0.0
  0
LWPOLYLINE
  5
1f8
100
AcDbEntity
  8
0
 62
7
100
AcDbPolyline
 90
2
 70
1
 10
94.582941
 20
-205.608009
 30
0.0
 10
94.257781
 20
-204.760307
 30
0.0
  0
LWPOLYLINE
  5
1f9
100
AcDbEntity
  8
0
 62
7
100
AcDbPolyline
 90
2
 70
1
 10
94.257781
 20
-204.760307
 30
0.0
 10
93.757626
 20
-203.679501
 30
0.0
  0
LWPOLYLINE
  5
1fa
100
AcDbEntity
  8
0
 62
7
100
AcDbPolyline
 90
2
 70
1
 10
93.757626
 20
-203.679501
 30
0.0
 10
93.518158
 20
-203.210731
 30
0.0
  0
LWPOLYLINE
  5
1fb
100
AcDbEntity
  8
0
 62
7
100
AcDbPolyline
 90
2
 70
1
 10
93.518158
 20
-203.210731
 30
0.0
 10
92.843759
 20
-202.008286
 30
0.0
  0
LWPOLYLINE
  5
1fc
100
AcDbEntity
  8
0
 62
7
100
AcDbPolyline
 90
2
 70
1
 10
92.843759
 20
-202.008286
 30
0.0
 10
92.727987
 20
-201.809825
 30
0.0
  0
LWPOLYLINE
  5
1fd
100
AcDbEntity
  8
0
 62
7
100
AcDbPolyline
 90
2
 70
1
 10
92.727987
 20
-201.809825
 30
0.0
 10
91.904216
 20
-200.451107
 30
0.0
  0
LWPOLYLINE
  5
1fe
100
AcDbEntity
  8
0
 62
7
100
AcDbPolyline
 90
2
 70
1
 10
91.904216
 20
-200.451107
 30
0.0
 10
91.894394
 20
-200.434957
 30
0.0
  0
LWPOLYLINE
  5
1ff
100
AcDbEntity
  8
0
 62
7
100
AcDbPolyline
 90
2
 70
1
 10
91.894394
 20
-200.434957
 30
0.0
 10
90.985288
 20
-198.944869
 30
0.0
  0
LWPOLYLINE
  5
200
100
AcDbEntity
  8
0
 62
7
100
AcDbPolyline
 90
2
 70
1
 10
90.985288
 20
-198.944869
 30
0.0
 10
90.050391
 20
-197.345289
 30
0.0
  0
LWPOLYLINE
  5
201
100
AcDbEntity
  8
0
 62
7
100
AcDbPolyline
 90
2
 70
1
 10
90.050391
 20
-197.345289
 30
0.0
 10
89.108403
 20
-195.599259
 30
0.0
  0
LWPOLYLINE
  5
202
100
AcDbEntity
  8
0
 62
7
100
AcDbPolyline
 90
2
 70
1
 10
89.108403
 20
-195.599259
 30
0.0
 10
88.181473
 20
-193.678472
 30
0.0
  0
LWPOLYLINE
  5
203
100
AcDbEntity
  8
0
 62
7
100
AcDbPolyline
 90
2
 70
1
 10
88.181473
 20
-193.678472
 30
0.0
 10
87.297796
 20
-191.567448
 30
0.0
  0
LWPOLYLINE
  5
204
100
AcDbEntity
  8
0
 62
7
100
AcDbPolyline
 90
2
 70
1
 10
87.297796
 20
-191.567448
 30
0.0
 10
86.489136
 20
-189.261298
 30
0.0
  0
LWPOLYLINE
  5
205
100
AcDbEntity
  8
0
 62
7
100
AcDbPolyline
 90
2
 70
1
 10
86.489136
 20
-189.261298
 30
0.0
 10
85.788605
 20
-186.764292
 30
0.0
  0
LWPOLYLINE
  5
206
100
AcDbEntity
  8
0
 62
7
100
AcDbPolyline
 90
2
 70
1
 10
85.788605
 20
-186.764292
 30
0.0
 10
85.228748
 20
-184.088795
 30
0.0
  0
LWPOLYLINE
  5
207
100
AcDbEntity
  8
0
 62
7
100
AcDbPolyline
 90
2
 70
1
 10
85.228748
 20
-184.088795
 30
0.0
 10
84.839903
 20
-181.254296
 30
0.0
  0
LWPOLYLINE
  5
208
100
AcDbEntity
  8
0
 62
7
100
AcDbPolyline
 90
2
 70
1
 10
84.839903
 20
-181.254296
 30
0.0
 10
84.648816
 20
-178.286427
 30
0.0
  0
LWPOLYLINE
  5
209
100
AcDbEntity
  8
0
 62
7
100
AcDbPolyline
 90
2
 70
1
 10
84.648816
 20
-178.286427
 30
0.0
 10
84.677502
 20
-175.215907
 30
0.0
  0
LWPOLYLINE
  5
20a
100
AcDbEntity
  8
0
 62
7
100
AcDbPolyline
 90
2
 70
1
 10
84.677502
 20
-175.215907
 30
0.0
 10
84.942348
 20
-172.077408
 30
0.0
  0
LWPOLYLINE
  5
20b
100
AcDbEntity
  8
0
 62
7
100
AcDbPolyline
 90
2
 70
1
 10
84.942348
 20
-172.077408
 30
0.0
 10
85.453450
 20
-168.908338
 30
0.0
  0
LWPOLYLINE
  5
20c
100
AcDbEntity
  8
0
 62
7
100
AcDbPolyline
 90
2
 70
1
 10
85.453450
 20
-168.908338
 30
0.0
 10
86.214207
 20
-165.747574
 30
0.0
  0
LWPOLYLINE
  5
20d
100
AcDbEntity
  8
0
 62
7
100
AcDbPolyline
 90
2
 70
1
 10
86.214207
 20
-165.747574
 30
0.0
 10
87.221151
 20
-162.634176
 30
0.0
  0
LWPOLYLINE
  5
20e
100
AcDbEntity
  8
0
 62
7
100
AcDbPolyline
 90
2
 70
1
 10
87.221151
 20
-162.634176
 30
0.0
 10
88.464036
 20
-159.606098
 30
0.0
  0
LWPOLYLINE
  5
20f
100
AcDbEntity
  8
0
 62
7
100
AcDbPolyline
 90
2
 70
1
 10
88.464036
 20
-159.606098
 30
0.0
 10
89.926156
 20
-156.698963
 30
0.0
  0
LWPOLYLINE
  5
210
100
AcDbEntity
  8
0
 62
7
100
AcDbPolyline
 90
2
 70
1
 10
89.926156
 20
-156.698963
 30
0.0
 10
91.584895
 20
-153.944903
 30
0.0
  0
LWPOLYLINE
  5
211
100
AcDbEntity
  8
0
 62
7
100
AcDbPolyline
 90
2
 70
1
 10
91.584895
 20
-153.944903
 30
0.0
 10
93.412500
 20
-151.371532
 30
0.0
  0
LWPOLYLINE
  5
212
100
AcDbEntity
  8
0
 62
7
100
AcDbPolyline
 90
2
 70
1
 10
93.412500
 20
-151.371532
 30
0.0
 10
95.377033
 20
-149.001058
 30
0.0
  0
LWPOLYLINE
  5
213
100
AcDbEntity
  8
0
 62
7
100
AcDbPolyline
 90
2
 70
1
 10
95.377033
 20
-149.001058
 30
0.0
 10
97.443511
 20
-146.849574
 30
0.0
  0
LWPOLYLINE
  5
214
100
AcDbEntity
  8
0
 62
7
100
AcDbPolyline
 90
2
 70
1
 10
97.443511
 20
-146.849574
 30
0.0
 10
99.575196
 20
-144.926555
 30
0.0
  0
LWPOLYLINE
  5
215
100
AcDbEntity
  8
0
 62
7
100
AcDbPolyline
 90
2
 70
1
 10
99.575196
 20
-144.926555
 30
0.0
 10
101.735015
 20
-143.234552
 30
0.0
  0
LWPOLYLINE
  5
216
100
AcDbEntity
  8
0
 62
7
100
AcDbPolyline
 90
2
 70
1
 10
101.735015
 20
-143.234552
 30
0.0
 10
103.887119
 20
-141.769122
 30
0.0
  0
LWPOLYLINE
  5
217
100
AcDbEntity
  8
0
 62
7
100
AcDbPolyline
 90
2
 70
1
 10
103.887119
 20
-141.769122
 30
0.0
 10
105.998580
 20
-140.518951
 30
0.0
  0
LWPOLYLINE
  5
218
100
AcDbEntity
  8
0
 62
7
100
AcDbPolyline
 90
2
 70
1
 10
105.998580
 20
-140.518951
 30
0.0
 10
108.041267
 20
-139.466166
 30
0.0
  0
LWPOLYLINE
  5
219
100
AcDbEntity
  8
0
 62
7
100
AcDbPolyline
 90
2
 70
1
 10
108.041267
 20
-139.466166
 30
0.0
 10
109.994012
 20
-138.586732
 30
0.0
  0
LWPOLYLINE
  5
21a
100
AcDbEntity
  8
0
 62
7
100
AcDbPolyline
 90
2
 70
1
 10
109.994012
 20
-138.586732
 30
0.0
 10
111.845230
 20
-137.850788
 30
0.0
  0
LWPOLYLINE
  5
21b
100
AcDbEntity
  8
0
 62
7
100
AcDbPolyline
 90
2
 70
1
 10
111.845230
 20
-137.850788
 30
0.0
 10
113.596270
 20
-137.222501
 30
0.0
  0
LWPOLYLINE
  5
21c
100
AcDbEntity
  8
0
 62
7
100
AcDbPolyline
 90
2
 70
1
 10
113.596270
 20
-137.222501
 30
0.0
 10
115.256716
 20
-136.661620
 30
0.0
  0
LWPOLYLINE
  5
21d
100
AcDbEntity
  8
0
 62
7
100
AcDbPolyline
 90
2
 70
1
 10
115.256716
 20
-136.661620
 30
0.0
 10
115.274688
 20
-136.655521
 30
0.0
  0
LWPOLYLINE
  5
21e
100
AcDbEntity
  8
0
 62
7
100
AcDbPolyline
 90
2
 70
1
 10
115.274688
 20
-136.655521
 30
0.0
 10
116.784771
 20
-136.140776
 30
0.0
  0
LWPOLYLINE
  5
21f
100
AcDbEntity
  8
0
 62
7
100
AcDbPolyline
 90
2
 70
1
 10
116.784771
 20
-136.140776
 30
0.0
 10
117.001855
 20
-136.062682
 30
0.0
  0
LWPOLYLINE
  5
220
100
AcDbEntity
  8
0
 62
7
100
AcDbPolyline
 90
2
 70
1
 10
117.001855
 20
-136.062682
 30
0.0
 10
118.296410
 20
-135.572255
 30
0.0
  0
LWPOLYLINE
  5
221
100
AcDbEntity
  8
0
 62
7
100
AcDbPolyline
 90
2
 70
1
 10
118.296410
 20
-135.572255
 30
0.0
 10
118.783129
 20
-135.366091
 30
0.0
  0
LWPOLYLINE
  5
222
100
AcDbEntity
  8
0
 62
7
100
AcDbPolyline
 90
2
 70
1
 10
118.783129
 20
-135.366091
 30
0.0
 10
119.865510
 20
-134.857564
 30
0.0
  0
LWPOLYLINE
  5
223
100
AcDbEntity
  8
0
 62
7
100
AcDbPolyline
 90
2
 70
1
 10
119.865510
 20
-134.857564
 30
0.0
 10
120.663027
 20
-134.415847
 30
0.0
  0
LWPOLYLINE
  5
224
100
AcDbEntity
  8
0
 62
7
100
AcDbPolyline
 90
2
 70
1
 10
120.663027
 20
-134.415847
 30
0.0
 10
121.544035
 20
-133.848105
 30
0.0
  0
LWPOLYLINE
  5
225
100
AcDbEntity
  8
0
 62
7
100
AcDbPolyline
 90
2
 70
1
 10
121.544035
 20
-133.848105
 30
0.0
 10
122.070523
 20
-133.472425
 30
0.0
  0
LWPOLYLINE
  5
226
100
AcDbEntity
  8
0
 62
7
100
AcDbPolyline
 90
2
 70
1
 10
122.070523
 20
-133.472425
 30
0.0
 10
122.558824
 20
-133.048884
 30
0.0
  0
LWPOLYLINE
  5
227
100
AcDbEntity
  8
0
 62
7
100
AcDbPolyline
 90
2
 70
1
 10
122.558824
 20
-133.048884
 30
0.0
 10
123.256365
 20
-132.383373
 30
0.0
  0
LWPOLYLINE
  5
228
100
AcDbEntity
  8
0
 62
7
100
AcDbPolyline
 90
2
 70
1
 10
123.256365
 20
-132.383373
 30
0.0
 10
123.758121
 20
-131.850280
 30
0.0
  0
LWPOLYLINE
  5
229
100
AcDbEntity
  8
0
 62
7
100
AcDbPolyline
 90
2
 70
1
 10
123.758121
 20
-131.850280
 30
0.0
 10
124.199396
 20
-131.266764
 30
0.0
  0
LWPOLYLINE
  5
22a
100
AcDbEntity
  8
0
 62
7
100
AcDbPolyline
 90
2
 70
1
 10
124.199396
 20
-131.266764
 30
0.0
 10
124.737924
 20
-130.468688
 30
0.0
  0
LWPOLYLINE
  5
22b
100
AcDbEntity
  8
0
 62
7
100
AcDbPolyline
 90
2
 70
1
 10
124.737924
 20
-130.468688
 30
0.0
 10
125.072947
 20
-129.917360
 30
0.0
  0
LWPOLYLINE
  5
22c
100
AcDbEntity
  8
0
 62
7
100
AcDbPolyline
 90
2
 70
1
 10
125.072947
 20
-129.917360
 30
0.0
 10
125.353899
 20
-129.336979
 30
0.0
  0
LWPOLYLINE
  5
22d
100
AcDbEntity
  8
0
 62
7
100
AcDbPolyline
 90
2
 70
1
 10
125.353899
 20
-129.336979
 30
0.0
 10
125.763661
 20
-128.376366
 30
0.0
  0
LWPOLYLINE
  5
22e
100
AcDbEntity
  8
0
 62
7
100
AcDbPolyline
 90
2
 70
1
 10
125.763661
 20
-128.376366
 30
0.0
 10
126.063004
 20
-127.519329
 30
0.0
  0
LWPOLYLINE
  5
22f
100
AcDbEntity
  8
0
 62
7
100
AcDbPolyline
 90
2
 70
1
 10
126.063004
 20
-127.519329
 30
0.0
 10
126.379103
 20
-126.371964
 30
0.0
  0
LWPOLYLINE
  5
230
100
AcDbEntity
  8
0
 62
7
100
AcDbPolyline
 90
2
 70
1
 10
126.379103
 20
-126.371964
 30
0.0
 10
126.498936
 20
-125.859932
 30
0.0
  0
LWPOLYLINE
  5
231
100
AcDbEntity
  8
0
 62
7
100
AcDbPolyline
 90
2
 70
1
 10
126.498936
 20
-125.859932
 30
0.0
 10
126.760252
 20
-124.508107
 30
0.0
  0
LWPOLYLINE
  5
232
100
AcDbEntity
  8
0
 62
7
100
AcDbPolyline
 90
2
 70
1
 10
126.760252
 20
-124.508107
 30
0.0
 10
126.799962
 20
-124.282140
 30
0.0
  0
LWPOLYLINE
  5
233
100
AcDbEntity
  8
0
 62
7
100
AcDbPolyline
 90
2
 70
1
 10
126.799962
 20
-124.282140
 30
0.0
 10
127.047956
 20
-122.715208
 30
0.0
  0
LWPOLYLINE
  5
234
100
AcDbEntity
  8
0
 62
7
100
AcDbPolyline
 90
2
 70
1
 10
127.047956
 20
-122.715208
 30
0.0
 10
127.050880
 20
-122.696564
 30
0.0
  0
LWPOLYLINE
  5
235
100
AcDbEntity
  8
0
 62
7
100
AcDbPolyline
 90
2
 70
1
 10
127.050880
 20
-122.696564
 30
0.0
 10
127.318494
 20
-120.974498
 30
0.0
  0
LWPOLYLINE
  5
236
100
AcDbEntity
  8
0
 62
7
100
AcDbPolyline
 90
2
 70
1
 10
127.318494
 20
-120.974498
 30
0.0
 10
127.637188
 20
-119.152085
 30
0.0
  0
LWPOLYLINE
  5
237
100
AcDbEntity
  8
0
 62
7
100
AcDbPolyline
 90
2
 70
1
 10
127.637188
 20
-119.152085
 30
0.0
 10
128.045198
 20
-117.212957
 30
0.0
  0
LWPOLYLINE
  5
238
100
AcDbEntity
  8
0
 62
7
100
AcDbPolyline
 90
2
 70
1
 10
128.045198
 20
-117.212957
 30
0.0
 10
128.577804
 20
-115.149574
 30
0.0
  0
LWPOLYLINE
  5
239
100
AcDbEntity
  8
0
 62
7
100
AcDbPolyline
 90
2
 70
1
 10
128.577804
 20
-115.149574
 30
0.0
 10
129.266619
 20
-112.968084
 30
0.0
  0
LWPOLYLINE
  5
23a
100
AcDbEntity
  8
0
 62
7
100
AcDbPolyline
 90
2
 70
1
 10
129.266619
 20
-112.968084
 30
0.0
 10
130.139140
 20
-110.685027
 30
0.0
  0
LWPOLYLINE
  5
23b
100
AcDbEntity
  8
0
 62
7
100
AcDbPolyline
 90
2
 70
1
 10
130.139140
 20
-110.685027
 30
0.0
 10
131.217969
 20
-108.324822
 30
0.0
  0
LWPOLYLINE
  5
23c
100
AcDbEntity
  8
0
 62
7
100
AcDbPolyline
 90
2
 70
1
 10
131.217969
 20
-108.324822
 30
0.0
 10
132.520038
 20
-105.917725
 30
0.0
  0
LWPOLYLINE
  5
23d
100
AcDbEntity
  8
0
 62
7
100
AcDbPolyline
 90
2
 70
1
 10
132.520038
 20
-105.917725
 30
0.0
 10
134.055977
 20
-103.498040
 30
0.0
  0
LWPOLYLINE
  5
23e
100
AcDbEntity
  8
0
 62
7
100
AcDbPolyline
 90
2
 70
1
 10
134.055977
 20
-103.498040
 30
0.0
 10
135.829693
 20
-101.102485
 30
0.0
  0
LWPOLYLINE
  5
23f
100
AcDbEntity
  8
0
 62
7
100
AcDbPolyline
 90
2
 70
1
 10
135.829693
 20
-101.102485
 30
0.0
 10
137.838176
 20
-98.768651
 30
0.0
  0
LWPOLYLINE
  5
240
100
AcDbEntity
  8
0
 62
7
100
AcDbPolyline
 90
2
 70
1
 10
137.838176
 20
-98.768651
 30
0.0
 10
140.071548
 20
-96.533562
 30
0.0
  0
LWPOLYLINE
  5
241
100
AcDbEntity
  8
0
 62
7
100
AcDbPolyline
 90
2
 70
1
 10
140.071548
 20
-96.533562
 30
0.0
 10
142.513341
 20
-94.432324
 30
0.0
  0
LWPOLYLINE
  5
242
100
AcDbEntity
  8
0
 62
7
100
AcDbPolyline
 90
2
 70
1
 10
142.513341
 20
-94.432324
 30
0.0
 10
145.141007
 20
-92.496889
 30
0.0
  0
LWPOLYLINE
  5
243
100
AcDbEntity
  8
0
 62
7
100
AcDbPolyline
 90
2
 70
1
 10
145.141007
 20
-92.496889
 30
0.0
 10
147.926621
 20
-90.754963
 30
0.0
  0
LWPOLYLINE
  5
244
100
AcDbEntity
  8
0
 62
7
100
AcDbPolyline
 90
2
 70
1
 10
147.926621
 20
-90.754963
 30
0.0
 10
150.837775
 20
-89.229078
 30
0.0
  0
LWPOLYLINE
  5
245
100
AcDbEntity
  8
0
 62
7
100
AcDbPolyline
 90
2
 70
1
 10
150.837775
 20
-89.229078
 30
0.0
 10
153.838628
 20
-87.935852
 30
0.0
  0
LWPOLYLINE
  5
246
100
AcDbEntity
  8
0
 62
7
100
AcDbPolyline
 90
2
 70
1
 10
153.838628
 20
-87.935852
 30
0.0
 10
156.891067
 20
-86.885458
 30
0.0
  0
LWPOLYLINE
  5
247
100
AcDbEntity
  8
0
 62
7
100
AcDbPolyline
 90
2
 70
1
 10
156.891067
 20
-86.885458
 30
0.0
 10
159.955966
 20
-86.081324
 30
0.0
  0
LWPOLYLINE
  5
248
100
AcDbEntity
  8
0
 62
7
100
AcDbPolyline
 90
2
 70
1
 10
159.955966
 20
-86.081324
 30
0.0
 10
162.994491
 20
-85.520065
 30
0.0
  0
LWPOLYLINE
  5
249
100
AcDbEntity
  8
0
 62
7
100
AcDbPolyline
 90
2
 70
1
 10
162.994491
 20
-85.520065
 30
0.0
 10
165.969433
 20
-85.191670
 30
0.0
  0
LWPOLYLINE
  5
24a
100
AcDbEntity
  8
0
 62
7
100
AcDbPolyline
 90
2
 70
1
 10
165.969433
 20
-85.191670
 30
0.0
 10
168.846518
 20
-85.079932
 30
0.0
  0
LWPOLYLINE
  5
24b
100
AcDbEntity
  8
0
 62
7
100
AcDbPolyline
 90
2
 70
1
 10
168.846518
 20
-85.079932
 30
0.0
 10
171.595696
 20
-85.163131
 30
0.0
  0
LWPOLYLINE
  5
24c
100
AcDbEntity
  8
0
 62
7
100
AcDbPolyline
 90
2
 70
1
 10
171.595696
 20
-85.163131
 30
0.0
 10
174.192380
 20
-85.414968
 30
0.0
  0
LWPOLYLINE
  5
24d
100
AcDbEntity
  8
0
 62
7
100
AcDbPolyline
 90
2
 70
1
 10
174.192380
 20
-85.414968
 30
0.0
 10
176.618665
 20
-85.805746
 30
0.0
  0
LWPOLYLINE
  5
24e
100
AcDbEntity
  8
0
 62
7
100
AcDbPolyline
 90
2
 70
1
 10
176.618665
 20
-85.805746
 30
0.0
 10
178.864566
 20
-86.303808
 30
0.0
  0
LWPOLYLINE
  5
24f
100
AcDbEntity
  8
0
 62
7
100
AcDbPolyline
 90
2
 70
1
 10
178.864566
 20
-86.303808
 30
0.0
 10
180.929415
 20
-86.877225
 30
0.0
  0
LWPOLYLINE
  5
250
100
AcDbEntity
  8
0
 62
7
100
AcDbPolyline
 90
2
 70
1
 10
180.929415
 20
-86.877225
 30
0.0
 10
182.823659
 20
-87.495722
 30
0.0
  0
LWPOLYLINE
  5
251
100
AcDbEntity
  8
0
 62
7
100
AcDbPolyline
 90
2
 70
1
 10
182.823659
 20
-87.495722
 30
0.0
 10
184.571511
 20
-88.132712
 30
0.0
  0
LWPOLYLINE
  5
252
100
AcDbEntity
  8
0
 62
7
100
AcDbPolyline
 90
2
 70
1
 10
184.571511
 20
-88.132712
 30
0.0
 10
186.206354
 20
-88.763480
 30
0.0
  0
LWPOLYLINE
  5
253
100
AcDbEntity
  8
0
 62
7
100
AcDbPolyline
 90
2
 70
1
 10
186.206354
 20
-88.763480
 30
0.0
 10
186.224067
 20
-88.770286
 30
0.0
  0
LWPOLYLINE
  5
254
100
AcDbEntity
  8
0
 62
7
100
AcDbPolyline
 90
2
 70
1
 10
186.224067
 20
-88.770286
 30
0.0
 10
187.713879
 20
-89.340369
 30
0.0
  0
LWPOLYLINE
  5
255
100
AcDbEntity
  8
0
 62
7
100
AcDbPolyline
 90
2
 70
1
 10
187.713879
 20
-89.340369
 30
0.0
 10
187.930698
 20
-89.419184
 30
0.0
  0
LWPOLYLINE
  5
256
100
AcDbEntity
  8
0
 62
7
100
AcDbPolyline
 90
2
 70
1
 10
187.930698
 20
-89.419184
 30
0.0
 10
189.239672
 20
-89.870250
 30
0.0
  0
LWPOLYLINE
  5
257
100
AcDbEntity
  8
0
 62
7
100
AcDbPolyline
 90
2
 70
1
 10
189.239672
 20
-89.870250
 30
0.0
 10
189.745901
 20
-90.023158
 30
0.0
  0
LWPOLYLINE
  5
258
100
AcDbEntity
  8
0
 62
7
100
AcDbPolyline
 90
2
 70
1
 10
189.745901
 20
-90.023158
 30
0.0
 10
190.904050
 20
-90.324856
 30
0.0
  0
LWPOLYLINE
  5
259
100
AcDbEntity
  8
0
 62
7
100
AcDbPolyline
 90
2
 70
1
 10
190.904050
 20
-90.324856
 30
0.0
 10
191.800757
 20
-90.495808
 30
0.0
  0
LWPOLYLINE
  5
25a
100
AcDbEntity
  8
0
 62
7
100
AcDbPolyline
 90
2
 70
1
 10
191.800757
 20
-90.495808
 30
0.0
 10
192.842956
 20
-90.623540
 30
0.0
  0
LWPOLYLINE
  5
25b
100
AcDbEntity
  8
0
 62
7
100
AcDbPolyline
 90
2
 70
1
 10
192.842956
 20
-90.623540
 30
0.0
 10
193.489319
 20
-90.671989
 30
0.0
  0
LWPOLYLINE
  5
25c
100
AcDbEntity
  8
0
 62
7
100
AcDbPolyline
 90
2
 70
1
 10
193.489319
 20
-90.671989
 30
0.0
 10
194.137395
 20
-90.659387
 30
0.0
  0
LWPOLYLINE
  5
25d
100
AcDbEntity
  8
0
 62
7
100
AcDbPolyline
 90
2
 70
1
 10
194.137395
 20
-90.659387
 30
0.0
 10
195.102302
 20
-90.595054
 30
0.0
  0
LWPOLYLINE
  5
25e
100
AcDbEntity
  8
0
 62
7
100
AcDbPolyline
 90
2
 70
1
 10
195.102302
 20
-90.595054
 30
0.0
 10
195.831560
 20
-90.507123
 30
0.0
  0
LWPOLYLINE
  5
25f
100
AcDbEntity
  8
0
 62
7
100
AcDbPolyline
 90
2
 70
1
 10
195.831560
 20
-90.507123
 30
0.0
 10
196.547109
 20
-90.341939
 30
0.0
  0
LWPOLYLINE
  5
260
100
AcDbEntity
  8
0
 62
7
100
AcDbPolyline
 90
2
 70
1
 10
196.547109
 20
-90.341939
 30
0.0
 10
197.475970
 20
-90.074504
 30
0.0
  0
LWPOLYLINE
  5
261
100
AcDbEntity
  8
0
 62
7
100
AcDbPolyline
 90
2
 70
1
 10
197.475970
 20
-90.074504
 30
0.0
 10
198.089301
 20
-89.866121
 30
0.0
  0
LWPOLYLINE
  5
262
100
AcDbEntity
  8
0
 62
7
100
AcDbPolyline
 90
2
 70
1
 10
198.089301
 20
-89.866121
 30
0.0
 10
198.680006
 20
-89.600951
 30
0.0
  0
LWPOLYLINE
  5
263
100
AcDbEntity
  8
0
 62
7
100
AcDbPolyline
 90
2
 70
1
 10
198.680006
 20
-89.600951
 30
0.0
 10
199.615381
 20
-89.126769
 30
0.0
  0
LWPOLYLINE
  5
264
100
AcDbEntity
  8
0
 62
7
100
AcDbPolyline
 90
2
 70
1
 10
199.615381
 20
-89.126769
 30
0.0
 10
200.399162
 20
-88.661413
 30
0.0
  0
LWPOLYLINE
  5
265
100
AcDbEntity
  8
0
 62
7
100
AcDbPolyline
 90
2
 70
1
 10
200.399162
 20
-88.661413
 30
0.0
 10
201.383609
 20
-87.984355
 30
0.0
  0
LWPOLYLINE
  5
266
100
AcDbEntity
  8
0
 62
7
100
AcDbPolyline
 90
2
 70
1
 10
201.383609
 20
-87.984355
 30
0.0
 10
201.806671
 20
-87.668645
 30
0.0
  0
LWPOLYLINE
  5
267
100
AcDbEntity
  8
0
 62
7
100
AcDbPolyline
 90
2
 70
1
 10
201.806671
 20
-87.668645
 30
0.0
 10
202.881430
 20
-86.799974
 30
0.0
  0
LWPOLYLINE
  5
268
100
AcDbEntity
  8
0
 62
7
100
AcDbPolyline
 90
2
 70
1
 10
202.881430
 20
-86.799974
 30
0.0
 10
203.058041
 20
-86.652234
 30
0.0
  0
LWPOLYLINE
  5
269
100
AcDbEntity
  8
0
 62
7
100
AcDbPolyline
 90
2
 70
1
 10
203.058041
 20
-86.652234
 30
0.0
 10
204.261760
 20
-85.610274
 30
0.0
  0
LWPOLYLINE
  5
26a
100
AcDbEntity
  8
0
 62
7
100
AcDbPolyline
 90
2
 70
1
 10
204.261760
 20
-85.610274
 30
0.0
 10
204.276062
 20
-85.597859
 30
0.0
  0
LWPOLYLINE
  5
26b
100
AcDbEntity
  8
0
 62
7
100
AcDbPolyline
 90
2
 70
1
 10
204.276062
 20
-85.597859
 30
0.0
 10
205.595177
 20
-84.449589
 30
0.0
  0
LWPOLYLINE
  5
26c
100
AcDbEntity
  8
0
 62
7
100
AcDbPolyline
 90
2
 70
1
 10
205.595177
 20
-84.449589
 30
0.0
 10
207.018342
 20
-83.257071
 30
0.0
  0
LWPOLYLINE
  5
26d
100
AcDbEntity
  8
0
 62
7
100
AcDbPolyline
 90
2
 70
1
 10
207.018342
 20
-83.257071
 30
0.0
 10
208.585437
 20
-82.032184
 30
0.0
  0
LWPOLYLINE
  5
26e
100
AcDbEntity
  8
0
 62
7
100
AcDbPolyline
 90
2
 70
1
 10
208.585437
 20
-82.032184
 30
0.0
 10
210.328367
 20
-80.791684
 30
0.0
  0
LWPOLYLINE
  5
26f
100
AcDbEntity
  8
0
 62
7
100
AcDbPolyline
 90
2
 70
1
 10
210.328367
 20
-80.791684
 30
0.0
 10
212.267369
 20
-79.560471
 30
0.0
  0
LWPOLYLINE
  5
270
100
AcDbEntity
  8
0
 62
7
100
AcDbPolyline
 90
2
 70
1
 10
212.267369
 20
-79.560471
 30
0.0
 10
214.412809
 20
-78.368775
 30
0.0
  0
LWPOLYLINE
  5
271
100
AcDbEntity
  8
0
 62
7
100
AcDbPolyline
 90
2
 70
1
 10
214.412809
 20
-78.368775
 30
0.0
 10
216.766202
 20
-77.249737
 30
0.0
  0
LWPOLYLINE
  5
272
100
AcDbEntity
  8
0
 62
7
100
AcDbPolyline
 90
2
 70
1
 10
216.766202
 20
-77.249737
 30
0.0
 10
219.320944
 20
-76.237348
 30
0.0
  0
LWPOLYLINE
  5
273
100
AcDbEntity
  8
0
 62
7
100
AcDbPolyline
 90
2
 70
1
 10
219.320944
 20
-76.237348
 30
0.0
 10
222.062985
 20
-75.364676
 30
0.0
  0
LWPOLYLINE
  5
274
100
AcDbEntity
  8
0
 62
7
100
AcDbPolyline
 90
2
 70
1
 10
222.062985
 20
-75.364676
 30
0.0
 10
224.971562
 20
-74.662340
 30
0.0
  0
LWPOLYLINE
  5
275
100
AcDbEntity
  8
0
 62
7
100
AcDbPolyline
 90
2
 70
1
 10
224.971562
 20
-74.662340
 30
0.0
 10
228.020050
 20
-74.157219
 30
0.0
  0
LWPOLYLINE
  5
276
100
AcDbEntity
  8
0
 62
7
100
AcDbPolyline
 90
2
 70
1
 10
228.020050
 20
-74.157219
 30
0.0
 10
231.176929
 20
-73.871363
 30
0.0
  0
LWPOLYLINE
  5
277
100
AcDbEntity
  8
0
 62
7
100
AcDbPolyline
 90
2
 70
1
 10
231.176929
 20
-73.871363
 30
0.0
 10
234.406872
 20
-73.821150
 30
0.0
  0
LWPOLYLINE
  5
278
100
AcDbEntity
  8
0
 62
7
100
AcDbPolyline
 90
2
 70
1
 10
234.406872
 20
-73.821150
 30
0.0
 10
237.671933
 20
-74.016655
 30
0.0
  0
LWPOLYLINE
  5
279
100
AcDbEntity
  8
0
 62
7
100
AcDbPolyline
 90
2
 70
1
 10
237.671933
 20
-74.016655
 30
0.0
 10
240.932796
 20
-74.461268
 30
0.0
  0
LWPOLYLINE
  5
27a
100
AcDbEntity
  8
0
 62
7
100
AcDbPolyline
 90
2
 70
1
 10
240.932796
 20
-74.461268
 30
0.0
 10
244.150058
 20
-75.151554
 30
0.0
  0
LWPOLYLINE
  5
27b
100
AcDbEntity
  8
0
 62
7
100
AcDbPolyline
 90
2
 70
1
 10
244.150058
 20
-75.151554
 30
0.0
 10
247.285513
 20
-76.077352
 30
0.0
  0
LWPOLYLINE
  5
27c
100
AcDbEntity
  8
0
 62
7
100
AcDbPolyline
 90
2
 70
1
 10
247.285513
 20
-76.077352
 30
0.0
 10
250.303381
 20
-77.222115
 30
0.0
  0
LWPOLYLINE
  5
27d
100
AcDbEntity
  8
0
 62
7
100
AcDbPolyline
 90
2
 70
1
 10
250.303381
 20
-77.222115
 30
0.0
 10
253.171473
 20
-78.563481
 30
0.0
  0
LWPOLYLINE
  5
27e
100
AcDbEntity
  8
0
 62
7
100
AcDbPolyline
 90
2
 70
1
 10
253.171473
 20
-78.563481
 30
0.0
 10
255.862231
 20
-80.074058
 30
0.0
  0
LWPOLYLINE
  5
27f
100
AcDbEntity
  8
0
 62
7
100
AcDbPolyline
 90
2
 70
1
 10
255.862231
 20
-80.074058
 30
0.0
 10
258.353628
 20
-81.722411
 30
0.0
  0
LWPOLYLINE
  5
280
100
AcDbEntity
  8
0
 62
7
100
AcDbPolyline
 90
2
 70
1
 10
258.353628
 20
-81.722411
 30
0.0
 10
260.629893
 20
-83.474238
 30
0.0
  0
LWPOLYLINE
  5
281
100
AcDbEntity
  8
0
 62
7
100
AcDbPolyline
 90
2
 70
1
 10
260.629893
 20
-83.474238
 30
0.0
 10
262.682059
 20
-85.293708
 30
0.0
  0
LWPOLYLINE
  5
282
100
AcDbEntity
  8
0
 62
7
100
AcDbPolyline
 90
2
 70
1
 10
262.682059
 20
-85.293708
 30
0.0
 10
264.508306
 20
-87.144975
 30
0.0
  0
LWPOLYLINE
  5
283
100
AcDbEntity
  8
0
 62
7
100
AcDbPolyline
 90
2
 70
1
 10
264.508306
 20
-87.144975
 30
0.0
 10
266.114130
 20
-88.993852
 30
0.0
  0
LWPOLYLINE
  5
284
100
AcDbEntity
  8
0
 62
7
100
AcDbPolyline
 90
2
 70
1
 10
266.114130
 20
-88.993852
 30
0.0
 10
267.512362
 20
-90.809714
 30
0.0
  0
LWPOLYLINE
  5
285
100
AcDbEntity
  8
0
 62
7
100
AcDbPolyline
 90
2
 70
1
 10
267.512362
 20
-90.809714
 30
0.0
 10
268.723150
 20
-92.567673
 30
0.0
  0
LWPOLYLINE
  5
286
100
AcDbEntity
  8
0
 62
7
100
AcDbPolyline
 90
2
 70
1
 10
268.723150
 20
-92.567673
 30
0.0
 10
269.774081
 20
-94.251210
 30
0.0
  0
LWPOLYLINE
  5
287
100
AcDbEntity
  8
0
 62
7
100
AcDbPolyline
 90
2
 70
1
 10
269.774081
 20
-94.251210
 30
0.0
 10
270.700905
 20
-95.855422
 30
0.0
  0
LWPOLYLINE
  5
288
100
AcDbEntity
  8
0
 62
7
100
AcDbPolyline
 90
2
 70
1
 10
270.700905
 20
-95.855422
 30
0.0
 10
271.545185
 20
-97.382695
 30
0.0
  0
LWPOLYLINE
  5
289
100
AcDbEntity
  8
0
 62
7
100
AcDbPolyline
 90
2
 70
1
 10
271.545185
 20
-97.382695
 30
0.0
 10
271.554351
 20
-97.399221
 30
0.0
  0
LWPOLYLINE
  5
28a
100
AcDbEntity
  8
0
 62
7
100
AcDbPolyline
 90
2
 70
1
 10
271.554351
 20
-97.399221
 30
0.0
 10
272.326791
 20
-98.787384
 30
0.0
  0
LWPOLYLINE
  5
28b
100
AcDbEntity
  8
0
 62
7
100
AcDbPolyline
 90
2
 70
1
 10
272.326791
 20
-98.787384
 30
0.0
 10
272.441894
 20
-98.986229
 30
0.0
  0
LWPOLYLINE
  5
28c
100
AcDbEntity
  8
0
 62
7
100
AcDbPolyline
 90
2
 70
1
 10
272.441894
 20
-98.986229
 30
0.0
 10
273.152804
 20
-100.167730
 30
0.0
  0
LWPOLYLINE
  5
28d
100
AcDbEntity
  8
0
 62
7
100
AcDbPolyline
 90
2
 70
1
 10
273.152804
 20
-100.167730
 30
0.0
 10
273.441673
 20
-100.608163
 30
0.0
  0
LWPOLYLINE
  5
28e
100
AcDbEntity
  8
0
 62
7
100
AcDbPolyline
 90
2
 70
1
 10
273.441673
 20
-100.608163
 30
0.0
 10
274.133679
 20
-101.578918
 30
0.0
  0
LWPOLYLINE
  5
28f
100
AcDbEntity
  8
0
 62
7
100
AcDbPolyline
 90
2
 70
1
 10
274.133679
 20
-101.578918
 30
0.0
 10
274.709997
 20
-102.282549
 30
0.0
  0
LWPOLYLINE
  5
290
100
AcDbEntity
  8
0
 62
7
100
AcDbPolyline
 90
2
 70
1
 10
274.709997
 20
-102.282549
 30
0.0
 10
275.425730
 20
-103.045987
 30
0.0
  0
LWPOLYLINE
  5
291
100
AcDbEntity
  8
0
 62
7
100
AcDbPolyline
 90
2
 70
1
 10
275.425730
 20
-103.045987
 30
0.0
 10
275.889528
 20
-103.495895
 30
0.0
  0
LWPOLYLINE
  5
292
100
AcDbEntity
  8
0
 62
7
100
AcDbPolyline
 90
2
 70
1
 10
275.889528
 20
-103.495895
 30
0.0
 10
276.394137
 20
-103.900129
 30
0.0
  0
LWPOLYLINE
  5
293
100
AcDbEntity
  8
0
 62
7
100
AcDbPolyline
 90
2
 70
1
 10
276.394137
 20
-103.900129
 30
0.0
 10
277.174919
 20
-104.467076
 30
0.0
  0
LWPOLYLINE
  5
294
100
AcDbEntity
  8
0
 62
7
100
AcDbPolyline
 90
2
 70
1
 10
277.174919
 20
-104.467076
 30
0.0
 10
277.790451
 20
-104.865451
 30
0.0
  0
LWPOLYLINE
  5
295
100
AcDbEntity
  8
0
 62
7
100
AcDbPolyline
 90
2
 70
1
 10
277.790451
 20
-104.865451
 30
0.0
 10
278.445460
 20
-105.195891
 30
0.0
  0
LWPOLYLINE
  5
296
100
AcDbEntity
  8
0
 62
7
100
AcDbPolyline
 90
2
 70
1
 10
278.445460
 20
-105.195891
 30
0.0
 10
279.330030
 20
-105.584232
 30
0.0
  0
LWPOLYLINE
  5
297
100
AcDbEntity
  8
0
 62
7
100
AcDbPolyline
 90
2
 70
1
 10
279.330030
 20
-105.584232
 30
0.0
 10
279.934684
 20
-105.816300
 30
0.0
  0
LWPOLYLINE
  5
298
100
AcDbEntity
  8
0
 62
7
100
AcDbPolyline
 90
2
 70
1
 10
279.934684
 20
-105.816300
 30
0.0
 10
280.558746
 20
-105.990415
 30
0.0
  0
LWPOLYLINE
  5
299
100
AcDbEntity
  8
0
 62
7
100
AcDbPolyline
 90
2
 70
1
 10
280.558746
 20
-105.990415
 30
0.0
 10
281.582062
 20
-106.224540
 30
0.0
  0
LWPOLYLINE
  5
29a
100
AcDbEntity
  8
0
 62
7
100
AcDbPolyline
 90
2
 70
1
 10
281.582062
 20
-106.224540
 30
0.0
 10
282.483540
 20
-106.368611
 30
0.0
  0
LWPOLYLINE
  5
29b
100
AcDbEntity
  8
0
 62
7
100
AcDbPolyline
 90
2
 70
1
 10
282.483540
 20
-106.368611
 30
0.0
 10
283.675701
 20
-106.478662
 30
0.0
  0
LWPOLYLINE
  5
29c
100
AcDbEntity
  8
0
 62
7
100
AcDbPolyline
 90
2
 70
1
 10
283.675701
 20
-106.478662
 30
0.0
 10
284.204038
 20
-106.506999
 30
0.0
  0
LWPOLYLINE
  5
29d
100
AcDbEntity
  8
0
 62
7
100
AcDbPolyline
 90
2
 70
1
 10
284.204038
 20
-106.506999
 30
0.0
 10
285.589347
 20
-106.527943
 30
0.0
  0
LWPOLYLINE
  5
29e
100
AcDbEntity
  8
0
 62
7
100
AcDbPolyline
 90
2
 70
1
 10
285.589347
 20
-106.527943
 30
0.0
 10
285.820222
 20
-106.527559
 30
0.0
  0
LWPOLYLINE
  5
29f
100
AcDbEntity
  8
0
 62
7
100
AcDbPolyline
 90
2
 70
1
 10
285.820222
 20
-106.527559
 30
0.0
 10
287.416432
 20
-106.498114
 30
0.0
  0
LWPOLYLINE
  5
2a0
100
AcDbEntity
  8
0
 62
7
100
AcDbPolyline
 90
2
 70
1
 10
287.416432
 20
-106.498114
 30
0.0
 10
287.435420
 20
-106.497738
 30
0.0
  0
LWPOLYLINE
  5
2a1
100
AcDbEntity
  8
0
 62
7
100
AcDbPolyline
 90
2
 70
1
 10
287.435420
 20
-106.497738
 30
0.0
 10
289.188807
 20
-106.460552
 30
0.0
  0
LWPOLYLINE
  5
2a2
100
AcDbEntity
  8
0
 62
7
100
AcDbPolyline
 90
2
 70
1
 10
289.188807
 20
-106.460552
 30
0.0
 10
291.050528
 20
-106.455921
 30
0.0
  0
LWPOLYLINE
  5
2a3
100
AcDbEntity
  8
0
 62
7
100
AcDbPolyline
 90
2
 70
1
 10
291.050528
 20
-106.455921
 30
0.0
 10
293.043447
 20
-106.518414
 30
0.0
  0
LWPOLYLINE
  5
2a4
100
AcDbEntity
  8
0
 62
7
100
AcDbPolyline
 90
2
 70
1
 10
293.043447
 20
-106.518414
 30
0.0
 10
295.181164
 20
-106.681242
 30
0.0
  0
LWPOLYLINE
  5
2a5
100
AcDbEntity
  8
0
 62
7
100
AcDbPolyline
 90
2
 70
1
 10
295.181164
 20
-106.681242
 30
0.0
 10
297.463074
 20
-106.976404
 30
0.0
  0
LWPOLYLINE
  5
2a6
100
AcDbEntity
  8
0
 62
7
100
AcDbPolyline
 90
2
 70
1
 10
297.463074
 20
-106.976404
 30
0.0
 10
299.877558
 20
-107.433677
 30
0.0
  0
LWPOLYLINE
  5
2a7
100
AcDbEntity
  8
0
 62
7
100
AcDbPolyline
 90
2
 70
1
 10
299.877558
 20
-107.433677
 30
0.0
 10
302.404336
 20
-108.079416
 30
0.0
  0
LWPOLYLINE
  5
2a8
100
AcDbEntity
  8
0
 62
7
100
AcDbPolyline
 90
2
 70
1
 10
302.404336
 20
-108.079416
 30
0.0
 10
305.016359
 20
-108.935443
 30
0.0
  0
LWPOLYLINE
  5
2a9
100
AcDbEntity
  8
0
 62
7
100
AcDbPolyline
 90
2
 70
1
 10
305.016359
 20
-108.935443
 30
0.0
 10
307.681469
 20
-110.018115
 30
0.0
  0
LWPOLYLINE
  5
2aa
100
AcDbEntity
  8
0
 62
7
100
AcDbPolyline
 90
2
 70
1
 10
307.681469
 20
-110.018115
 30
0.0
 10
310.363953
 20
-111.337631
 30
0.0
  0
LWPOLYLINE
  5
2ab
100
AcDbEntity
  8
0
 62
7
100
AcDbPolyline
 90
2
 70
1
 10
310.363953
 20
-111.337631
 30
0.0
 10
313.026025
 20
-112.897574
 30
0.0
  0
LWPOLYLINE
  5
2ac
100
AcDbEntity
  8
0
 62
7
100
AcDbPolyline
 90
2
 70
1
 10
313.026025
 20
-112.897574
 30
0.0
 10
315.629271
 20
-114.694707
 30
0.0
  0
LWPOLYLINE
  5
2ad
100
AcDbEntity
  8
0
 62
7
100
AcDbPolyline
 90
2
 70
1
 10
315.629271
 20
-114.694707
 30
0.0
 10
318.136037
 20
-116.719014
 30
0.0
  0
LWPOLYLINE
  5
2ae
100
AcDbEntity
  8
0
 62
7
100
AcDbPolyline
 90
2
 70
1
 10
318.136037
 20
-116.719014
 30
0.0
 10
320.510735
 20
-118.953979
 30
0.0
  0
LWPOLYLINE
  5
2af
100
AcDbEntity
  8
0
 62
7
100
AcDbPolyline
 90
2
 70
1
 10
320.510735
 20
-118.953979
 30
0.0
 10
322.721053
 20
-121.377092
 30
0.0
  0
LWPOLYLINE
  5
2b0
100
AcDbEntity
  8
0
 62
7
100
AcDbPolyline
 90
2
 70
1
 10
322.721053
 20
-121.377092
 30
0.0
 10
324.739031
 20
-123.960556
 30
0.0
  0
LWPOLYLINE
  5
2b1
100
AcDbEntity
  8
0
 62
7
100
AcDbPolyline
 90
2
 70
1
 10
324.739031
 20
-123.960556
 30
0.0
 10
326.541973
 20
-126.672187
 30
0.0
  0
LWPOLYLINE
  5
2b2
100
AcDbEntity
  8
0
 62
7
100
AcDbPolyline
 90
2
 70
1
 10
326.541973
 20
-126.672187
 30
0.0
 10
328.113176
 20
-129.476460
 30
0.0
  0
LWPOLYLINE
  5
2b3
100
AcDbEntity
  8
0
 62
7
100
AcDbPolyline
 90
2
 70
1
 10
328.113176
 20
-129.476460
 30
0.0
 10
329.442450
 20
-132.335686
 30
0.0
  0
LWPOLYLINE
  5
2b4
100
AcDbEntity
  8
0
 62
7
100
AcDbPolyline
 90
2
 70
1
 10
329.442450
 20
-132.335686
 30
0.0
 10
330.526405
 20
-135.211282
 30
0.0
  0
LWPOLYLINE
  5
2b5
100
AcDbEntity
  8
0
 62
7
100
AcDbPolyline
 90
2
 70
1
 10
330.526405
 20
-135.211282
 30
0.0
 10
331.368504
 20
-138.065101
 30
0.0
  0
LWPOLYLINE
  5
2b6
100
AcDbEntity
  8
0
 62
7
100
AcDbPolyline
 90
2
 70
1
 10
331.368504
 20
-138.065101
 30
0.0
 10
331.978860
 20
-140.860794
 30
0.0
  0
LWPOLYLINE
  5
2b7
100
AcDbEntity
  8
0
 62
7
100
AcDbPolyline
 90
2
 70
1
 10
331.978860
 20
-140.860794
 30
0.0
 10
332.373783
 20
-143.565186
 30
0.0
  0
LWPOLYLINE
  5
2b8
100
AcDbEntity
  8
0
 62
7
100
AcDbPolyline
 90
2
 70
1
 10
332.373783
 20
-143.565186
 30
0.0
 10
332.575072
 20
-146.149654
 30
0.0
  0
LWPOLYLINE
  5
2b9
100
AcDbEntity
  8
0
 62
7
100
AcDbPolyline
 90
2
 70
1
 10
332.575072
 20
-146.149654
 30
0.0
 10
332.609051
 20
-148.591520
 30
0.0
  0
LWPOLYLINE
  5
2ba
100
AcDbEntity
  8
0
 62
7
100
AcDbPolyline
 90
2
 70
1
 10
332.609051
 20
-148.591520
 30
0.0
 10
332.505367
 20
-150.875518
 30
0.0
  0
LWPOLYLINE
  5
2bb
100
AcDbEntity
  8
0
 62
7
100
AcDbPolyline
 90
2
 70
1
 10
332.505367
 20
-150.875518
 30
0.0
 10
332.295552
 20
-152.995452
 30
0.0
  0
LWPOLYLINE
  5
2bc
100
AcDbEntity
  8
0
 62
7
100
AcDbPolyline
 90
2
 70
1
 10
332.295552
 20
-152.995452
 30
0.0
 10
332.011428
 20
-154.956283
 30
0.0
  0
LWPOLYLINE
  5
2bd
100
AcDbEntity
  8
0
 62
7
100
AcDbPolyline
 90
2
 70
1
 10
332.011428
 20
-154.956283
 30
0.0
 10
331.683553
 20
-156.777088
 30
0.0
  0
LWPOLYLINE
  5
2be
100
AcDbEntity
  8
0
 62
7
100
AcDbPolyline
 90
2
 70
1
 10
331.683553
 20
-156.777088
 30
0.0
 10
331.342222
 20
-158.486239
 30
0.0
  0
LWPOLYLINE
  5
2bf
100
AcDbEntity
  8
0
 62
7
100
AcDbPolyline
 90
2
 70
1
 10
331.342222
 20
-158.486239
 30
0.0
 10
331.338552
 20
-158.504752
 30
0.0
  0
LWPOLYLINE
  5
2c0
100
AcDbEntity
  8
0
 62
7
100
AcDbPolyline
 90
2
 70
1
 10
331.338552
 20
-158.504752
 30
0.0
 10
331.032187
 20
-160.061459
 30
0.0
  0
LWPOLYLINE
  5
2c1
100
AcDbEntity
  8
0
 62
7
100
AcDbPolyline
 90
2
 70
1
 10
331.032187
 20
-160.061459
 30
0.0
 10
330.991716
 20
-160.287292
 30
0.0
  0
LWPOLYLINE
  5
2c2
100
AcDbEntity
  8
0
 62
7
100
AcDbPolyline
 90
2
 70
1
 10
330.991716
 20
-160.287292
 30
0.0
 10
330.771919
 20
-161.646390
 30
0.0
  0
LWPOLYLINE
  5
2c3
100
AcDbEntity
  8
0
 62
7
100
AcDbPolyline
 90
2
 70
1
 10
330.771919
 20
-161.646390
 30
0.0
 10
330.708262
 20
-162.168264
 30
0.0
  0
LWPOLYLINE
  5
2c4
100
AcDbEntity
  8
0
 62
7
100
AcDbPolyline
 90
2
 70
1
 10
330.708262
 20
-162.168264
 30
0.0
 10
330.610328
 20
-163.353849
 30
0.0
  0
LWPOLYLINE
  5
2c5
100
AcDbEntity
  8
0
 62
7
100
AcDbPolyline
 90
2
 70
1
 10
330.610328
 20
-163.353849
 30
0.0
 10
330.596591
 20
-164.260922
 30
0.0
  0
LWPOLYLINE
  5
2c6
100
AcDbEntity
  8
0
 62
7
100
AcDbPolyline
 90
2
 70
1
 10
330.596591
 20
-164.260922
 30
0.0
 10
330.650959
 20
-165.302846
 30
0.0
  0
LWPOLYLINE
  5
2c7
100
AcDbEntity
  8
0
 62
7
100
AcDbPolyline
 90
2
 70
1
 10
330.650959
 20
-165.302846
 30
0.0
 10
330.715176
 20
-165.943696
 30
0.0
  0
LWPOLYLINE
  5
2c8
100
AcDbEntity
  8
0
 62
7
100
AcDbPolyline
 90
2
 70
1
 10
330.715176
 20
-165.943696
 30
0.0
 10
330.840205
 20
-166.575620
 30
0.0
  0
LWPOLYLINE
  5
2c9
100
AcDbEntity
  8
0
 62
7
100
AcDbPolyline
 90
2
 70
1
 10
330.840205
 20
-166.575620
 30
0.0
 10
331.071526
 20
-167.508566
 30
0.0
  0
LWPOLYLINE
  5
2ca
100
AcDbEntity
  8
0
 62
7
100
AcDbPolyline
 90
2
 70
1
 10
331.071526
 20
-167.508566
 30
0.0
 10
331.285318
 20
-168.206843
 30
0.0
  0
LWPOLYLINE
  5
2cb
100
AcDbEntity
  8
0
 62
7
100
AcDbPolyline
 90
2
 70
1
 10
331.285318
 20
-168.206843
 30
0.0
 10
331.573302
 20
-168.878290
 30
0.0
  0
LWPOLYLINE
  5
2cc
100
AcDbEntity
  8
0
 62
7
100
AcDbPolyline
 90
2
 70
1
 10
331.573302
 20
-168.878290
 30
0.0
 10
331.999680
 20
-169.740699
 30
0.0
  0
LWPOLYLINE
  5
2cd
100
AcDbEntity
  8
0
 62
7
100
AcDbPolyline
 90
2
 70
1
 10
331.999680
 20
-169.740699
 30
0.0
 10
332.312733
 20
-170.304629
 30
0.0
  0
LWPOLYLINE
  5
2ce
100
AcDbEntity
  8
0
 62
7
100
AcDbPolyline
 90
2
 70
1
 10
332.312733
 20
-170.304629
 30
0.0
 10
332.678146
 20
-170.836561
 30
0.0
  0
LWPOLYLINE
  5
2cf
100
AcDbEntity
  8
0
 62
7
100
AcDbPolyline
 90
2
 70
1
 10
332.678146
 20
-170.836561
 30
0.0
 10
333.310582
 20
-171.669442
 30
0.0
  0
LWPOLYLINE
  5
2d0
100
AcDbEntity
  8
0
 62
7
100
AcDbPolyline
 90
2
 70
1
 10
333.310582
 20
-171.669442
 30
0.0
 10
333.907946
 20
-172.355528
 30
0.0
  0
LWPOLYLINE
  5
2d1
100
AcDbEntity
  8
0
 62
7
100
AcDbPolyline
 90
2
 70
1
 10
333.907946
 20
-172.355528
 30
0.0
 10
334.749996
 20
-173.201194
 30
0.0
  0
LWPOLYLINE
  5
2d2
100
AcDbEntity
  8
0
 62
7
100
AcDbPolyline
 90
2
 70
1
 10
334.749996
 20
-173.201194
 30
0.0
 10
335.136392
 20
-173.560318
 30
0.0
  0
LWPOLYLINE
  5
2d3
100
AcDbEntity
  8
0
 62
7
100
AcDbPolyline
 90
2
 70
1
 10
335.136392
 20
-173.560318
 30
0.0
 10
336.184051
 20
-174.461077
 30
0.0
  0
LWPOLYLINE
  5
2d4
100
AcDbEntity
  8
0
 62
7
100
AcDbPolyline
 90
2
 70
1
 10
336.184051
 20
-174.461077
 30
0.0
 10
336.361159
 20
-174.608228
 30
0.0
  0
LWPOLYLINE
  5
2d5
100
AcDbEntity
  8
0
 62
7
100
AcDbPolyline
 90
2
 70
1
 10
336.361159
 20
-174.608228
 30
0.0
 10
337.602977
 20
-175.605078
 30
0.0
  0
LWPOLYLINE
  5
2d6
100
AcDbEntity
  8
0
 62
7
100
AcDbPolyline
 90
2
 70
1
 10
337.602977
 20
-175.605078
 30
0.0
 10
337.617766
 20
-175.616916
 30
0.0
  0
LWPOLYLINE
  5
2d7
100
AcDbEntity
  8
0
 62
7
100
AcDbPolyline
 90
2
 70
1
 10
337.617766
 20
-175.616916
 30
0.0
 10
338.984996
 20
-176.708214
 30
0.0
  0
LWPOLYLINE
  5
2d8
100
AcDbEntity
  8
0
 62
7
100
AcDbPolyline
 90
2
 70
1
 10
338.984996
 20
-176.708214
 30
0.0
 10
340.414153
 20
-177.893637
 30
0.0
  0
LWPOLYLINE
  5
2d9
100
AcDbEntity
  8
0
 62
7
100
AcDbPolyline
 90
2
 70
1
 10
340.414153
 20
-177.893637
 30
0.0
 10
341.900387
 20
-179.214268
 30
0.0
  0
LWPOLYLINE
  5
2da
100
AcDbEntity
  8
0
 62
7
100
AcDbPolyline
 90
2
 70
1
 10
341.900387
 20
-179.214268
 30
0.0
 10
343.432630
 20
-180.704235
 30
0.0
  0
LWPOLYLINE
  5
2db
100
AcDbEntity
  8
0
 62
7
100
AcDbPolyline
 90
2
 70
1
 10
343.432630
 20
-180.704235
 30
0.0
 10
344.989716
 20
-182.387662
 30
0.0
  0
LWPOLYLINE
  5
2dc
100
AcDbEntity
  8
0
 62
7
100
AcDbPolyline
 90
2
 70
1
 10
344.989716
 20
-182.387662
 30
0.0
 10
346.543480
 20
-184.279941
 30
0.0
  0
LWPOLYLINE
  5
2dd
100
AcDbEntity
  8
0
 62
7
100
AcDbPolyline
 90
2
 70
1
 10
346.543480
 20
-184.279941
 30
0.0
 10
348.061335
 20
-186.388309
 30
0.0
  0
LWPOLYLINE
  5
2de
100
AcDbEntity
  8
0
 62
7
100
AcDbPolyline
 90
2
 70
1
 10
348.061335
 20
-186.388309
 30
0.0
 10
349.508444
 20
-188.712207
 30
0.0
  0
LWPOLYLINE
  5
2df
100
AcDbEntity
  8
0
 62
7
100
AcDbPolyline
 90
2
 70
1
 10
349.508444
 20
-188.712207
 30
0.0
 10
350.849590
 20
-191.243630
 30
0.0
  0
LWPOLYLINE
  5
2e0
100
AcDbEntity
  8
0
 62
7
100
AcDbPolyline
 90
2
 70
1
 10
350.849590
 20
-191.243630
 30
0.0
 10
352.050816
 20
-193.967581
 30
0.0
  0
LWPOLYLINE
  5
2e1
100
AcDbEntity
  8
0
 62
7
100
AcDbPolyline
 90
2
 70
1
 10
352.050816
 20
-193.967581
 30
0.0
 10
353.080858
 20
-196.862673
 30
0.0
  0
LWPOLYLINE
  5
2e2
100
AcDbEntity
  8
0
 62
7
100
AcDbPolyline
 90
2
 70
1
 10
353.080858
 20
-196.862673
 30
0.0
 10
353.912385
 20
-199.901896
 30
0.0
  0
LWPOLYLINE
  5
2e3
100
AcDbEntity
  8
0
 62
7
100
AcDbPolyline
 90
2
 70
1
 10
353.912385
 20
-199.901896
 30
0.0
 10
354.523030
 20
-203.053527
 30
0.0
  0
LWPOLYLINE
  5
2e4
100
AcDbEntity
  8
0
 62
7
100
AcDbPolyline
 90
2
 70
1
 10
354.523030
 20
-203.053527
 30
0.0
 10
354.896217
 20
-206.282189
 30
0.0
  0
LWPOLYLINE
  5
2e5
100
AcDbEntity
  8
0
 62
7
100
AcDbPolyline
 90
2
 70
1
 10
354.896217
 20
-206.282189
 30
0.0
 10
355.021759
 20
-209.550000
 30
0.0
  0
ENDSEC
  0
SECTION
  2
OBJECTS
  0
DICTIONARY
  5
C
330
0
100
AcDbDictionary
  3
ACAD_GROUP
350
D
  3
ACAD_MLINESTYLE
350
17
  0
DICTIONARY
  5
D
330
C
100
AcDbDictionary
  0
DICTIONARY
  5
1A
330
C
100
AcDbDictionary
  0
DICTIONARY
  5
17
330
C
100
AcDbDictionary
  3
STANDARD
350
18
  0
DICTIONARY
  5
19
330
C
100
AcDbDictionary
  0
ENDSEC
  0
EOF
