  0
SECTION
  2
HEADER
  9
$ACADVER
  1
AC1024
  9
$ACADMAINTVER
 70
6
  9
$DWGCODEPAGE
  3
ANSI_1252
  9
$LASTSAVEDBY
  1
ezdxf
  9
$INSBASE
 10
0.0
 20
0.0
 30
0.0
  9
$EXTMIN
 10
1e+20
 20
1e+20
 30
1e+20
  9
$EXTMAX
 10
-1e+20
 20
-1e+20
 30
-1e+20
  9
$LIMMIN
 10
0.0
 20
0.0
  9
$LIMMAX
 10
420.0
 20
297.0
  9
$ORTHOMODE
 70
0
  9
$REGENMODE
 70
1
  9
$FILLMODE
 70
1
  9
$QTEXTMODE
 70
0
  9
$MIRRTEXT
 70
1
  9
$LTSCALE
 40
1.0
  9
$ATTMODE
 70
1
  9
$TEXTSIZE
 40
2.5
  9
$TRACEWID
 40
1.0
  9
$TEXTSTYLE
  7
Standard
  9
$CLAYER
  8
0
  9
$CELTYPE
  6
ByLayer
  9
$CECOLOR
 62
256
  9
$CELTSCALE
 40
1.0
  9
$DISPSILH
 70
0
  9
$DIMSCALE
 40
1.0
  9
$DIMASZ
 40
2.5
  9
$DIMEXO
 40
0.625
  9
$DIMDLI
 40
3.75
  9
$DIMRND
 40
0.0
  9
$DIMDLE
 40
0.0
  9
$DIMEXE
 40
1.25
  9
$DIMTP
 40
0.0
  9
$DIMTM
 40
0.0
  9
$DIMTXT
 40
2.5
  9
$DIMCEN
 40
2.5
  9
$DIMTSZ
 40
0.0
  9
$DIMTOL
 70
0
  9
$DIMLIM
 70
0
  9
$DIMTIH
 70
0
  9
$DIMTOH
 70
0
  9
$DIMSE1
 70
0
  9
$DIMSE2
 70
0
  9
$DIMTAD
 70
1
  9
$DIMZIN
 70
8
  9
$DIMBLK
  1

  9
$DIMASO
 70
1
  9
$DIMSHO
 70
1
  9
$DIMPOST
  1

  9
$DIMAPOST
  1

  9
$DIMALT
 70
0
  9
$DIMALTD
 70
3
  9
$DIMALTF
 40
0.03937007874
  9
$DIMLFAC
 40
1.0
  9
$DIMTOFL
 70
1
  9
$DIMTVP
 40
0.0
  9
$DIMTIX
 70
0
  9
$DIMSOXD
 70
0
  9
$DIMSAH
 70
0
  9
$DIMBLK1
  1

  9
$DIMBLK2
  1

  9
$DIMSTYLE
  2
ISO-25
  9
$DIMCLRD
 70
0
  9
$DIMCLRE
 70
0
  9
$DIMCLRT
 70
0
  9
$DIMTFAC
 40
1.0
  9
$DIMGAP
 40
0.625
  9
$DIMJUST
 70
0
  9
$DIMSD1
 70
0
  9
$DIMSD2
 70
0
  9
$DIMTOLJ
 70
0
  9
$DIMTZIN
 70
8
  9
$DIMALTZ
 70
0
  9
$DIMALTTZ
 70
0
  9
$DIMUPT
 70
0
  9
$DIMDEC
 70
2
  9
$DIMTDEC
 70
2
  9
$DIMALTU
 70
2
  9
$DIMALTTD
 70
3
  9
$DIMTXSTY
  7
Standard
  9
$DIMAUNIT
 70
0
  9
$DIMADEC
 70
0
  9
$DIMALTRND
 40
0.0
  9
$DIMAZIN
 70
0
  9
$DIMDSEP
 70
44
  9
$DIMATFIT
 70
3
  9
$DIMFRAC
 70
0
  9
$DIMLDRBLK
  1

  9
$DIMLUNIT
 70
2
  9
$DIMLWD
 70
-2
  9
$DIMLWE
 70
-2
  9
$DIMTMOVE
 70
0
  9
$DIMFXL
 40
1.0
  9
$DIMFXLON
 70
0
  9
$DIMJOGANG
 40
0.785398163397
  9
$DIMTFILL
 70
0
  9
$DIMTFILLCLR
 70
0
  9
$DIMARCSYM
 70
0
  9
$DIMLTYPE
  6

  9
$DIMLTEX1
  6

  9
$DIMLTEX2
  6

  9
$DIMTXTDIRECTION
 70
0
  9
$LUNITS
 70
2
  9
$LUPREC
 70
4
  9
$SKETCHINC
 40
1.0
  9
$FILLETRAD
 40
10.0
  9
$AUNITS
 70
0
  9
$AUPREC
 70
2
  9
$MENU
  1
.
  9
$ELEVATION
 40
0.0
  9
$PELEVATION
 40
0.0
  9
$THICKNESS
 40
0.0
  9
$LIMCHECK
 70
0
  9
$CHAMFERA
 40
0.0
  9
$CHAMFERB
 40
0.0
  9
$CHAMFERC
 40
0.0
  9
$CHAMFERD
 40
0.0
  9
$SKPOLY
 70
0
  9
$TDCREATE
 40
2460078.6729398146
  9
$TDUCREATE
 40
2458532.153996898
  9
$TDUPDATE
 40
2460078.6729398146
  9
$TDUUPDATE
 40
2458532.1544311
  9
$TDINDWG
 40
0.0
  9
$TDUSRTIMER
 40
0.0
  9
$USRTIMER
 70
1
  9
$ANGBASE
 50
0.0
  9
$ANGDIR
 70
0
  9
$PDMODE
 70
0
  9
$PDSIZE
 40
0.0
  9
$PLINEWID
 40
0.0
  9
$SPLFRAME
 70
0
  9
$SPLINETYPE
 70
6
  9
$SPLINESEGS
 70
8
  9
$HANDSEED
  5
1F5
  9
$SURFTAB1
 70
6
  9
$SURFTAB2
 70
6
  9
$SURFTYPE
 70
6
  9
$SURFU
 70
6
  9
$SURFV
 70
6
  9
$UCSBASE
  2

  9
$UCSNAME
  2

  9
$UCSORG
 10
0.0
 20
0.0
 30
0.0
  9
$UCSXDIR
 10
1.0
 20
0.0
 30
0.0
  9
$UCSYDIR
 10
0.0
 20
1.0
 30
0.0
  9
$UCSORTHOREF
  2

  9
$UCSORTHOVIEW
 70
0
  9
$UCSORGTOP
 10
0.0
 20
0.0
 30
0.0
  9
$UCSORGBOTTOM
 10
0.0
 20
0.0
 30
0.0
  9
$UCSORGLEFT
 10
0.0
 20
0.0
 30
0.0
  9
$UCSORGRIGHT
 10
0.0
 20
0.0
 30
0.0
  9
$UCSORGFRONT
 10
0.0
 20
0.0
 30
0.0
  9
$UCSORGBACK
 10
0.0
 20
0.0
 30
0.0
  9
$PUCSBASE
  2

  9
$PUCSNAME
  2

  9
$PUCSORG
 10
0.0
 20
0.0
 30
0.0
  9
$PUCSXDIR
 10
1.0
 20
0.0
 30
0.0
  9
$PUCSYDIR
 10
0.0
 20
1.0
 30
0.0
  9
$PUCSORTHOREF
  2

  9
$PUCSORTHOVIEW
 70
0
  9
$PUCSORGTOP
 10
0.0
 20
0.0
 30
0.0
  9
$PUCSORGBOTTOM
 10
0.0
 20
0.0
 30
0.0
  9
$PUCSORGLEFT
 10
0.0
 20
0.0
 30
0.0
  9
$PUCSORGRIGHT
 10
0.0
 20
0.0
 30
0.0
  9
$PUCSORGFRONT
 10
0.0
 20
0.0
 30
0.0
  9
$PUCSORGBACK
 10
0.0
 20
0.0
 30
0.0
  9
$USERI1
 70
0
  9
$USERI2
 70
0
  9
$USERI3
 70
0
  9
$USERI4
 70
0
  9
$USERI5
 70
0
  9
$USERR1
 40
0.0
  9
$USERR2
 40
0.0
  9
$USERR3
 40
0.0
  9
$USERR4
 40
0.0
  9
$USERR5
 40
0.0
  9
$WORLDVIEW
 70
1
  9
$SHADEDGE
 70
3
  9
$SHADEDIF
 70
70
  9
$TILEMODE
 70
1
  9
$MAXACTVP
 70
64
  9
$PINSBASE
 10
0.0
 20
0.0
 30
0.0
  9
$PLIMCHECK
 70
0
  9
$PEXTMIN
 10
1e+20
 20
1e+20
 30
1e+20
  9
$PEXTMAX
 10
-1e+20
 20
-1e+20
 30
-1e+20
  9
$PLIMMIN
 10
0.0
 20
0.0
  9
$PLIMMAX
 10
420.0
 20
297.0
  9
$UNITMODE
 70
0
  9
$VISRETAIN
 70
1
  9
$PLINEGEN
 70
0
  9
$PSLTSCALE
 70
1
  9
$TREEDEPTH
 70
3020
  9
$CMLSTYLE
  2
Standard
  9
$CMLJUST
 70
0
  9
$CMLSCALE
 40
20.0
  9
$PROXYGRAPHICS
 70
1
  9
$MEASUREMENT
 70
1
  9
$CELWEIGHT
370
-1
  9
$ENDCAPS
280
0
  9
$JOINSTYLE
280
0
  9
$LWDISPLAY
290
0
  9
$INSUNITS
 70
4
  9
$HYPERLINKBASE
  1

  9
$STYLESHEET
  1

  9
$XEDIT
290
1
  9
$CEPSNTYPE
380
0
  9
$PSTYLEMODE
290
1
  9
$FINGERPRINTGUID
  2
{2BA7C73F-99A9-401C-91E6-6B347F70D58A}
  9
$VERSIONGUID
  2
{DEF82CC6-02C2-43BA-8D07-0CA81621DE98}
  9
$EXTNAMES
290
1
  9
$PSVPSCALE
 40
0.0
  9
$OLESTARTUP
290
0
  9
$SORTENTS
280
127
  9
$INDEXCTL
280
0
  9
$HIDETEXT
280
1
  9
$XCLIPFRAME
280
0
  9
$HALOGAP
280
0
  9
$OBSCOLOR
 70
257
  9
$OBSLTYPE
280
0
  9
$INTERSECTIONDISPLAY
280
0
  9
$INTERSECTIONCOLOR
 70
257
  9
$DIMASSOC
280
2
  9
$PROJECTNAME
  1

  9
$CAMERADISPLAY
290
0
  9
$LENSLENGTH
 40
50.0
  9
$CAMERAHEIGHT
 40
0.0
  9
$STEPSPERSEC
 40
24.0
  9
$STEPSIZE
 40
100.0
  9
$3DDWFPREC
 40
2.0
  9
$PSOLWIDTH
 40
0.005
  9
$PSOLHEIGHT
 40
0.08
  9
$LOFTANG1
 40
1.570796326795
  9
$LOFTANG2
 40
1.570796326795
  9
$LOFTMAG1
 40
0.0
  9
$LOFTMAG2
 40
0.0
  9
$LOFTPARAM
 70
7
  9
$LOFTNORMALS
280
1
  9
$LATITUDE
 40
37.795
  9
$LONGITUDE
 40
-122.394
  9
$NORTHDIRECTION
 40
0.0
  9
$TIMEZONE
 70
-8000
  9
$LIGHTGLYPHDISPLAY
280
1
  9
$TILEMODELIGHTSYNCH
280
1
  9
$CMATERIAL
347
20
  9
$SOLIDHIST
280
0
  9
$SHOWHIST
280
1
  9
$DWFFRAME
280
2
  9
$DGNFRAME
280
2
  9
$REALWORLDSCALE
290
1
  9
$INTERFERECOLOR
 62
256
  9
$CSHADOW
280
0
  9
$SHADOWPLANELOCATION
 40
0.0
  0
ENDSEC
  0
SECTION
  2
CLASSES
  0
CLASS
  1
ACDBDICTIONARYWDFLT
  2
AcDbDictionaryWithDefault
  3
ObjectDBX Classes
 90
0
 91
0
280
0
281
0
  0
CLASS
  1
SUN
  2
AcDbSun
  3
SCENEOE
 90
1153
 91
0
280
0
281
0
  0
CLASS
  1
VISUALSTYLE
  2
AcDbVisualStyle
  3
ObjectDBX Classes
 90
4095
 91
0
280
0
281
0
  0
CLASS
  1
MATERIAL
  2
AcDbMaterial
  3
ObjectDBX Classes
 90
1153
 91
0
280
0
281
0
  0
CLASS
  1
SCALE
  2
AcDbScale
  3
ObjectDBX Classes
 90
1153
 91
0
280
0
281
0
  0
CLASS
  1
TABLESTYLE
  2
AcDbTableStyle
  3
ObjectDBX Classes
 90
4095
 91
0
280
0
281
0
  0
CLASS
  1
MLEADERSTYLE
  2
AcDbMLeaderStyle
  3
ACDB_MLEADERSTYLE_CLASS
 90
4095
 91
0
280
0
281
0
  0
CLASS
  1
DICTIONARYVAR
  2
AcDbDictionaryVar
  3
ObjectDBX Classes
 90
0
 91
0
280
0
281
0
  0
CLASS
  1
CELLSTYLEMAP
  2
AcDbCellStyleMap
  3
ObjectDBX Classes
 90
1152
 91
0
280
0
281
0
  0
CLASS
  1
MENTALRAYRENDERSETTINGS
  2
AcDbMentalRayRenderSettings
  3
SCENEOE
 90
1024
 91
0
280
0
281
0
  0
CLASS
  1
ACDBDETAILVIEWSTYLE
  2
AcDbDetailViewStyle
  3
ObjectDBX Classes
 90
1025
 91
0
280
0
281
0
  0
CLASS
  1
ACDBSECTIONVIEWSTYLE
  2
AcDbSectionViewStyle
  3
ObjectDBX Classes
 90
1025
 91
0
280
0
281
0
  0
CLASS
  1
RASTERVARIABLES
  2
AcDbRasterVariables
  3
ISM
 90
0
 91
0
280
0
281
0
  0
CLASS
  1
LAYOUT
  2
AcDbLayout
  3
ObjectDBX Classes
 90
0
 91
0
280
0
281
0
  0
CLASS
  1
ACDBPLACEHOLDER
  2
AcDbPlaceHolder
  3
ObjectDBX Classes
 90
0
 91
0
280
0
281
0
  0
ENDSEC
  0
SECTION
  2
TABLES
  0
TABLE
  2
VPORT
  5
8
330
0
100
AcDbSymbolTable
 70
1
  0
VPORT
  5
23
330
8
100
AcDbSymbolTableRecord
100
AcDbViewportTableRecord
  2
*Active
 70
0
 10
0.0
 20
0.0
 11
1.0
 21
1.0
 12
0.0
 22
0.0
 13
0.0
 23
0.0
 14
0.5
 24
0.5
 15
0.5
 25
0.5
 16
0.0
 26
0.0
 36
1.0
 17
0.0
 27
0.0
 37
0.0
 40
1000.0
 41
1.34
 42
50.0
 43
0.0
 44
0.0
 50
0.0
 51
0.0
 71
0
 72
1000
 73
1
 74
3
 75
0
 76
0
 77
0
 78
0
281
0
 65
0
146
0.0
  0
ENDTAB
  0
TABLE
  2
LTYPE
  5
2
330
0
100
AcDbSymbolTable
 70
3
  0
LTYPE
  5
24
330
2
100
AcDbSymbolTableRecord
100
AcDbLinetypeTableRecord
  2
ByBlock
 70
0
  3

 72
65
 73
0
 40
0.0
  0
LTYPE
  5
25
330
2
100
AcDbSymbolTableRecord
100
AcDbLinetypeTableRecord
  2
ByLayer
 70
0
  3

 72
65
 73
0
 40
0.0
  0
LTYPE
  5
26
330
2
100
AcDbSymbolTableRecord
100
AcDbLinetypeTableRecord
  2
Continuous
 70
0
  3

 72
65
 73
0
 40
0.0
  0
ENDTAB
  0
TABLE
  2
LAYER
  5
1
330
0
100
AcDbSymbolTable
 70
2
  0
LAYER
  5
27
330
1
100
AcDbSymbolTableRecord
100
AcDbLayerTableRecord
  2
0
 70
0
 62
7
  6
Continuous
370
-3
390
13
347
21
  0
LAYER
  5
28
330
1
100
AcDbSymbolTableRecord
100
AcDbLayerTableRecord
  2
Defpoints
 70
0
 62
7
  6
Continuous
290
0
370
-3
390
13
347
21
  0
ENDTAB
  0
TABLE
  2
STYLE
  5
5
330
0
100
AcDbSymbolTable
 70
1
  0
STYLE
  5
29
330
5
100
AcDbSymbolTableRecord
100
AcDbTextStyleTableRecord
  2
Standard
 70
0
 40
0.0
 41
1.0
 50
0.0
 71
0
 42
2.5
  3
txt
  4

  0
ENDTAB
  0
TABLE
  2
VIEW
  5
7
330
0
100
AcDbSymbolTable
 70
0
  0
ENDTAB
  0
TABLE
  2
UCS
  5
6
330
0
100
AcDbSymbolTable
 70
0
  0
ENDTAB
  0
TABLE
  2
APPID
  5
3
330
0
100
AcDbSymbolTable
 70
3
  0
APPID
  5
2A
330
3
100
AcDbSymbolTableRecord
100
AcDbRegAppTableRecord
  2
ACAD
 70
0
  0
APPID
  5
1F2
330
3
100
AcDbSymbolTableRecord
100
AcDbRegAppTableRecord
  2
HATCHBACKGROUNDCOLOR
 70
0
  0
APPID
  5
1F3
330
3
100
AcDbSymbolTableRecord
100
AcDbRegAppTableRecord
  2
EZDXF
 70
0
  0
ENDTAB
  0
TABLE
  2
DIMSTYLE
  5
4
330
0
100
AcDbSymbolTable
 70
1
100
AcDbDimStyleTable
  0
DIMSTYLE
105
2B
330
4
100
AcDbSymbolTableRecord
100
AcDbDimStyleTableRecord
  2
Standard
 70
0
 40
1.0
 41
2.5
 42
0.625
 43
3.75
 44
1.25
 45
0.0
 46
0.0
 47
0.0
 48
0.0
 49
2.5
140
2.5
141
2.5
142
0.0
143
0.03937007874
144
1.0
145
0.0
146
1.0
147
0.625
148
0.0
 69
0
 70
0
 71
0
 72
0
 73
0
 74
0
 75
0
 76
0
 77
1
 78
8
 79
3
170
0
171
3
172
1
173
0
174
0
175
0
176
0
177
0
178
0
179
2
271
2
272
2
273
2
274
3
275
0
276
0
277
2
278
44
279
0
280
0
281
0
282
0
283
0
284
8
285
0
286
0
288
0
289
3
290
0
371
-2
372
-2
  0
ENDTAB
  0
TABLE
  2
BLOCK_RECORD
  5
9
330
0
100
AcDbSymbolTable
 70
2
  0
BLOCK_RECORD
  5
17
330
9
100
AcDbSymbolTableRecord
100
AcDbBlockTableRecord
  2
*Model_Space
340
1A
 70
0
280
1
281
0
  0
BLOCK_RECORD
  5
1B
330
9
100
AcDbSymbolTableRecord
100
AcDbBlockTableRecord
  2
*Paper_Space
340
1E
 70
0
280
1
281
0
  0
ENDTAB
  0
ENDSEC
  0
SECTION
  2
BLOCKS
  0
BLOCK
  5
18
330
17
100
AcDbEntity
  8
0
100
AcDbBlockBegin
  2
*Model_Space
 70
0
 10
0.0
 20
0.0
 30
0.0
  3
*Model_Space
  1

  0
ENDBLK
  5
19
330
17
100
AcDbEntity
  8
0
100
AcDbBlockEnd
  0
BLOCK
  5
1C
330
1B
100
AcDbEntity
  8
0
100
AcDbBlockBegin
  2
*Paper_Space
 70
0
 10
0.0
 20
0.0
 30
0.0
  3
*Paper_Space
  1

  0
ENDBLK
  5
1D
330
1B
100
AcDbEntity
  8
0
100
AcDbBlockEnd
  0
ENDSEC
  0
SECTION
  2
ENTITIES
  0
LINE
  5
2F
330
17
100
AcDbEntity
  8
0
100
AcDbLine
 10
1367.6666666666667
 20
766.3333333333334
 30
0.0
 11
1367.6666666666667
 21
766.3333333333334
 31
0.0
  0
LINE
  5
30
330
17
100
AcDbEntity
  8
0
100
AcDbLine
 10
1367.6666666666667
 20
766.3333333333334
 30
0.0
 11
1370.2270816925607
 21
766.4178458932054
 31
0.0
  0
LINE
  5
31
330
17
100
AcDbEntity
  8
0
100
AcDbLine
 10
1370.2270816925607
 20
766.4178458932054
 30
0.0
 11
1375.1926706960153
 21
767.4040772461296
 31
0.0
  0
LINE
  5
32
330
17
100
AcDbEntity
  8
0
100
AcDbLine
 10
1375.1926706960153
 20
767.4040772461296
 30
0.0
 11
1379.8498566508765
 21
769.3207012209011
 31
0.0
  0
LINE
  5
33
330
17
100
AcDbEntity
  8
0
100
AcDbLine
 10
1379.8498566508765
 20
769.3207012209011
 30
0.0
 11
1384.0629575675976
 21
772.1118790864417
 31
0.0
  0
LINE
  5
34
330
17
100
AcDbEntity
  8
0
100
AcDbLine
 10
1384.0629575675976
 20
772.1118790864417
 30
0.0
 11
1385.9335918473191
 21
773.8509259495453
 31
0.0
  0
LINE
  5
35
330
17
100
AcDbEntity
  8
0
100
AcDbLine
 10
1385.9335918473191
 20
773.8509259495453
 30
0.0
 11
1387.6839312225206
 21
775.7094916210106
 31
0.0
  0
LINE
  5
36
330
17
100
AcDbEntity
  8
0
100
AcDbLine
 10
1387.6839312225206
 20
775.7094916210106
 30
0.0
 11
1390.4932336196557
 21
779.8954112414947
 31
0.0
  0
LINE
  5
37
330
17
100
AcDbEntity
  8
0
100
AcDbLine
 10
1390.4932336196557
 20
779.8954112414947
 30
0.0
 11
1392.4223032046532
 21
784.5225508353569
 31
0.0
  0
LINE
  5
38
330
17
100
AcDbEntity
  8
0
100
AcDbLine
 10
1392.4223032046532
 20
784.5225508353569
 30
0.0
 11
1393.4149386572717
 21
789.4561037807246
 31
0.0
  0
LINE
  5
39
330
17
100
AcDbEntity
  8
0
100
AcDbLine
 10
1393.4149386572717
 20
789.4561037807246
 30
0.0
 11
1393.5
 21
792.0
 31
0.0
  0
LINE
  5
3A
330
17
100
AcDbEntity
  8
0
100
AcDbLine
 10
1393.5
 20
792.0
 30
0.0
 11
1393.4149386572717
 21
794.5438962192754
 31
0.0
  0
LINE
  5
3B
330
17
100
AcDbEntity
  8
0
100
AcDbLine
 10
1393.4149386572717
 20
794.5438962192754
 30
0.0
 11
1392.4223032046532
 21
799.4774491646431
 31
0.0
  0
LINE
  5
3C
330
17
100
AcDbEntity
  8
0
100
AcDbLine
 10
1392.4223032046532
 20
799.4774491646431
 30
0.0
 11
1390.4932336196557
 21
804.1045887585053
 31
0.0
  0
LINE
  5
3D
330
17
100
AcDbEntity
  8
0
100
AcDbLine
 10
1390.4932336196557
 20
804.1045887585053
 30
0.0
 11
1387.6839312225206
 21
808.2905083789894
 31
0.0
  0
LINE
  5
3E
330
17
100
AcDbEntity
  8
0
100
AcDbLine
 10
1387.6839312225206
 20
808.2905083789894
 30
0.0
 11
1385.9335918473191
 21
810.1490740504547
 31
0.0
  0
LINE
  5
3F
330
17
100
AcDbEntity
  8
0
100
AcDbLine
 10
1385.9335918473191
 20
810.1490740504547
 30
0.0
 11
1384.0629575675976
 21
811.8881209135583
 31
0.0
  0
LINE
  5
40
330
17
100
AcDbEntity
  8
0
100
AcDbLine
 10
1384.0629575675976
 20
811.8881209135583
 30
0.0
 11
1379.8498566508765
 21
814.6792987790989
 31
0.0
  0
LINE
  5
41
330
17
100
AcDbEntity
  8
0
100
AcDbLine
 10
1379.8498566508765
 20
814.6792987790989
 30
0.0
 11
1375.1926706960153
 21
816.5959227538704
 31
0.0
  0
LINE
  5
42
330
17
100
AcDbEntity
  8
0
100
AcDbLine
 10
1375.1926706960153
 20
816.5959227538704
 30
0.0
 11
1370.2270816925607
 21
817.5821541067946
 31
0.0
  0
LINE
  5
43
330
17
100
AcDbEntity
  8
0
100
AcDbLine
 10
1370.2270816925607
 20
817.5821541067946
 30
0.0
 11
1367.6666666666667
 21
817.6666666666666
 31
0.0
  0
LINE
  5
44
330
17
100
AcDbEntity
  8
0
100
AcDbLine
 10
1367.6666666666667
 20
817.6666666666666
 30
0.0
 11
1365.1062516407728
 21
817.5821541067946
 31
0.0
  0
LINE
  5
45
330
17
100
AcDbEntity
  8
0
100
AcDbLine
 10
1365.1062516407728
 20
817.5821541067946
 30
0.0
 11
1360.1406626373182
 21
816.5959227538704
 31
0.0
  0
LINE
  5
46
330
17
100
AcDbEntity
  8
0
100
AcDbLine
 10
1360.1406626373182
 20
816.5959227538704
 30
0.0
 11
1355.483476682457
 21
814.6792987790989
 31
0.0
  0
LINE
  5
47
330
17
100
AcDbEntity
  8
0
100
AcDbLine
 10
1355.483476682457
 20
814.6792987790989
 30
0.0
 11
1351.270375765736
 21
811.8881209135583
 31
0.0
  0
LINE
  5
48
330
17
100
AcDbEntity
  8
0
100
AcDbLine
 10
1351.270375765736
 20
811.8881209135583
 30
0.0
 11
1349.3997414860144
 21
810.1490740504547
 31
0.0
  0
LINE
  5
49
330
17
100
AcDbEntity
  8
0
100
AcDbLine
 10
1349.3997414860144
 20
810.1490740504547
 30
0.0
 11
1347.6494021108128
 21
808.2905083789894
 31
0.0
  0
LINE
  5
4A
330
17
100
AcDbEntity
  8
0
100
AcDbLine
 10
1347.6494021108128
 20
808.2905083789894
 30
0.0
 11
1344.8400997136778
 21
804.1045887585053
 31
0.0
  0
LINE
  5
4B
330
17
100
AcDbEntity
  8
0
100
AcDbLine
 10
1344.8400997136778
 20
804.1045887585053
 30
0.0
 11
1342.9110301286803
 21
799.4774491646431
 31
0.0
  0
LINE
  5
4C
330
17
100
AcDbEntity
  8
0
100
AcDbLine
 10
1342.9110301286803
 20
799.4774491646431
 30
0.0
 11
1341.9183946760618
 21
794.5438962192754
 31
0.0
  0
LINE
  5
4D
330
17
100
AcDbEntity
  8
0
100
AcDbLine
 10
1341.9183946760618
 20
794.5438962192754
 30
0.0
 11
1341.8333333333335
 21
792.0
 31
0.0
  0
LINE
  5
4E
330
17
100
AcDbEntity
  8
0
100
AcDbLine
 10
1341.8333333333335
 20
792.0
 30
0.0
 11
1341.9183946760618
 21
789.4561037807246
 31
0.0
  0
LINE
  5
4F
330
17
100
AcDbEntity
  8
0
100
AcDbLine
 10
1341.9183946760618
 20
789.4561037807246
 30
0.0
 11
1342.9110301286803
 21
784.5225508353569
 31
0.0
  0
LINE
  5
50
330
17
100
AcDbEntity
  8
0
100
AcDbLine
 10
1342.9110301286803
 20
784.5225508353569
 30
0.0
 11
1344.8400997136778
 21
779.8954112414947
 31
0.0
  0
LINE
  5
51
330
17
100
AcDbEntity
  8
0
100
AcDbLine
 10
1344.8400997136778
 20
779.8954112414947
 30
0.0
 11
1347.6494021108128
 21
775.7094916210106
 31
0.0
  0
LINE
  5
52
330
17
100
AcDbEntity
  8
0
100
AcDbLine
 10
1347.6494021108128
 20
775.7094916210106
 30
0.0
 11
1349.3997414860144
 21
773.8509259495453
 31
0.0
  0
LINE
  5
53
330
17
100
AcDbEntity
  8
0
100
AcDbLine
 10
1349.3997414860144
 20
773.8509259495453
 30
0.0
 11
1351.270375765736
 21
772.1118790864417
 31
0.0
  0
LINE
  5
54
330
17
100
AcDbEntity
  8
0
100
AcDbLine
 10
1351.270375765736
 20
772.1118790864417
 30
0.0
 11
1355.483476682457
 21
769.3207012209011
 31
0.0
  0
LINE
  5
55
330
17
100
AcDbEntity
  8
0
100
AcDbLine
 10
1355.483476682457
 20
769.3207012209011
 30
0.0
 11
1360.1406626373182
 21
767.4040772461296
 31
0.0
  0
LINE
  5
56
330
17
100
AcDbEntity
  8
0
100
AcDbLine
 10
1360.1406626373182
 20
767.4040772461296
 30
0.0
 11
1365.1062516407728
 21
766.4178458932054
 31
0.0
  0
LINE
  5
57
330
17
100
AcDbEntity
  8
0
100
AcDbLine
 10
1365.1062516407728
 20
766.4178458932054
 30
0.0
 11
1367.6666666666667
 21
766.3333333333334
 31
0.0
  0
LINE
  5
58
330
17
100
AcDbEntity
  8
0
100
AcDbLine
 10
1268.9921137603897
 20
1068.0630961768027
 30
0.0
 11
1268.9921137603897
 21
1068.0630961768027
 31
0.0
  0
LINE
  5
59
330
17
100
AcDbEntity
  8
0
100
AcDbLine
 10
1268.9921137603897
 20
1068.0630961768027
 30
0.0
 11
1271.5525287862838
 21
1068.1476087366746
 31
0.0
  0
LINE
  5
5A
330
17
100
AcDbEntity
  8
0
100
AcDbLine
 10
1271.5525287862838
 20
1068.1476087366746
 30
0.0
 11
1276.5181177897382
 21
1069.1338400895988
 31
0.0
  0
LINE
  5
5B
330
17
100
AcDbEntity
  8
0
100
AcDbLine
 10
1276.5181177897382
 20
1069.1338400895988
 30
0.0
 11
1281.1753037445997
 21
1071.0504640643703
 31
0.0
  0
LINE
  5
5C
330
17
100
AcDbEntity
  8
0
100
AcDbLine
 10
1281.1753037445997
 20
1071.0504640643703
 30
0.0
 11
1285.3884046613205
 21
1073.841641929911
 31
0.0
  0
LINE
  5
5D
330
17
100
AcDbEntity
  8
0
100
AcDbLine
 10
1285.3884046613205
 20
1073.841641929911
 30
0.0
 11
1287.259038941042
 21
1075.5806887930146
 31
0.0
  0
LINE
  5
5E
330
17
100
AcDbEntity
  8
0
100
AcDbLine
 10
1287.259038941042
 20
1075.5806887930146
 30
0.0
 11
1289.0093783162438
 21
1077.43925446448
 31
0.0
  0
LINE
  5
5F
330
17
100
AcDbEntity
  8
0
100
AcDbLine
 10
1289.0093783162438
 20
1077.43925446448
 30
0.0
 11
1291.8186807133789
 21
1081.6251740849639
 31
0.0
  0
LINE
  5
60
330
17
100
AcDbEntity
  8
0
100
AcDbLine
 10
1291.8186807133789
 20
1081.6251740849639
 30
0.0
 11
1293.7477502983759
 21
1086.2523136788263
 31
0.0
  0
LINE
  5
61
330
17
100
AcDbEntity
  8
0
100
AcDbLine
 10
1293.7477502983759
 20
1086.2523136788263
 30
0.0
 11
1294.7403857509948
 21
1091.1858666241942
 31
0.0
  0
LINE
  5
62
330
17
100
AcDbEntity
  8
0
100
AcDbLine
 10
1294.7403857509948
 20
1091.1858666241942
 30
0.0
 11
1294.825447093723
 21
1093.7297628434694
 31
0.0
  0
LINE
  5
63
330
17
100
AcDbEntity
  8
0
100
AcDbLine
 10
1294.825447093723
 20
1093.7297628434694
 30
0.0
 11
1294.7403857509948
 21
1096.2736590627446
 31
0.0
  0
LINE
  5
64
330
17
100
AcDbEntity
  8
0
100
AcDbLine
 10
1294.7403857509948
 20
1096.2736590627446
 30
0.0
 11
1293.7477502983759
 21
1101.2072120081125
 31
0.0
  0
LINE
  5
65
330
17
100
AcDbEntity
  8
0
100
AcDbLine
 10
1293.7477502983759
 20
1101.2072120081125
 30
0.0
 11
1291.8186807133789
 21
1105.834351601975
 31
0.0
  0
LINE
  5
66
330
17
100
AcDbEntity
  8
0
100
AcDbLine
 10
1291.8186807133789
 20
1105.834351601975
 30
0.0
 11
1289.0093783162438
 21
1110.0202712224589
 31
0.0
  0
LINE
  5
67
330
17
100
AcDbEntity
  8
0
100
AcDbLine
 10
1289.0093783162438
 20
1110.0202712224589
 30
0.0
 11
1287.259038941042
 21
1111.8788368939242
 31
0.0
  0
LINE
  5
68
330
17
100
AcDbEntity
  8
0
100
AcDbLine
 10
1287.259038941042
 20
1111.8788368939242
 30
0.0
 11
1285.3884046613205
 21
1113.6178837570278
 31
0.0
  0
LINE
  5
69
330
17
100
AcDbEntity
  8
0
100
AcDbLine
 10
1285.3884046613205
 20
1113.6178837570278
 30
0.0
 11
1281.1753037445997
 21
1116.4090616225685
 31
0.0
  0
LINE
  5
6A
330
17
100
AcDbEntity
  8
0
100
AcDbLine
 10
1281.1753037445997
 20
1116.4090616225685
 30
0.0
 11
1276.5181177897382
 21
1118.32568559734
 31
0.0
  0
LINE
  5
6B
330
17
100
AcDbEntity
  8
0
100
AcDbLine
 10
1276.5181177897382
 20
1118.32568559734
 30
0.0
 11
1271.5525287862838
 21
1119.3119169502643
 31
0.0
  0
LINE
  5
6C
330
17
100
AcDbEntity
  8
0
100
AcDbLine
 10
1271.5525287862838
 20
1119.3119169502643
 30
0.0
 11
1268.9921137603897
 21
1119.3964295101362
 31
0.0
  0
LINE
  5
6D
330
17
100
AcDbEntity
  8
0
100
AcDbLine
 10
1268.9921137603897
 20
1119.3964295101362
 30
0.0
 11
1266.4316987344955
 21
1119.3119169502643
 31
0.0
  0
LINE
  5
6E
330
17
100
AcDbEntity
  8
0
100
AcDbLine
 10
1266.4316987344955
 20
1119.3119169502643
 30
0.0
 11
1261.4661097310411
 21
1118.32568559734
 31
0.0
  0
LINE
  5
6F
330
17
100
AcDbEntity
  8
0
100
AcDbLine
 10
1261.4661097310411
 20
1118.32568559734
 30
0.0
 11
1256.8089237761797
 21
1116.4090616225685
 31
0.0
  0
LINE
  5
70
330
17
100
AcDbEntity
  8
0
100
AcDbLine
 10
1256.8089237761797
 20
1116.4090616225685
 30
0.0
 11
1252.5958228594588
 21
1113.6178837570278
 31
0.0
  0
LINE
  5
71
330
17
100
AcDbEntity
  8
0
100
AcDbLine
 10
1252.5958228594588
 20
1113.6178837570278
 30
0.0
 11
1250.7251885797373
 21
1111.8788368939242
 31
0.0
  0
LINE
  5
72
330
17
100
AcDbEntity
  8
0
100
AcDbLine
 10
1250.7251885797373
 20
1111.8788368939242
 30
0.0
 11
1248.9748492045355
 21
1110.0202712224589
 31
0.0
  0
LINE
  5
73
330
17
100
AcDbEntity
  8
0
100
AcDbLine
 10
1248.9748492045355
 20
1110.0202712224589
 30
0.0
 11
1246.1655468074005
 21
1105.834351601975
 31
0.0
  0
LINE
  5
74
330
17
100
AcDbEntity
  8
0
100
AcDbLine
 10
1246.1655468074005
 20
1105.834351601975
 30
0.0
 11
1244.2364772224034
 21
1101.2072120081125
 31
0.0
  0
LINE
  5
75
330
17
100
AcDbEntity
  8
0
100
AcDbLine
 10
1244.2364772224034
 20
1101.2072120081125
 30
0.0
 11
1243.2438417697845
 21
1096.2736590627446
 31
0.0
  0
LINE
  5
76
330
17
100
AcDbEntity
  8
0
100
AcDbLine
 10
1243.2438417697845
 20
1096.2736590627446
 30
0.0
 11
1243.1587804270564
 21
1093.7297628434694
 31
0.0
  0
LINE
  5
77
330
17
100
AcDbEntity
  8
0
100
AcDbLine
 10
1243.1587804270564
 20
1093.7297628434694
 30
0.0
 11
1243.2438417697845
 21
1091.1858666241942
 31
0.0
  0
LINE
  5
78
330
17
100
AcDbEntity
  8
0
100
AcDbLine
 10
1243.2438417697845
 20
1091.1858666241942
 30
0.0
 11
1244.2364772224034
 21
1086.2523136788263
 31
0.0
  0
LINE
  5
79
330
17
100
AcDbEntity
  8
0
100
AcDbLine
 10
1244.2364772224034
 20
1086.2523136788263
 30
0.0
 11
1246.1655468074005
 21
1081.6251740849639
 31
0.0
  0
LINE
  5
7A
330
17
100
AcDbEntity
  8
0
100
AcDbLine
 10
1246.1655468074005
 20
1081.6251740849639
 30
0.0
 11
1248.9748492045355
 21
1077.43925446448
 31
0.0
  0
LINE
  5
7B
330
17
100
AcDbEntity
  8
0
100
AcDbLine
 10
1248.9748492045355
 20
1077.43925446448
 30
0.0
 11
1250.7251885797373
 21
1075.5806887930146
 31
0.0
  0
LINE
  5
7C
330
17
100
AcDbEntity
  8
0
100
AcDbLine
 10
1250.7251885797373
 20
1075.5806887930146
 30
0.0
 11
1252.5958228594588
 21
1073.841641929911
 31
0.0
  0
LINE
  5
7D
330
17
100
AcDbEntity
  8
0
100
AcDbLine
 10
1252.5958228594588
 20
1073.841641929911
 30
0.0
 11
1256.8089237761797
 21
1071.0504640643703
 31
0.0
  0
LINE
  5
7E
330
17
100
AcDbEntity
  8
0
100
AcDbLine
 10
1256.8089237761797
 20
1071.0504640643703
 30
0.0
 11
1261.4661097310411
 21
1069.1338400895988
 31
0.0
  0
LINE
  5
7F
330
17
100
AcDbEntity
  8
0
100
AcDbLine
 10
1261.4661097310411
 20
1069.1338400895988
 30
0.0
 11
1266.4316987344955
 21
1068.1476087366746
 31
0.0
  0
LINE
  5
80
330
17
100
AcDbEntity
  8
0
100
AcDbLine
 10
1266.4316987344955
 20
1068.1476087366746
 30
0.0
 11
1268.9921137603897
 21
1068.0630961768027
 31
0.0
  0
LINE
  5
81
330
17
100
AcDbEntity
  8
0
100
AcDbLine
 10
1010.6587804270562
 20
1254.542345031512
 30
0.0
 11
1010.6587804270562
 21
1254.542345031512
 31
0.0
  0
LINE
  5
82
330
17
100
AcDbEntity
  8
0
100
AcDbLine
 10
1010.6587804270562
 20
1254.542345031512
 30
0.0
 11
1013.2191954529501
 21
1254.626857591384
 31
0.0
  0
LINE
  5
83
330
17
100
AcDbEntity
  8
0
100
AcDbLine
 10
1013.2191954529501
 20
1254.626857591384
 30
0.0
 11
1018.1847844564047
 21
1255.6130889443084
 31
0.0
  0
LINE
  5
84
330
17
100
AcDbEntity
  8
0
100
AcDbLine
 10
1018.1847844564047
 20
1255.6130889443084
 30
0.0
 11
1022.8419704112662
 21
1257.5297129190799
 31
0.0
  0
LINE
  5
85
330
17
100
AcDbEntity
  8
0
100
AcDbLine
 10
1022.8419704112662
 20
1257.5297129190799
 30
0.0
 11
1027.055071327987
 21
1260.3208907846206
 31
0.0
  0
LINE
  5
86
330
17
100
AcDbEntity
  8
0
100
AcDbLine
 10
1027.055071327987
 20
1260.3208907846206
 30
0.0
 11
1028.9257056077086
 21
1262.059937647724
 31
0.0
  0
LINE
  5
87
330
17
100
AcDbEntity
  8
0
100
AcDbLine
 10
1028.9257056077086
 20
1262.059937647724
 30
0.0
 11
1030.6760449829103
 21
1263.9185033191893
 31
0.0
  0
LINE
  5
88
330
17
100
AcDbEntity
  8
0
100
AcDbLine
 10
1030.6760449829103
 20
1263.9185033191893
 30
0.0
 11
1033.4853473800454
 21
1268.1044229396734
 31
0.0
  0
LINE
  5
89
330
17
100
AcDbEntity
  8
0
100
AcDbLine
 10
1033.4853473800454
 20
1268.1044229396734
 30
0.0
 11
1035.4144169650424
 21
1272.731562533536
 31
0.0
  0
LINE
  5
8A
330
17
100
AcDbEntity
  8
0
100
AcDbLine
 10
1035.4144169650424
 20
1272.731562533536
 30
0.0
 11
1036.4070524176614
 21
1277.6651154789033
 31
0.0
  0
LINE
  5
8B
330
17
100
AcDbEntity
  8
0
100
AcDbLine
 10
1036.4070524176614
 20
1277.6651154789033
 30
0.0
 11
1036.4921137603894
 21
1280.2090116981788
 31
0.0
  0
LINE
  5
8C
330
17
100
AcDbEntity
  8
0
100
AcDbLine
 10
1036.4921137603894
 20
1280.2090116981788
 30
0.0
 11
1036.4070524176614
 21
1282.7529079174542
 31
0.0
  0
LINE
  5
8D
330
17
100
AcDbEntity
  8
0
100
AcDbLine
 10
1036.4070524176614
 20
1282.7529079174542
 30
0.0
 11
1035.4144169650424
 21
1287.6864608628216
 31
0.0
  0
LINE
  5
8E
330
17
100
AcDbEntity
  8
0
100
AcDbLine
 10
1035.4144169650424
 20
1287.6864608628216
 30
0.0
 11
1033.4853473800454
 21
1292.313600456684
 31
0.0
  0
LINE
  5
8F
330
17
100
AcDbEntity
  8
0
100
AcDbLine
 10
1033.4853473800454
 20
1292.313600456684
 30
0.0
 11
1030.6760449829103
 21
1296.4995200771682
 31
0.0
  0
LINE
  5
90
330
17
100
AcDbEntity
  8
0
100
AcDbLine
 10
1030.6760449829103
 20
1296.4995200771682
 30
0.0
 11
1028.9257056077086
 21
1298.3580857486336
 31
0.0
  0
LINE
  5
91
330
17
100
AcDbEntity
  8
0
100
AcDbLine
 10
1028.9257056077086
 20
1298.3580857486336
 30
0.0
 11
1027.055071327987
 21
1300.097132611737
 31
0.0
  0
LINE
  5
92
330
17
100
AcDbEntity
  8
0
100
AcDbLine
 10
1027.055071327987
 20
1300.097132611737
 30
0.0
 11
1022.8419704112662
 21
1302.8883104772776
 31
0.0
  0
LINE
  5
93
330
17
100
AcDbEntity
  8
0
100
AcDbLine
 10
1022.8419704112662
 20
1302.8883104772776
 30
0.0
 11
1018.1847844564047
 21
1304.804934452049
 31
0.0
  0
LINE
  5
94
330
17
100
AcDbEntity
  8
0
100
AcDbLine
 10
1018.1847844564047
 20
1304.804934452049
 30
0.0
 11
1013.2191954529501
 21
1305.7911658049736
 31
0.0
  0
LINE
  5
95
330
17
100
AcDbEntity
  8
0
100
AcDbLine
 10
1013.2191954529501
 20
1305.7911658049736
 30
0.0
 11
1010.6587804270562
 21
1305.8756783648455
 31
0.0
  0
LINE
  5
96
330
17
100
AcDbEntity
  8
0
100
AcDbLine
 10
1010.6587804270562
 20
1305.8756783648455
 30
0.0
 11
1008.0983654011623
 21
1305.7911658049736
 31
0.0
  0
LINE
  5
97
330
17
100
AcDbEntity
  8
0
100
AcDbLine
 10
1008.0983654011623
 20
1305.7911658049736
 30
0.0
 11
1003.1327763977076
 21
1304.804934452049
 31
0.0
  0
LINE
  5
98
330
17
100
AcDbEntity
  8
0
100
AcDbLine
 10
1003.1327763977076
 20
1304.804934452049
 30
0.0
 11
998.4755904428462
 21
1302.8883104772776
 31
0.0
  0
LINE
  5
99
330
17
100
AcDbEntity
  8
0
100
AcDbLine
 10
998.4755904428462
 20
1302.8883104772776
 30
0.0
 11
994.2624895261253
 21
1300.097132611737
 31
0.0
  0
LINE
  5
9A
330
17
100
AcDbEntity
  8
0
100
AcDbLine
 10
994.2624895261253
 20
1300.097132611737
 30
0.0
 11
992.3918552464037
 21
1298.3580857486336
 31
0.0
  0
LINE
  5
9B
330
17
100
AcDbEntity
  8
0
100
AcDbLine
 10
992.3918552464037
 20
1298.3580857486336
 30
0.0
 11
990.641515871202
 21
1296.4995200771682
 31
0.0
  0
LINE
  5
9C
330
17
100
AcDbEntity
  8
0
100
AcDbLine
 10
990.641515871202
 20
1296.4995200771682
 30
0.0
 11
987.8322134740669
 21
1292.313600456684
 31
0.0
  0
LINE
  5
9D
330
17
100
AcDbEntity
  8
0
100
AcDbLine
 10
987.8322134740669
 20
1292.313600456684
 30
0.0
 11
985.90314388907
 21
1287.6864608628216
 31
0.0
  0
LINE
  5
9E
330
17
100
AcDbEntity
  8
0
100
AcDbLine
 10
985.90314388907
 20
1287.6864608628216
 30
0.0
 11
984.910508436451
 21
1282.7529079174542
 31
0.0
  0
LINE
  5
9F
330
17
100
AcDbEntity
  8
0
100
AcDbLine
 10
984.910508436451
 20
1282.7529079174542
 30
0.0
 11
984.8254470937228
 21
1280.2090116981788
 31
0.0
  0
LINE
  5
A0
330
17
100
AcDbEntity
  8
0
100
AcDbLine
 10
984.8254470937228
 20
1280.2090116981788
 30
0.0
 11
984.910508436451
 21
1277.6651154789033
 31
0.0
  0
LINE
  5
A1
330
17
100
AcDbEntity
  8
0
100
AcDbLine
 10
984.910508436451
 20
1277.6651154789033
 30
0.0
 11
985.90314388907
 21
1272.731562533536
 31
0.0
  0
LINE
  5
A2
330
17
100
AcDbEntity
  8
0
100
AcDbLine
 10
985.90314388907
 20
1272.731562533536
 30
0.0
 11
987.8322134740669
 21
1268.1044229396734
 31
0.0
  0
LINE
  5
A3
330
17
100
AcDbEntity
  8
0
100
AcDbLine
 10
987.8322134740669
 20
1268.1044229396734
 30
0.0
 11
990.641515871202
 21
1263.9185033191893
 31
0.0
  0
LINE
  5
A4
330
17
100
AcDbEntity
  8
0
100
AcDbLine
 10
990.641515871202
 20
1263.9185033191893
 30
0.0
 11
992.3918552464037
 21
1262.059937647724
 31
0.0
  0
LINE
  5
A5
330
17
100
AcDbEntity
  8
0
100
AcDbLine
 10
992.3918552464037
 20
1262.059937647724
 30
0.0
 11
994.2624895261253
 21
1260.3208907846206
 31
0.0
  0
LINE
  5
A6
330
17
100
AcDbEntity
  8
0
100
AcDbLine
 10
994.2624895261253
 20
1260.3208907846206
 30
0.0
 11
998.4755904428462
 21
1257.5297129190799
 31
0.0
  0
LINE
  5
A7
330
17
100
AcDbEntity
  8
0
100
AcDbLine
 10
998.4755904428462
 20
1257.5297129190799
 30
0.0
 11
1003.1327763977076
 21
1255.6130889443084
 31
0.0
  0
LINE
  5
A8
330
17
100
AcDbEntity
  8
0
100
AcDbLine
 10
1003.1327763977076
 20
1255.6130889443084
 30
0.0
 11
1008.0983654011623
 21
1254.626857591384
 31
0.0
  0
LINE
  5
A9
330
17
100
AcDbEntity
  8
0
100
AcDbLine
 10
1008.0983654011623
 20
1254.626857591384
 30
0.0
 11
1010.6587804270562
 21
1254.542345031512
 31
0.0
  0
LINE
  5
AA
330
17
100
AcDbEntity
  8
0
100
AcDbLine
 10
691.3412195729438
 20
1254.542345031512
 30
0.0
 11
691.3412195729438
 21
1254.542345031512
 31
0.0
  0
LINE
  5
AB
330
17
100
AcDbEntity
  8
0
100
AcDbLine
 10
691.3412195729438
 20
1254.542345031512
 30
0.0
 11
693.9016345988377
 21
1254.626857591384
 31
0.0
  0
LINE
  5
AC
330
17
100
AcDbEntity
  8
0
100
AcDbLine
 10
693.9016345988377
 20
1254.626857591384
 30
0.0
 11
698.8672236022924
 21
1255.6130889443084
 31
0.0
  0
LINE
  5
AD
330
17
100
AcDbEntity
  8
0
100
AcDbLine
 10
698.8672236022924
 20
1255.6130889443084
 30
0.0
 11
703.5244095571538
 21
1257.5297129190799
 31
0.0
  0
LINE
  5
AE
330
17
100
AcDbEntity
  8
0
100
AcDbLine
 10
703.5244095571538
 20
1257.5297129190799
 30
0.0
 11
707.7375104738747
 21
1260.3208907846206
 31
0.0
  0
LINE
  5
AF
330
17
100
AcDbEntity
  8
0
100
AcDbLine
 10
707.7375104738747
 20
1260.3208907846206
 30
0.0
 11
709.6081447535963
 21
1262.059937647724
 31
0.0
  0
LINE
  5
B0
330
17
100
AcDbEntity
  8
0
100
AcDbLine
 10
709.6081447535963
 20
1262.059937647724
 30
0.0
 11
711.358484128798
 21
1263.9185033191893
 31
0.0
  0
LINE
  5
B1
330
17
100
AcDbEntity
  8
0
100
AcDbLine
 10
711.358484128798
 20
1263.9185033191893
 30
0.0
 11
714.1677865259331
 21
1268.1044229396734
 31
0.0
  0
LINE
  5
B2
330
17
100
AcDbEntity
  8
0
100
AcDbLine
 10
714.1677865259331
 20
1268.1044229396734
 30
0.0
 11
716.09685611093
 21
1272.731562533536
 31
0.0
  0
LINE
  5
B3
330
17
100
AcDbEntity
  8
0
100
AcDbLine
 10
716.09685611093
 20
1272.731562533536
 30
0.0
 11
717.089491563549
 21
1277.6651154789033
 31
0.0
  0
LINE
  5
B4
330
17
100
AcDbEntity
  8
0
100
AcDbLine
 10
717.089491563549
 20
1277.6651154789033
 30
0.0
 11
717.1745529062772
 21
1280.2090116981788
 31
0.0
  0
LINE
  5
B5
330
17
100
AcDbEntity
  8
0
100
AcDbLine
 10
717.1745529062772
 20
1280.2090116981788
 30
0.0
 11
717.089491563549
 21
1282.7529079174542
 31
0.0
  0
LINE
  5
B6
330
17
100
AcDbEntity
  8
0
100
AcDbLine
 10
717.089491563549
 20
1282.7529079174542
 30
0.0
 11
716.09685611093
 21
1287.6864608628216
 31
0.0
  0
LINE
  5
B7
330
17
100
AcDbEntity
  8
0
100
AcDbLine
 10
716.09685611093
 20
1287.6864608628216
 30
0.0
 11
714.1677865259331
 21
1292.313600456684
 31
0.0
  0
LINE
  5
B8
330
17
100
AcDbEntity
  8
0
100
AcDbLine
 10
714.1677865259331
 20
1292.313600456684
 30
0.0
 11
711.358484128798
 21
1296.4995200771682
 31
0.0
  0
LINE
  5
B9
330
17
100
AcDbEntity
  8
0
100
AcDbLine
 10
711.358484128798
 20
1296.4995200771682
 30
0.0
 11
709.6081447535963
 21
1298.3580857486336
 31
0.0
  0
LINE
  5
BA
330
17
100
AcDbEntity
  8
0
100
AcDbLine
 10
709.6081447535963
 20
1298.3580857486336
 30
0.0
 11
707.7375104738747
 21
1300.097132611737
 31
0.0
  0
LINE
  5
BB
330
17
100
AcDbEntity
  8
0
100
AcDbLine
 10
707.7375104738747
 20
1300.097132611737
 30
0.0
 11
703.5244095571538
 21
1302.8883104772776
 31
0.0
  0
LINE
  5
BC
330
17
100
AcDbEntity
  8
0
100
AcDbLine
 10
703.5244095571538
 20
1302.8883104772776
 30
0.0
 11
698.8672236022924
 21
1304.804934452049
 31
0.0
  0
LINE
  5
BD
330
17
100
AcDbEntity
  8
0
100
AcDbLine
 10
698.8672236022924
 20
1304.804934452049
 30
0.0
 11
693.9016345988377
 21
1305.7911658049736
 31
0.0
  0
LINE
  5
BE
330
17
100
AcDbEntity
  8
0
100
AcDbLine
 10
693.9016345988377
 20
1305.7911658049736
 30
0.0
 11
691.3412195729438
 21
1305.8756783648455
 31
0.0
  0
LINE
  5
BF
330
17
100
AcDbEntity
  8
0
100
AcDbLine
 10
691.3412195729438
 20
1305.8756783648455
 30
0.0
 11
688.7808045470499
 21
1305.7911658049736
 31
0.0
  0
LINE
  5
C0
330
17
100
AcDbEntity
  8
0
100
AcDbLine
 10
688.7808045470499
 20
1305.7911658049736
 30
0.0
 11
683.8152155435953
 21
1304.804934452049
 31
0.0
  0
LINE
  5
C1
330
17
100
AcDbEntity
  8
0
100
AcDbLine
 10
683.8152155435953
 20
1304.804934452049
 30
0.0
 11
679.1580295887338
 21
1302.8883104772776
 31
0.0
  0
LINE
  5
C2
330
17
100
AcDbEntity
  8
0
100
AcDbLine
 10
679.1580295887338
 20
1302.8883104772776
 30
0.0
 11
674.9449286720129
 21
1300.097132611737
 31
0.0
  0
LINE
  5
C3
330
17
100
AcDbEntity
  8
0
100
AcDbLine
 10
674.9449286720129
 20
1300.097132611737
 30
0.0
 11
673.0742943922913
 21
1298.3580857486336
 31
0.0
  0
LINE
  5
C4
330
17
100
AcDbEntity
  8
0
100
AcDbLine
 10
673.0742943922913
 20
1298.3580857486336
 30
0.0
 11
671.3239550170897
 21
1296.4995200771682
 31
0.0
  0
LINE
  5
C5
330
17
100
AcDbEntity
  8
0
100
AcDbLine
 10
671.3239550170897
 20
1296.4995200771682
 30
0.0
 11
668.5146526199545
 21
1292.313600456684
 31
0.0
  0
LINE
  5
C6
330
17
100
AcDbEntity
  8
0
100
AcDbLine
 10
668.5146526199545
 20
1292.313600456684
 30
0.0
 11
666.5855830349576
 21
1287.6864608628216
 31
0.0
  0
LINE
  5
C7
330
17
100
AcDbEntity
  8
0
100
AcDbLine
 10
666.5855830349576
 20
1287.6864608628216
 30
0.0
 11
665.5929475823386
 21
1282.7529079174542
 31
0.0
  0
LINE
  5
C8
330
17
100
AcDbEntity
  8
0
100
AcDbLine
 10
665.5929475823386
 20
1282.7529079174542
 30
0.0
 11
665.5078862396105
 21
1280.2090116981788
 31
0.0
  0
LINE
  5
C9
330
17
100
AcDbEntity
  8
0
100
AcDbLine
 10
665.5078862396105
 20
1280.2090116981788
 30
0.0
 11
665.5929475823386
 21
1277.6651154789033
 31
0.0
  0
LINE
  5
CA
330
17
100
AcDbEntity
  8
0
100
AcDbLine
 10
665.5929475823386
 20
1277.6651154789033
 30
0.0
 11
666.5855830349576
 21
1272.731562533536
 31
0.0
  0
LINE
  5
CB
330
17
100
AcDbEntity
  8
0
100
AcDbLine
 10
666.5855830349576
 20
1272.731562533536
 30
0.0
 11
668.5146526199545
 21
1268.1044229396734
 31
0.0
  0
LINE
  5
CC
330
17
100
AcDbEntity
  8
0
100
AcDbLine
 10
668.5146526199545
 20
1268.1044229396734
 30
0.0
 11
671.3239550170897
 21
1263.9185033191893
 31
0.0
  0
LINE
  5
CD
330
17
100
AcDbEntity
  8
0
100
AcDbLine
 10
671.3239550170897
 20
1263.9185033191893
 30
0.0
 11
673.0742943922913
 21
1262.059937647724
 31
0.0
  0
LINE
  5
CE
330
17
100
AcDbEntity
  8
0
100
AcDbLine
 10
673.0742943922913
 20
1262.059937647724
 30
0.0
 11
674.9449286720129
 21
1260.3208907846206
 31
0.0
  0
LINE
  5
CF
330
17
100
AcDbEntity
  8
0
100
AcDbLine
 10
674.9449286720129
 20
1260.3208907846206
 30
0.0
 11
679.1580295887338
 21
1257.5297129190799
 31
0.0
  0
LINE
  5
D0
330
17
100
AcDbEntity
  8
0
100
AcDbLine
 10
679.1580295887338
 20
1257.5297129190799
 30
0.0
 11
683.8152155435953
 21
1255.6130889443084
 31
0.0
  0
LINE
  5
D1
330
17
100
AcDbEntity
  8
0
100
AcDbLine
 10
683.8152155435953
 20
1255.6130889443084
 30
0.0
 11
688.7808045470499
 21
1254.626857591384
 31
0.0
  0
LINE
  5
D2
330
17
100
AcDbEntity
  8
0
100
AcDbLine
 10
688.7808045470499
 20
1254.626857591384
 30
0.0
 11
691.3412195729438
 21
1254.542345031512
 31
0.0
  0
LINE
  5
D3
330
17
100
AcDbEntity
  8
0
100
AcDbLine
 10
433.00788623961057
 20
1068.0630961768027
 30
0.0
 11
433.00788623961057
 21
1068.0630961768027
 31
0.0
  0
LINE
  5
D4
330
17
100
AcDbEntity
  8
0
100
AcDbLine
 10
433.00788623961057
 20
1068.0630961768027
 30
0.0
 11
435.5683012655046
 21
1068.1476087366746
 31
0.0
  0
LINE
  5
D5
330
17
100
AcDbEntity
  8
0
100
AcDbLine
 10
435.5683012655046
 20
1068.1476087366746
 30
0.0
 11
440.53389026895906
 21
1069.1338400895988
 31
0.0
  0
LINE
  5
D6
330
17
100
AcDbEntity
  8
0
100
AcDbLine
 10
440.53389026895906
 20
1069.1338400895988
 30
0.0
 11
445.19107622382063
 21
1071.0504640643703
 31
0.0
  0
LINE
  5
D7
330
17
100
AcDbEntity
  8
0
100
AcDbLine
 10
445.19107622382063
 20
1071.0504640643703
 30
0.0
 11
449.4041771405415
 21
1073.841641929911
 31
0.0
  0
LINE
  5
D8
330
17
100
AcDbEntity
  8
0
100
AcDbLine
 10
449.4041771405415
 20
1073.841641929911
 30
0.0
 11
451.27481142026306
 21
1075.5806887930146
 31
0.0
  0
LINE
  5
D9
330
17
100
AcDbEntity
  8
0
100
AcDbLine
 10
451.27481142026306
 20
1075.5806887930146
 30
0.0
 11
453.0251507954647
 21
1077.43925446448
 31
0.0
  0
LINE
  5
DA
330
17
100
AcDbEntity
  8
0
100
AcDbLine
 10
453.0251507954647
 20
1077.43925446448
 30
0.0
 11
455.83445319259977
 21
1081.6251740849639
 31
0.0
  0
LINE
  5
DB
330
17
100
AcDbEntity
  8
0
100
AcDbLine
 10
455.83445319259977
 20
1081.6251740849639
 30
0.0
 11
457.7635227775969
 21
1086.2523136788263
 31
0.0
  0
LINE
  5
DC
330
17
100
AcDbEntity
  8
0
100
AcDbLine
 10
457.7635227775969
 20
1086.2523136788263
 30
0.0
 11
458.75615823021565
 21
1091.1858666241942
 31
0.0
  0
LINE
  5
DD
330
17
100
AcDbEntity
  8
0
100
AcDbLine
 10
458.75615823021565
 20
1091.1858666241942
 30
0.0
 11
458.8412195729439
 21
1093.7297628434694
 31
0.0
  0
LINE
  5
DE
330
17
100
AcDbEntity
  8
0
100
AcDbLine
 10
458.8412195729439
 20
1093.7297628434694
 30
0.0
 11
458.75615823021565
 21
1096.2736590627446
 31
0.0
  0
LINE
  5
DF
330
17
100
AcDbEntity
  8
0
100
AcDbLine
 10
458.75615823021565
 20
1096.2736590627446
 30
0.0
 11
457.7635227775969
 21
1101.2072120081125
 31
0.0
  0
LINE
  5
E0
330
17
100
AcDbEntity
  8
0
100
AcDbLine
 10
457.7635227775969
 20
1101.2072120081125
 30
0.0
 11
455.83445319259977
 21
1105.834351601975
 31
0.0
  0
LINE
  5
E1
330
17
100
AcDbEntity
  8
0
100
AcDbLine
 10
455.83445319259977
 20
1105.834351601975
 30
0.0
 11
453.0251507954647
 21
1110.0202712224589
 31
0.0
  0
LINE
  5
E2
330
17
100
AcDbEntity
  8
0
100
AcDbLine
 10
453.0251507954647
 20
1110.0202712224589
 30
0.0
 11
451.27481142026306
 21
1111.8788368939242
 31
0.0
  0
LINE
  5
E3
330
17
100
AcDbEntity
  8
0
100
AcDbLine
 10
451.27481142026306
 20
1111.8788368939242
 30
0.0
 11
449.4041771405415
 21
1113.6178837570278
 31
0.0
  0
LINE
  5
E4
330
17
100
AcDbEntity
  8
0
100
AcDbLine
 10
449.4041771405415
 20
1113.6178837570278
 30
0.0
 11
445.19107622382063
 21
1116.4090616225685
 31
0.0
  0
LINE
  5
E5
330
17
100
AcDbEntity
  8
0
100
AcDbLine
 10
445.19107622382063
 20
1116.4090616225685
 30
0.0
 11
440.53389026895906
 21
1118.32568559734
 31
0.0
  0
LINE
  5
E6
330
17
100
AcDbEntity
  8
0
100
AcDbLine
 10
440.53389026895906
 20
1118.32568559734
 30
0.0
 11
435.5683012655046
 21
1119.3119169502643
 31
0.0
  0
LINE
  5
E7
330
17
100
AcDbEntity
  8
0
100
AcDbLine
 10
435.5683012655046
 20
1119.3119169502643
 30
0.0
 11
433.00788623961057
 21
1119.3964295101362
 31
0.0
  0
LINE
  5
E8
330
17
100
AcDbEntity
  8
0
100
AcDbLine
 10
433.00788623961057
 20
1119.3964295101362
 30
0.0
 11
430.44747121371654
 21
1119.3119169502643
 31
0.0
  0
LINE
  5
E9
330
17
100
AcDbEntity
  8
0
100
AcDbLine
 10
430.44747121371654
 20
1119.3119169502643
 30
0.0
 11
425.4818822102621
 21
1118.32568559734
 31
0.0
  0
LINE
  5
EA
330
17
100
AcDbEntity
  8
0
100
AcDbLine
 10
425.4818822102621
 20
1118.32568559734
 30
0.0
 11
420.8246962554005
 21
1116.4090616225685
 31
0.0
  0
LINE
  5
EB
330
17
100
AcDbEntity
  8
0
100
AcDbLine
 10
420.8246962554005
 20
1116.4090616225685
 30
0.0
 11
416.61159533867965
 21
1113.6178837570278
 31
0.0
  0
LINE
  5
EC
330
17
100
AcDbEntity
  8
0
100
AcDbLine
 10
416.61159533867965
 20
1113.6178837570278
 30
0.0
 11
414.7409610589581
 21
1111.8788368939242
 31
0.0
  0
LINE
  5
ED
330
17
100
AcDbEntity
  8
0
100
AcDbLine
 10
414.7409610589581
 20
1111.8788368939242
 30
0.0
 11
412.99062168375644
 21
1110.0202712224589
 31
0.0
  0
LINE
  5
EE
330
17
100
AcDbEntity
  8
0
100
AcDbLine
 10
412.99062168375644
 20
1110.0202712224589
 30
0.0
 11
410.1813192866214
 21
1105.834351601975
 31
0.0
  0
LINE
  5
EF
330
17
100
AcDbEntity
  8
0
100
AcDbLine
 10
410.1813192866214
 20
1105.834351601975
 30
0.0
 11
408.25224970162424
 21
1101.2072120081125
 31
0.0
  0
LINE
  5
F0
330
17
100
AcDbEntity
  8
0
100
AcDbLine
 10
408.25224970162424
 20
1101.2072120081125
 30
0.0
 11
407.2596142490055
 21
1096.2736590627446
 31
0.0
  0
LINE
  5
F1
330
17
100
AcDbEntity
  8
0
100
AcDbLine
 10
407.2596142490055
 20
1096.2736590627446
 30
0.0
 11
407.17455290627726
 21
1093.7297628434694
 31
0.0
  0
LINE
  5
F2
330
17
100
AcDbEntity
  8
0
100
AcDbLine
 10
407.17455290627726
 20
1093.7297628434694
 30
0.0
 11
407.2596142490055
 21
1091.1858666241942
 31
0.0
  0
LINE
  5
F3
330
17
100
AcDbEntity
  8
0
100
AcDbLine
 10
407.2596142490055
 20
1091.1858666241942
 30
0.0
 11
408.25224970162424
 21
1086.2523136788263
 31
0.0
  0
LINE
  5
F4
330
17
100
AcDbEntity
  8
0
100
AcDbLine
 10
408.25224970162424
 20
1086.2523136788263
 30
0.0
 11
410.1813192866214
 21
1081.6251740849639
 31
0.0
  0
LINE
  5
F5
330
17
100
AcDbEntity
  8
0
100
AcDbLine
 10
410.1813192866214
 20
1081.6251740849639
 30
0.0
 11
412.99062168375644
 21
1077.43925446448
 31
0.0
  0
LINE
  5
F6
330
17
100
AcDbEntity
  8
0
100
AcDbLine
 10
412.99062168375644
 20
1077.43925446448
 30
0.0
 11
414.7409610589581
 21
1075.5806887930146
 31
0.0
  0
LINE
  5
F7
330
17
100
AcDbEntity
  8
0
100
AcDbLine
 10
414.7409610589581
 20
1075.5806887930146
 30
0.0
 11
416.61159533867965
 21
1073.841641929911
 31
0.0
  0
LINE
  5
F8
330
17
100
AcDbEntity
  8
0
100
AcDbLine
 10
416.61159533867965
 20
1073.841641929911
 30
0.0
 11
420.8246962554005
 21
1071.0504640643703
 31
0.0
  0
LINE
  5
F9
330
17
100
AcDbEntity
  8
0
100
AcDbLine
 10
420.8246962554005
 20
1071.0504640643703
 30
0.0
 11
425.4818822102621
 21
1069.1338400895988
 31
0.0
  0
LINE
  5
FA
330
17
100
AcDbEntity
  8
0
100
AcDbLine
 10
425.4818822102621
 20
1069.1338400895988
 30
0.0
 11
430.44747121371654
 21
1068.1476087366746
 31
0.0
  0
LINE
  5
FB
330
17
100
AcDbEntity
  8
0
100
AcDbLine
 10
430.44747121371654
 20
1068.1476087366746
 30
0.0
 11
433.00788623961057
 21
1068.0630961768027
 31
0.0
  0
LINE
  5
FC
330
17
100
AcDbEntity
  8
0
100
AcDbLine
 10
334.3333333333333
 20
766.3333333333335
 30
0.0
 11
334.3333333333333
 21
766.3333333333335
 31
0.0
  0
LINE
  5
FD
330
17
100
AcDbEntity
  8
0
100
AcDbLine
 10
334.3333333333333
 20
766.3333333333335
 30
0.0
 11
336.8937483592274
 21
766.4178458932054
 31
0.0
  0
LINE
  5
FE
330
17
100
AcDbEntity
  8
0
100
AcDbLine
 10
336.8937483592274
 20
766.4178458932054
 30
0.0
 11
341.85933736268186
 21
767.4040772461299
 31
0.0
  0
LINE
  5
FF
330
17
100
AcDbEntity
  8
0
100
AcDbLine
 10
341.85933736268186
 20
767.4040772461299
 30
0.0
 11
346.5165233175433
 21
769.3207012209011
 31
0.0
  0
LINE
  5
100
330
17
100
AcDbEntity
  8
0
100
AcDbLine
 10
346.5165233175433
 20
769.3207012209011
 30
0.0
 11
350.7296242342642
 21
772.1118790864418
 31
0.0
  0
LINE
  5
101
330
17
100
AcDbEntity
  8
0
100
AcDbLine
 10
350.7296242342642
 20
772.1118790864418
 30
0.0
 11
352.6002585139858
 21
773.8509259495454
 31
0.0
  0
LINE
  5
102
330
17
100
AcDbEntity
  8
0
100
AcDbLine
 10
352.6002585139858
 20
773.8509259495454
 30
0.0
 11
354.35059788918744
 21
775.7094916210106
 31
0.0
  0
LINE
  5
103
330
17
100
AcDbEntity
  8
0
100
AcDbLine
 10
354.35059788918744
 20
775.7094916210106
 30
0.0
 11
357.15990028632257
 21
779.8954112414947
 31
0.0
  0
LINE
  5
104
330
17
100
AcDbEntity
  8
0
100
AcDbLine
 10
357.15990028632257
 20
779.8954112414947
 30
0.0
 11
359.0889698713197
 21
784.5225508353572
 31
0.0
  0
LINE
  5
105
330
17
100
AcDbEntity
  8
0
100
AcDbLine
 10
359.0889698713197
 20
784.5225508353572
 30
0.0
 11
360.0816053239384
 21
789.4561037807248
 31
0.0
  0
LINE
  5
106
330
17
100
AcDbEntity
  8
0
100
AcDbLine
 10
360.0816053239384
 20
789.4561037807248
 30
0.0
 11
360.16666666666663
 21
792.0000000000001
 31
0.0
  0
LINE
  5
107
330
17
100
AcDbEntity
  8
0
100
AcDbLine
 10
360.16666666666663
 20
792.0000000000001
 30
0.0
 11
360.0816053239384
 21
794.5438962192754
 31
0.0
  0
LINE
  5
108
330
17
100
AcDbEntity
  8
0
100
AcDbLine
 10
360.0816053239384
 20
794.5438962192754
 30
0.0
 11
359.0889698713197
 21
799.4774491646431
 31
0.0
  0
LINE
  5
109
330
17
100
AcDbEntity
  8
0
100
AcDbLine
 10
359.0889698713197
 20
799.4774491646431
 30
0.0
 11
357.15990028632257
 21
804.1045887585055
 31
0.0
  0
LINE
  5
10A
330
17
100
AcDbEntity
  8
0
100
AcDbLine
 10
357.15990028632257
 20
804.1045887585055
 30
0.0
 11
354.35059788918744
 21
808.2905083789897
 31
0.0
  0
LINE
  5
10B
330
17
100
AcDbEntity
  8
0
100
AcDbLine
 10
354.35059788918744
 20
808.2905083789897
 30
0.0
 11
352.6002585139858
 21
810.1490740504548
 31
0.0
  0
LINE
  5
10C
330
17
100
AcDbEntity
  8
0
100
AcDbLine
 10
352.6002585139858
 20
810.1490740504548
 30
0.0
 11
350.7296242342642
 21
811.8881209135584
 31
0.0
  0
LINE
  5
10D
330
17
100
AcDbEntity
  8
0
100
AcDbLine
 10
350.7296242342642
 20
811.8881209135584
 30
0.0
 11
346.5165233175433
 21
814.6792987790991
 31
0.0
  0
LINE
  5
10E
330
17
100
AcDbEntity
  8
0
100
AcDbLine
 10
346.5165233175433
 20
814.6792987790991
 30
0.0
 11
341.85933736268186
 21
816.5959227538704
 31
0.0
  0
LINE
  5
10F
330
17
100
AcDbEntity
  8
0
100
AcDbLine
 10
341.85933736268186
 20
816.5959227538704
 30
0.0
 11
336.8937483592274
 21
817.5821541067949
 31
0.0
  0
LINE
  5
110
330
17
100
AcDbEntity
  8
0
100
AcDbLine
 10
336.8937483592274
 20
817.5821541067949
 30
0.0
 11
334.3333333333333
 21
817.6666666666667
 31
0.0
  0
LINE
  5
111
330
17
100
AcDbEntity
  8
0
100
AcDbLine
 10
334.3333333333333
 20
817.6666666666667
 30
0.0
 11
331.7729183074392
 21
817.5821541067949
 31
0.0
  0
LINE
  5
112
330
17
100
AcDbEntity
  8
0
100
AcDbLine
 10
331.7729183074392
 20
817.5821541067949
 30
0.0
 11
326.8073293039848
 21
816.5959227538704
 31
0.0
  0
LINE
  5
113
330
17
100
AcDbEntity
  8
0
100
AcDbLine
 10
326.8073293039848
 20
816.5959227538704
 30
0.0
 11
322.1501433491233
 21
814.6792987790991
 31
0.0
  0
LINE
  5
114
330
17
100
AcDbEntity
  8
0
100
AcDbLine
 10
322.1501433491233
 20
814.6792987790991
 30
0.0
 11
317.93704243240245
 21
811.8881209135584
 31
0.0
  0
LINE
  5
115
330
17
100
AcDbEntity
  8
0
100
AcDbLine
 10
317.93704243240245
 20
811.8881209135584
 30
0.0
 11
316.0664081526808
 21
810.1490740504548
 31
0.0
  0
LINE
  5
116
330
17
100
AcDbEntity
  8
0
100
AcDbLine
 10
316.0664081526808
 20
810.1490740504548
 30
0.0
 11
314.3160687774792
 21
808.2905083789897
 31
0.0
  0
LINE
  5
117
330
17
100
AcDbEntity
  8
0
100
AcDbLine
 10
314.3160687774792
 20
808.2905083789897
 30
0.0
 11
311.50676638034406
 21
804.1045887585055
 31
0.0
  0
LINE
  5
118
330
17
100
AcDbEntity
  8
0
100
AcDbLine
 10
311.50676638034406
 20
804.1045887585055
 30
0.0
 11
309.5776967953469
 21
799.4774491646431
 31
0.0
  0
LINE
  5
119
330
17
100
AcDbEntity
  8
0
100
AcDbLine
 10
309.5776967953469
 20
799.4774491646431
 30
0.0
 11
308.58506134272824
 21
794.5438962192754
 31
0.0
  0
LINE
  5
11A
330
17
100
AcDbEntity
  8
0
100
AcDbLine
 10
308.58506134272824
 20
794.5438962192754
 30
0.0
 11
308.5
 21
792.0000000000001
 31
0.0
  0
LINE
  5
11B
330
17
100
AcDbEntity
  8
0
100
AcDbLine
 10
308.5
 20
792.0000000000001
 30
0.0
 11
308.58506134272824
 21
789.4561037807248
 31
0.0
  0
LINE
  5
11C
330
17
100
AcDbEntity
  8
0
100
AcDbLine
 10
308.58506134272824
 20
789.4561037807248
 30
0.0
 11
309.5776967953469
 21
784.5225508353572
 31
0.0
  0
LINE
  5
11D
330
17
100
AcDbEntity
  8
0
100
AcDbLine
 10
309.5776967953469
 20
784.5225508353572
 30
0.0
 11
311.50676638034406
 21
779.8954112414947
 31
0.0
  0
LINE
  5
11E
330
17
100
AcDbEntity
  8
0
100
AcDbLine
 10
311.50676638034406
 20
779.8954112414947
 30
0.0
 11
314.3160687774792
 21
775.7094916210106
 31
0.0
  0
LINE
  5
11F
330
17
100
AcDbEntity
  8
0
100
AcDbLine
 10
314.3160687774792
 20
775.7094916210106
 30
0.0
 11
316.0664081526808
 21
773.8509259495454
 31
0.0
  0
LINE
  5
120
330
17
100
AcDbEntity
  8
0
100
AcDbLine
 10
316.0664081526808
 20
773.8509259495454
 30
0.0
 11
317.93704243240245
 21
772.1118790864418
 31
0.0
  0
LINE
  5
121
330
17
100
AcDbEntity
  8
0
100
AcDbLine
 10
317.93704243240245
 20
772.1118790864418
 30
0.0
 11
322.1501433491233
 21
769.3207012209011
 31
0.0
  0
LINE
  5
122
330
17
100
AcDbEntity
  8
0
100
AcDbLine
 10
322.1501433491233
 20
769.3207012209011
 30
0.0
 11
326.8073293039848
 21
767.4040772461299
 31
0.0
  0
LINE
  5
123
330
17
100
AcDbEntity
  8
0
100
AcDbLine
 10
326.8073293039848
 20
767.4040772461299
 30
0.0
 11
331.7729183074392
 21
766.4178458932054
 31
0.0
  0
LINE
  5
124
330
17
100
AcDbEntity
  8
0
100
AcDbLine
 10
331.7729183074392
 20
766.4178458932054
 30
0.0
 11
334.3333333333333
 21
766.3333333333335
 31
0.0
  0
LINE
  5
125
330
17
100
AcDbEntity
  8
0
100
AcDbLine
 10
433.00788623961046
 20
464.60357048986384
 30
0.0
 11
433.00788623961046
 21
464.60357048986384
 31
0.0
  0
LINE
  5
126
330
17
100
AcDbEntity
  8
0
100
AcDbLine
 10
433.00788623961046
 20
464.60357048986384
 30
0.0
 11
435.5683012655045
 21
464.6880830497358
 31
0.0
  0
LINE
  5
127
330
17
100
AcDbEntity
  8
0
100
AcDbLine
 10
435.5683012655045
 20
464.6880830497358
 30
0.0
 11
440.53389026895894
 21
465.6743144026602
 31
0.0
  0
LINE
  5
128
330
17
100
AcDbEntity
  8
0
100
AcDbLine
 10
440.53389026895894
 20
465.6743144026602
 30
0.0
 11
445.1910762238205
 21
467.5909383774315
 31
0.0
  0
LINE
  5
129
330
17
100
AcDbEntity
  8
0
100
AcDbLine
 10
445.1910762238205
 20
467.5909383774315
 30
0.0
 11
449.4041771405414
 21
470.3821162429723
 31
0.0
  0
LINE
  5
12A
330
17
100
AcDbEntity
  8
0
100
AcDbLine
 10
449.4041771405414
 20
470.3821162429723
 30
0.0
 11
451.27481142026295
 21
472.1211631060758
 31
0.0
  0
LINE
  5
12B
330
17
100
AcDbEntity
  8
0
100
AcDbLine
 10
451.27481142026295
 20
472.1211631060758
 30
0.0
 11
453.0251507954646
 21
473.97972877754114
 31
0.0
  0
LINE
  5
12C
330
17
100
AcDbEntity
  8
0
100
AcDbLine
 10
453.0251507954646
 20
473.97972877754114
 30
0.0
 11
455.83445319259965
 21
478.16564839802516
 31
0.0
  0
LINE
  5
12D
330
17
100
AcDbEntity
  8
0
100
AcDbLine
 10
455.83445319259965
 20
478.16564839802516
 30
0.0
 11
457.7635227775968
 21
482.7927879918875
 31
0.0
  0
LINE
  5
12E
330
17
100
AcDbEntity
  8
0
100
AcDbLine
 10
457.7635227775968
 20
482.7927879918875
 30
0.0
 11
458.75615823021553
 21
487.7263409372552
 31
0.0
  0
LINE
  5
12F
330
17
100
AcDbEntity
  8
0
100
AcDbLine
 10
458.75615823021553
 20
487.7263409372552
 30
0.0
 11
458.84121957294377
 21
490.2702371565305
 31
0.0
  0
LINE
  5
130
330
17
100
AcDbEntity
  8
0
100
AcDbLine
 10
458.84121957294377
 20
490.2702371565305
 30
0.0
 11
458.75615823021553
 21
492.81413337580585
 31
0.0
  0
LINE
  5
131
330
17
100
AcDbEntity
  8
0
100
AcDbLine
 10
458.75615823021553
 20
492.81413337580585
 30
0.0
 11
457.7635227775968
 21
497.74768632117355
 31
0.0
  0
LINE
  5
132
330
17
100
AcDbEntity
  8
0
100
AcDbLine
 10
457.7635227775968
 20
497.74768632117355
 30
0.0
 11
455.83445319259965
 21
502.3748259150359
 31
0.0
  0
LINE
  5
133
330
17
100
AcDbEntity
  8
0
100
AcDbLine
 10
455.83445319259965
 20
502.3748259150359
 30
0.0
 11
453.0251507954646
 21
506.5607455355199
 31
0.0
  0
LINE
  5
134
330
17
100
AcDbEntity
  8
0
100
AcDbLine
 10
453.0251507954646
 20
506.5607455355199
 30
0.0
 11
451.27481142026295
 21
508.41931120698524
 31
0.0
  0
LINE
  5
135
330
17
100
AcDbEntity
  8
0
100
AcDbLine
 10
451.27481142026295
 20
508.41931120698524
 30
0.0
 11
449.4041771405414
 21
510.15835807008875
 31
0.0
  0
LINE
  5
136
330
17
100
AcDbEntity
  8
0
100
AcDbLine
 10
449.4041771405414
 20
510.15835807008875
 30
0.0
 11
445.1910762238205
 21
512.9495359356295
 31
0.0
  0
LINE
  5
137
330
17
100
AcDbEntity
  8
0
100
AcDbLine
 10
445.1910762238205
 20
512.9495359356295
 30
0.0
 11
440.53389026895894
 21
514.8661599104009
 31
0.0
  0
LINE
  5
138
330
17
100
AcDbEntity
  8
0
100
AcDbLine
 10
440.53389026895894
 20
514.8661599104009
 30
0.0
 11
435.5683012655045
 21
515.8523912633252
 31
0.0
  0
LINE
  5
139
330
17
100
AcDbEntity
  8
0
100
AcDbLine
 10
435.5683012655045
 20
515.8523912633252
 30
0.0
 11
433.00788623961046
 21
515.9369038231972
 31
0.0
  0
LINE
  5
13A
330
17
100
AcDbEntity
  8
0
100
AcDbLine
 10
433.00788623961046
 20
515.9369038231972
 30
0.0
 11
430.4474712137164
 21
515.8523912633252
 31
0.0
  0
LINE
  5
13B
330
17
100
AcDbEntity
  8
0
100
AcDbLine
 10
430.4474712137164
 20
515.8523912633252
 30
0.0
 11
425.481882210262
 21
514.8661599104009
 31
0.0
  0
LINE
  5
13C
330
17
100
AcDbEntity
  8
0
100
AcDbLine
 10
425.481882210262
 20
514.8661599104009
 30
0.0
 11
420.8246962554004
 21
512.9495359356295
 31
0.0
  0
LINE
  5
13D
330
17
100
AcDbEntity
  8
0
100
AcDbLine
 10
420.8246962554004
 20
512.9495359356295
 30
0.0
 11
416.61159533867954
 21
510.15835807008875
 31
0.0
  0
LINE
  5
13E
330
17
100
AcDbEntity
  8
0
100
AcDbLine
 10
416.61159533867954
 20
510.15835807008875
 30
0.0
 11
414.74096105895796
 21
508.41931120698524
 31
0.0
  0
LINE
  5
13F
330
17
100
AcDbEntity
  8
0
100
AcDbLine
 10
414.74096105895796
 20
508.41931120698524
 30
0.0
 11
412.99062168375633
 21
506.5607455355199
 31
0.0
  0
LINE
  5
140
330
17
100
AcDbEntity
  8
0
100
AcDbLine
 10
412.99062168375633
 20
506.5607455355199
 30
0.0
 11
410.18131928662126
 21
502.3748259150359
 31
0.0
  0
LINE
  5
141
330
17
100
AcDbEntity
  8
0
100
AcDbLine
 10
410.18131928662126
 20
502.3748259150359
 30
0.0
 11
408.2522497016241
 21
497.74768632117355
 31
0.0
  0
LINE
  5
142
330
17
100
AcDbEntity
  8
0
100
AcDbLine
 10
408.2522497016241
 20
497.74768632117355
 30
0.0
 11
407.2596142490054
 21
492.81413337580585
 31
0.0
  0
LINE
  5
143
330
17
100
AcDbEntity
  8
0
100
AcDbLine
 10
407.2596142490054
 20
492.81413337580585
 30
0.0
 11
407.17455290627714
 21
490.2702371565305
 31
0.0
  0
LINE
  5
144
330
17
100
AcDbEntity
  8
0
100
AcDbLine
 10
407.17455290627714
 20
490.2702371565305
 30
0.0
 11
407.2596142490054
 21
487.7263409372552
 31
0.0
  0
LINE
  5
145
330
17
100
AcDbEntity
  8
0
100
AcDbLine
 10
407.2596142490054
 20
487.7263409372552
 30
0.0
 11
408.2522497016241
 21
482.7927879918875
 31
0.0
  0
LINE
  5
146
330
17
100
AcDbEntity
  8
0
100
AcDbLine
 10
408.2522497016241
 20
482.7927879918875
 30
0.0
 11
410.18131928662126
 21
478.16564839802516
 31
0.0
  0
LINE
  5
147
330
17
100
AcDbEntity
  8
0
100
AcDbLine
 10
410.18131928662126
 20
478.16564839802516
 30
0.0
 11
412.99062168375633
 21
473.97972877754114
 31
0.0
  0
LINE
  5
148
330
17
100
AcDbEntity
  8
0
100
AcDbLine
 10
412.99062168375633
 20
473.97972877754114
 30
0.0
 11
414.74096105895796
 21
472.1211631060758
 31
0.0
  0
LINE
  5
149
330
17
100
AcDbEntity
  8
0
100
AcDbLine
 10
414.74096105895796
 20
472.1211631060758
 30
0.0
 11
416.61159533867954
 21
470.3821162429723
 31
0.0
  0
LINE
  5
14A
330
17
100
AcDbEntity
  8
0
100
AcDbLine
 10
416.61159533867954
 20
470.3821162429723
 30
0.0
 11
420.8246962554004
 21
467.5909383774315
 31
0.0
  0
LINE
  5
14B
330
17
100
AcDbEntity
  8
0
100
AcDbLine
 10
420.8246962554004
 20
467.5909383774315
 30
0.0
 11
425.481882210262
 21
465.6743144026602
 31
0.0
  0
LINE
  5
14C
330
17
100
AcDbEntity
  8
0
100
AcDbLine
 10
425.481882210262
 20
465.6743144026602
 30
0.0
 11
430.4474712137164
 21
464.6880830497358
 31
0.0
  0
LINE
  5
14D
330
17
100
AcDbEntity
  8
0
100
AcDbLine
 10
430.4474712137164
 20
464.6880830497358
 30
0.0
 11
433.00788623961046
 21
464.60357048986384
 31
0.0
  0
LINE
  5
14E
330
17
100
AcDbEntity
  8
0
100
AcDbLine
 10
691.3412195729437
 20
278.12432163515456
 30
0.0
 11
691.3412195729437
 21
278.12432163515456
 31
0.0
  0
LINE
  5
14F
330
17
100
AcDbEntity
  8
0
100
AcDbLine
 10
691.3412195729437
 20
278.12432163515456
 30
0.0
 11
693.9016345988377
 21
278.2088341950265
 31
0.0
  0
LINE
  5
150
330
17
100
AcDbEntity
  8
0
100
AcDbLine
 10
693.9016345988377
 20
278.2088341950265
 30
0.0
 11
698.8672236022924
 21
279.1950655479509
 31
0.0
  0
LINE
  5
151
330
17
100
AcDbEntity
  8
0
100
AcDbLine
 10
698.8672236022924
 20
279.1950655479509
 30
0.0
 11
703.5244095571538
 21
281.11168952272226
 31
0.0
  0
LINE
  5
152
330
17
100
AcDbEntity
  8
0
100
AcDbLine
 10
703.5244095571538
 20
281.11168952272226
 30
0.0
 11
707.7375104738746
 21
283.90286738826296
 31
0.0
  0
LINE
  5
153
330
17
100
AcDbEntity
  8
0
100
AcDbLine
 10
707.7375104738746
 20
283.90286738826296
 30
0.0
 11
709.6081447535962
 21
285.64191425136653
 31
0.0
  0
LINE
  5
154
330
17
100
AcDbEntity
  8
0
100
AcDbLine
 10
709.6081447535962
 20
285.64191425136653
 30
0.0
 11
711.3584841287977
 21
287.5004799228318
 31
0.0
  0
LINE
  5
155
330
17
100
AcDbEntity
  8
0
100
AcDbLine
 10
711.3584841287977
 20
287.5004799228318
 30
0.0
 11
714.167786525933
 21
291.6863995433158
 31
0.0
  0
LINE
  5
156
330
17
100
AcDbEntity
  8
0
100
AcDbLine
 10
714.167786525933
 20
291.6863995433158
 30
0.0
 11
716.09685611093
 21
296.31353913717817
 31
0.0
  0
LINE
  5
157
330
17
100
AcDbEntity
  8
0
100
AcDbLine
 10
716.09685611093
 20
296.31353913717817
 30
0.0
 11
717.0894915635488
 21
301.24709208254586
 31
0.0
  0
LINE
  5
158
330
17
100
AcDbEntity
  8
0
100
AcDbLine
 10
717.0894915635488
 20
301.24709208254586
 30
0.0
 11
717.1745529062771
 21
303.79098830182124
 31
0.0
  0
LINE
  5
159
330
17
100
AcDbEntity
  8
0
100
AcDbLine
 10
717.1745529062771
 20
303.79098830182124
 30
0.0
 11
717.0894915635488
 21
306.3348845210966
 31
0.0
  0
LINE
  5
15A
330
17
100
AcDbEntity
  8
0
100
AcDbLine
 10
717.0894915635488
 20
306.3348845210966
 30
0.0
 11
716.09685611093
 21
311.2684374664643
 31
0.0
  0
LINE
  5
15B
330
17
100
AcDbEntity
  8
0
100
AcDbLine
 10
716.09685611093
 20
311.2684374664643
 30
0.0
 11
714.167786525933
 21
315.8955770603267
 31
0.0
  0
LINE
  5
15C
330
17
100
AcDbEntity
  8
0
100
AcDbLine
 10
714.167786525933
 20
315.8955770603267
 30
0.0
 11
711.3584841287977
 21
320.0814966808107
 31
0.0
  0
LINE
  5
15D
330
17
100
AcDbEntity
  8
0
100
AcDbLine
 10
711.3584841287977
 20
320.0814966808107
 30
0.0
 11
709.6081447535962
 21
321.94006235227596
 31
0.0
  0
LINE
  5
15E
330
17
100
AcDbEntity
  8
0
100
AcDbLine
 10
709.6081447535962
 20
321.94006235227596
 30
0.0
 11
707.7375104738746
 21
323.6791092153795
 31
0.0
  0
LINE
  5
15F
330
17
100
AcDbEntity
  8
0
100
AcDbLine
 10
707.7375104738746
 20
323.6791092153795
 30
0.0
 11
703.5244095571538
 21
326.47028708092023
 31
0.0
  0
LINE
  5
160
330
17
100
AcDbEntity
  8
0
100
AcDbLine
 10
703.5244095571538
 20
326.47028708092023
 30
0.0
 11
698.8672236022924
 21
328.3869110556916
 31
0.0
  0
LINE
  5
161
330
17
100
AcDbEntity
  8
0
100
AcDbLine
 10
698.8672236022924
 20
328.3869110556916
 30
0.0
 11
693.9016345988377
 21
329.373142408616
 31
0.0
  0
LINE
  5
162
330
17
100
AcDbEntity
  8
0
100
AcDbLine
 10
693.9016345988377
 20
329.373142408616
 30
0.0
 11
691.3412195729437
 21
329.45765496848793
 31
0.0
  0
LINE
  5
163
330
17
100
AcDbEntity
  8
0
100
AcDbLine
 10
691.3412195729437
 20
329.45765496848793
 30
0.0
 11
688.7808045470497
 21
329.373142408616
 31
0.0
  0
LINE
  5
164
330
17
100
AcDbEntity
  8
0
100
AcDbLine
 10
688.7808045470497
 20
329.373142408616
 30
0.0
 11
683.8152155435951
 21
328.3869110556916
 31
0.0
  0
LINE
  5
165
330
17
100
AcDbEntity
  8
0
100
AcDbLine
 10
683.8152155435951
 20
328.3869110556916
 30
0.0
 11
679.1580295887336
 21
326.47028708092023
 31
0.0
  0
LINE
  5
166
330
17
100
AcDbEntity
  8
0
100
AcDbLine
 10
679.1580295887336
 20
326.47028708092023
 30
0.0
 11
674.9449286720128
 21
323.6791092153795
 31
0.0
  0
LINE
  5
167
330
17
100
AcDbEntity
  8
0
100
AcDbLine
 10
674.9449286720128
 20
323.6791092153795
 30
0.0
 11
673.0742943922912
 21
321.94006235227596
 31
0.0
  0
LINE
  5
168
330
17
100
AcDbEntity
  8
0
100
AcDbLine
 10
673.0742943922912
 20
321.94006235227596
 30
0.0
 11
671.3239550170897
 21
320.0814966808107
 31
0.0
  0
LINE
  5
169
330
17
100
AcDbEntity
  8
0
100
AcDbLine
 10
671.3239550170897
 20
320.0814966808107
 30
0.0
 11
668.5146526199544
 21
315.8955770603267
 31
0.0
  0
LINE
  5
16A
330
17
100
AcDbEntity
  8
0
100
AcDbLine
 10
668.5146526199544
 20
315.8955770603267
 30
0.0
 11
666.5855830349574
 21
311.2684374664643
 31
0.0
  0
LINE
  5
16B
330
17
100
AcDbEntity
  8
0
100
AcDbLine
 10
666.5855830349574
 20
311.2684374664643
 30
0.0
 11
665.5929475823386
 21
306.3348845210966
 31
0.0
  0
LINE
  5
16C
330
17
100
AcDbEntity
  8
0
100
AcDbLine
 10
665.5929475823386
 20
306.3348845210966
 30
0.0
 11
665.5078862396103
 21
303.79098830182124
 31
0.0
  0
LINE
  5
16D
330
17
100
AcDbEntity
  8
0
100
AcDbLine
 10
665.5078862396103
 20
303.79098830182124
 30
0.0
 11
665.5929475823386
 21
301.24709208254586
 31
0.0
  0
LINE
  5
16E
330
17
100
AcDbEntity
  8
0
100
AcDbLine
 10
665.5929475823386
 20
301.24709208254586
 30
0.0
 11
666.5855830349574
 21
296.31353913717817
 31
0.0
  0
LINE
  5
16F
330
17
100
AcDbEntity
  8
0
100
AcDbLine
 10
666.5855830349574
 20
296.31353913717817
 30
0.0
 11
668.5146526199544
 21
291.6863995433158
 31
0.0
  0
LINE
  5
170
330
17
100
AcDbEntity
  8
0
100
AcDbLine
 10
668.5146526199544
 20
291.6863995433158
 30
0.0
 11
671.3239550170897
 21
287.5004799228318
 31
0.0
  0
LINE
  5
171
330
17
100
AcDbEntity
  8
0
100
AcDbLine
 10
671.3239550170897
 20
287.5004799228318
 30
0.0
 11
673.0742943922912
 21
285.64191425136653
 31
0.0
  0
LINE
  5
172
330
17
100
AcDbEntity
  8
0
100
AcDbLine
 10
673.0742943922912
 20
285.64191425136653
 30
0.0
 11
674.9449286720128
 21
283.90286738826296
 31
0.0
  0
LINE
  5
173
330
17
100
AcDbEntity
  8
0
100
AcDbLine
 10
674.9449286720128
 20
283.90286738826296
 30
0.0
 11
679.1580295887336
 21
281.11168952272226
 31
0.0
  0
LINE
  5
174
330
17
100
AcDbEntity
  8
0
100
AcDbLine
 10
679.1580295887336
 20
281.11168952272226
 30
0.0
 11
683.8152155435951
 21
279.1950655479509
 31
0.0
  0
LINE
  5
175
330
17
100
AcDbEntity
  8
0
100
AcDbLine
 10
683.8152155435951
 20
279.1950655479509
 30
0.0
 11
688.7808045470497
 21
278.2088341950265
 31
0.0
  0
LINE
  5
176
330
17
100
AcDbEntity
  8
0
100
AcDbLine
 10
688.7808045470497
 20
278.2088341950265
 30
0.0
 11
691.3412195729437
 21
278.12432163515456
 31
0.0
  0
LINE
  5
177
330
17
100
AcDbEntity
  8
0
100
AcDbLine
 10
1010.6587804270562
 20
278.1243216351545
 30
0.0
 11
1010.6587804270562
 21
278.1243216351545
 31
0.0
  0
LINE
  5
178
330
17
100
AcDbEntity
  8
0
100
AcDbLine
 10
1010.6587804270562
 20
278.1243216351545
 30
0.0
 11
1013.2191954529501
 21
278.20883419502644
 31
0.0
  0
LINE
  5
179
330
17
100
AcDbEntity
  8
0
100
AcDbLine
 10
1013.2191954529501
 20
278.20883419502644
 30
0.0
 11
1018.1847844564047
 21
279.19506554795083
 31
0.0
  0
LINE
  5
17A
330
17
100
AcDbEntity
  8
0
100
AcDbLine
 10
1018.1847844564047
 20
279.19506554795083
 30
0.0
 11
1022.8419704112662
 21
281.11168952272214
 31
0.0
  0
LINE
  5
17B
330
17
100
AcDbEntity
  8
0
100
AcDbLine
 10
1022.8419704112662
 20
281.11168952272214
 30
0.0
 11
1027.055071327987
 21
283.90286738826296
 31
0.0
  0
LINE
  5
17C
330
17
100
AcDbEntity
  8
0
100
AcDbLine
 10
1027.055071327987
 20
283.90286738826296
 30
0.0
 11
1028.9257056077086
 21
285.6419142513665
 31
0.0
  0
LINE
  5
17D
330
17
100
AcDbEntity
  8
0
100
AcDbLine
 10
1028.9257056077086
 20
285.6419142513665
 30
0.0
 11
1030.6760449829103
 21
287.5004799228318
 31
0.0
  0
LINE
  5
17E
330
17
100
AcDbEntity
  8
0
100
AcDbLine
 10
1030.6760449829103
 20
287.5004799228318
 30
0.0
 11
1033.4853473800454
 21
291.6863995433158
 31
0.0
  0
LINE
  5
17F
330
17
100
AcDbEntity
  8
0
100
AcDbLine
 10
1033.4853473800454
 20
291.6863995433158
 30
0.0
 11
1035.4144169650424
 21
296.31353913717817
 31
0.0
  0
LINE
  5
180
330
17
100
AcDbEntity
  8
0
100
AcDbLine
 10
1035.4144169650424
 20
296.31353913717817
 30
0.0
 11
1036.4070524176614
 21
301.24709208254586
 31
0.0
  0
LINE
  5
181
330
17
100
AcDbEntity
  8
0
100
AcDbLine
 10
1036.4070524176614
 20
301.24709208254586
 30
0.0
 11
1036.4921137603894
 21
303.7909883018212
 31
0.0
  0
LINE
  5
182
330
17
100
AcDbEntity
  8
0
100
AcDbLine
 10
1036.4921137603894
 20
303.7909883018212
 30
0.0
 11
1036.4070524176614
 21
306.3348845210965
 31
0.0
  0
LINE
  5
183
330
17
100
AcDbEntity
  8
0
100
AcDbLine
 10
1036.4070524176614
 20
306.3348845210965
 30
0.0
 11
1035.4144169650424
 21
311.2684374664642
 31
0.0
  0
LINE
  5
184
330
17
100
AcDbEntity
  8
0
100
AcDbLine
 10
1035.4144169650424
 20
311.2684374664642
 30
0.0
 11
1033.4853473800454
 21
315.89557706032656
 31
0.0
  0
LINE
  5
185
330
17
100
AcDbEntity
  8
0
100
AcDbLine
 10
1033.4853473800454
 20
315.89557706032656
 30
0.0
 11
1030.6760449829103
 21
320.0814966808106
 31
0.0
  0
LINE
  5
186
330
17
100
AcDbEntity
  8
0
100
AcDbLine
 10
1030.6760449829103
 20
320.0814966808106
 30
0.0
 11
1028.9257056077086
 21
321.9400623522759
 31
0.0
  0
LINE
  5
187
330
17
100
AcDbEntity
  8
0
100
AcDbLine
 10
1028.9257056077086
 20
321.9400623522759
 30
0.0
 11
1027.055071327987
 21
323.6791092153794
 31
0.0
  0
LINE
  5
188
330
17
100
AcDbEntity
  8
0
100
AcDbLine
 10
1027.055071327987
 20
323.6791092153794
 30
0.0
 11
1022.8419704112662
 21
326.47028708092023
 31
0.0
  0
LINE
  5
189
330
17
100
AcDbEntity
  8
0
100
AcDbLine
 10
1022.8419704112662
 20
326.47028708092023
 30
0.0
 11
1018.1847844564047
 21
328.38691105569154
 31
0.0
  0
LINE
  5
18A
330
17
100
AcDbEntity
  8
0
100
AcDbLine
 10
1018.1847844564047
 20
328.38691105569154
 30
0.0
 11
1013.2191954529501
 21
329.37314240861593
 31
0.0
  0
LINE
  5
18B
330
17
100
AcDbEntity
  8
0
100
AcDbLine
 10
1013.2191954529501
 20
329.37314240861593
 30
0.0
 11
1010.6587804270562
 21
329.4576549684879
 31
0.0
  0
LINE
  5
18C
330
17
100
AcDbEntity
  8
0
100
AcDbLine
 10
1010.6587804270562
 20
329.4576549684879
 30
0.0
 11
1008.0983654011623
 21
329.37314240861593
 31
0.0
  0
LINE
  5
18D
330
17
100
AcDbEntity
  8
0
100
AcDbLine
 10
1008.0983654011623
 20
329.37314240861593
 30
0.0
 11
1003.1327763977076
 21
328.38691105569154
 31
0.0
  0
LINE
  5
18E
330
17
100
AcDbEntity
  8
0
100
AcDbLine
 10
1003.1327763977076
 20
328.38691105569154
 30
0.0
 11
998.4755904428462
 21
326.47028708092023
 31
0.0
  0
LINE
  5
18F
330
17
100
AcDbEntity
  8
0
100
AcDbLine
 10
998.4755904428462
 20
326.47028708092023
 30
0.0
 11
994.2624895261253
 21
323.6791092153794
 31
0.0
  0
LINE
  5
190
330
17
100
AcDbEntity
  8
0
100
AcDbLine
 10
994.2624895261253
 20
323.6791092153794
 30
0.0
 11
992.3918552464037
 21
321.9400623522759
 31
0.0
  0
LINE
  5
191
330
17
100
AcDbEntity
  8
0
100
AcDbLine
 10
992.3918552464037
 20
321.9400623522759
 30
0.0
 11
990.641515871202
 21
320.0814966808106
 31
0.0
  0
LINE
  5
192
330
17
100
AcDbEntity
  8
0
100
AcDbLine
 10
990.641515871202
 20
320.0814966808106
 30
0.0
 11
987.8322134740669
 21
315.89557706032656
 31
0.0
  0
LINE
  5
193
330
17
100
AcDbEntity
  8
0
100
AcDbLine
 10
987.8322134740669
 20
315.89557706032656
 30
0.0
 11
985.90314388907
 21
311.2684374664642
 31
0.0
  0
LINE
  5
194
330
17
100
AcDbEntity
  8
0
100
AcDbLine
 10
985.90314388907
 20
311.2684374664642
 30
0.0
 11
984.910508436451
 21
306.3348845210965
 31
0.0
  0
LINE
  5
195
330
17
100
AcDbEntity
  8
0
100
AcDbLine
 10
984.910508436451
 20
306.3348845210965
 30
0.0
 11
984.8254470937228
 21
303.7909883018212
 31
0.0
  0
LINE
  5
196
330
17
100
AcDbEntity
  8
0
100
AcDbLine
 10
984.8254470937228
 20
303.7909883018212
 30
0.0
 11
984.910508436451
 21
301.24709208254586
 31
0.0
  0
LINE
  5
197
330
17
100
AcDbEntity
  8
0
100
AcDbLine
 10
984.910508436451
 20
301.24709208254586
 30
0.0
 11
985.90314388907
 21
296.31353913717817
 31
0.0
  0
LINE
  5
198
330
17
100
AcDbEntity
  8
0
100
AcDbLine
 10
985.90314388907
 20
296.31353913717817
 30
0.0
 11
987.8322134740669
 21
291.6863995433158
 31
0.0
  0
LINE
  5
199
330
17
100
AcDbEntity
  8
0
100
AcDbLine
 10
987.8322134740669
 20
291.6863995433158
 30
0.0
 11
990.641515871202
 21
287.5004799228318
 31
0.0
  0
LINE
  5
19A
330
17
100
AcDbEntity
  8
0
100
AcDbLine
 10
990.641515871202
 20
287.5004799228318
 30
0.0
 11
992.3918552464037
 21
285.6419142513665
 31
0.0
  0
LINE
  5
19B
330
17
100
AcDbEntity
  8
0
100
AcDbLine
 10
992.3918552464037
 20
285.6419142513665
 30
0.0
 11
994.2624895261253
 21
283.90286738826296
 31
0.0
  0
LINE
  5
19C
330
17
100
AcDbEntity
  8
0
100
AcDbLine
 10
994.2624895261253
 20
283.90286738826296
 30
0.0
 11
998.4755904428462
 21
281.11168952272214
 31
0.0
  0
LINE
  5
19D
330
17
100
AcDbEntity
  8
0
100
AcDbLine
 10
998.4755904428462
 20
281.11168952272214
 30
0.0
 11
1003.1327763977076
 21
279.19506554795083
 31
0.0
  0
LINE
  5
19E
330
17
100
AcDbEntity
  8
0
100
AcDbLine
 10
1003.1327763977076
 20
279.19506554795083
 30
0.0
 11
1008.0983654011623
 21
278.20883419502644
 31
0.0
  0
LINE
  5
19F
330
17
100
AcDbEntity
  8
0
100
AcDbLine
 10
1008.0983654011623
 20
278.20883419502644
 30
0.0
 11
1010.6587804270562
 21
278.1243216351545
 31
0.0
  0
LINE
  5
1A0
330
17
100
AcDbEntity
  8
0
100
AcDbLine
 10
1268.9921137603894
 20
464.60357048986367
 30
0.0
 11
1268.9921137603894
 21
464.60357048986367
 31
0.0
  0
LINE
  5
1A1
330
17
100
AcDbEntity
  8
0
100
AcDbLine
 10
1268.9921137603894
 20
464.60357048986367
 30
0.0
 11
1271.5525287862833
 21
464.6880830497356
 31
0.0
  0
LINE
  5
1A2
330
17
100
AcDbEntity
  8
0
100
AcDbLine
 10
1271.5525287862833
 20
464.6880830497356
 30
0.0
 11
1276.518117789738
 21
465.67431440266
 31
0.0
  0
LINE
  5
1A3
330
17
100
AcDbEntity
  8
0
100
AcDbLine
 10
1276.518117789738
 20
465.67431440266
 30
0.0
 11
1281.1753037445992
 21
467.59093837743137
 31
0.0
  0
LINE
  5
1A4
330
17
100
AcDbEntity
  8
0
100
AcDbLine
 10
1281.1753037445992
 20
467.59093837743137
 30
0.0
 11
1285.3884046613202
 21
470.3821162429721
 31
0.0
  0
LINE
  5
1A5
330
17
100
AcDbEntity
  8
0
100
AcDbLine
 10
1285.3884046613202
 20
470.3821162429721
 30
0.0
 11
1287.2590389410418
 21
472.12116310607564
 31
0.0
  0
LINE
  5
1A6
330
17
100
AcDbEntity
  8
0
100
AcDbLine
 10
1287.2590389410418
 20
472.12116310607564
 30
0.0
 11
1289.0093783162433
 21
473.9797287775409
 31
0.0
  0
LINE
  5
1A7
330
17
100
AcDbEntity
  8
0
100
AcDbLine
 10
1289.0093783162433
 20
473.9797287775409
 30
0.0
 11
1291.8186807133784
 21
478.1656483980249
 31
0.0
  0
LINE
  5
1A8
330
17
100
AcDbEntity
  8
0
100
AcDbLine
 10
1291.8186807133784
 20
478.1656483980249
 30
0.0
 11
1293.7477502983759
 21
482.7927879918873
 31
0.0
  0
LINE
  5
1A9
330
17
100
AcDbEntity
  8
0
100
AcDbLine
 10
1293.7477502983759
 20
482.7927879918873
 30
0.0
 11
1294.7403857509944
 21
487.726340937255
 31
0.0
  0
LINE
  5
1AA
330
17
100
AcDbEntity
  8
0
100
AcDbLine
 10
1294.7403857509944
 20
487.726340937255
 30
0.0
 11
1294.8254470937227
 21
490.27023715653036
 31
0.0
  0
LINE
  5
1AB
330
17
100
AcDbEntity
  8
0
100
AcDbLine
 10
1294.8254470937227
 20
490.27023715653036
 30
0.0
 11
1294.7403857509944
 21
492.81413337580574
 31
0.0
  0
LINE
  5
1AC
330
17
100
AcDbEntity
  8
0
100
AcDbLine
 10
1294.7403857509944
 20
492.81413337580574
 30
0.0
 11
1293.7477502983759
 21
497.74768632117343
 31
0.0
  0
LINE
  5
1AD
330
17
100
AcDbEntity
  8
0
100
AcDbLine
 10
1293.7477502983759
 20
497.74768632117343
 30
0.0
 11
1291.8186807133784
 21
502.3748259150358
 31
0.0
  0
LINE
  5
1AE
330
17
100
AcDbEntity
  8
0
100
AcDbLine
 10
1291.8186807133784
 20
502.3748259150358
 30
0.0
 11
1289.0093783162433
 21
506.5607455355198
 31
0.0
  0
LINE
  5
1AF
330
17
100
AcDbEntity
  8
0
100
AcDbLine
 10
1289.0093783162433
 20
506.5607455355198
 30
0.0
 11
1287.2590389410418
 21
508.41931120698507
 31
0.0
  0
LINE
  5
1B0
330
17
100
AcDbEntity
  8
0
100
AcDbLine
 10
1287.2590389410418
 20
508.41931120698507
 30
0.0
 11
1285.3884046613202
 21
510.15835807008864
 31
0.0
  0
LINE
  5
1B1
330
17
100
AcDbEntity
  8
0
100
AcDbLine
 10
1285.3884046613202
 20
510.15835807008864
 30
0.0
 11
1281.1753037445992
 21
512.9495359356292
 31
0.0
  0
LINE
  5
1B2
330
17
100
AcDbEntity
  8
0
100
AcDbLine
 10
1281.1753037445992
 20
512.9495359356292
 30
0.0
 11
1276.518117789738
 21
514.8661599104007
 31
0.0
  0
LINE
  5
1B3
330
17
100
AcDbEntity
  8
0
100
AcDbLine
 10
1276.518117789738
 20
514.8661599104007
 30
0.0
 11
1271.5525287862833
 21
515.852391263325
 31
0.0
  0
LINE
  5
1B4
330
17
100
AcDbEntity
  8
0
100
AcDbLine
 10
1271.5525287862833
 20
515.852391263325
 30
0.0
 11
1268.9921137603894
 21
515.936903823197
 31
0.0
  0
LINE
  5
1B5
330
17
100
AcDbEntity
  8
0
100
AcDbLine
 10
1268.9921137603894
 20
515.936903823197
 30
0.0
 11
1266.4316987344955
 21
515.852391263325
 31
0.0
  0
LINE
  5
1B6
330
17
100
AcDbEntity
  8
0
100
AcDbLine
 10
1266.4316987344955
 20
515.852391263325
 30
0.0
 11
1261.466109731041
 21
514.8661599104007
 31
0.0
  0
LINE
  5
1B7
330
17
100
AcDbEntity
  8
0
100
AcDbLine
 10
1261.466109731041
 20
514.8661599104007
 30
0.0
 11
1256.8089237761797
 21
512.9495359356292
 31
0.0
  0
LINE
  5
1B8
330
17
100
AcDbEntity
  8
0
100
AcDbLine
 10
1256.8089237761797
 20
512.9495359356292
 30
0.0
 11
1252.5958228594586
 21
510.15835807008864
 31
0.0
  0
LINE
  5
1B9
330
17
100
AcDbEntity
  8
0
100
AcDbLine
 10
1252.5958228594586
 20
510.15835807008864
 30
0.0
 11
1250.725188579737
 21
508.41931120698507
 31
0.0
  0
LINE
  5
1BA
330
17
100
AcDbEntity
  8
0
100
AcDbLine
 10
1250.725188579737
 20
508.41931120698507
 30
0.0
 11
1248.9748492045355
 21
506.5607455355198
 31
0.0
  0
LINE
  5
1BB
330
17
100
AcDbEntity
  8
0
100
AcDbLine
 10
1248.9748492045355
 20
506.5607455355198
 30
0.0
 11
1246.1655468074005
 21
502.3748259150358
 31
0.0
  0
LINE
  5
1BC
330
17
100
AcDbEntity
  8
0
100
AcDbLine
 10
1246.1655468074005
 20
502.3748259150358
 30
0.0
 11
1244.236477222403
 21
497.74768632117343
 31
0.0
  0
LINE
  5
1BD
330
17
100
AcDbEntity
  8
0
100
AcDbLine
 10
1244.236477222403
 20
497.74768632117343
 30
0.0
 11
1243.2438417697845
 21
492.81413337580574
 31
0.0
  0
LINE
  5
1BE
330
17
100
AcDbEntity
  8
0
100
AcDbLine
 10
1243.2438417697845
 20
492.81413337580574
 30
0.0
 11
1243.1587804270562
 21
490.27023715653036
 31
0.0
  0
LINE
  5
1BF
330
17
100
AcDbEntity
  8
0
100
AcDbLine
 10
1243.1587804270562
 20
490.27023715653036
 30
0.0
 11
1243.2438417697845
 21
487.726340937255
 31
0.0
  0
LINE
  5
1C0
330
17
100
AcDbEntity
  8
0
100
AcDbLine
 10
1243.2438417697845
 20
487.726340937255
 30
0.0
 11
1244.236477222403
 21
482.7927879918873
 31
0.0
  0
LINE
  5
1C1
330
17
100
AcDbEntity
  8
0
100
AcDbLine
 10
1244.236477222403
 20
482.7927879918873
 30
0.0
 11
1246.1655468074005
 21
478.1656483980249
 31
0.0
  0
LINE
  5
1C2
330
17
100
AcDbEntity
  8
0
100
AcDbLine
 10
1246.1655468074005
 20
478.1656483980249
 30
0.0
 11
1248.9748492045355
 21
473.9797287775409
 31
0.0
  0
LINE
  5
1C3
330
17
100
AcDbEntity
  8
0
100
AcDbLine
 10
1248.9748492045355
 20
473.9797287775409
 30
0.0
 11
1250.725188579737
 21
472.12116310607564
 31
0.0
  0
LINE
  5
1C4
330
17
100
AcDbEntity
  8
0
100
AcDbLine
 10
1250.725188579737
 20
472.12116310607564
 30
0.0
 11
1252.5958228594586
 21
470.3821162429721
 31
0.0
  0
LINE
  5
1C5
330
17
100
AcDbEntity
  8
0
100
AcDbLine
 10
1252.5958228594586
 20
470.3821162429721
 30
0.0
 11
1256.8089237761797
 21
467.59093837743137
 31
0.0
  0
LINE
  5
1C6
330
17
100
AcDbEntity
  8
0
100
AcDbLine
 10
1256.8089237761797
 20
467.59093837743137
 30
0.0
 11
1261.466109731041
 21
465.67431440266
 31
0.0
  0
LINE
  5
1C7
330
17
100
AcDbEntity
  8
0
100
AcDbLine
 10
1261.466109731041
 20
465.67431440266
 30
0.0
 11
1266.4316987344955
 21
464.6880830497356
 31
0.0
  0
LINE
  5
1C8
330
17
100
AcDbEntity
  8
0
100
AcDbLine
 10
1266.4316987344955
 20
464.6880830497356
 30
0.0
 11
1268.9921137603894
 21
464.60357048986367
 31
0.0
  0
LINE
  5
1C9
330
17
100
AcDbEntity
  8
0
100
AcDbLine
 10
1367.6666666666667
 20
766.3333333333333
 30
0.0
 11
1367.6666666666667
 21
766.3333333333333
 31
0.0
  0
LINE
  5
1CA
330
17
100
AcDbEntity
  8
0
100
AcDbLine
 10
1367.6666666666667
 20
766.3333333333333
 30
0.0
 11
1370.2270816925607
 21
766.4178458932051
 31
0.0
  0
LINE
  5
1CB
330
17
100
AcDbEntity
  8
0
100
AcDbLine
 10
1370.2270816925607
 20
766.4178458932051
 30
0.0
 11
1375.1926706960153
 21
767.4040772461296
 31
0.0
  0
LINE
  5
1CC
330
17
100
AcDbEntity
  8
0
100
AcDbLine
 10
1375.1926706960153
 20
767.4040772461296
 30
0.0
 11
1379.8498566508765
 21
769.3207012209009
 31
0.0
  0
LINE
  5
1CD
330
17
100
AcDbEntity
  8
0
100
AcDbLine
 10
1379.8498566508765
 20
769.3207012209009
 30
0.0
 11
1384.0629575675976
 21
772.1118790864416
 31
0.0
  0
LINE
  5
1CE
330
17
100
AcDbEntity
  8
0
100
AcDbLine
 10
1384.0629575675976
 20
772.1118790864416
 30
0.0
 11
1385.9335918473191
 21
773.8509259495452
 31
0.0
  0
LINE
  5
1CF
330
17
100
AcDbEntity
  8
0
100
AcDbLine
 10
1385.9335918473191
 20
773.8509259495452
 30
0.0
 11
1387.6839312225206
 21
775.7094916210103
 31
0.0
  0
LINE
  5
1D0
330
17
100
AcDbEntity
  8
0
100
AcDbLine
 10
1387.6839312225206
 20
775.7094916210103
 30
0.0
 11
1390.4932336196557
 21
779.8954112414945
 31
0.0
  0
LINE
  5
1D1
330
17
100
AcDbEntity
  8
0
100
AcDbLine
 10
1390.4932336196557
 20
779.8954112414945
 30
0.0
 11
1392.4223032046532
 21
784.5225508353569
 31
0.0
  0
LINE
  5
1D2
330
17
100
AcDbEntity
  8
0
100
AcDbLine
 10
1392.4223032046532
 20
784.5225508353569
 30
0.0
 11
1393.4149386572717
 21
789.4561037807246
 31
0.0
  0
LINE
  5
1D3
330
17
100
AcDbEntity
  8
0
100
AcDbLine
 10
1393.4149386572717
 20
789.4561037807246
 30
0.0
 11
1393.5
 21
791.9999999999999
 31
0.0
  0
LINE
  5
1D4
330
17
100
AcDbEntity
  8
0
100
AcDbLine
 10
1393.5
 20
791.9999999999999
 30
0.0
 11
1393.4149386572717
 21
794.5438962192752
 31
0.0
  0
LINE
  5
1D5
330
17
100
AcDbEntity
  8
0
100
AcDbLine
 10
1393.4149386572717
 20
794.5438962192752
 30
0.0
 11
1392.4223032046532
 21
799.4774491646428
 31
0.0
  0
LINE
  5
1D6
330
17
100
AcDbEntity
  8
0
100
AcDbLine
 10
1392.4223032046532
 20
799.4774491646428
 30
0.0
 11
1390.4932336196557
 21
804.1045887585053
 31
0.0
  0
LINE
  5
1D7
330
17
100
AcDbEntity
  8
0
100
AcDbLine
 10
1390.4932336196557
 20
804.1045887585053
 30
0.0
 11
1387.6839312225206
 21
808.2905083789894
 31
0.0
  0
LINE
  5
1D8
330
17
100
AcDbEntity
  8
0
100
AcDbLine
 10
1387.6839312225206
 20
808.2905083789894
 30
0.0
 11
1385.9335918473191
 21
810.1490740504546
 31
0.0
  0
LINE
  5
1D9
330
17
100
AcDbEntity
  8
0
100
AcDbLine
 10
1385.9335918473191
 20
810.1490740504546
 30
0.0
 11
1384.0629575675976
 21
811.8881209135582
 31
0.0
  0
LINE
  5
1DA
330
17
100
AcDbEntity
  8
0
100
AcDbLine
 10
1384.0629575675976
 20
811.8881209135582
 30
0.0
 11
1379.8498566508765
 21
814.6792987790989
 31
0.0
  0
LINE
  5
1DB
330
17
100
AcDbEntity
  8
0
100
AcDbLine
 10
1379.8498566508765
 20
814.6792987790989
 30
0.0
 11
1375.1926706960153
 21
816.5959227538701
 31
0.0
  0
LINE
  5
1DC
330
17
100
AcDbEntity
  8
0
100
AcDbLine
 10
1375.1926706960153
 20
816.5959227538701
 30
0.0
 11
1370.2270816925607
 21
817.5821541067946
 31
0.0
  0
LINE
  5
1DD
330
17
100
AcDbEntity
  8
0
100
AcDbLine
 10
1370.2270816925607
 20
817.5821541067946
 30
0.0
 11
1367.6666666666667
 21
817.6666666666665
 31
0.0
  0
LINE
  5
1DE
330
17
100
AcDbEntity
  8
0
100
AcDbLine
 10
1367.6666666666667
 20
817.6666666666665
 30
0.0
 11
1365.1062516407728
 21
817.5821541067946
 31
0.0
  0
LINE
  5
1DF
330
17
100
AcDbEntity
  8
0
100
AcDbLine
 10
1365.1062516407728
 20
817.5821541067946
 30
0.0
 11
1360.1406626373182
 21
816.5959227538701
 31
0.0
  0
LINE
  5
1E0
330
17
100
AcDbEntity
  8
0
100
AcDbLine
 10
1360.1406626373182
 20
816.5959227538701
 30
0.0
 11
1355.483476682457
 21
814.6792987790989
 31
0.0
  0
LINE
  5
1E1
330
17
100
AcDbEntity
  8
0
100
AcDbLine
 10
1355.483476682457
 20
814.6792987790989
 30
0.0
 11
1351.270375765736
 21
811.8881209135582
 31
0.0
  0
LINE
  5
1E2
330
17
100
AcDbEntity
  8
0
100
AcDbLine
 10
1351.270375765736
 20
811.8881209135582
 30
0.0
 11
1349.3997414860144
 21
810.1490740504546
 31
0.0
  0
LINE
  5
1E3
330
17
100
AcDbEntity
  8
0
100
AcDbLine
 10
1349.3997414860144
 20
810.1490740504546
 30
0.0
 11
1347.6494021108128
 21
808.2905083789894
 31
0.0
  0
LINE
  5
1E4
330
17
100
AcDbEntity
  8
0
100
AcDbLine
 10
1347.6494021108128
 20
808.2905083789894
 30
0.0
 11
1344.8400997136778
 21
804.1045887585053
 31
0.0
  0
LINE
  5
1E5
330
17
100
AcDbEntity
  8
0
100
AcDbLine
 10
1344.8400997136778
 20
804.1045887585053
 30
0.0
 11
1342.9110301286803
 21
799.4774491646428
 31
0.0
  0
LINE
  5
1E6
330
17
100
AcDbEntity
  8
0
100
AcDbLine
 10
1342.9110301286803
 20
799.4774491646428
 30
0.0
 11
1341.9183946760618
 21
794.5438962192752
 31
0.0
  0
LINE
  5
1E7
330
17
100
AcDbEntity
  8
0
100
AcDbLine
 10
1341.9183946760618
 20
794.5438962192752
 30
0.0
 11
1341.8333333333335
 21
791.9999999999999
 31
0.0
  0
LINE
  5
1E8
330
17
100
AcDbEntity
  8
0
100
AcDbLine
 10
1341.8333333333335
 20
791.9999999999999
 30
0.0
 11
1341.9183946760618
 21
789.4561037807246
 31
0.0
  0
LINE
  5
1E9
330
17
100
AcDbEntity
  8
0
100
AcDbLine
 10
1341.9183946760618
 20
789.4561037807246
 30
0.0
 11
1342.9110301286803
 21
784.5225508353569
 31
0.0
  0
LINE
  5
1EA
330
17
100
AcDbEntity
  8
0
100
AcDbLine
 10
1342.9110301286803
 20
784.5225508353569
 30
0.0
 11
1344.8400997136778
 21
779.8954112414945
 31
0.0
  0
LINE
  5
1EB
330
17
100
AcDbEntity
  8
0
100
AcDbLine
 10
1344.8400997136778
 20
779.8954112414945
 30
0.0
 11
1347.6494021108128
 21
775.7094916210103
 31
0.0
  0
LINE
  5
1EC
330
17
100
AcDbEntity
  8
0
100
AcDbLine
 10
1347.6494021108128
 20
775.7094916210103
 30
0.0
 11
1349.3997414860144
 21
773.8509259495452
 31
0.0
  0
LINE
  5
1ED
330
17
100
AcDbEntity
  8
0
100
AcDbLine
 10
1349.3997414860144
 20
773.8509259495452
 30
0.0
 11
1351.270375765736
 21
772.1118790864416
 31
0.0
  0
LINE
  5
1EE
330
17
100
AcDbEntity
  8
0
100
AcDbLine
 10
1351.270375765736
 20
772.1118790864416
 30
0.0
 11
1355.483476682457
 21
769.3207012209009
 31
0.0
  0
LINE
  5
1EF
330
17
100
AcDbEntity
  8
0
100
AcDbLine
 10
1355.483476682457
 20
769.3207012209009
 30
0.0
 11
1360.1406626373182
 21
767.4040772461296
 31
0.0
  0
LINE
  5
1F0
330
17
100
AcDbEntity
  8
0
100
AcDbLine
 10
1360.1406626373182
 20
767.4040772461296
 30
0.0
 11
1365.1062516407728
 21
766.4178458932051
 31
0.0
  0
LINE
  5
1F1
330
17
100
AcDbEntity
  8
0
100
AcDbLine
 10
1365.1062516407728
 20
766.4178458932051
 30
0.0
 11
1367.6666666666667
 21
766.3333333333333
 31
0.0
  0
ENDSEC
  0
SECTION
  2
OBJECTS
  0
DICTIONARY
  5
A
330
0
100
AcDbDictionary
280
0
281
1
  3
ACAD_COLOR
350
B
  3
ACAD_GROUP
350
C
  3
ACAD_LAYOUT
350
D
  3
ACAD_MATERIAL
350
E
  3
ACAD_MLEADERSTYLE
350
F
  3
ACAD_MLINESTYLE
350
10
  3
ACAD_PLOTSETTINGS
350
11
  3
ACAD_PLOTSTYLENAME
350
12
  3
ACAD_SCALELIST
350
14
  3
ACAD_TABLESTYLE
350
15
  3
ACAD_VISUALSTYLE
350
16
  3
EZDXF_META
350
2D
  0
DICTIONARY
  5
B
330
A
100
AcDbDictionary
280
0
281
1
  0
DICTIONARY
  5
C
330
A
100
AcDbDictionary
280
0
281
1
  0
DICTIONARY
  5
D
330
A
100
AcDbDictionary
280
0
281
1
  3
Model
350
1A
  3
Layout1
350
1E
  0
DICTIONARY
  5
E
330
A
100
AcDbDictionary
280
0
281
1
  3
ByBlock
350
1F
  3
ByLayer
350
20
  3
Global
350
21
  0
DICTIONARY
  5
F
330
A
100
AcDbDictionary
280
0
281
1
  3
Standard
350
2C
  0
DICTIONARY
  5
10
330
A
100
AcDbDictionary
280
0
281
1
  3
Standard
350
22
  0
DICTIONARY
  5
11
330
A
100
AcDbDictionary
280
0
281
1
  0
ACDBDICTIONARYWDFLT
  5
12
330
A
100
AcDbDictionary
280
0
281
1
  3
Normal
350
13
100
AcDbDictionaryWithDefault
340
13
  0
ACDBPLACEHOLDER
  5
13
330
12
  0
DICTIONARY
  5
14
330
A
100
AcDbDictionary
280
0
281
1
  0
DICTIONARY
  5
15
330
A
100
AcDbDictionary
280
0
281
1
  0
DICTIONARY
  5
16
330
A
100
AcDbDictionary
280
0
281
1
  0
LAYOUT
  5
1A
330
D
100
AcDbPlotSettings
  1

  2
Adobe PDF
  4
A3
  6

 40
7.5
 41
20.0
 42
7.5
 43
20.0
 44
420.0
 45
297.0
 46
0.0
 47
0.0
 48
0.0
 49
0.0
140
0.0
141
0.0
142
1.0
143
1.0
 70
1024
 72
1
 73
0
 74
5
  7

 75
16
 76
0
 77
2
 78
300
147
1.0
148
0.0
149
0.0
100
AcDbLayout
  1
Model
 70
1
 71
0
 10
0.0
 20
0.0
 11
420.0
 21
297.0
 12
0.0
 22
0.0
 32
0.0
 14
1e+20
 24
1e+20
 34
1e+20
 15
-1e+20
 25
-1e+20
 35
-1e+20
146
0.0
 13
0.0
 23
0.0
 33
0.0
 16
1.0
 26
0.0
 36
0.0
 17
0.0
 27
1.0
 37
0.0
 76
1
330
17
  0
LAYOUT
  5
1E
330
D
100
AcDbPlotSettings
  1

  2
Adobe PDF
  4
A3
  6

 40
7.5
 41
20.0
 42
7.5
 43
20.0
 44
420.0
 45
297.0
 46
0.0
 47
0.0
 48
0.0
 49
0.0
140
0.0
141
0.0
142
1.0
143
1.0
 70
0
 72
1
 73
0
 74
5
  7

 75
16
 76
0
 77
2
 78
300
147
1.0
148
0.0
149
0.0
100
AcDbLayout
  1
Layout1
 70
1
 71
1
 10
0.0
 20
0.0
 11
420.0
 21
297.0
 12
0.0
 22
0.0
 32
0.0
 14
1e+20
 24
1e+20
 34
1e+20
 15
-1e+20
 25
-1e+20
 35
-1e+20
146
0.0
 13
0.0
 23
0.0
 33
0.0
 16
1.0
 26
0.0
 36
0.0
 17
0.0
 27
1.0
 37
0.0
 76
1
330
1B
  0
MATERIAL
  5
1F
102
{ACAD_REACTORS
330
E
102
}
330
E
100
AcDbMaterial
  1
ByBlock
  2

 70
0
 40
1.0
 71
1
 41
1.0
 91
-1023410177
 42
1.0
 72
1
  3

 73
1
 74
1
 75
1
 44
0.5
 73
0
 45
1.0
 46
1.0
 77
1
  4

 78
1
 79
1
170
1
 48
1.0
171
1
  6

172
1
173
1
174
1
140
1.0
141
1.0
175
1
  7

176
1
177
1
178
1
143
1.0
179
1
  8

270
1
271
1
272
1
145
1.0
146
1.0
273
1
  9

274
1
275
1
276
1
 42
1.0
 72
1
  3

 73
1
 74
1
 75
1
 94
63
  0
MATERIAL
  5
20
102
{ACAD_REACTORS
330
E
102
}
330
E
100
AcDbMaterial
  1
ByLayer
  2

 70
0
 40
1.0
 71
1
 41
1.0
 91
-1023410177
 42
1.0
 72
1
  3

 73
1
 74
1
 75
1
 44
0.5
 73
0
 45
1.0
 46
1.0
 77
1
  4

 78
1
 79
1
170
1
 48
1.0
171
1
  6

172
1
173
1
174
1
140
1.0
141
1.0
175
1
  7

176
1
177
1
178
1
143
1.0
179
1
  8

270
1
271
1
272
1
145
1.0
146
1.0
273
1
  9

274
1
275
1
276
1
 42
1.0
 72
1
  3

 73
1
 74
1
 75
1
 94
63
  0
MATERIAL
  5
21
102
{ACAD_REACTORS
330
E
102
}
330
E
100
AcDbMaterial
  1
Global
  2

 70
0
 40
1.0
 71
1
 41
1.0
 91
-1023410177
 42
1.0
 72
1
  3

 73
1
 74
1
 75
1
 44
0.5
 73
0
 45
1.0
 46
1.0
 77
1
  4

 78
1
 79
1
170
1
 48
1.0
171
1
  6

172
1
173
1
174
1
140
1.0
141
1.0
175
1
  7

176
1
177
1
178
1
143
1.0
179
1
  8

270
1
271
1
272
1
145
1.0
146
1.0
273
1
  9

274
1
275
1
276
1
 42
1.0
 72
1
  3

 73
1
 74
1
 75
1
 94
63
  0
MLINESTYLE
  5
22
102
{ACAD_REACTORS
330
10
102
}
330
10
100
AcDbMlineStyle
  2
Standard
 70
0
  3

 62
256
 51
90.0
 52
90.0
 71
2
 49
0.5
 62
256
  6
BYLAYER
 49
-0.5
 62
256
  6
BYLAYER
  0
MLEADERSTYLE
  5
2C
102
{ACAD_REACTORS
330
F
102
}
330
F
100
AcDbMLeaderStyle
179
2
170
2
171
1
172
0
 90
2
 40
0.0
 41
0.0
173
1
 91
-1056964608
 92
-2
290
1
 42
2.0
291
1
 43
8.0
  3
Standard
 44
4.0
300

342
29
174
1
175
1
176
0
178
1
 93
-1056964608
 45
4.0
292
0
297
0
 46
4.0
 94
-1056964608
 47
1.0
 49
1.0
140
1.0
294
1
141
0.0
177
0
142
1.0
295
0
296
0
143
3.75
271
0
272
9
273
9
  0
DICTIONARY
  5
2D
330
A
100
AcDbDictionary
281
1
  3
CREATED_BY_EZDXF
350
2E
  3
WRITTEN_BY_EZDXF
350
1F4
  0
DICTIONARYVAR
  5
2E
330
2D
100
DictionaryVariables
280
0
  1
1.0.3 @ 2023-05-13T13:09:02.465917+00:00
  0
DICTIONARYVAR
  5
1F4
330
2D
100
DictionaryVariables
280
0
  1
1.0.3 @ 2023-05-13T13:09:02.469761+00:00
  0
ENDSEC
  0
EOF
